<?xml version="1.0" standalone="no"?>
<!DOCTYPE svg PUBLIC "-//W3C//DTD SVG 1.1//EN" "http://www.w3.org/Graphics/SVG/1.1/DTD/svg11.dtd" >
<svg xmlns="http://www.w3.org/2000/svg" xmlns:xlink="http://www.w3.org/1999/xlink" version="1.1">
<metadata></metadata>
<defs>
<font id="julius_sans_oneregular" horiz-adv-x="1808" >
<font-face units-per-em="2048" ascent="1638" descent="-410" />
<missing-glyph horiz-adv-x="737" />
<glyph horiz-adv-x="0" />
<glyph unicode="&#xd;" horiz-adv-x="681" />
<glyph unicode=" "  horiz-adv-x="737" />
<glyph unicode="&#x09;" horiz-adv-x="737" />
<glyph unicode="&#xa0;" horiz-adv-x="737" />
<glyph unicode="!" horiz-adv-x="581" d="M225 41q0 29 18.5 47t47 18t47 -18t18.5 -47t-18.5 -47.5t-47 -18.5t-47 18.5t-18.5 47.5zM244 1331h94l-10 -1024h-74z" />
<glyph unicode="&#x22;" horiz-adv-x="464" d="M74 1464h92l-16 -303h-60zM299 1464h92l-16 -303h-60z" />
<glyph unicode="#" horiz-adv-x="1323" d="M70 446v76h239l80 455h-225v76h237l76 424l88 -13l-73 -411h446l76 424l88 -13l-74 -411h225v-76h-237l-80 -455h225v-76h-239l-82 -469l-88 11l79 458h-446l-82 -469l-88 11l80 458h-225zM399 522h447l80 455h-447z" />
<glyph unicode="$" horiz-adv-x="1120" d="M117 88l49 74q115 -76 276 -94l68 675q-150 107 -230.5 203t-80.5 234.5t107.5 223.5t271.5 85h4l22 219h82l-22 -223q156 -16 274 -70l-35 -80q-106 45 -248 60l-57 -584q186 -129 248 -193q117 -123 117 -266q0 -186 -125 -281.5t-324 -95.5l-18 -198h-82l20 203 q-197 20 -317 108zM307 1184.5q0 -99.5 56.5 -173t158.5 -147.5l51 535q-122 -2 -194 -58.5t-72 -156zM524 66q148 2 239 72.5t91 186t-68.5 192.5t-199.5 171z" />
<glyph unicode="%" horiz-adv-x="1536" d="M143 1128.5q0 167.5 79 264t204 96.5t203 -96.5t78 -264t-82 -269t-200 -101.5t-200 101.5t-82 269zM227 1128.5q0 -137.5 57.5 -215t142.5 -77.5t140.5 77.5t55.5 215t-55.5 214t-140.5 76.5t-142.5 -76.5t-57.5 -214zM266 -2l936 1501l72 -43l-934 -1499zM829 346 q0 168 79 264.5t204 96.5t203 -96.5t78 -264.5t-82 -269.5t-200 -101.5t-200 101.5t-82 269.5zM913 346q0 -137 57.5 -215t142.5 -78t140.5 78t55.5 215t-55.5 214t-140.5 77t-142.5 -77t-57.5 -214z" />
<glyph unicode="&#x26;" horiz-adv-x="1349" d="M164 292.5q0 149.5 88 253t248 212.5q-244 262 -244 403.5t92 222t268.5 80.5t264.5 -83t88 -198.5t-88 -218t-244 -223.5l424 -452q35 41 59.5 124.5t24.5 149.5h80q-4 -190 -109 -334l213 -229h-123l-149 162q-98 -86 -225 -135.5t-246 -49.5q-199 0 -310.5 83 t-111.5 232.5zM258 322q0 -125 88 -195t252 -70q207 0 399 166l-436 467q-303 -184 -303 -368zM348 1165q0 -57 36 -123.5t77 -112.5t114 -120q302 198 302 356q0 102 -67 159.5t-187 57.5q-274 0 -275 -217z" />
<glyph unicode="'" horiz-adv-x="239" d="M74 1464h92l-16 -303h-60z" />
<glyph unicode="(" horiz-adv-x="657" d="M184 547q0 303 106.5 540.5t272.5 372.5l53 -57q-139 -131 -232 -361.5t-93 -494.5t93 -494.5t232 -361.5l-53 -58q-166 135 -272.5 373t-106.5 541z" />
<glyph unicode=")" horiz-adv-x="657" d="M41 -309q139 131 232.5 361.5t93.5 494.5t-93.5 494.5t-232.5 361.5l53 57q166 -135 272.5 -372.5t106.5 -540.5t-106.5 -540.5t-272.5 -373.5z" />
<glyph unicode="*" horiz-adv-x="884" d="M143 1268l45 78l209 -123v241h90v-243l209 122l45 -75l-211 -123l209 -121l-45 -78l-207 121v-240h-90v240l-207 -121l-45 78l209 121z" />
<glyph unicode="+" horiz-adv-x="1011" d="M143 664v81h322v322h82v-322h321v-81h-321v-322h-82v322h-322z" />
<glyph unicode="," horiz-adv-x="231" d="M37 -150l24 125v134h109v-101l-86 -158h-47z" />
<glyph unicode="-" horiz-adv-x="1011" d="M143 664v81h725v-81h-725z" />
<glyph unicode="." horiz-adv-x="231" d="M61 0v109h109v-109h-109z" />
<glyph unicode="/" horiz-adv-x="757" d="M20 4l637 1479l80 -31l-637 -1479z" />
<glyph unicode="0" horiz-adv-x="1341" d="M164 736.5q0 353.5 134 553t373.5 199.5t373 -199.5t133.5 -553t-139.5 -557.5t-367 -204t-367.5 204t-140 557.5zM270 733.5q0 -317.5 106.5 -492.5t296 -175t294 175t104.5 492.5t-104.5 491.5t-294 174t-296 -174t-106.5 -491.5z" />
<glyph unicode="1" horiz-adv-x="651" d="M16 1280l303 184h62v-1464h-98v1339l-232 -122z" />
<glyph unicode="2" horiz-adv-x="1269" d="M143 0v80q360 301 573.5 565t213.5 442.5t-85 245t-257 66.5t-352 -64l-25 82q201 72 392.5 72t312 -92t120.5 -296t-200.5 -466t-538.5 -551h817v-84h-971z" />
<glyph unicode="3" horiz-adv-x="1200" d="M111 55l32 76q139 -72 336 -72t313.5 107.5t116.5 275.5q0 109 -79.5 189t-184 114.5t-205.5 34.5h-12v70q150 8 276.5 117.5t126.5 230.5q0 90 -76.5 146.5t-226 56.5t-325.5 -62l-23 76q201 76 372 76t277.5 -81t106.5 -202t-79 -219t-189 -158q152 -41 250 -138 t98 -251q0 -203 -151.5 -338t-366.5 -135t-387 86z" />
<glyph unicode="4" horiz-adv-x="1122" d="M70 471v76l712 930h70v-916h233v-90h-233v-471h-98v471h-684zM180 561h574v744z" />
<glyph unicode="5" horiz-adv-x="1148" d="M131 43l33 80q143 -57 272 -57t210 36.5t124 98.5q84 117 84 260q0 420 -616 516l41 487h655v-82h-567l-25 -327q618 -131 619 -594q0 -190 -130.5 -338t-373.5 -148q-190 0 -326 68z" />
<glyph unicode="6" horiz-adv-x="1236" d="M164 545q0 152 43 290t102.5 233t152.5 188.5t161.5 145.5t160.5 114l43 -66q-106 -70 -188 -140.5t-174 -183.5q-195 -235 -195 -581q0 -252 102.5 -365.5t259 -113.5t257 110.5t100.5 264t-84 250.5t-224 97t-292 -73l-27 63q176 92 353.5 92t278 -119.5t100.5 -307 t-133.5 -328t-323.5 -140.5q-193 0 -324 119q-150 133 -149 451z" />
<glyph unicode="7" horiz-adv-x="1042" d="M143 1374v90h832v-69l-588 -1395h-108l581 1374h-717z" />
<glyph unicode="8" horiz-adv-x="1187" d="M152 337q0 167 91 267.5t255 196.5q-123 76 -190.5 156.5t-67.5 189.5q0 151 105.5 246.5t275.5 95.5t261 -93t91 -218t-74 -207t-213 -164q164 -96 257 -194.5t93 -231.5q0 -172 -121.5 -289t-313 -117t-320.5 97.5t-129 264.5zM258 352q0 -143 95.5 -214.5t248 -71.5 t240.5 88t88 227q0 113 -119 211q-102 86 -227 158q-244 -139 -301 -269q-25 -59 -25 -129zM338 1161.5q0 -102.5 65.5 -166t194.5 -137.5q137 78 206.5 146.5t69.5 166t-64.5 163t-192.5 65.5t-203.5 -67.5t-75.5 -170z" />
<glyph unicode="9" horiz-adv-x="1236" d="M143 1019.5q0 188.5 133.5 329t323.5 140.5q193 0 324 -117q150 -135 149 -452q0 -152 -43 -290t-102.5 -233.5t-152.5 -188.5t-161.5 -145.5t-160.5 -113.5l-43 65q106 70 188 140.5t174 181.5q195 238 195 584q0 252 -102.5 365.5t-259 113.5t-257 -110.5 t-100.5 -264.5t84 -255t224 -101t292 73l26 -63q-176 -92 -353 -92t-277.5 122.5t-100.5 311z" />
<glyph unicode=":" horiz-adv-x="436" d="M164 270v109h108v-109h-108zM164 911v109h108v-109h-108z" />
<glyph unicode=";" horiz-adv-x="436" d="M139 121l25 125v133h108v-100l-86 -158h-47zM164 911v109h108v-109h-108z" />
<glyph unicode="&#x3c;" horiz-adv-x="839" d="M61 678l609 422l39 -56l-533 -366l533 -367l-39 -55z" />
<glyph unicode="=" horiz-adv-x="1112" d="M143 477v82h826v-82h-826zM143 895v82h826v-82h-826z" />
<glyph unicode="&#x3e;" horiz-adv-x="839" d="M131 311l533 367l-533 366l39 56l608 -422l-608 -422z" />
<glyph unicode="?" horiz-adv-x="970" d="M102 1376q61 49 159.5 79t199.5 30q180 0 293.5 -87t113.5 -257q0 -158 -155 -314q-66 -66 -131.5 -132t-111.5 -158.5t-46 -196.5h-78q0 119 44 218t107.5 167t125.5 131q152 150 151.5 283t-87.5 199.5t-250 66.5t-298 -90zM322 41q0 29 19 47t46 18t46.5 -18t19.5 -47 t-19.5 -47.5t-46.5 -18.5t-46 18.5t-19 47.5z" />
<glyph unicode="@" horiz-adv-x="1865" d="M184 641q0 348 250 602t586 254q283 0 472 -196.5t189 -479.5q0 -227 -82.5 -363t-228.5 -136q-90 0 -133 53t-72 149l-39 135h-426l-170 -321h-77l503 938h54l221 -719q27 -82 47 -117q33 -59 104 -59q111 0 170.5 116.5t59.5 315.5q0 262 -171 440.5t-433 178.5 q-199 0 -373 -109t-277.5 -291t-103.5 -389q0 -260 168 -433t423 -173t443 98l23 -51q-193 -111 -477.5 -111t-467 188.5t-182.5 479.5zM733 719h375l-133 459z" />
<glyph unicode="A" horiz-adv-x="1357" d="M33 0l616 1475h58l618 -1475h-111l-210 508h-656l-211 -508h-104zM383 592h586l-226 543q-71 156 -71 176q-2 -2 -8 -25q-29 -88 -56 -149z" />
<glyph unicode="B" horiz-adv-x="1288" d="M270 4v1456q160 12 327 12q1 0 2 1q166 0 287 -82q122 -82 122 -238q0 -117 -64.5 -217t-155.5 -152q145 -45 243.5 -155.5t98.5 -247.5q0 -193 -121.5 -293t-333.5 -100t-405 16zM369 86q90 -10 317 -10q150 0 246 83t96 212t-93 223t-255 129q-76 16 -175 16h-136v-653 zM369 823h100.5t216.5 -12q92 49 157.5 141t65.5 204t-93 173.5t-208.5 61.5t-238.5 -9v-559z" />
<glyph unicode="C" horiz-adv-x="1525" d="M184 732.5q0 320.5 201 538.5t514 218q246 0 498 -82l-27 -82q-246 74 -471 74q-268 0 -438 -192.5t-170 -471t197.5 -474t474.5 -195.5q242 0 417 73l31 -69q-78 -45 -203.5 -70t-244.5 -25q-319 0 -549 218.5t-230 539z" />
<glyph unicode="D" horiz-adv-x="1669" d="M270 4v1460q209 15 422 15q338 0 565.5 -210t227.5 -571q0 -182 -58.5 -322t-160.5 -224q-211 -170 -527 -170q-207 0 -469 22zM369 88q132 -16 370 -16q289 0 464 156.5t175 472t-197.5 502t-488.5 186.5q-186 0 -323 -11v-1290z" />
<glyph unicode="E" horiz-adv-x="1095" d="M270 0v1464h680v-86h-581v-538h526v-84h-526v-670h604v-86h-703z" />
<glyph unicode="F" horiz-adv-x="1132" d="M270 0v1464h748v-86h-649v-538h594v-84h-594v-756h-99z" />
<glyph unicode="G" horiz-adv-x="1683" d="M184 734.5q0 318.5 201 536.5t514 218q246 0 498 -82l-27 -82q-246 74 -471 74q-268 0 -438 -192.5t-170 -472t192.5 -474t468.5 -194.5q238 0 396 65v602h98v-647q-178 -111 -498.5 -111t-542 220.5t-221.5 539z" />
<glyph unicode="H" horiz-adv-x="1742" d="M270 0v1464h99v-643h1005v643h99v-1464h-99v733h-1005v-733h-99z" />
<glyph unicode="I" horiz-adv-x="638" d="M270 0v1464h99v-1464h-99z" />
<glyph unicode="J" horiz-adv-x="638" d="M-51 -403q321 235 321 567v1300h99v-1235q0 -274 -115 -438q-57 -84 -116.5 -140.5t-145.5 -117.5z" />
<glyph unicode="K" horiz-adv-x="1269" d="M270 0v1464h99v-1464h-99zM408 752l628 712h115l-623 -708q125 -150 288 -334t211 -227t75.5 -64.5t85 -47.5t123.5 -34l-2 -65q-123 2 -203 37.5t-139.5 94t-259 287t-299.5 349.5z" />
<glyph unicode="L" horiz-adv-x="1087" d="M270 0v1464h99v-1374h673v-90h-772z" />
<glyph unicode="M" horiz-adv-x="1925" d="M131 0l242 1477h57l457 -1086q35 -76 55 -143q6 23 64 141l510 1088h55l223 -1477h-102l-160 1112q-16 104 -16 158q-2 -2 -9.5 -19.5t-25 -57.5t-35.5 -83l-483 -1034h-56l-428 1036q-37 86 -59 152l-21 -156l-168 -1108h-100z" />
<glyph unicode="N" horiz-adv-x="1792" d="M270 0v1477h45l965 -1112q98 -117 152 -187q-8 98 -9 225v1061h99v-1476h-45l-983 1132q-102 117 -132 156l3 -45l4 -174v-1057h-99z" />
<glyph unicode="O" d="M184 733.5q0 319.5 204 537.5t515 218t516 -218t205 -537.5t-205 -539t-516 -219.5t-515 219.5t-204 539zM291 733.5q0 -282.5 171 -475t442.5 -192.5t442.5 192.5t171 475t-171 474t-443.5 191.5t-442.5 -191.5t-170 -474z" />
<glyph unicode="P" horiz-adv-x="1189" d="M270 0v1456q170 16 330 17q215 0 345 -100.5t130 -302.5t-177 -332t-423 -130h-22v68h14q203 0 352.5 106.5t149.5 277.5t-104.5 247.5t-280.5 76.5q-92 0 -215 -8v-1376h-99z" />
<glyph unicode="Q" d="M184 733.5q0 319.5 204 537.5t515 218t516 -218t205 -538q0 -188 -77 -349t-212 -265q420 -254 647 -332q270 -92 488 -92q125 0 284.5 32.5t229.5 67.5l25 -57q-80 -41 -245 -80t-294 -39t-273.5 32t-248 66.5t-257 110.5t-220 114t-216.5 124q-162 -90 -352 -91 q-311 0 -515 219.5t-204 539zM291 733.5q0 -282.5 171 -475t441 -192.5q147 0 266 59q-256 174 -403 174q-92 0 -150 -33l-32 60q76 51 186.5 51t222 -53.5t256.5 -151.5q127 90 198 237.5t71 323.5q0 283 -171 474.5t-443.5 191.5t-442.5 -191.5t-170 -474z" />
<glyph unicode="R" horiz-adv-x="1347" d="M270 0v1458q195 14 326 15q209 0 344 -108t135 -304q0 -133 -77.5 -248t-174.5 -182q76 -104 187.5 -248.5t144.5 -181.5q125 -133 283 -152l-2 -65q-125 2 -203 37.5t-148.5 109.5t-351.5 459q-201 0 -364 12v-602h-99zM369 682q164 -10 305 -10q90 0 192.5 118.5 t102.5 275.5t-105.5 237.5t-279.5 80.5q-92 0 -215 -8v-694z" />
<glyph unicode="S" horiz-adv-x="1120" d="M117 88l49 74q147 -96 323.5 -96t270.5 70.5t94 203.5q0 92 -67.5 175t-164 149.5t-192.5 136t-163.5 166t-67.5 207.5q0 145 107.5 230t290.5 85t341 -74l-35 -80q-150 63 -297 64q-299 0 -299 -221q0 -96 67.5 -179.5t164 -148t192.5 -132t164 -161.5t68 -205 q0 -186 -125 -281.5t-345.5 -95.5t-375.5 113z" />
<glyph unicode="T" horiz-adv-x="1179" d="M45 1378v86h1090v-86h-496v-1378h-98v1378h-496z" />
<glyph unicode="U" horiz-adv-x="1652" d="M254 602v862h98v-862q0 -541 474 -541t474 541v862h99v-862q0 -293 -141.5 -460t-430 -167t-431 168t-142.5 459z" />
<glyph unicode="V" horiz-adv-x="1386" d="M33 1464h110l492 -1163q51 -125 63 -172q17 66 60 168l491 1167h105l-631 -1476h-57z" />
<glyph unicode="W" horiz-adv-x="2129" d="M33 1464h108l375 -1102q27 -74 44.5 -133t19.5 -65q10 47 69 190l424 1082h60l370 -1090q43 -129 58 -186q16 68 57 184l377 1120h102l-510 -1476h-57l-379 1085q-8 27 -17.5 53.5t-15.5 47t-12 34.5l-8 25q-2 10 -2 12q-25 -74 -64 -170l-428 -1087h-57z" />
<glyph unicode="X" horiz-adv-x="1196" d="M53 0l500 758l-444 706h120l394 -643l409 643h109l-471 -719l473 -745h-119l-422 680l-440 -680h-109z" />
<glyph unicode="Y" horiz-adv-x="1267" d="M33 1464h119l426 -741q37 -66 61 -115q8 27 57 111l426 745h113l-553 -944v-520h-98v524z" />
<glyph unicode="Z" horiz-adv-x="1292" d="M135 0v47l862 1331h-809v86h953v-45l-862 -1333h878v-86h-1022z" />
<glyph unicode="[" horiz-adv-x="704" d="M270 -244v1708h402v-90h-303v-1528h303v-90h-402z" />
<glyph unicode="\" horiz-adv-x="757" d="M20 1452l80 31l637 -1479l-80 -31z" />
<glyph unicode="]" horiz-adv-x="704" d="M33 -154h303v1528h-303v90h401v-1708h-401v90z" />
<glyph unicode="^" horiz-adv-x="741" d="M123 897l248 416l247 -416l-45 -33l-202 283l-203 -283z" />
<glyph unicode="_" horiz-adv-x="966" d="M0 -76h967v-90h-967v90z" />
<glyph unicode="`" horiz-adv-x="552" d="M82 1270l117 47l272 -191l-72 -20z" />
<glyph unicode="a" horiz-adv-x="1222" d="M25 0l557 1337h55l561 -1337h-104l-193 461h-590l-190 -461h-96zM344 541h524l-202 489q-48 115 -62 156q-31 -92 -55 -154z" />
<glyph unicode="b" horiz-adv-x="1171" d="M244 4v1319q145 12 298.5 12t263 -73.5t109.5 -214.5q0 -106 -57 -196.5t-139 -137.5q133 -39 221 -139.5t88 -227.5q0 -176 -111.5 -266t-314.5 -90t-358 14zM338 82q88 -8 285 -8q133 0 220 74.5t87 188.5t-87 199t-227 119q-71 17 -186 17l-92 -2v-588zM338 750 q178 0 285 -11q80 43 140 126t60 183.5t-84 154.5t-200.5 54t-200.5 -6v-501z" />
<glyph unicode="c" horiz-adv-x="1370" d="M164 664.5q0 291.5 181 488.5t468 197q231 0 453 -72l-25 -78q-213 66 -440.5 66t-382 -173t-154.5 -424t179.5 -427t415 -176t390.5 65l31 -65q-154 -86 -427 -86t-481 196.5t-208 488z" />
<glyph unicode="d" horiz-adv-x="1513" d="M246 4v1325q164 12 385 12q307 0 513 -189t206 -515t-189.5 -489.5t-488.5 -163.5q-207 0 -426 20zM344 84q123 -14 328 -14q262 0 420.5 141t158.5 426t-179 452.5t-441 167.5q-186 0 -287 -8v-1165z" />
<glyph unicode="e" horiz-adv-x="1017" d="M246 0v1329h620v-82h-526v-483h475v-80h-475v-598h547v-86h-641z" />
<glyph unicode="f" horiz-adv-x="1046" d="M246 0v1329h682v-82h-588v-483h537v-80h-537v-684h-94z" />
<glyph unicode="g" horiz-adv-x="1511" d="M164 666.5q0 289.5 181 486.5t468 197q231 0 453 -72l-25 -78q-213 66 -440.5 66t-382 -173t-154.5 -425t174 -427t410.5 -175t368.5 55v547h94v-590q-160 -98 -453 -98t-493.5 198.5t-200.5 488z" />
<glyph unicode="h" horiz-adv-x="1603" d="M246 0v1329h94v-573h924v573h94v-1329h-94v672h-924v-672h-94z" />
<glyph unicode="i" horiz-adv-x="585" d="M246 0v1329h94v-1329h-94z" />
<glyph unicode="j" horiz-adv-x="583" d="M-49 -362q295 215 295 514v1177h92v-1118q0 -166 -51 -293t-119 -196.5t-174 -145.5z" />
<glyph unicode="k" horiz-adv-x="1159" d="M246 0v1329h94v-1329h-94zM369 684l571 645h113l-568 -641q336 -408 460 -516.5t247 -122.5l-2 -63q-115 2 -186.5 33.5t-127 85t-236.5 261t-271 318.5z" />
<glyph unicode="l" horiz-adv-x="983" d="M246 0v1329h94v-1243h610v-86h-704z" />
<glyph unicode="m" horiz-adv-x="1722" d="M106 0l218 1337h55l414 -981q49 -123 49 -129q14 43 55 127l461 983h55l203 -1337h-98l-146 1010q-14 100 -14 133l-60 -135l-436 -938h-55l-387 940q-25 55 -49 129q0 -2 -3 -22.5t-7.5 -54.5t-8.5 -56l-153 -1006h-93z" />
<glyph unicode="n" horiz-adv-x="1628" d="M246 0v1337h45l872 -1003q47 -53 87 -105.5t42 -54.5q-4 49 -4 193v962h94v-1337h-45l-888 1020l-113 137q4 -41 4 -193v-956h-94z" />
<glyph unicode="o" horiz-adv-x="1667" d="M164 664.5q0 287.5 192.5 486.5t477 199t477 -199t192.5 -486.5t-192.5 -486t-477 -198.5t-477 198.5t-192.5 486zM262 665q0 -253 163 -426t409.5 -173t408.5 173t162 426t-162 427t-408.5 174t-409.5 -174t-163 -427z" />
<glyph unicode="p" horiz-adv-x="1081" d="M246 0v1321q154 16 324.5 16t289.5 -91t119 -275.5t-162 -302t-383 -117.5h-22v65h14q182 0 317.5 96.5t135.5 250t-95.5 223t-251.5 69.5q-82 0 -192 -8v-1247h-94z" />
<glyph unicode="q" horiz-adv-x="1665" d="M164 664.5q0 287.5 192.5 486.5t477 199t476 -199t191.5 -485q0 -170 -71.5 -315.5t-196.5 -239.5q487 -289 749 -349q133 -33 256 -33q2 0 4 1q125 0 269.5 28.5t206.5 59.5l22 -54q-78 -37 -226.5 -72.5t-278.5 -35.5t-277.5 34t-307 107.5t-246.5 119.5t-251 142 q-145 -79 -315 -79h-4q-285 0 -477.5 198.5t-192.5 486zM262 665q0 -253 162 -426t410 -173q129 0 233 49q-230 155 -358 155h-2q-74 0 -136 -28l-30 57q70 45 155.5 45t167.5 -30.5t138.5 -63.5t146.5 -92q119 80 187.5 214t68.5 294q0 252 -163 426t-409.5 174 t-408.5 -174t-162 -427z" />
<glyph unicode="r" horiz-adv-x="1245" d="M246 0v1323q176 14 299 14q188 0 311 -97t123 -277q0 -121 -69.5 -223.5t-157.5 -166.5q244 -324 301 -387q117 -121 254 -137l-2 -63q-115 2 -186.5 33.5t-142.5 107.5t-310 408q-166 0 -326 10v-545h-94zM340 623q147 -11 274 -11q80 0 172.5 106.5t92.5 248t-96.5 215 t-250.5 73.5q-82 0 -192 -8v-624z" />
<glyph unicode="s" horiz-adv-x="993" d="M90 82l49 72q139 -94 295 -94q1 0 2 -1q154 -1 241 65t87 185q0 102 -88 189q-61 61 -164.5 132.5t-144.5 103.5t-97 85q-104 104 -104 241.5t97 215.5t269.5 78t309.5 -68l-35 -76q-127 62 -293 62q-111 0 -180.5 -53.5t-69.5 -149.5q0 -111 92 -199 q66 -63 169.5 -133.5t142.5 -101.5t94 -84q100 -100 100 -232q0 -170 -113.5 -257t-317.5 -87t-341 107z" />
<glyph unicode="t" horiz-adv-x="1058" d="M33 1245v84h993v-84h-451v-1245h-92v1245h-450z" />
<glyph unicode="u" horiz-adv-x="1560" d="M233 573v756h95v-756q0 -510 452.5 -510t452.5 510v756h94v-756q0 -279 -135 -436t-411.5 -157t-412 157.5t-135.5 435.5z" />
<glyph unicode="v" horiz-adv-x="1247" d="M25 1329h102l502 -1182q10 32 51 132l444 1050h99l-572 -1337h-55z" />
<glyph unicode="w" horiz-adv-x="1923" d="M25 1329h104l338 -997q29 -82 53 -182q11 41 64 174l383 979h59l334 -986l49 -165q6 39 51 163l340 1014h98l-462 -1337h-56q-342 981 -354 1020q-18 55 -37 108q-10 -35 -55 -145l-387 -983h-55z" />
<glyph unicode="x" horiz-adv-x="1060" d="M33 0l454 688l-403 641h115l354 -575l371 575h102l-426 -651l428 -678h-113l-380 610l-398 -610h-104z" />
<glyph unicode="y" horiz-adv-x="1144" d="M25 1329h112l387 -659q45 -90 51 -97q12 27 52 95l387 661h106l-502 -858v-471h-92v475z" />
<glyph unicode="z" horiz-adv-x="1150" d="M111 0v47l782 1200h-731v82h868v-45l-782 -1198h792v-86h-929z" />
<glyph unicode="{" horiz-adv-x="593" d="M41 614v74q100 8 170 62.5t70 160.5q0 51 -22.5 152.5t-22.5 155.5q0 135 55 197.5t184 62.5v-76q-76 0 -111.5 -43t-35.5 -152q0 -43 21.5 -134t21.5 -138q0 -221 -187 -285q186 -63 187 -284q0 -47 -21.5 -138.5t-21.5 -134.5q0 -109 35.5 -151.5t111.5 -42.5v-76 q-129 0 -184 62.5t-55 197.5q0 53 22.5 154.5t22.5 152.5q0 106 -70 160.5t-170 62.5z" />
<glyph unicode="|" horiz-adv-x="575" d="M246 -459v1917h84v-1917h-84z" />
<glyph unicode="}" horiz-adv-x="593" d="M119 -100q76 0 111.5 43t35.5 151q0 43 -21.5 134t-21.5 139q0 221 187 284q-186 63 -187 285q0 47 21.5 138t21.5 134q0 109 -35.5 152t-111.5 43v76q129 0 184 -62.5t55 -197.5q0 -53 -22.5 -154.5t-22.5 -153.5q0 -106 70 -160.5t170 -62.5v-74q-100 -8 -170 -62.5 t-70 -160.5q0 -51 22.5 -152.5t22.5 -154.5q0 -135 -55 -197.5t-184 -62.5v76z" />
<glyph unicode="~" horiz-adv-x="1323" d="M143 698q59 94 105 144q80 90 188 90q70 0 156 -43q66 -33 85 -44t45 -25.5t37 -19.5t32.5 -15.5t35.5 -14.5q39 -12 62 -12q104 0 225 186l66 -39q-104 -168 -197 -209q-47 -23 -85 -22.5t-62.5 5.5t-42 9t-44 17.5t-37.5 18.5t-40 21q-174 102 -237.5 102.5t-124 -58 t-103.5 -127.5z" />
<glyph unicode="&#xa1;" horiz-adv-x="581" d="M225 1265.5q0 28.5 18.5 47t47 18.5t47 -18.5t18.5 -47t-18.5 -47t-47 -18.5t-47 18.5t-18.5 47zM244 -25l10 1024h74l10 -1024h-94z" />
<glyph unicode="&#xa2;" horiz-adv-x="1370" d="M164 666q0 285 175 480t454 204l28 295h82l-29 -295q201 -10 392 -70l-25 -76q-199 57 -375 64l-118 -1194q59 -12 122 -13q225 0 381 66l29 -64q-152 -84 -410 -83q-68 0 -131 12l-26 -279h-82l28 297q-217 66 -356 243t-139 413zM260 666q0 -195 113.5 -350.5 t294.5 -219.5l116 1174q-233 -12 -378.5 -184t-145.5 -420z" />
<glyph unicode="&#xa3;" horiz-adv-x="1097" d="M31 0v90h215v696h-215v91h215v167q0 227 93 334t304 107q166 0 365 -66l-23 -73q-172 57 -341 57t-234.5 -82t-65.5 -277v-167h520v-91h-520v-696h664v-90h-977z" />
<glyph unicode="&#xa4;" horiz-adv-x="1071" d="M143 324l131 131q-61 88 -61 199.5t59 195.5l-129 131l64 63l125 -129q90 74 203.5 74t203.5 -69l125 124l64 -63l-127 -127q63 -94 63 -204.5t-65 -198.5l129 -127l-64 -64l-127 127q-86 -68 -202.5 -68t-198.5 70l-129 -129zM303 653.5q0 -106.5 65.5 -176t170 -69.5 t170 69.5t65.5 176t-65.5 176t-170 69.5t-170 -69.5t-65.5 -176z" />
<glyph unicode="&#xa5;" horiz-adv-x="1251" d="M25 1464h118l414 -620q41 -61 74 -115q2 8 69 111l414 624h113l-535 -794h346v-90h-364v-252h364v-90h-364v-238h-99v238h-362v90h362v252h-362v90h346z" />
<glyph unicode="&#xa6;" horiz-adv-x="575" d="M246 252h84v-711h-84v711zM246 745v713h84v-713h-84z" />
<glyph unicode="&#xa7;" horiz-adv-x="1021" d="M78 -236l43 66q137 -92 295.5 -92t246 66.5t87.5 187.5q0 66 -44 117t-112 81.5t-144.5 67.5t-144 74t-111.5 102.5t-44 151.5q0 125 89 196.5t238 89.5q-231 106 -280 213q-23 51 -23 119q0 131 95.5 208t257 77t307.5 -70l-31 -71q-127 61 -263.5 61t-204 -52 t-67.5 -140.5t61.5 -146.5t148.5 -96t174 -78t148.5 -109.5t61.5 -181t-77.5 -192.5t-196.5 -116q121 -55 188.5 -121.5t67.5 -173.5q0 -170 -114 -257t-294 -87q-100 0 -198.5 29.5t-159.5 76.5zM244 589q0 -83 58 -136.5t169 -104.5q117 12 207 82t90 182.5t-154 194.5 h-57t-121 -15.5t-133 -67.5t-59 -135z" />
<glyph unicode="&#xa8;" horiz-adv-x="724" d="M82 1112v109h108v-109h-108zM535 1112v109h108v-109h-108z" />
<glyph unicode="&#xa9;" d="M184 733.5q0 319.5 204 537.5t515 218t516 -218t205 -537.5t-205 -539t-516 -219.5t-515 219.5t-204 539zM268 734q0 -290 177.5 -485.5t458 -195.5t458.5 195.5t178 485.5t-177 483.5t-458.5 193.5t-459 -193.5t-177.5 -483.5zM463 728q0 196 122 328t296 132t329 -49 l-24 -68q-168 43 -289 43q-154 0 -253 -110.5t-99 -272.5t115.5 -274.5t268 -112.5t263.5 45l27 -59q-111 -61 -294.5 -61.5t-322.5 131.5t-139 328z" />
<glyph unicode="&#xaa;" horiz-adv-x="823" d="M123 819l268 639h41l268 -639h-71l-90 211h-254l-90 -211h-72zM305 1090h209l-86 210q-16 37 -16 48q-6 -12 -10.5 -25.5t-8.5 -24.5z" />
<glyph unicode="&#xab;" horiz-adv-x="925" d="M102 680l334 381l60 -49l-291 -332l291 -332l-60 -49zM430 680l334 381l59 -49l-291 -332l291 -332l-59 -49z" />
<glyph unicode="&#xac;" horiz-adv-x="1300" d="M143 664v84h1012v-555h-84v471h-928z" />
<glyph unicode="&#xad;" horiz-adv-x="1011" d="M143 664v81h725v-81h-725z" />
<glyph unicode="&#xae;" d="M184 733.5q0 319.5 204 537.5t515 218t516 -218t205 -537.5t-205 -539t-516 -219.5t-515 219.5t-204 539zM268 734q0 -290 177.5 -485.5t458 -195.5t458.5 195.5t178 485.5t-177 483.5t-458.5 193.5t-459 -193.5t-177.5 -483.5zM647 281v893q203 6 256 6q127 0 208 -66.5 t81 -174.5t-58.5 -185.5t-117.5 -110.5l160 -225q45 -63 116 -74v-59q-74 0 -107.5 14t-68.5 66l-188 270q-76 0 -199 8v-362h-82zM729 709q104 -7 219 -7q51 0 105.5 68t54.5 157t-58.5 135t-170 46t-150.5 -4v-395z" />
<glyph unicode="&#xaf;" horiz-adv-x="778" d="M143 1440v82h492v-82h-492z" />
<glyph unicode="&#xb0;" horiz-adv-x="737" d="M143 1273q0 99 63.5 167.5t161 68.5t162 -68.5t64.5 -167.5t-64.5 -169t-162 -70t-161 70t-63.5 169zM215 1272q0 -74 42 -122t111.5 -48t111.5 48t42 122t-42 122t-111.5 48t-111.5 -48t-42 -122z" />
<glyph unicode="&#xb1;" horiz-adv-x="1011" d="M143 0v90h725v-90h-725zM143 659v91h318v317h90v-317h317v-91h-317v-317h-90v317h-318z" />
<glyph unicode="&#xb2;" horiz-adv-x="860" d="M123 600v74q451 375 450 569q0 86 -43 120t-142 34t-204 -43l-26 86q131 45 248 45q264 0 264 -242q0 -229 -387 -557h454v-86h-614z" />
<glyph unicode="&#xb3;" horiz-adv-x="808" d="M123 639l33 74q98 -43 202.5 -43t166 56t61.5 141t-85 131t-161 46q-14 0 -27 -2v78q88 0 159 57.5t71 110.5q0 106 -146 107q-94 0 -207 -41l-22 80q121 51 230.5 51t174 -51.5t64.5 -135.5q0 -113 -123 -200q172 -68 172 -230q0 -123 -92 -204.5t-228.5 -81.5 t-242.5 57z" />
<glyph unicode="&#xb4;" horiz-adv-x="532" d="M82 1126l356 197l13 -109l-299 -108z" />
<glyph unicode="&#xb5;" horiz-adv-x="1527" d="M70 -467q172 449 174 920q-6 59 -6 120v758h90v-758q0 -248 99 -381t336.5 -133t337 133.5t99.5 380.5v758h90v-758q0 -594 -526 -593q-328 0 -451 231q-39 -373 -153 -678h-90z" />
<glyph unicode="&#xb6;" horiz-adv-x="1275" d="M102 1100.5q0 195.5 129 291t330 95.5q94 0 445 -23v-1736h-78v1669l-80 4v-1788h-78v1786q-25 2 -49 2q-111 0 -197 -62q-104 -76 -104 -236.5t82 -262t192 -103.5v-61h-24q-227 0 -397.5 114.5t-170.5 310z" />
<glyph unicode="&#xb7;" horiz-adv-x="436" d="M164 739v109h108v-109h-108z" />
<glyph unicode="&#xb8;" horiz-adv-x="618" d="M143 -354l45 45q41 -51 95.5 -51t81 28.5t26.5 75.5t-27.5 75.5t-62.5 28.5t-61 -10l-60 25l53 137h82l-30 -88q14 2 26 2q66 0 115 -46t49 -122t-52 -127t-138 -51t-142 78z" />
<glyph unicode="&#xb9;" horiz-adv-x="434" d="M61 1360l193 115h57v-871h-92v750l-125 -64z" />
<glyph unicode="&#xba;" horiz-adv-x="870" d="M123 1137.5q0 138.5 88 232.5t223 94t224.5 -94t89.5 -232.5t-89.5 -234.5t-224.5 -96t-223 96t-88 234.5zM215 1136.5q0 -106.5 59.5 -173t161 -66.5t160.5 66.5t59 173t-59 173t-160.5 66.5t-161 -66.5t-59.5 -173z" />
<glyph unicode="&#xbb;" horiz-adv-x="925" d="M102 348l291 332l-291 332l60 49l334 -381l-334 -381zM430 348l291 332l-291 332l59 49l334 -381l-334 -381z" />
<glyph unicode="&#xbc;" horiz-adv-x="1474" d="M143 1319l193 115h57v-871h-92v750l-125 -64zM199 -2l936 1501l71 -43l-934 -1499zM715 270v66l413 541h68v-521h135v-86h-135v-270h-92v270h-389zM836 356h268v353z" />
<glyph unicode="&#xbd;" horiz-adv-x="1689" d="M143 1319l193 115h57v-871h-92v750l-125 -64zM199 -2l936 1501l71 -43l-934 -1499zM932 0v74q451 375 450 569q0 86 -43 120t-142 34t-204 -43l-26 86q131 45 247 45q264 0 265 -242q0 -229 -387 -557h454v-86h-614z" />
<glyph unicode="&#xbe;" horiz-adv-x="1619" d="M143 1319l193 115h57v-871h-92v750l-125 -64zM199 -2l936 1501l71 -43l-934 -1499zM913 37l33 74q98 -43 202.5 -43t166 56t61.5 141t-85 131t-161 46q-14 0 -26 -2v78q88 0 158.5 57.5t70.5 110.5q0 106 -145 107q-94 0 -207 -41l-23 79q121 51 230.5 51.5t174 -51 t64.5 -135.5q0 -113 -122 -200q172 -68 172 -230q0 -123 -92.5 -204.5t-228.5 -81.5t-243 57z" />
<glyph unicode="&#xbf;" horiz-adv-x="970" d="M102 324q0 158 156 315q66 63 131.5 130t111.5 159t46 196h78q0 -119 -44 -218t-107.5 -166.5t-125.5 -129.5q-152 -152 -151.5 -284.5t87.5 -199.5t249.5 -67t297.5 91l37 -62q-61 -49 -159.5 -78.5t-198.5 -29.5q-180 0 -294 87t-114 257zM518 1423.5q0 26.5 19.5 46 t46 19.5t46 -19.5t19.5 -46t-19.5 -46t-46 -19.5t-46 19.5t-19.5 46z" />
<glyph unicode="&#xc0;" horiz-adv-x="1357" d="M33 0l616 1475h58l618 -1475h-111l-210 508h-656l-211 -508h-104zM383 592h586l-226 543q-71 156 -71 176q-2 -2 -8 -25q-29 -88 -56 -149zM383 1714l117 47l272 -190l-72 -21z" />
<glyph unicode="&#xc1;" horiz-adv-x="1357" d="M33 0l616 1475h58l618 -1475h-111l-210 508h-656l-211 -508h-104zM383 592h586l-226 543q-71 172 -71 176q-2 -2 -8 -25q-29 -88 -56 -149zM594 1571l356 196l13 -108l-299 -109z" />
<glyph unicode="&#xc2;" horiz-adv-x="1357" d="M33 0l616 1475h58l618 -1475h-111l-210 508h-656l-211 -508h-104zM383 592h586l-226 543q-71 156 -71 176q-2 -2 -8 -25q-29 -88 -56 -149zM426 1575l240 182l239 -182l-26 -37l-213 104l-213 -104z" />
<glyph unicode="&#xc3;" horiz-adv-x="1357" d="M33 0l616 1475h58l618 -1475h-111l-210 508h-656l-211 -508h-104zM295 1585q29 45 50.5 74t67.5 61.5t79.5 32.5t52 -3t40 -12t31 -13.5t37 -18.5t31.5 -16q98 -55 141 -56q78 0 156 125l53 -35q-29 -45 -50 -73.5t-67.5 -61.5t-80 -33t-52 3.5t-40 12.5t-30.5 13 t-37 18.5t-32 16.5q-98 55 -141 55q-78 0 -156 -125zM383 592h586l-226 543q-71 156 -71 176q-2 -2 -8 -25q-29 -88 -56 -149z" />
<glyph unicode="&#xc4;" horiz-adv-x="1357" d="M33 0l616 1475h58l618 -1475h-111l-210 508h-656l-211 -508h-104zM383 592h586l-226 543q-71 156 -71 176q-2 -2 -8 -25q-29 -88 -56 -149zM385 1556v109h109v-109h-109zM838 1556v109h108v-109h-108z" />
<glyph unicode="&#xc5;" horiz-adv-x="1357" d="M33 0l588 1407q-52 16 -82.5 62.5t-30.5 112t48 115.5t120 50t121 -50t49 -115.5t-31 -111t-82 -61.5l592 -1409h-111l-210 508h-656l-211 -508h-104zM383 592h586l-226 543q-71 156 -71 176q-2 -2 -8 -25q-29 -88 -56 -149zM584 1573q0 -41 26.5 -68.5t65.5 -27.5 t65.5 27.5t26.5 68.5t-26.5 69.5t-65.5 28.5t-65.5 -28.5t-26.5 -69.5z" />
<glyph unicode="&#xc6;" horiz-adv-x="1734" d="M33 0l876 1464h680v-86h-581v-538h526v-84h-526v-670h604v-86h-703v756h-313l-449 -756h-114zM645 840h264v458q-51 -102 -88 -163z" />
<glyph unicode="&#xc7;" horiz-adv-x="1525" d="M184 733.5q0 319.5 201 537.5t514 218q246 0 498 -82l-27 -82q-246 74 -471 74q-268 0 -438 -192.5t-170 -471t197.5 -474t474.5 -195.5q242 0 417 73l31 -69q-133 -78 -375 -93l-22 -65q14 2 26 2q66 0 115 -46t49 -122t-52 -127t-138 -51t-142 78l46 45q41 -51 95 -51 t80.5 28.5t26.5 75.5t-27.5 75.5t-62.5 28.5t-61 -10l-60 25l43 112q-317 4 -542.5 221.5t-225.5 537z" />
<glyph unicode="&#xc8;" horiz-adv-x="1095" d="M270 0v1464h680v-86h-581v-538h526v-84h-526v-670h604v-86h-703zM377 1714l117 47l272 -190l-72 -21z" />
<glyph unicode="&#xc9;" horiz-adv-x="1095" d="M270 0v1464h680v-86h-581v-538h526v-84h-526v-670h604v-86h-703zM455 1571l356 196l12 -108l-299 -109z" />
<glyph unicode="&#xca;" horiz-adv-x="1095" d="M270 0v1464h680v-86h-581v-538h526v-84h-526v-670h604v-86h-703zM369 1575l239 182l240 -182l-27 -37l-213 104l-213 -104z" />
<glyph unicode="&#xcb;" horiz-adv-x="1095" d="M270 0v1464h680v-86h-581v-538h526v-84h-526v-670h604v-86h-703zM315 1556v109h109v-109h-109zM768 1556v109h109v-109h-109z" />
<glyph unicode="&#xcc;" horiz-adv-x="638" d="M84 1714l117 47l272 -190l-72 -21zM270 0v1464h99v-1464h-99z" />
<glyph unicode="&#xcd;" horiz-adv-x="638" d="M217 1571l356 196l13 -108l-299 -109zM270 0v1464h99v-1464h-99z" />
<glyph unicode="&#xce;" horiz-adv-x="638" d="M80 1575l239 182l240 -182l-27 -37l-213 104l-213 -104zM270 0v1464h99v-1464h-99z" />
<glyph unicode="&#xcf;" horiz-adv-x="638" d="M102 1563v108h109v-108h-109zM270 0v1464h99v-1464h-99zM428 1563v108h109v-108h-109z" />
<glyph unicode="&#xd0;" horiz-adv-x="1669" d="M12 725v90h258v649q209 14 422 15q338 0 565.5 -210t227.5 -571q0 -182 -58.5 -322t-160.5 -224q-211 -170 -527 -170q-207 0 -469 22v721h-258zM369 88q133 -16 370 -16q289 0 464 156.5t175 472t-197.5 502t-488.5 186.5q-186 0 -323 -11v-563h368v-90h-368v-637z" />
<glyph unicode="&#xd1;" horiz-adv-x="1792" d="M270 0v1477h45l971 -1131q94 -104 152 -182q-8 98 -8 221v1079h92v-1476h-45l-992 1153q-102 111 -131 149l2 -45l4 -168v-1077h-90zM526 1585q29 45 50.5 74t67.5 61.5t80 32.5t52.5 -3t40 -12t30.5 -13.5t36.5 -18.5t31.5 -16q98 -55 142 -56q78 0 155 125l54 -35 q-29 -45 -50.5 -73.5t-67.5 -61.5t-80 -33t-52.5 3.5t-40 12.5t-30.5 13t-36.5 18.5t-31.5 16.5q-99 55 -142 55q-78 0 -155 -125z" />
<glyph unicode="&#xd2;" d="M184 733.5q0 319.5 204 537.5t515 218t516 -218t205 -537.5t-205 -539t-516 -219.5t-515 219.5t-204 539zM291 733.5q0 -282.5 171 -475t442.5 -192.5t442.5 192.5t171 475t-171 474t-443.5 191.5t-442.5 -191.5t-170 -474zM698 1714l117 47l272 -190l-71 -21z" />
<glyph unicode="&#xd3;" d="M184 733.5q0 319.5 204 537.5t515 218t516 -218t205 -537.5t-205 -539t-516 -219.5t-515 219.5t-204 539zM291 733.5q0 -282.5 171 -475t442.5 -192.5t442.5 192.5t171 475t-171 474t-443.5 191.5t-442.5 -191.5t-170 -474zM797 1571l356 196l12 -108l-299 -109z" />
<glyph unicode="&#xd4;" d="M184 733.5q0 319.5 204 537.5t515 218t516 -218t205 -537.5t-205 -539t-516 -219.5t-515 219.5t-204 539zM291 733.5q0 -282.5 171 -475t442.5 -192.5t442.5 192.5t171 475t-171 474t-443.5 191.5t-442.5 -191.5t-170 -474zM698 1575l240 182l240 -182l-27 -37l-213 104 l-213 -104z" />
<glyph unicode="&#xd5;" d="M184 733.5q0 319.5 204 537.5t515 218t516 -218t205 -537.5t-205 -539t-516 -219.5t-515 219.5t-204 539zM291 733.5q0 -282.5 171 -475t442.5 -192.5t442.5 192.5t171 475t-171 474t-443.5 191.5t-442.5 -191.5t-170 -474zM567 1585q29 45 50.5 74t67.5 61.5t80 32.5 t52.5 -3t40 -12t30.5 -13.5t36.5 -18.5t31.5 -16q98 -55 142 -56q78 0 155 125l54 -35q-29 -45 -50.5 -73.5t-67.5 -61.5t-80 -33t-52.5 3.5t-40 12.5t-30.5 13t-36.5 18.5t-31.5 16.5q-99 55 -142 55q-78 0 -155 -125z" />
<glyph unicode="&#xd6;" d="M184 733.5q0 319.5 204 537.5t515 218t516 -218t205 -537.5t-205 -539t-516 -219.5t-515 219.5t-204 539zM291 733.5q0 -282.5 171 -475t442.5 -192.5t442.5 192.5t171 475t-171 474t-443.5 191.5t-442.5 -191.5t-170 -474zM657 1556v109h109v-109h-109zM1110 1556v109 h109v-109h-109z" />
<glyph unicode="&#xd7;" horiz-adv-x="1071" d="M143 324l328 327l-328 330l64 63l328 -329l329 329l64 -63l-330 -330l330 -327l-64 -64l-329 328l-328 -328z" />
<glyph unicode="&#xd8;" d="M184 733q0 319 204 537.5t515 218.5q219 0 393 -117l125 182l66 -47l-125 -182q125 -104 193.5 -258t68.5 -334q0 -319 -205 -538.5t-516 -219.5q-219 0 -393 117l-123 -178l-65 45l124 180q-125 106 -193.5 260t-68.5 334zM291 716q0 -300 209 -497l743 1077 q-147 102 -340 103q-272 0 -442 -191.5t-170 -491.5zM563 168q147 -102 340 -102q272 0 443.5 192t171.5 475q0 319 -211 514z" />
<glyph unicode="&#xd9;" horiz-adv-x="1652" d="M254 602v862h98v-862q0 -541 474 -541t474 541v862h99v-862q0 -293 -141.5 -460t-430 -167t-431 168t-142.5 459zM598 1714l117 47l272 -190l-72 -21z" />
<glyph unicode="&#xda;" horiz-adv-x="1652" d="M254 602v862h98v-862q0 -541 474 -541t474 541v862h99v-862q0 -293 -141.5 -460t-430 -167t-431 168t-142.5 459zM690 1571l357 196l12 -108l-299 -109z" />
<glyph unicode="&#xdb;" horiz-adv-x="1652" d="M254 602v862h98v-862q0 -541 474 -541t474 541v862h99v-862q0 -293 -141.5 -460t-430 -167t-431 168t-142.5 459zM614 1575l240 182l240 -182l-27 -37l-213 104l-213 -104z" />
<glyph unicode="&#xdc;" horiz-adv-x="1652" d="M254 602v862h98v-862q0 -541 474 -541t474 541v862h99v-862q0 -293 -141.5 -460t-430 -167t-431 168t-142.5 459zM573 1556v109h109v-109h-109zM1026 1556v109h109v-109h-109z" />
<glyph unicode="&#xdd;" horiz-adv-x="1267" d="M33 1464h119l426 -741q37 -66 61 -115q8 27 57 111l426 745h113l-553 -944v-520h-98v524zM475 1571l356 196l13 -108l-299 -109z" />
<glyph unicode="&#xde;" horiz-adv-x="1189" d="M270 0v1464h99v-358q160 8 231 8q475 0 475 -369q0 -203 -171 -304t-421 -101h-30v68h20q209 0 352.5 78.5t143.5 245.5t-101.5 230.5t-283.5 63.5q-92 0 -215 -8v-1018h-99z" />
<glyph unicode="&#xdf;" horiz-adv-x="2002" d="M90 82l49 72q139 -94 295 -94.5t243 65t87 184.5q0 102 -88 189q-61 61 -164.5 132.5t-144.5 103.5t-97 85q-104 104 -104 241.5t97 215.5t269.5 78t309.5 -68l-35 -76q-127 62 -293 62q-111 0 -180.5 -53.5t-69.5 -149.5q0 -111 92 -199q66 -63 169.5 -133.5 t142.5 -101.5t94 -84q100 -100 100 -232q0 -170 -113.5 -257t-317.5 -87t-341 107zM1100 82l49 72q139 -94 294.5 -94.5t243 65t87.5 184.5q0 102 -86 189q-63 61 -167 132.5t-145 103.5t-96 85q-104 104 -104 241.5t97 215.5t268 78t310 -68l-34 -76q-127 62 -293 62 q-111 0 -180.5 -53.5t-69.5 -149.5q0 -111 92 -199q66 -63 169 -133.5t142 -101.5t92 -84q102 -100 103 -232q0 -170 -113.5 -257t-317.5 -87t-341 107z" />
<glyph unicode="&#xe0;" horiz-adv-x="1222" d="M25 0l557 1337h55l561 -1337h-104l-193 461h-590l-190 -461h-96zM344 541h524l-202 489q-48 115 -62 156q-31 -92 -55 -154zM365 1599l116 48l273 -191l-72 -20z" />
<glyph unicode="&#xe1;" horiz-adv-x="1222" d="M25 0l557 1337h55l561 -1337h-104l-193 461h-590l-190 -461h-96zM344 541h524l-202 489q-48 115 -62 156q-31 -92 -55 -154zM498 1456l356 197l12 -109l-299 -108z" />
<glyph unicode="&#xe2;" horiz-adv-x="1222" d="M25 0l557 1337h55l561 -1337h-104l-193 461h-590l-190 -461h-96zM344 541h524l-202 489q-48 115 -62 156q-31 -92 -55 -154zM360 1473l240 182l240 -182l-27 -37l-213 104l-213 -104z" />
<glyph unicode="&#xe3;" horiz-adv-x="1222" d="M25 0l557 1337h55l561 -1337h-104l-193 461h-590l-190 -461h-96zM229 1464q29 45 50.5 74t67.5 61.5t80 32.5t52.5 -3t40 -12t30.5 -13.5t36.5 -18.5t31.5 -16q98 -55 142 -56q78 0 155 125l54 -34q-29 -45 -50.5 -74t-67.5 -61.5t-80 -32.5t-52.5 3t-40 12t-30.5 13 t-36.5 18.5t-31.5 16.5q-99 55 -142 55q-78 0 -155 -124zM344 541h524l-202 489q-48 115 -62 156q-31 -92 -55 -154z" />
<glyph unicode="&#xe4;" horiz-adv-x="1222" d="M25 0l557 1337h55l561 -1337h-104l-193 461h-590l-190 -461h-96zM319 1442v108h109v-108h-109zM344 541h524l-202 489q-48 115 -62 156q-31 -92 -55 -154zM772 1442v108h109v-108h-109z" />
<glyph unicode="&#xe5;" horiz-adv-x="1224" d="M25 0l532 1272q-51 16 -83 62t-32 111.5t48.5 116t120 50.5t120.5 -50.5t49 -116t-31.5 -111.5t-84.5 -62l536 -1272h-100l-193 463h-598l-190 -463h-94zM342 539h532l-204 493q-64 142 -64 160q-2 -2 -8 -23q-14 -47 -51 -135zM518 1438q0 -41 26.5 -69t65.5 -28 t65.5 28t26.5 69t-26.5 69.5t-65.5 28.5t-65.5 -28.5t-26.5 -69.5z" />
<glyph unicode="&#xe6;" horiz-adv-x="1585" d="M20 0l797 1331h617v-78h-529v-489h479v-78h-479v-608h549v-78h-637v686h-287l-405 -686h-105zM578 764h239v416q-43 -86 -80 -148z" />
<glyph unicode="&#xe7;" horiz-adv-x="1370" d="M164 666.5q0 289.5 181 486.5t468 197q231 0 453 -72l-25 -78q-213 66 -440.5 66t-382 -173t-154.5 -424t179.5 -427t415 -176t390.5 65l31 -65q-121 -70 -340 -84l-25 -70q14 2 27 2q66 0 115 -46t49 -122t-52.5 -127t-138.5 -51t-141 78l45 45q41 -51 95.5 -51t81 28.5 t26.5 75.5t-27.5 75.5t-62.5 28.5t-62 -10l-59 25l45 117q-287 6 -489.5 201.5t-202.5 485z" />
<glyph unicode="&#xe8;" horiz-adv-x="1017" d="M246 0v1329h620v-82h-526v-483h475v-80h-475v-598h547v-86h-641zM352 1599l117 48l272 -191l-71 -20z" />
<glyph unicode="&#xe9;" horiz-adv-x="1017" d="M246 0v1329h620v-82h-526v-483h475v-80h-475v-598h547v-86h-641zM391 1456l357 197l12 -109l-299 -108z" />
<glyph unicode="&#xea;" horiz-adv-x="1017" d="M246 0v1329h620v-82h-526v-483h475v-80h-475v-598h547v-86h-641zM324 1473l239 182l240 -182l-27 -37l-213 104l-213 -104z" />
<glyph unicode="&#xeb;" horiz-adv-x="1017" d="M246 0v1329h620v-82h-526v-483h475v-80h-475v-598h547v-86h-641zM268 1444v108h109v-108h-109zM721 1444v108h108v-108h-108z" />
<glyph unicode="&#xec;" horiz-adv-x="585" d="M43 1599l117 48l272 -191l-72 -20zM246 0v1329h94v-1329h-94z" />
<glyph unicode="&#xed;" horiz-adv-x="585" d="M176 1456l356 197l13 -109l-299 -108zM246 0v1329h94v-1329h-94z" />
<glyph unicode="&#xee;" horiz-adv-x="585" d="M53 1473l240 182l239 -182l-26 -37l-213 104l-213 -104zM246 0v1329h94v-1329h-94z" />
<glyph unicode="&#xef;" horiz-adv-x="585" d="M96 1448v108h109v-108h-109zM246 0v1329h94v-1329h-94zM381 1448v108h108v-108h-108z" />
<glyph unicode="&#xf0;" horiz-adv-x="1513" d="M14 657v82h232v590q164 12 385 12q307 0 513 -189t206 -515t-189.5 -489.5t-488.5 -163.5q-207 0 -426 20v653h-232zM344 84q123 -14 328 -14q262 0 420.5 141t158.5 426t-179 452.5t-441 167.5q-186 0 -287 -8v-510h330v-82h-330v-573z" />
<glyph unicode="&#xf1;" horiz-adv-x="1628" d="M246 0v1337h45l880 -1020q47 -53 87 -105t42 -54q-4 49 -4 192v979h86v-1337h-45l-897 1040l-112 137q4 -41 4 -192v-977h-86zM446 1464q29 45 50.5 74t67.5 61.5t80 32.5t52.5 -3t40 -12t30.5 -13.5t36.5 -18.5t32.5 -16q98 -55 141 -56q78 0 156 125l53 -34 q-29 -45 -50.5 -74t-67.5 -61.5t-80 -32.5t-52 3t-40 12t-31 13t-36.5 18.5t-31.5 16.5q-99 55 -142 55q-78 0 -155 -124z" />
<glyph unicode="&#xf2;" horiz-adv-x="1667" d="M164 664.5q0 287.5 192.5 486.5t477 199t477 -199t192.5 -486.5t-192.5 -486t-477 -198.5t-477 198.5t-192.5 486zM262 665q0 -253 163 -426t409.5 -173t408.5 173t162 426t-162 427t-408.5 174t-409.5 -174t-163 -427zM563 1599l117 48l272 -191l-71 -20z" />
<glyph unicode="&#xf3;" horiz-adv-x="1667" d="M164 664.5q0 287.5 192.5 486.5t477 199t477 -199t192.5 -486.5t-192.5 -486t-477 -198.5t-477 198.5t-192.5 486zM262 665q0 -253 163 -426t409.5 -173t408.5 173t162 426t-162 427t-408.5 174t-409.5 -174t-163 -427zM748 1456l356 197l12 -109l-299 -108z" />
<glyph unicode="&#xf4;" horiz-adv-x="1667" d="M164 664.5q0 287.5 192.5 486.5t477 199t477 -199t192.5 -486.5t-192.5 -486t-477 -198.5t-477 198.5t-192.5 486zM262 665q0 -253 163 -426t409.5 -173t408.5 173t162 426t-162 427t-408.5 174t-409.5 -174t-163 -427zM596 1473l240 182l239 -182l-26 -37l-213 104 l-213 -104z" />
<glyph unicode="&#xf5;" horiz-adv-x="1667" d="M164 664.5q0 287.5 192.5 486.5t477 199t477 -199t192.5 -486.5t-192.5 -486t-477 -198.5t-477 198.5t-192.5 486zM262 665q0 -253 163 -426t409.5 -173t408.5 173t162 426t-162 427t-408.5 174t-409.5 -174t-163 -427zM465 1448q29 45 50.5 73.5t67.5 61.5t79.5 33 t52 -3t40 -12.5t31 -13.5t37 -18.5t31.5 -16.5q98 -55 141 -55q78 0 156 125l53 -35q-29 -45 -50 -73.5t-67.5 -61.5t-80 -33t-52 3t-40 12.5t-31 13.5t-37 18.5t-31.5 16.5q-98 55 -141 55q-78 0 -156 -125z" />
<glyph unicode="&#xf6;" horiz-adv-x="1667" d="M164 664.5q0 287.5 192.5 486.5t477 199t477 -199t192.5 -486.5t-192.5 -486t-477 -198.5t-477 198.5t-192.5 486zM262 665q0 -253 163 -426t409.5 -173t408.5 173t162 426t-162 427t-408.5 174t-409.5 -174t-163 -427zM555 1442v108h109v-108h-109zM1008 1442v108h108 v-108h-108z" />
<glyph unicode="&#xf7;" horiz-adv-x="1011" d="M143 594v90h725v-90h-725zM440 323.5q0 28.5 19.5 47t46 18.5t46 -18.5t19.5 -47t-19.5 -47t-46 -18.5t-46 18.5t-19.5 47zM440 954.5q0 28.5 19.5 47t46 18.5t46 -18.5t19.5 -47t-19.5 -47t-46 -18.5t-46 18.5t-19.5 47z" />
<glyph unicode="&#xf8;" horiz-adv-x="1667" d="M164 666q0 287 192.5 485.5t477.5 198.5q193 0 354 -101l112 164l66 -47l-113 -164q117 -96 183.5 -235.5t66.5 -300.5q0 -287 -192.5 -486.5t-476.5 -199.5q-195 0 -357 100l-110 -160l-66 45l111 162q-117 94 -182.5 235.5t-65.5 303.5zM262 666q0 -291 201 -465 l676 977q-137 88 -305 88q-248 0 -410 -173t-162 -427zM526 152q137 -86 308 -86q248 0 409.5 173t161.5 427q0 289 -203 464z" />
<glyph unicode="&#xf9;" horiz-adv-x="1560" d="M233 573v756h95v-756q0 -510 452.5 -510t452.5 510v756h94v-756q0 -279 -135 -436t-411.5 -157t-412 157.5t-135.5 435.5zM516 1599l117 48l272 -191l-71 -20z" />
<glyph unicode="&#xfa;" horiz-adv-x="1560" d="M233 573v756h95v-756q0 -510 452.5 -510t452.5 510v756h94v-756q0 -279 -135 -436t-411.5 -157t-412 157.5t-135.5 435.5zM647 1456l357 197l12 -109l-299 -108z" />
<glyph unicode="&#xfb;" horiz-adv-x="1560" d="M233 573v756h95v-756q0 -510 452.5 -510t452.5 510v756h94v-756q0 -279 -135 -436t-411.5 -157t-412 157.5t-135.5 435.5zM543 1473l239 182l240 -182l-27 -37l-213 104l-213 -104z" />
<glyph unicode="&#xfc;" horiz-adv-x="1560" d="M233 573v756h95v-756q0 -510 452.5 -510t452.5 510v756h94v-756q0 -279 -135 -436t-411.5 -157t-412 157.5t-135.5 435.5zM502 1442v108h108v-108h-108zM954 1442v108h109v-108h-109z" />
<glyph unicode="&#xfd;" horiz-adv-x="1144" d="M25 1329h112l387 -659l51 -97q25 49 52 95l387 661h106l-502 -858v-471h-92v475zM403 1456l357 197l12 -109l-299 -108z" />
<glyph unicode="&#xfe;" horiz-adv-x="1079" d="M246 0v1331h94v-325q143 8 205 8q432 0 432 -336q0 -184 -154.5 -276.5t-382.5 -92.5h-28v66h22q186 0 314.5 69.5t128.5 221t-90.5 208t-227.5 56.5t-219 -6v-924h-94z" />
<glyph unicode="&#xff;" horiz-adv-x="1144" d="M25 1329h112l387 -659q45 -90 51 -97q12 27 52 95l387 661h106l-502 -858v-471h-92v475zM293 1442v108h108v-108h-108zM745 1442v108h109v-108h-109z" />
<glyph unicode="&#x152;" horiz-adv-x="2168" d="M184 733.5q0 319.5 204 537.5t515 218q252 0 440 -150v125h680v-86h-581v-538h526v-84h-526v-670h604v-86h-703v125q-188 -150 -440 -150q-311 0 -515 219.5t-204 539zM291 733.5q0 -282.5 171 -475t440 -192.5t441 188v956q-172 188 -442 188.5t-440 -191t-170 -474z " />
<glyph unicode="&#x153;" horiz-adv-x="1990" d="M164 665.5q0 290.5 185.5 489.5t467.5 199q231 0 402 -135v112h620v-78h-530v-491h479v-76h-479v-610h551v-78h-641v113q-170 -135 -402 -136q-283 0 -468 200t-185 490.5zM260 666q0 -258 154.5 -433.5t401.5 -175.5t403 172v871q-160 172 -405 172t-399.5 -174 t-154.5 -432z" />
<glyph unicode="&#x178;" horiz-adv-x="1267" d="M33 1464h119l426 -741l61 -115q16 39 57 111l426 745h113l-553 -944v-520h-98v524zM352 1556v109h109v-109h-109zM805 1556v109h108v-109h-108z" />
<glyph unicode="&#x2c6;" horiz-adv-x="643" d="M82 1130l240 183l239 -183l-26 -36l-213 104l-213 -104z" />
<glyph unicode="&#x2dc;" horiz-adv-x="870" d="M66 1141q29 45 50 73.5t67 61.5t80 33t52.5 -3t40 -12.5t30.5 -13.5t37 -18.5t32 -16.5q98 -55 141 -55q78 0 156 125l53 -35q-29 -45 -50.5 -73.5t-67.5 -61.5t-80 -33t-52 3t-39.5 12.5t-31 13.5t-37 18.5t-31.5 16.5q-99 55 -142 55q-78 0 -155 -125z" />
<glyph unicode="&#x2000;" horiz-adv-x="883" />
<glyph unicode="&#x2001;" horiz-adv-x="1767" />
<glyph unicode="&#x2002;" horiz-adv-x="883" />
<glyph unicode="&#x2003;" horiz-adv-x="1767" />
<glyph unicode="&#x2004;" horiz-adv-x="589" />
<glyph unicode="&#x2005;" horiz-adv-x="441" />
<glyph unicode="&#x2006;" horiz-adv-x="294" />
<glyph unicode="&#x2007;" horiz-adv-x="294" />
<glyph unicode="&#x2008;" horiz-adv-x="220" />
<glyph unicode="&#x2009;" horiz-adv-x="353" />
<glyph unicode="&#x200a;" horiz-adv-x="98" />
<glyph unicode="&#x2010;" horiz-adv-x="1011" d="M143 664v81h725v-81h-725z" />
<glyph unicode="&#x2011;" horiz-adv-x="1011" d="M143 664v81h725v-81h-725z" />
<glyph unicode="&#x2012;" horiz-adv-x="1011" d="M143 664v81h725v-81h-725z" />
<glyph unicode="&#x2013;" horiz-adv-x="968" d="M0 664v81h969v-81h-969z" />
<glyph unicode="&#x2014;" horiz-adv-x="1294" d="M0 664v81h1294v-81h-1294z" />
<glyph unicode="&#x2018;" horiz-adv-x="247" d="M74 1364v100h108v-133l25 -125h-47z" />
<glyph unicode="&#x2019;" horiz-adv-x="247" d="M41 1206l25 125v133h108v-100l-86 -158h-47z" />
<glyph unicode="&#x201a;" horiz-adv-x="247" d="M41 -150l25 125v134h108v-101l-86 -158h-47z" />
<glyph unicode="&#x201c;" horiz-adv-x="501" d="M74 1364v100h108v-133l25 -125h-47zM328 1364v100h108v-133l25 -125h-47z" />
<glyph unicode="&#x201d;" horiz-adv-x="501" d="M41 1206l25 125v133h108v-100l-86 -158h-47zM295 1206l24 125v133h109v-100l-86 -158h-47z" />
<glyph unicode="&#x201e;" horiz-adv-x="501" d="M41 -150l25 125v134h108v-101l-86 -158h-47zM295 -150l24 125v134h109v-101l-86 -158h-47z" />
<glyph unicode="&#x2022;" horiz-adv-x="499" d="M164 633v172h172v-172h-172z" />
<glyph unicode="&#x2026;" horiz-adv-x="694" d="M61 0v109h109v-109h-109zM293 0v109h108v-109h-108zM524 0v109h109v-109h-109z" />
<glyph unicode="&#x202f;" horiz-adv-x="353" />
<glyph unicode="&#x2039;" horiz-adv-x="598" d="M102 680l334 381l60 -49l-291 -332l291 -332l-60 -49z" />
<glyph unicode="&#x203a;" horiz-adv-x="598" d="M102 348l291 332l-291 332l60 49l334 -381l-334 -381z" />
<glyph unicode="&#x205f;" horiz-adv-x="441" />
<glyph unicode="&#x20ac;" horiz-adv-x="1073" d="M29 481l22 86h142q-8 68 -8.5 157t5.5 163h-161l22 86h152q43 248 179 382t361 134q129 0 215 -33v-92q-100 35 -215 35q-356 0 -434 -426h500l-23 -86h-489q-6 -74 -6 -163t8 -157h510l-23 -86h-475q80 -416 432 -415q139 0 215 32v-86q-80 -37 -227 -37 q-426 0 -524 506h-178z" />
<glyph unicode="&#x2122;" horiz-adv-x="1470" d="M102 1395v59h480v-59h-209v-576h-64v576h-207zM606 819l103 639h45l192 -461q8 -29 15 -43q0 8 16 45l213 459h41l96 -639h-65l-64 445q-8 41 -8 55l-23 -55l-194 -414h-37l-191 461q0 -12 -6 -47l-67 -445h-66z" />
<glyph unicode="&#x25fc;" horiz-adv-x="1331" d="M0 0v1331h1331v-1331h-1331z" />
<glyph unicode="&#xfb01;" horiz-adv-x="1632" d="M246 0v1329h682v-82h-588v-483h537v-80h-537v-684h-94zM1292 0v1329h94v-1329h-94z" />
<glyph unicode="&#xfb02;" horiz-adv-x="2029" d="M246 0v1329h682v-82h-588v-483h537v-80h-537v-684h-94zM1292 0v1329h94v-1243h611v-86h-705z" />
</font>
</defs>
</svg>
