<?xml version="1.0" standalone="no"?>
<!DOCTYPE svg PUBLIC "-//W3C//DTD SVG 1.1//EN" "http://www.w3.org/Graphics/SVG/1.1/DTD/svg11.dtd" >
<svg xmlns="http://www.w3.org/2000/svg" xmlns:xlink="http://www.w3.org/1999/xlink" version="1.1">
<metadata></metadata>
<defs>
<font id="oreganoregular" horiz-adv-x="942" >
<font-face units-per-em="2048" ascent="1638" descent="-410" />
<missing-glyph horiz-adv-x="379" />
<glyph unicode="&#xfb01;" horiz-adv-x="874" d="M-10 610q0 6 1.5 14t6.5 11q12 6 47 22.5t100 36.5v13q0 123 20.5 218.5t55 166.5t79 119.5t92.5 78.5t95.5 43t87.5 13q50 0 88 -18t63.5 -45.5t38.5 -60.5t13 -63q0 -39 -4.5 -68.5t-11.5 -50.5t-14 -34.5t-13 -20.5q-8 -12 -14.5 -20.5t-11.5 -8.5q-11 0 -21.5 8 t-20.5 19q-11 11 -22 27q0 24 6 48t6 46q0 33 -9.5 61.5t-28.5 49.5t-46.5 33t-64.5 12q-46 0 -79.5 -37t-57.5 -105.5t-39.5 -165.5t-24.5 -217q66 13 149.5 24t186.5 17q12 25 25 30t22 5q25 0 49 -4.5t29 -9.5t7.5 -33.5t2.5 -73.5q0 -48 -2 -106.5t-5 -116t-5 -109 t-2 -84.5q0 -58 1 -106t1 -80t-6.5 -52.5t-16 -33t-20 -17.5t-18.5 -5q-37 0 -57 25.5t-29.5 79t-11 136.5t-1.5 199q0 75 1.5 132t6.5 99q-78 -3 -153 -11.5t-160 -25.5q-6 -123 -8 -261t-2 -290v-73q0 -32 -4.5 -42.5t-12.5 -10.5q-6 0 -13.5 6t-12.5 6t-7 -6t-3.5 -12.5 t-4 -12.5t-8.5 -6q-6 -1 -14.5 3.5t-17 12t-16.5 17t-13 20.5q-7 12 -12 28t-8 43.5t-4 70.5t-1 110q0 46 0.5 96t1.5 98t2 92t2 79q-27 -7 -55 -14t-57 -15q-3 -2 -5.5 -2h-4.5q-13 0 -13 12q0 3 3 9t3 14q0 4 -4 6l-9 4.5t-9 5.5t-4 8z" />
<glyph unicode="&#xfb02;" horiz-adv-x="881" d="M-10 610q0 6 1.5 14t6.5 11q12 8 45 27t102 40v5q0 123 20.5 218.5t54.5 166.5t77.5 119.5t89 78.5t89.5 43t79 13q31 0 57.5 -10t51.5 -25v30q-1 7 1.5 10t7 3.5l9 1t8.5 2.5q8 4 12.5 2.5t7.5 -4.5t5.5 -6.5t7.5 -3.5q5 1 8.5 3.5t6 5t5.5 4.5t7 1q8 -2 15 -2.5t7 2.5 q2 8 6 7.5t10 -5.5q7 -5 11 -10.5t4 -16.5q0 -14 -2 -55t-5 -98.5t-7 -126t-7.5 -137t-7 -132.5t-4.5 -112q-2 -29 -2 -64v-75q0 -53 0.5 -110.5t1.5 -113.5t2 -107.5t2 -92.5t1.5 -68.5t0.5 -34.5q0 -14 -4.5 -21.5t-10.5 -10t-13 -1t-13 4.5t-9.5 7t-5 6t-3 1t-2.5 -8 q-3 -26 -11.5 -39t-18 -17.5t-17.5 -2.5t-11 7q-2 5 -6.5 6t-9 1.5t-9 3t-5.5 10.5q-8 34 -10.5 86.5t-2.5 118.5q0 57 1 123t1 135v79.5t-2 80.5v63q0 71 3 142.5t8 139t11 129.5t11 113q-15 42 -50 68.5t-89 26.5q-46 0 -79.5 -36.5t-57.5 -104.5t-39.5 -164.5 t-24.5 -215.5q38 5 80.5 10.5t93.5 8.5q12 1 19 -1.5t13.5 -8t13 -13.5t16.5 -18q10 -11 19.5 -23.5t14.5 -23t3.5 -17.5t-13.5 -6q-18 0 -48.5 -2.5t-67 -6.5t-76 -10t-74.5 -12q-6 -123 -8 -262t-2 -291v-73q0 -32 -4.5 -42.5t-12.5 -10.5q-6 0 -13.5 6t-12.5 6t-7 -6 t-3.5 -12.5t-4 -12.5t-8.5 -6q-6 -1 -14.5 3.5t-17 12t-16.5 17t-13 20.5q-7 12 -12 28t-8 43.5t-4 70.5t-1 110q0 47 0.5 97.5t1.5 99t2 92.5t2 78q-20 -5 -47.5 -12.5t-64.5 -18.5q-14 -5 -20 2t3 27q3 5 -1 8t-9.5 5.5t-10.5 5.5t-5 9z" />
<glyph horiz-adv-x="0" />
<glyph unicode="&#xd;" horiz-adv-x="379" />
<glyph unicode=" "  horiz-adv-x="379" />
<glyph unicode="&#x09;" horiz-adv-x="379" />
<glyph unicode="&#xa0;" horiz-adv-x="379" />
<glyph unicode="!" horiz-adv-x="377" d="M66 68q0 14 6.5 34t16 39.5t21 35.5t21.5 22q17 9 27.5 9.5t19.5 0.5q47 0 71.5 -23.5t26.5 -79.5q1 -14 -1 -32.5t-7.5 -35.5t-14.5 -30.5t-22 -17.5q-17 -6 -31.5 -9.5t-25.5 -3.5q-20 0 -33.5 7t-27.5 16q-20 11 -33.5 30t-13.5 38zM88 1284q0 32 0.5 60t3.5 51 q1 5 1 8.5t2.5 6.5t9.5 7t22 10q20 10 33 14.5t24 4.5q12 0 23 -8q7 -5 13 -5.5t11.5 0.5t10.5 2.5t10 0.5q8 -2 14 -9.5t6 -27.5q0 -8 -1 -16t-3 -19q-6 -35 -11 -87t-8 -116t-5 -137t-2 -150q0 -57 0.5 -114.5t3.5 -114.5q0 -17 1 -55.5t1 -95.5q0 -33 -0.5 -65.5 t-1.5 -58.5t-2.5 -44.5t-3.5 -22.5q-10 -20 -19.5 -27.5t-15.5 -5.5q-4 0 -8 9q0 3 -10 1.5t-21 0.5q-6 0 -10 5t-15 3q-6 0 -11 8t-7 22q-1 7 -2.5 40t-4 81t-5.5 106.5t-5.5 117t-4 111.5t-1.5 91q0 42 -2 94.5t-4 108l-4 111t-2 104.5z" />
<glyph unicode="&#x22;" horiz-adv-x="549" d="M86 999v70.5t1 90t3.5 95t7.5 85.5t13 61.5t20 23.5q6 0 11.5 -2t9.5 -2q3 0 10.5 1.5t16.5 3t17 3t13 1.5q20 0 28.5 -19.5t8.5 -48.5q-2 -28 -2 -57.5t-2 -57.5l-11 -286q-1 -10 -13.5 -19.5t-29 -16.5t-32.5 -11.5t-25 -4.5q-29 0 -37 24t-8 66zM348 954q0 29 1 74 t3 96.5t6 103.5t9 93.5t12.5 68t17.5 27.5q16 0 29.5 -6t24.5 -6q14 0 25.5 3t19.5 3q14 0 16 -12t4 -49q-3 -28 -4 -56t-4 -59q-2 -14 -3.5 -43t-3.5 -64t-5.5 -72t-9.5 -67.5t-15 -50.5t-22 -20q-11 0 -20.5 -1.5t-18.5 -1.5q-29 0 -45.5 7.5t-16.5 31.5z" />
<glyph unicode="#" horiz-adv-x="991" d="M76 559q0 25 10.5 43t35 30.5t64.5 20t99 11.5q3 57 7 113.5t9 115.5l-195 -16q-16 0 -16 6q0 2 4 6q2 3 4 6.5t2 11.5l-18 19q-4 0 -4 6q0 4 -1.5 10t1.5 13t14 14.5t37 14.5t69 12.5t111 9.5q6 62 11.5 119t12 104t13 83t14.5 56q0 2 1 3t1 3q4 8 8.5 14.5t12.5 6.5 q6 -1 10.5 -2t9 -4.5t9 -10t10.5 -18.5q5 -9 15 -8.5t18 2.5q3 2 5.5 2h4.5q-5 -25 -11 -61t-12 -81t-12 -96.5t-12 -107.5q25 2 52 2h58h70q4 57 7.5 111t7.5 100.5t7.5 84t6.5 62.5q3 6 1 7t7 -1q5 0 8 -1t6 -1q6 0 9 1t8 3t11.5 4t13 1.5t12.5 -4t10 -11.5q5 -11 6.5 -21 t1.5 -16l-21 -321l150 -6q20 -3 34 -14t23 -26.5t13 -33.5t4 -35q0 -6 -6 -6h-5q-29 3 -87.5 7t-133.5 7l-14 -241q34 -2 68 -6t71 -7q20 -3 34.5 -12t14.5 -35q0 -35 -12 -51t-31 -16q-6 0 -10 2h-2q-17 3 -54.5 5.5t-86.5 4.5q-5 -64 -8.5 -119.5t-6 -97.5t-3.5 -68.5 t-1 -32.5q1 -19 -3 -33q-3 -12 -11 -22t-25 -10q-2 0 -4.5 -1t-7.5 -1q-4 -1 -5 -1.5t-1.5 -0.5h-2h-5.5q-20 0 -26 19t-3 67l6 125l8 180q-48 2 -96 2h-94h-4q-5 -68 -8.5 -127.5t-6 -106.5t-3.5 -78.5t1 -41.5l-2 -22q-2 -8 -3.5 -14.5t-4.5 -6.5q-2 0 -5.5 1t-6.5 1 q-8 2 -17.5 3t-17.5 1q-22 0 -30.5 3.5t-9 10.5t2.5 16t4 21v33q-1 7 -1 33.5t1 67.5t3.5 94t5.5 114q-17 0 -51.5 -4t-106.5 -12q-13 0 -29 4.5t-16 15.5zM387 666q25 2 51.5 2h55.5h41.5t42.5 -2q3 58 6 119.5t8 121.5h-51h-60h-26h-13.5t-12 -1t-21.5 -3 q-7 -60 -11.5 -118.5t-9.5 -118.5z" />
<glyph unicode="$" horiz-adv-x="905" d="M33 473q0 33 20.5 60t51 47.5t68 36t73 26t65 16t43.5 7.5q9 1 14 -4t5.5 -12t-4 -14t-15.5 -11q-83 -29 -121 -57t-36 -50q0 -12 12 -20t32 -13t46 -7.5t55 -2.5h29t30 2q2 74 3.5 141.5t1.5 118.5q-57 12 -98.5 21.5t-71 18t-48.5 17t-30 19.5q-13 12 -20 37.5t-7 56.5 q0 32 10 63t33 48q65 48 129.5 79t124.5 50l8 125q2 25 7.5 32t15.5 5q9 -2 11 0t13 4q6 1 11.5 0.5t9.5 -4t6 -12t2 -23.5l-4 -107q42 8 79.5 11.5t69.5 3.5q56 0 91 -6t45 -9q12 -3 18 -11.5t8.5 -19t1.5 -21.5t-2 -19q-3 -17 -21 -37.5t-42.5 -38.5t-52.5 -31.5 t-50 -15.5q-11 -2 -12.5 7t3 22.5t13 28t17.5 24.5q-14 0 -26.5 1t-26.5 1q-32 0 -60.5 -2.5t-54.5 -7.5q-2 -47 -3 -94t-1 -89q74 -18 126.5 -42t87.5 -50.5t55 -53.5t29.5 -52t11 -45t-0.5 -33q-7 -56 -38 -103t-77.5 -84t-104 -63t-116.5 -39q-4 -50 -7.5 -95t-6.5 -81 t-4.5 -59.5t-1.5 -30.5q-2 -20 -9 -29t-18 -4q-12 5 -25.5 16t-13.5 33q1 10 1.5 32.5t1.5 54t1.5 70.5t1.5 83q-65 -4 -130 6t-117 33t-84 59.5t-31 85.5zM252 924q20 -16 59 -22t101 -17q2 35 3.5 68.5t4.5 70.5q-68 -23 -109.5 -52.5t-58.5 -47.5zM487 489q55 10 99.5 24 t75 30.5t47 34.5t16.5 36t-12 31.5t-38.5 25.5t-69 23.5t-103.5 24.5q-2 -35 -5 -96t-10 -134z" />
<glyph unicode="%" horiz-adv-x="1475" d="M72 961q0 85 19 151t49.5 115.5t68.5 83.5t75 55.5t69.5 31t52.5 9.5q71 0 120.5 -34.5t80.5 -88t45 -118.5t14 -126q0 -85 -21.5 -162.5t-64 -136t-105.5 -93t-145 -34.5q-42 0 -87.5 23.5t-83.5 68t-62.5 109t-24.5 146.5zM225 965q0 -57 6.5 -109.5t21.5 -92 t39.5 -63.5t61.5 -24q36 0 63 22.5t46.5 57t32.5 77t20.5 82.5t10.5 72.5t3 48.5q0 53 -4.5 109t-17.5 102t-35.5 75.5t-58.5 29.5q-32 0 -65.5 -32.5t-61 -86t-45 -123.5t-17.5 -145zM311 82q1 11 30.5 65.5t78.5 138t112.5 188.5t132.5 216t138.5 220.5t131 202 t110.5 160.5t75 97q14 14 22.5 21.5t20.5 7.5q4 -1 15 -7t22 -15.5t20 -22t9 -25.5q-2 -11 -5 -21t-10 -18q-24 -30 -61 -83.5t-83.5 -123t-99 -151.5t-107.5 -169t-110 -175t-105.5 -169.5t-94 -153.5t-75.5 -126.5t-50.5 -88t-19.5 -38.5q-5 -8 -9 -14q-5 -5 -10 -9.5 t-10 -4.5t-5.5 1t-0.5 3v8q-17 9 -30 21q-11 11 -21 26.5t-11 38.5zM809 334q0 85 19 151t49.5 115.5t68.5 84t75 55.5t69.5 30.5t52.5 9.5q71 0 120.5 -34.5t80.5 -88t45 -118.5t14 -125q0 -86 -21.5 -163t-64 -135.5t-105.5 -93t-145 -34.5q-42 0 -87.5 23.5t-83.5 68 t-62.5 109t-24.5 145.5zM963 338q0 -57 6 -109.5t21 -92t40 -63.5t62 -24q36 0 63 22.5t46.5 57t32.5 77t20.5 82.5t10.5 73t3 49q0 53 -5 109t-17.5 101.5t-35.5 75t-59 29.5q-32 0 -65.5 -32t-60.5 -86t-44.5 -124t-17.5 -145z" />
<glyph unicode="&#x26;" horiz-adv-x="1249" d="M61 293q0 57 24.5 106.5t70 100t111.5 106.5t149 127q-51 90 -81 177t-30 167q0 64 22.5 111.5t58.5 81.5t81 55.5t88.5 34t81.5 17.5t61 5q55 0 92 -7.5t59.5 -19.5t34 -26t16.5 -27t6.5 -23.5t4.5 -14.5q16 -22 22.5 -43.5t6.5 -42.5q0 -76 -88 -164 q-82 -82 -161.5 -148t-151.5 -123q37 -54 81 -107.5t92.5 -105t100 -100t102.5 -92.5q23 26 38.5 57t21.5 68q-1 5 6 9t17.5 5.5t22.5 -1t23 -9.5q15 -11 25 -16.5t17 -9.5t10 -8.5t4 -12.5q6 -50 -11 -96t-49 -88q66 -51 123.5 -86.5t98.5 -51.5q11 -5 22.5 -10.5t19 -11.5 t8.5 -13t-9 -14q-7 -5 -13 -12.5t-14.5 -14.5t-21 -9.5t-33.5 3.5q-23 8 -37.5 7t-28.5 -17q-8 -8 -24.5 -7t-34 6.5t-33 13.5t-21.5 14q-24 20 -52.5 44t-59.5 52q-29 -22 -60.5 -40t-62.5 -32q-74 -32 -151.5 -47.5t-151.5 -15.5q-90 0 -170.5 21t-141 60t-96 94.5 t-35.5 123.5zM182 322q0 -42 27 -70.5t69 -45t94 -23.5t103 -7q34 0 74.5 4.5t83.5 13.5t86 23.5t82 34.5q-45 46 -91.5 96.5t-91.5 103.5t-87 109t-78 113q-60 -47 -110 -89.5t-85.5 -85t-55.5 -86t-20 -91.5zM420 1067q-6 -59 16 -124t64 -136q18 15 38 33t40 37 q32 29 77 63.5t86 72.5t70 78.5t29 82.5q0 24 -31.5 42.5t-91.5 18.5q-25 0 -54.5 -3t-66.5 -11q-72 -16 -121 -54t-55 -100z" />
<glyph unicode="'" horiz-adv-x="283" d="M85 1014.5q1 32.5 1 72.5q0 52 1 111t5.5 109.5t13 84t23.5 33.5q6 0 11.5 -2t9.5 -2q3 0 10.5 1.5t16.5 3t17 3t13 1.5q20 0 28.5 -19.5t8.5 -48.5q0 -28 -2 -57.5t-2 -57.5l-11 -286q0 -10 -12.5 -19.5t-29 -16.5t-33 -11.5t-25.5 -4.5q-21 0 -30 13t-12 36.5t-2 56z " />
<glyph unicode="(" horiz-adv-x="655" d="M102 608q0 143 32.5 265t82.5 221t109 175.5t113 128.5t94 79t51 28q8 2 18 -7t10 -15q1 -4 1 -12t-1.5 -17t-3.5 -17.5t-6 -11.5q-25 -18 -57 -59t-66 -100.5t-67 -134t-59 -159t-42 -176t-16 -184.5q0 -66 6 -138.5t17.5 -142.5t29.5 -133.5t42 -113.5t54 -81.5 t66 -37.5q28 -5 46.5 -13t30.5 -17t17.5 -17t7.5 -12q6 -12 -4 -19t-27 -10t-38 -3.5t-39 -0.5q-43 0 -90 28t-91.5 77.5t-84.5 118.5t-70.5 150.5t-48 173t-17.5 187.5z" />
<glyph unicode=")" horiz-adv-x="655" d="M-59 -106q-4 10 2.5 20.5t19.5 19.5t31 15t37 6q51 0 92 28.5t73.5 76.5t57.5 110.5t43.5 130.5t31 136t20 127t10.5 104t3 67q0 98 -12 188t-30 167.5t-40.5 141t-43.5 108.5t-38.5 70t-25.5 26q-20 2 -32 9t-12 14.5t14.5 13.5t47.5 6q24 0 59 -20t73 -61t75.5 -102.5 t67.5 -144t48.5 -186t18.5 -228.5q0 -99 -15.5 -202.5t-45.5 -200t-75 -182t-104 -149.5t-133 -101t-161 -37q-28 0 -41 7.5t-16 21.5z" />
<glyph unicode="*" horiz-adv-x="680" d="M41 1225q0 8 3.5 12.5t8.5 9.5q11 11 17.5 17t11.5 6q7 -1 22.5 -2.5t39.5 -6t57 -14t75 -26.5q2 41 5 78t8 65t12 44.5t16 16.5q1 -1 2 -1q1 -1 5 -1q5 0 12 2t22 2q20 0 37 -21t17 -56q0 -23 -2 -47.5t-2 -49.5l96 68q12 6 31 6q6 0 15 -2t28 -8q21 -6 41 -16t20 -21 q0 -5 -6 -8q-47 -28 -95.5 -61t-99.5 -68q34 -19 70.5 -40.5t77.5 -47.5q10 -7 18.5 -12t15.5 -11.5t11 -16t4 -26.5q0 -12 -3.5 -26.5t-9 -27t-12 -21.5t-12.5 -9l-8 4q-38 34 -86.5 64.5t-102.5 58.5l-4 -164q-2 -16 -11.5 -25.5t-22 -15t-25 -7t-21.5 -1.5 q-21 0 -30.5 14.5t-12.5 40.5t-2 62.5t2 81.5q-37 -29 -72 -59.5t-67 -59.5q-8 -8 -14 -8q-5 0 -8.5 4.5t-3.5 15.5q0 8 -7 8.5t-16 3.5t-16 12t-7 34q0 18 41 55.5t113 93.5l-127 49q-8 4 -16.5 4.5t-15 4.5t-11.5 14.5t-6 34.5z" />
<glyph unicode="+" d="M106 629q0 14 4 28.5t15 16.5q13 3 40.5 5.5t64.5 4.5t82 3.5t94 2.5v135q0 50 -1.5 76.5t-3.5 38.5v8q2 15 9.5 23.5t17.5 13.5t20.5 6.5t18.5 1.5q14 0 30.5 -5.5t18.5 -16.5q3 -13 5 -40.5t3.5 -65t2 -82.5t1.5 -93h107q44 0 83.5 -2t68 -7t42.5 -15t7 -25l-9 -16 q0 -2 2 -12.5t2 -12.5q-3 -19 -18 -27t-49 -10h-72q-32 0 -74.5 1t-89.5 1v-98q0 -43 1.5 -80t0 -64t-8 -42t-23.5 -15h-33l-16 -2q-19 3 -32.5 21.5t-15.5 52.5v70q0 31 1 72t1 87h-129q-49 0 -75.5 -1t-38.5 -3h-8q-15 1 -24 9t-14 18t-6.5 20.5t-1.5 18.5z" />
<glyph unicode="," horiz-adv-x="336" d="M12 -193q0 4 2.5 6t5.5 5q41 34 62.5 83t28.5 99q-10 5 -20.5 12.5t-19.5 17.5t-14.5 21.5t-5.5 24.5q0 15 6.5 34.5t16.5 39t21.5 35.5t21.5 22q17 9 27.5 9.5t19.5 0.5q46 0 71 -23.5t27 -78.5q0 -24 -2 -46.5t-6.5 -46.5t-11.5 -51t-17 -59q-12 -40 -38.5 -70.5 t-57.5 -52.5q-8 -6 -19.5 -8t-25.5 -2q-13 0 -26 2t-23.5 6t-17 9t-5.5 11z" />
<glyph unicode="-" horiz-adv-x="715" d="M41 442q0 7 1 16t3.5 17.5t6.5 14.5t9 8q20 5 57 8.5t84 6t101 4t108 2.5t106 1h95q15 0 26.5 -7.5t19.5 -17.5t12 -20t4 -14q0 -31 -17 -55.5t-63 -26.5q-9 -1 -47 -2t-90.5 -2t-112.5 -2.5t-112 -2.5t-88.5 -2t-43.5 -1q-21 0 -33 10.5t-18 24t-7 25.5t-1 15z" />
<glyph unicode="." horiz-adv-x="336" d="M31 68q0 14 6.5 34t16 39.5t21 35.5t21.5 22q17 9 27.5 9.5t19.5 0.5q47 0 72 -23.5t27 -79.5q1 -14 -1.5 -32.5t-7.5 -35.5t-14 -30.5t-22 -17.5q-37 -13 -58 -13q-20 0 -33.5 7t-27.5 16q-20 11 -33.5 30t-13.5 38z" />
<glyph unicode="/" horiz-adv-x="811" d="M20 43q0 9 14 47.5t38.5 98t58 136t72 163t81 179t84.5 183t83 175.5t76.5 156.5t64.5 126.5t47 85q15 26 25.5 35.5t33.5 9.5q8 0 31 -5.5t43 -5.5q9 0 14 -6.5t5 -23.5q0 -25 -9 -43q-20 -38 -49.5 -97.5t-65 -134.5t-75.5 -161t-81 -175.5t-82 -180t-78 -173.5 t-69 -156t-55.5 -128t-37 -89t-13.5 -39q-3 -11 -7 -19t-8.5 -13.5t-10.5 -5.5q-8 0 -18 1t-19 1t-16.5 -0.5t-13.5 -1.5q-7 -1 -13 -2q-13 0 -22.5 9.5t-15.5 21t-9 21.5t-3 11z" />
<glyph unicode="0" horiz-adv-x="1087" d="M66 621q0 143 34 257t86 202t113.5 151t117.5 103.5t97.5 60t52.5 20.5q8 1 18.5 -7.5t10.5 -14.5q1 -3 1 -11t-1.5 -17t-3.5 -17t-6 -11q-25 -18 -59 -52t-70 -82t-72 -109.5t-64 -134.5t-45.5 -157t-17.5 -177q0 -106 18 -201.5t51.5 -168t82 -115t110.5 -42.5 q51 0 92 23.5t74 63t58 91t43.5 107.5t31 113t20 107.5t10.5 90.5t3 62q0 147 -25 259t-58 187t-64 113t-43 39q-20 2 -32 9.5t-12 15.5t14.5 14t47.5 6q24 0 58.5 -13t72.5 -42.5t76 -77.5t68 -119t48.5 -167t18.5 -220q0 -100 -15.5 -194.5t-45.5 -178t-75 -153.5 t-104.5 -120t-133 -78t-161.5 -28q-43 0 -91.5 19t-95 55t-89 89t-75 121t-51.5 150.5t-19 178.5z" />
<glyph unicode="1" horiz-adv-x="438" d="M131 170q0 53 2 112.5t4 118t4 112.5t2 95q0 38 1.5 104t4 143t5.5 157.5t6 148t5 113t3 53.5q0 12 5.5 21.5t10.5 7.5q13 0 16.5 4t8.5 4q12 2 21.5 0.5t9.5 1.5q2 6 7 8t13 2q11 -2 23 -10t20 -25q2 -5 3.5 -30.5t2.5 -63.5t1.5 -85t0.5 -95q0 -42 -0.5 -81t-0.5 -71 t-0.5 -54.5t-0.5 -31.5q-3 -57 -3.5 -117t-0.5 -120q0 -81 -1.5 -160t-1.5 -148t1.5 -124.5t7.5 -89.5q8 -42 1.5 -56t-17.5 -16q-5 -1 -9.5 0t-10 1.5t-12 -0.5t-13.5 -5q-16 -9 -31.5 -5.5t-46.5 17.5q-15 6 -22.5 10t-10.5 7.5t-2.5 7t0.5 8.5q-6 52 -6 131z" />
<glyph unicode="2" horiz-adv-x="1016" d="M22.5 -12q-4.5 11 8.5 32q8 15 49.5 53t104 96t139.5 133.5t157 166.5q94 106 158 197t100.5 168t47.5 140t1 113q-9 46 -36.5 78t-67 52.5t-87 30.5t-95.5 12q-78 4 -143 -20.5t-109.5 -61t-65.5 -78t-10 -72.5q9 -25 32 -35t52 -10q22 0 46 5t46.5 14t42 21.5 t33.5 27.5q9 8 14 6.5t6.5 -8t-0.5 -15t-8 -14.5q-11 -12 -9 -12t13 -7q11 -5 16 -17t-7 -32q-3 -4 -4.5 -7.5t-4 -8t-6.5 -10t-12 -11.5q-72 -53 -145 -53q-40 0 -76 14.5t-63.5 38t-46 53t-23.5 60.5q-6 30 2.5 70t30.5 82t57.5 82.5t84 72.5t110.5 51.5t137 20.5 q113 1 188 -23t123.5 -67t75 -100.5t41.5 -124.5q13 -53 2 -111t-38 -116.5t-65 -116.5t-79 -111.5t-81 -101.5t-71 -86q-40 -51 -76 -89.5t-67.5 -69t-57.5 -57t-47 -53.5q68 14 149.5 19.5t159.5 5.5q50 0 96 -2t83 -5t63 -7t35 -9q13 -6 19.5 -11.5t10 -11t6 -10 t7.5 -8.5q9 -9 14.5 -20.5t-10.5 -16.5q-11 -3 -12 -10.5t18 -25.5q25 -26 33.5 -40t-17.5 -12q-24 2 -143.5 3t-323.5 1q-102 0 -186.5 -5t-146 -12t-98 -14.5t-42.5 -13.5q-12 -11 -14.5 -12.5t-7.5 6.5q-6 8 -10.5 19z" />
<glyph unicode="3" horiz-adv-x="1110" d="M23 195q0 39 16 74t42 65.5t59.5 55.5t69 44.5t70 32t62.5 18.5q21 5 29 3.5t7 -5.5t-6.5 -9.5t-11.5 -8.5l-84 -45q-77 -42 -112 -91.5t-35 -92.5q0 -35 18.5 -57.5t47 -35t61.5 -17.5t63 -5q63 0 132.5 17t135 46t123 67.5t99 82t61 89t9.5 89.5q-17 71 -59 116 t-96.5 70t-116.5 34t-118 9q-65 0 -113.5 -6.5t-64.5 -9.5q-21 -4 -30 2.5t-12.5 17.5t-4 25.5t-2.5 26.5t-6.5 16t-5.5 6t3 5.5t19 15.5q15 10 57.5 22.5t97.5 30.5t115 43.5t109 62.5q41 30 68 57t43 50.5t22.5 43.5t6.5 36q0 18 -6 31t-14 22.5t-16.5 15t-13.5 7.5 q-30 6 -67 6q-59 0 -123.5 -15.5t-123.5 -40.5t-106 -56.5t-69 -63.5q-6 -9 3 -10.5t27 1t41 8.5t46 13t43 13l30 9q8 3 9.5 1t-1 -7t-8 -13t-10.5 -15q-5 -10 -6 -16.5t-10 -14.5q-13 -11 -20.5 -22t-12.5 -20t-9 -15.5t-9 -8.5q-13 -5 -29.5 -11t-35 -12t-38 -10t-37.5 -4 q-29 0 -53.5 13.5t-40.5 48.5q-17 39 -4.5 83.5t51.5 89t101.5 86t146.5 75.5q59 23 111.5 33t97.5 10q39 0 72 -6t58.5 -14.5t43.5 -18.5t27 -19q21 -18 34 -37.5t22.5 -39t17.5 -38t18 -34.5q20 -33 12 -67t-35.5 -68t-69 -66.5t-89 -62.5t-95.5 -55.5t-88 -45.5 q49 -7 103 -20t106.5 -33.5t100 -50t83.5 -68.5t57 -88t21 -110q0 -107 -65 -208t-195 -181q-44 -26 -93 -46t-100.5 -33t-103.5 -19.5t-102 -6.5t-96.5 6.5t-86 19.5t-70.5 32t-50 44q-26 36 -37.5 68.5t-11.5 63.5z" />
<glyph unicode="4" horiz-adv-x="1208" d="M23 509.5q-1 6.5 2.5 10.5t10 6.5t11.5 5.5q125 79 219.5 155.5t166.5 149t126.5 142.5t99.5 136.5t85 130.5t85 126q6 9 16 7.5t19 -8.5t14.5 -16.5t2.5 -15.5q-72 -156 -160 -282.5t-178 -224.5t-175 -169t-149 -116q48 1 115.5 2t144 2t156.5 2.5t151 5.5 q6 82 12.5 162.5t13 152.5t12.5 132t10 102q1 15 4 25t8 18.5t12 17.5t16 23q10 14 16.5 26.5t11 20.5t8.5 10t10 -4q5 -6 10 -9.5t9.5 -2t8.5 10.5t8 28q1 4 7.5 6.5t13.5 1.5t12 -5.5t4 -14.5q0 -6 -1.5 -40t-3 -87.5t-3.5 -122.5t-4.5 -143.5t-5.5 -150.5t-6 -145 q18 2 37 3t36 1q23 0 42.5 -1.5t31.5 -6.5q5 -2 10.5 -12.5t8 -23t1 -23t-9.5 -12.5q-14 -3 -19.5 -19t-8.5 -28q-2 -8 -41 -12.5t-96 -6.5q-6 -124 -8 -209t-3 -139.5t-3 -82t-7 -36.5q-7 -8 -13.5 -11.5t-12.5 -4t-11.5 0.5t-9.5 1t-9.5 -4t-11.5 -7.5t-11.5 -4t-8.5 7.5 q-2 5 -7 5.5t-10 0.5t-8.5 0.5t-3.5 5.5t-5.5 7t-12.5 3.5t-12.5 2.5t-6.5 5q-2 13 -4 17t-4 7.5t-4.5 10.5t-3.5 25q-2 21 -2 45.5v52.5q0 62 2.5 137.5t7.5 159.5h-6q-30 0 -74 -0.5t-97 -2t-111 -3t-114 -3t-108 -3.5t-93 -3.5t-67 -2.5t-32 -2q-11 -1 -17.5 2.5t-10 10 t-6 15t-5.5 17.5q-6 12 -8 12q3 -3 22 0q-5 5 -8.5 13t-9.5 16q-9 11 -10 17.5z" />
<glyph unicode="5" horiz-adv-x="944" d="M43 203q1 29 16 57t40 54.5t58.5 51.5t73.5 48q13 7 22.5 7.5t16 -2t11 -6.5t8.5 -7q11 -10 1.5 -21.5t-34.5 -22.5q-12 -5 -29 -19t-32.5 -34.5t-25.5 -47.5t-7 -58q3 -34 27.5 -49t64.5 -15q31 0 68 8t76.5 23.5t79 37t75.5 48.5q38 28 69.5 62.5t53.5 69.5t32.5 68.5 t6.5 61.5q-7 55 -28 94t-50.5 65.5t-64 42t-69 22.5t-65 6.5t-51.5 -5.5q-46 -10 -73.5 -16.5t-46 -11.5t-34 -10.5t-38.5 -12.5q-11 -4 -15.5 -2t-5 6.5t2 9.5t5.5 7q4 3 -1.5 6t-12 7.5t-10 12.5t5.5 21q3 5 7.5 9.5l10.5 10.5q-9 13 -11.5 27t-2.5 33q0 12 1 27t1 32 v64.5v99.5t-0.5 108.5t-1.5 90.5q-2 0 -2 2q-11 8 -15 15t-5 12t-1.5 9t-3.5 7q-9 9 -2.5 18t25.5 25q9 7 10 11.5t1.5 6.5t5 2t20.5 -2q11 -2 26 -2h33q34 0 76.5 2t86.5 4.5t87 6t79 6t61 4.5t34 2q6 0 16 -2.5t21.5 -6.5t22 -9t16.5 -9q5 -5 5 -12t-1.5 -15t-2.5 -16 t3 -14q8 -11 10 -22t-10 -25q-6 -8 -5 -12t3.5 -6t4 -4.5t-2.5 -6.5q-6 -6 -1.5 -11.5t9.5 -7.5q-3 0 1.5 -3.5t7 -7.5t-1.5 -7t-23 -2h-46.5t-81 -0.5t-99 -1.5t-101.5 -1.5t-89 -1t-60 0.5v-27q0 -41 -1 -92t-2 -100.5t-3 -92t-3 -65.5q43 9 117 12q59 3 128 -5t134 -40.5 t118.5 -95.5t82.5 -170q6 -22 8 -42t2 -42q0 -86 -42 -166.5t-116.5 -142.5t-175 -99.5t-217.5 -37.5q-28 0 -55 1.5t-55 6.5q-29 4 -57.5 21.5t-51 45.5t-36 65t-11.5 81zM772 1212h2q5 -2 3 -2t-5 2z" />
<glyph unicode="6" horiz-adv-x="1018" d="M70 487q0 152 33.5 274t84.5 216.5t111.5 164t114.5 115.5t93 70.5t48 30.5q26 18 58 29.5t63 11.5q29 0 32 -7.5t-3 -15.5q-3 -4 -2.5 -8.5t0.5 -9t-1.5 -9.5t-9.5 -10q-98 -61 -178.5 -149.5t-138 -194.5t-89.5 -223t-32 -235q0 -79 15 -144t39.5 -116.5t55.5 -89.5 t62 -63t59 -37.5t47 -12.5q30 0 76 18t89.5 60t74.5 110t31 168q0 67 -16 116t-41.5 82.5t-58 54t-66.5 30t-66.5 10.5t-56.5 -4q-22 -5 -43 -21t-38 -34.5t-27.5 -37t-10.5 -28.5t-6.5 -15.5t-15 -5.5t-15 5t-6.5 16q0 59 28.5 104.5t72 76t94 45.5t94.5 14q70 -2 130 -30 t104 -73t68.5 -102t24.5 -117q0 -109 -20.5 -190.5t-54.5 -139.5t-77 -95.5t-89 -59t-90 -29.5t-80 -8q-84 0 -152 23.5t-120.5 63t-90 90.5t-61.5 105.5t-35.5 109t-11.5 101.5z" />
<glyph unicode="7" horiz-adv-x="924" d="M21 1289.5q2 21.5 10 41.5q4 10 9 20.5t11.5 19.5t14 14.5t16.5 5.5q14 0 47.5 -2.5t83 -5t114 -5t140.5 -2.5q97 0 210 5.5t236 19.5q32 3 48 -9t24 -20q3 -3 -25.5 -55t-82.5 -156.5t-131 -262.5t-171 -372q-62 -143 -104.5 -240t-71 -159.5t-45 -96t-27 -49t-17 -18 t-15.5 -2.5q-12 -1 -15 1t-3 4.5t-0.5 4.5t-8.5 2q-14 0 -22.5 2.5t-24.5 12.5q-7 4 -8.5 9.5t-2.5 11.5t-3.5 13.5t-9.5 16.5t-12 14t-7.5 10t-1 12t7.5 21q5 9 31 56t66.5 119t91.5 163.5t106.5 189l111 195t105.5 182.5t90 151t64 101q-32 -8 -82 -17.5t-111.5 -17.5 t-131.5 -13t-140 -5q-49 0 -97.5 3.5t-93.5 10.5t-85.5 18.5t-73.5 27.5q-16 8 -14 29.5z" />
<glyph unicode="8" horiz-adv-x="903" d="M51 281q0 54 23.5 120.5t63.5 140t92.5 151.5t111.5 155q-30 30 -56 62t-45.5 67t-30.5 74t-11 84q0 58 26.5 111.5t69.5 95t98.5 66t114.5 24.5q77 0 145 -50q10 -8 11 -17.5t-9 -25.5q-9 -17 -16 -22t-16 4q-14 12 -29.5 17t-34.5 5q-32 0 -65 -15t-60 -42t-44 -63 t-17 -78q0 -35 22.5 -73t59.5 -79q63 77 122 144.5t105.5 119t76.5 83.5t34 38q8 13 13 17.5t9.5 5.5t9 1t11.5 5q7 4 11 2t7 -5.5t7 -6.5t11 0q23 12 19.5 0t-17.5 -37q-19 -33 -55 -80.5t-82.5 -104.5t-101 -122t-109.5 -133q49 -51 101.5 -109t96 -125.5t71.5 -146 t28 -170.5q0 -100 -36.5 -172.5t-96.5 -120t-137.5 -70t-159.5 -22.5q-74 0 -136.5 20.5t-108 58.5t-71.5 93.5t-26 124.5zM199 336q0 -60 15 -104t41.5 -73t63 -43t80.5 -14q64 0 112 22.5t80 60.5t48 87.5t16 104.5q0 67 -21 122.5t-55 103.5t-77 90t-86 83 q-45 -62 -85 -122t-69 -116.5t-46 -107.5t-17 -94z" />
<glyph unicode="9" horiz-adv-x="958" d="M86 897q0 89 30.5 163.5t81.5 133t116.5 102.5t136.5 73t141.5 43.5t130.5 14.5q59 0 102.5 -13.5t63.5 -41.5q14 -22 11.5 -32t-30.5 -15q-13 -3 -13.5 -8t1.5 -10t2.5 -9.5t-10.5 -5.5q-12 -2 -16.5 -7t-8 -10t-8 -8t-14.5 -1q-14 3 -28.5 4.5t-31.5 1.5 q-49 0 -107.5 -14t-117 -40t-113 -62.5t-96.5 -81t-67 -96t-25 -106.5q0 -40 38 -66t101 -26q50 0 112 20.5t130 68.5t138.5 126t137.5 193q16 42 34 87t38 83q9 16 18 20t18 2.5t16.5 -6.5t13.5 -6q11 -3 14 -12.5t14 -20.5t-1.5 -34.5t-30.5 -65.5q-23 -56 -58 -139 t-76.5 -181.5t-87 -206.5t-90.5 -213t-86.5 -201.5t-75 -172t-56 -124t-29.5 -58.5q-15 -19 -26 -26t-20 -7.5t-17 2t-17 2.5q-10 0 -24 6t-24.5 19t-15 34.5t3.5 53.5q7 24 33.5 79.5t64.5 129t84 160.5t93 175t91 171.5t79 150.5q-80 -101 -152.5 -155t-133.5 -78 t-108 -26.5t-75 1.5q-24 3 -48.5 18.5t-46.5 38t-41 51t-33 57t-22 55t-8 46.5z" />
<glyph unicode=":" horiz-adv-x="377" d="M51 68q0 14 6.5 34t16.5 39.5t21.5 35.5t21.5 22q17 9 27.5 9.5t19.5 0.5q46 0 71 -23.5t27 -79.5q1 -14 -1 -32.5t-7.5 -35.5t-14.5 -30.5t-22 -17.5q-17 -6 -31.5 -9.5t-25.5 -3.5q-20 0 -34 7t-28 16q-20 11 -33.5 30t-13.5 38zM51 559q0 15 6.5 35t16.5 39.5t21.5 35 t21.5 21.5q17 9 27.5 9.5t19.5 0.5q46 0 71 -23t27 -79q1 -15 -1 -33t-7.5 -35t-14.5 -30.5t-22 -18.5q-17 -6 -31.5 -9t-25.5 -3q-20 0 -34 6.5t-28 16.5q-20 11 -33.5 30t-13.5 37z" />
<glyph unicode=";" horiz-adv-x="377" d="M12 -193q0 4 2.5 6t5.5 5q41 34 62.5 83t28.5 99q-10 5 -20.5 12.5t-19.5 17.5t-14.5 21.5t-5.5 24.5q0 15 6.5 34.5t16.5 39t21.5 35.5t21.5 22q17 9 27.5 9.5t19.5 0.5q46 0 71 -23.5t27 -78.5q0 -24 -2 -46.5t-6.5 -46.5t-11.5 -51t-17 -59q-12 -40 -38.5 -70.5 t-57.5 -52.5q-8 -6 -19.5 -8t-25.5 -2q-13 0 -26 2t-23.5 6t-17 9t-5.5 11zM51 559q0 15 6.5 35t16.5 39.5t21.5 35t21.5 21.5q17 9 27.5 9.5t19.5 0.5q46 0 71 -23t27 -79q1 -15 -1 -33t-7.5 -35t-14.5 -30.5t-22 -18.5q-17 -6 -31.5 -9t-25.5 -3q-20 0 -34 6.5t-28 16.5 q-20 11 -33.5 30t-13.5 37z" />
<glyph unicode="&#x3c;" d="M147 573q0 8 4.5 17.5t4.5 21.5q0 7 -4.5 14t-4.5 15q0 4 5.5 9.5t13 10t15 8t12.5 5.5q35 31 109 74t173 94l100 51q53 26 94.5 45.5t69.5 17.5q28 0 37 -18v-10q0 -6 2.5 -14.5t6 -16.5t6 -13.5t2.5 -6.5q0 -10 -10 -17.5t-33 -19.5l-64 -33q-40 -21 -89 -46 t-100 -50.5t-99.5 -50.5t-86.5 -44q44 -20 94.5 -42t106.5 -48l102 -49q72 -34 114 -59t42 -49v-6.5t-2 -6.5l-14 -20q4 -8 4 -17q0 -11 -8.5 -22.5t-22.5 -11.5q-9 2 -23.5 5.5t-31.5 12.5l-64 33q-39 20 -88.5 44.5t-101 49.5t-100 49t-87 44t-61.5 33t-23 17z" />
<glyph unicode="=" d="M124 498.5q0 7.5 3.5 14.5t9 12.5t10.5 6.5q16 4 51 7t82.5 5.5t104.5 3.5t119 1h92h79t60 -3t38 -11t13 -25l-4 -25q7 -5 12.5 -13t2.5 -23q-3 -19 -20.5 -23t-51.5 -6h-72q-78 2 -171.5 3t-184.5 1q-50 0 -77 -1t-46 -3q-13 0 -17 7t-5.5 17t-5.5 21.5t-17 21.5 q-5 4 -5 11.5zM129 772q0 7 2.5 15.5t7 16t10 12.5t11.5 5q22 0 58.5 2t84 4.5t103.5 4.5t118 2h92q44 0 80.5 -2t63 -8t41 -16.5t14.5 -27.5l-6 -10q0 -1 -0.5 -7t-1.5 -13.5t-1.5 -13.5t-0.5 -7q-2 -9 -5 -13.5t-9.5 -6.5t-17.5 -2.5t-28 -1.5h-71q-39 1 -86 1.5t-96.5 1 t-99.5 1t-95 0.5q-50 0 -77 -1t-46 -3q-15 1 -23.5 9t-13.5 18.5t-6.5 21t-1.5 18.5z" />
<glyph unicode="&#x3e;" d="M147 365q0 9 10 16.5t33 19.5q52 22 111 50.5t117.5 58.5t112.5 59.5t96 55.5q-40 22 -89 46.5t-99.5 50t-99 49.5t-86 44.5t-60.5 35t-23 21.5q0 9 2 13l14 20q-4 8 -4 17q0 11 8.5 22.5t22.5 11.5q9 -2 23.5 -5.5t31.5 -12.5q55 -29 115.5 -59t119 -59t111 -55 t92.5 -46.5t63.5 -34t23.5 -16.5q0 -4 -3 -10.5t-6.5 -13.5t-6.5 -14.5t-3 -13.5q0 -3 3 -4.5t6.5 -3t6.5 -3t3 -5.5q0 -6 -22.5 -23t-59.5 -40t-85.5 -51t-100.5 -56t-104 -54t-96 -46.5t-77 -32.5t-47 -12q-28 0 -37 18v10q0 6 -2.5 14.5t-6 16.5t-6 14t-2.5 7z" />
<glyph unicode="?" horiz-adv-x="971" d="M0 1145q0 34 14.5 70t48.5 71q37 37 86 66.5t105.5 50t118 31t123.5 10.5q70 0 137.5 -14t127 -44t107 -76t76.5 -110q14 -31 20.5 -60.5t6.5 -58.5q0 -82 -47 -157t-126.5 -135.5t-184 -102.5t-220.5 -57q-2 -19 -2 -41.5v-46.5q0 -53 2 -95t10 -73q6 -27 6.5 -40.5 t-4 -18t-12.5 -2.5t-18 7q-10 4 -16.5 -5.5t-13.5 -23t-15 -26t-21 -14.5q-12 -2 -21.5 2.5t-16.5 12.5t-12 17t-9 15q-3 4 -6.5 36t-6 77t-4.5 95t-2 91q0 46 5 63q4 17 10.5 29t13.5 20t14 12.5t11 6.5q2 1 24 2.5t57.5 7t79.5 16.5t90 30.5t90 49t78 73t55 101.5t21 134 q0 51 -21.5 88.5t-57 62t-82 36t-97.5 11.5q-61 0 -122 -16.5t-110.5 -47.5t-81 -76.5t-32.5 -102.5q0 -25 5.5 -49t27.5 -29q5 -2 8.5 -8.5t9.5 -10.5q11 -6 5 -16t-17 -12q-12 -3 -15 -9t-10 -8q-5 -1 -5.5 -2.5t-3 -2t-10 0t-24.5 4.5q-25 6 -51 23.5t-47.5 42.5t-35 57 t-13.5 68zM254 68q0 14 6.5 34t16 39.5t21 35.5t21.5 22q17 9 27.5 9.5t20.5 0.5q46 0 71 -23.5t27 -79.5q1 -14 -1 -32.5t-7.5 -35.5t-14.5 -30.5t-22 -17.5q-37 -13 -58 -13q-20 0 -33.5 7t-27.5 16q-20 11 -33.5 30t-13.5 38z" />
<glyph unicode="@" horiz-adv-x="1620" d="M82 559q0 117 34 226t95 204t144 174t180.5 135.5t206 87.5t219.5 31q59 0 124.5 -13t129.5 -41t122.5 -73t103 -108t71 -146t26.5 -188q0 -118 -21 -208.5t-56 -157.5t-80 -112.5t-93 -73.5t-95 -40t-85 -12q-35 0 -70 12t-63 34t-45 54t-17 72q-32 -51 -69.5 -85 t-75.5 -54.5t-73.5 -28.5t-63.5 -8q-48 0 -79.5 19.5t-50 43t-26.5 43.5t-8 21q0 51 22.5 95.5t59 82t83 68t94 54.5t92.5 40.5t79 25.5q-2 64 -9.5 106t-21 66t-34 33.5t-48.5 9.5q-27 0 -53.5 -15t-46.5 -42t-32.5 -65t-12.5 -83q0 -11 1 -21t1 -20q0 -5 -12.5 -10.5 t-28.5 -5.5q-22 10 -39 19q-15 7 -27 13t-12 7q0 59 29 114t75 97t102 67t110 25q52 0 90 -14t64 -35.5t42.5 -49t25.5 -54.5t12.5 -51.5t4.5 -39.5q0 -28 -6.5 -72.5t-15 -95.5t-15 -103t-6.5 -95q0 -22 7.5 -38.5t20 -27.5t28.5 -16.5t34 -5.5q27 0 59 9.5t64.5 32.5 t63 61t54 95.5t38 135t14.5 180.5q0 108 -40.5 188t-104.5 132.5t-141.5 78t-151.5 25.5q-84 0 -172 -20.5t-171 -63t-156 -106.5t-128 -150.5t-87 -196t-32 -242.5q0 -123 37.5 -222t104 -168.5t159 -106.5t203.5 -37q90 0 164.5 27t130 62t91 67.5t46.5 44.5 q17 14 24.5 18t12.5 4t9.5 -1t9.5 -1q6 0 7.5 5t4.5 5t4.5 -5t1.5 -13q0 -3 -1 -6.5t-1 -5.5q-1 -5 -10.5 -28t-32 -55t-59.5 -68t-93 -66t-133 -50t-178 -20q-135 0 -254 43.5t-207.5 130t-140 216t-51.5 300.5zM604 367q0 -14 4.5 -21.5t11 -11t13.5 -4t12 -0.5 q24 0 49.5 13t50.5 34t48.5 47.5t43.5 54.5t36 53.5t26 45.5v71v10q-25 -8 -56.5 -25.5t-64.5 -41t-64 -51.5t-55.5 -57.5t-39.5 -59.5t-15 -57z" />
<glyph unicode="A" horiz-adv-x="1120" d="M31 0.5q2 15.5 2 32.5t-0.5 32t4.5 29l12.5 37.5t26.5 76t35 97t39 101.5q-18 0 -25 10q-5 8 -12 9.5t-15 4.5q-8 2 -11 9t-1 12q2 6 -3 10t-5 18q0 6 9.5 11.5t23.5 9.5t31.5 7t33.5 5h7.5t9.5 2q22 53 50 114.5t57.5 125.5t59.5 128t57 120.5t49.5 103.5t37.5 78 q-12 37 -21.5 68t-16.5 54t-11 36.5t-4 15.5q-1 2 0 4q2 5 10 6q-8 15 -8 22q0 4 2 5q2 2 10 4t17 3.5t17 2t11 0.5q1 0 5 -1q6 -2 17 -9q1 5 2.5 7t3.5 4l3 3q6 3 13 1.5t13 -1.5t8.5 5t12.5 5q13 0 22 -28q1 -5 14 -37.5t33 -85t46.5 -121.5t55.5 -146.5t58.5 -160 t56.5 -162.5q56 -163 94 -275t61.5 -183t35 -106t14.5 -42q5 -16 8 -25.5t3 -17.5t-10 -8.5t-21 -0.5l-10 -2q-5 -2 -10.5 -3.5t-10.5 -6.5q2 -10 1.5 -15.5t-0.5 -8.5l-1 -4q-3 -4 -12 -6.5t-19 -2.5q-2 0 -6 1q-7 2 -14 10q-17 5 -40 10q-12 3 -26 6q-11 3 -19 16 t-14.5 30.5t-12 36t-9.5 32.5l-98 309q-22 0 -55.5 -0.5t-71.5 -1t-77 -2t-71 -2.5l-200 -10l-117 -306q-3 -5 -8.5 -20t-11.5 -31.5t-11 -31t-6 -17.5q-2 -8 -12 -10t-17 -4q-6 -2 -10 -11t-12 -12q-8 -5 -20 -1t-21 13q-8 10 -6 25.5zM328 524l180 11q23 0 55 1 q54 1 156 3l-60 174q-26 74 -56.5 166t-59.5 182q-17 -44 -41 -106t-50.5 -128t-51.5 -129t-44 -108z" />
<glyph unicode="B" horiz-adv-x="1108" d="M23 1266q0 20 17.5 35.5t45.5 27.5q7 3 30.5 14t60 25.5t82.5 30.5t98 29.5t107 22.5t109 9q39 -1 83 -4.5t87 -14.5t80.5 -31t63.5 -54q28 -22 49.5 -59.5t21.5 -90.5q0 -37 -6.5 -66.5t-11.5 -41.5q-26 -65 -66.5 -112t-87 -80.5t-93.5 -56.5t-85 -38q42 0 86.5 -4 t88 -14.5t83.5 -30.5t74 -51q22 -24 40 -52q15 -24 27.5 -56.5t12.5 -70.5q6 -24 6 -55q0 -35 -6 -78q-5 -38 -25 -89t-62 -105t-109.5 -105.5t-168.5 -89.5q-63 -25 -115 -36t-94 -11q-20 0 -43.5 4t-44 11.5t-34 18.5t-13.5 26q0 8 -5 11.5t-11 8.5q-5 -17 -11.5 -27 t-13.5 -16q-8 -7 -16 -10q-4 0 -7 2q-6 1 -9 8q-4 -8 -10.5 -16.5t-12.5 -8.5q-3 0 -8.5 0.5t-11 13.5t-11 44.5t-10 95t-7.5 164.5t-3 252v128.5t1 133t3.5 126t7 110t11.5 83t18 45.5q8 10 28.5 19t40.5 16.5t35 12t13 6.5q5 -2 8.5 -6.5t3.5 -12.5q0 -24 -1 -61.5 t-2.5 -85.5t-4 -103.5t-2.5 -115.5q29 17 69.5 33.5t85 35.5t89 41t81.5 49q91 69 136.5 125.5t45.5 104.5q0 20 -6.5 34t-15.5 25q-23 13 -68.5 22t-111.5 9q-62 0 -124.5 -9.5t-120.5 -24t-108.5 -31.5t-89.5 -32t-63 -26.5t-29 -13.5t-11.5 -6.5t-12.5 -4.5q-13 0 -18 10 t-3 21q-8 3 -13 11.5t-8 18.5t-4 19.5t-1 14.5zM301 143q12 19 25.5 36.5t27.5 31t25.5 21.5t17.5 8q2 0 4 -1t9 -8q2 0 4 1t4 1q8 0 12 -7t4 -27q0 -11 -6 -19t-13.5 -14.5t-15 -12.5t-10.5 -12q8 -2 16 -3t25 -1q9 1 36.5 3.5t70.5 15t99.5 39.5t123.5 77q57 43 92 88 t53.5 84.5t24.5 69.5t6 43q-4 37 -31.5 67.5t-73 52.5t-106.5 34t-131 12q-47 0 -83 -5t-63.5 -11.5t-46.5 -11.5t-32 -5q-7 0 -20.5 8t-29.5 19l-6 -168t-6 -159.5t-4.5 -139.5t-1.5 -107z" />
<glyph unicode="C" horiz-adv-x="1288" d="M70 637q0 106 28 204t78.5 183t120.5 154t154 118t179.5 76t196.5 27q36 0 80.5 -6t88 -20t80.5 -36.5t57 -56.5q25 -18 45 -53q18 -38 18 -72q0 -38 -13.5 -70t-34.5 -58t-45.5 -46t-47.5 -33.5t-40 -20.5t-22 -7t-16.5 5t-22.5 12q-13 7 -28 17q0 1 19 12t42.5 34 t42.5 60.5t19 92.5q-9 18 -25 34.5t-41 29t-60.5 20.5t-84.5 8q-17 0 -52 -5t-81 -18t-99.5 -35.5t-107 -59t-103 -88t-87.5 -121t-60.5 -159.5t-22.5 -204q0 -62 10 -112.5t26.5 -91t38.5 -72t46 -56.5q15 -8 34 -20.5t51.5 -24t83.5 -20t130 -8.5q68 0 129.5 16t115 41 t98.5 55.5t79.5 60t57.5 54t32 37.5q19 26 27 33.5t14 7.5q5 0 9.5 -1t9.5 -1q9 0 11 9t5 9q2 0 3 -8t1 -19q0 -6 -1 -11.5t-1 -10.5q-1 -6 -8.5 -40.5t-28 -82t-57.5 -101.5t-95.5 -100t-142.5 -76t-198 -30q-69 0 -127.5 12.5t-105 31t-82.5 41t-60 42.5q-51 29 -98 74 t-83 108t-57.5 146.5t-21.5 189.5z" />
<glyph unicode="D" horiz-adv-x="1339" d="M20 1165q0 2 3 5q2 2 7 5t15 5q-3 6 -3.5 8t-0.5 4q0 3 1 6t9 6q-15 7 -21 12.5t-7.5 8.5t-0.5 4t1 0q0 3 4 4t6 6q0 1 6 13t25.5 28t55.5 33t97 30q21 5 57 13.5t83.5 16.5t103.5 14t117 6q167 0 296 -49.5t216.5 -132.5t132.5 -192t45 -228q0 -70 -19 -144t-54.5 -146 t-85.5 -139t-112 -122.5t-133.5 -97.5t-150.5 -64t-143.5 -30.5t-118.5 -8.5q-72 0 -117 8.5t-69.5 19t-33 20.5t-8.5 13q-6 6 -6 19q1 24 5 138q2 48 4.5 121t6 176.5t9 242.5t12.5 319q0 21 11.5 29t28.5 12t36.5 7.5t34.5 15.5q6 5 13.5 8.5t12.5 3.5q8 0 8 -6 q0 -1 -0.5 -31t-1 -80t-1 -116t-1.5 -139.5t-1 -150.5t-1 -148.5t-2 -133.5t0 -106v-60q14 -2 27.5 -2h27.5q42 0 100.5 8t126 34.5t141 77t144.5 136.5q85 102 121.5 204t36.5 204q0 86 -18 149t-50.5 106.5t-77 70.5t-98 42t-114 20t-123.5 5q-45 0 -104 -11t-121.5 -28 t-123.5 -36t-110.5 -36t-82.5 -28t-40 -11q-10 10 -17 19q-6 7 -11 13t-5 7z" />
<glyph unicode="E" horiz-adv-x="1165" d="M16 1298q2 11 7 17t20 14q17 6 24.5 15.5t16.5 11.5q4 1 47 9.5t109 20t148 22t163 15.5q69 5 137.5 6t128.5 1q82 0 138 -2t67 -5q7 -2 14 -7q5 -5 11 -13.5t10 -22.5q8 -4 11.5 -7.5t5.5 -6.5l3 -6v-14.5t-2 -14.5q-1 -2 -4 -4q-2 -2 -5.5 -4t-8.5 -4q1 -14 0 -22 t-3 -13t-5 -8q-7 -5 -23.5 -7.5t-60.5 -2.5l-619 -13q-3 -29 -5.5 -68.5t-5 -84.5t-5 -92t-4.5 -90.5t-4 -80.5t-3 -61q38 11 84 17.5t86 10.5q47 4 93 7q29 2 56 2h52q100 0 154.5 -4t62.5 -6q6 -1 13 -8t13 -16.5t10.5 -21t4.5 -20.5q0 -17 -9 -36t-15 -31q-8 -13 -21 -25 t-22 -10q-3 0 -25 1t-54.5 2.5t-70.5 2.5t-74 2t-64.5 1.5t-41.5 0.5q-16 0 -47 -3q-26 -2 -72 -7t-117 -14q-2 -41 -2 -86v-95q0 -69 2 -136.5t7 -121.5h108q57 0 113 1.5t102 4.5q67 5 127.5 11t108.5 11t80 7.5t40 1.5q8 -2 21.5 -1t28.5 3t29 4t22 4q7 1 16 -3.5t17 -12 t13.5 -15.5t6.5 -12q0 -4 -5 -15t-11.5 -23t-14 -22.5t-12.5 -12.5q-3 -2 -26.5 -10.5t-62.5 -20t-91.5 -24.5t-114 -24.5t-131 -19t-141.5 -8.5q-60 -2 -112 -4t-97 -2q-25 0 -47.5 1t-42.5 3q-28 3 -54 7q-23 4 -47.5 10t-42.5 16q-5 1 -9 5q-8 6 -7 17q-9 5 -13 11 q-2 3 -3 4q0 2 1 5q1 4 9 15q-7 1 -10.5 4t-5.5 7q-3 4 -3 10t2 12q2 5 5.5 11.5t11.5 13.5q0 13 3 19q1 4 3 5q1 3 8 6t16 5t18.5 3t16.5 0l2 -2q2 66 5 143t6 143q4 77 8 153q4 94 12 198q7 89 17 200t26 226l-115 -2q-11 0 -21 3q-8 2 -17 7t-13 15q-16 2 -23.5 6 t-11.5 8t-4 10z" />
<glyph unicode="F" horiz-adv-x="1012" d="M76 1296q-1 6 1 11t6 8.5t13 5.5q-6 17 -2 24q1 4 4 5l16.5 5.5t16.5 8.5q2 3 8.5 7t13.5 7.5t13.5 6.5t9.5 4q2 1 20.5 4.5t46 8t60 9.5t62.5 8q21 2 71.5 4.5t115.5 5t136 4t133 1.5q54 0 94 -1.5t56 -5.5q24 -5 38.5 -10.5t22.5 -10.5t10.5 -9.5t1.5 -5.5q0 -2 -1 -5 q-2 -6 -5 -10q10 -6 12 -12q1 -4 1 -6q-1 -4 -3.5 -13t-4.5 -19.5t-3.5 -21t0.5 -16.5q3 -12 4 -20t-4 -13q-2 -2 -6 -2q-5 -1 -18 2q1 -3 -7 -5q-4 -1 -8 -1q-5 0 -33 1.5t-71 4t-96 4t-107 1.5q-35 0 -69.5 -1.5t-65.5 -3.5q-49 -3 -100 -5.5t-99 -4.5q-11 -155 -17 -269 t-9 -185q55 11 102 16.5t82 9.5q40 4 74 6h43h41q40 -1 72.5 -3t56 -5t33.5 -6q18 -5 27 -14t16 -25q6 -15 10 -27.5t-2 -17.5q-8 -6 -17 -13t-12 -18q-2 -11 -6 -24.5t-18 -18.5q-7 -2 -36 -4.5t-67 -5.5q-37 -3 -79 -5q-28 -1 -52 -1h-22q-26 0 -63 -2q-32 -2 -79.5 -5.5 t-111.5 -11.5q-3 -57 -4 -118.5t-2 -121.5t-1 -114.5v-95.5v-94q2 -19 -5.5 -41.5t-24.5 -28.5q-16 -5 -26.5 -10.5t-22.5 -7.5q-6 -1 -16.5 -1t-21 2t-19 8t-11.5 17q-4 12 -8.5 23.5t-8.5 34t-8 61.5t-6 104q-1 19 -1 41q0 39 2 90q4 79 10.5 169t15 183.5t16.5 174.5 t14 142t9 87q2 20 4 41q2 18 4 39t4 41h-36.5t-24.5 2q-15 2 -29 8t-25 13.5t-19 15.5t-9 16z" />
<glyph unicode="G" horiz-adv-x="1450" d="M70 672q0 81 26.5 168t75 170.5t116 159t150 133.5t178 93.5t199.5 39.5q33 0 76.5 -5t90 -16.5t91.5 -29.5t82.5 -44t62.5 -60.5t31 -78.5q2 -17 2 -34q0 -31 -9 -58q-13 -41 -36.5 -69t-50.5 -42.5t-47 -13.5q-14 -9 -24 -13t-18 -5q-9 -2 -15 0q-7 3 -11 8t-5.5 11.5 t3.5 17.5q-22 -24 -36.5 -35t-23.5 -15q-11 -4 -17 -2q-9 6 -3.5 11t18.5 15t30 27.5t30 47.5q6 21 11.5 48t5.5 56q0 55 -20 94t-53.5 64t-78.5 36t-96 11q-33 0 -84.5 -12t-109.5 -42t-116 -79.5t-104.5 -124.5t-76 -177.5t-29.5 -238.5q0 -110 22.5 -195.5t60.5 -149.5 t87.5 -108.5t104 -72t109 -39.5t103.5 -12h21.5t21.5 2q21 6 49.5 16t59.5 27t61 42t54.5 60.5t40.5 81.5t18 106v7q0 50 -12 79q-14 30 -29 46l-56 -7q-44 -6 -90 -17t-87 -22t-74 -19t-52 -7q-15 1 -28 5q-12 3 -24.5 9.5t-20.5 18.5q-5 -3 -8 -3t-5 1q-3 1 -4 4t-2 7 q-2 10 -2 27q-5 0 -11 4q-3 2 -5 5q-5 8 -9 16t1 14q2 4 17 12.5t51 20.5t97.5 27.5t157.5 34.5q124 23 215 31t148 8q32 0 52 -1.5t30 -3.5q23 -5 37 -14.5t22 -17.5q4 -4 8 -10q7 -9 17 -33q11 -4 15 -12q2 -4 1 -7q-2 -9 -5 -24t-9 -15q-3 -1 -20.5 -2t-46.5 -3 t-66.5 -4.5t-79.5 -6.5q20 -23 34 -55t19 -70q2 -15 2 -30q0 -35 -12 -74q-16 -55 -50.5 -109t-86.5 -103.5t-116.5 -87t-140.5 -59.5t-159 -22q-48 0 -100.5 7t-107.5 24.5t-111.5 46.5t-112.5 73q-107 83 -159 215q-50 126 -50 308v14z" />
<glyph unicode="H" horiz-adv-x="1284" d="M0 684q0 8 7.5 11.5t23.5 19.5q7 7 20.5 13.5t28.5 12.5t29.5 10.5t25.5 6.5l49 8q6 98 12 179t11 150t8.5 128.5t3.5 115.5q0 16 -1 30t-1 30q0 12 6.5 20.5t16.5 10.5h12q11 0 41 -3q4 10 9 13q3 2 5 2q8 0 13.5 -3.5t7.5 -6.5q0 -2 1 -4l3 -9q8 -2 12 -4t7 -4 q3 -3 5 -4l3 -6q3 -6 6 -23q7 -15 9 -21q1 -4 1 -5q0 -2 1 -5q0 -2 0.5 -4t0.5 -4l-15 -546q70 8 145.5 14t141.5 6q20 1 46 2q22 1 51.5 1t64.5 1q37 0 78.5 -1t83.5 -3q4 60 8 124t7.5 123.5t6 110t4.5 84.5v68v55.5t2 44.5q7 33 29 33q13 0 20 -3t25 -11q9 -3 19.5 -8 t20.5 -10.5t18 -11t12 -9.5t10 -13.5t12 -20.5t10 -22.5t3 -19.5t-5 -58.5t-10 -133t-13 -191.5t-13 -233q-9 -200 -9 -332q0 -99 4 -160t9 -86q9 -42 13 -60t-1 -24q-2 -2 -6 -4q-10 -4 -33 -8q-4 -11 -8 -17.5t-8 -10.5t-8 -7q-10 -3 -19 -6t-14 2q-3 1 -5 3q-4 2 -7 11 q-10 -4 -18 0q-4 2 -7 4q-8 7 -23 25t-20 49q-2 15 -6.5 32.5t-9 36t-9 36t-6.5 32.5q-3 14 -2.5 59t3 105t6.5 128t8 128v17t2 20q-45 2 -88.5 2h-83.5q-50 0 -91 -0.5t-72 -1.5q-36 -1 -65 -2q-106 0 -205 -6q-1 -15 -1.5 -26t-0.5 -19v-15q-2 -98 -4 -188t-3 -161 t-1.5 -118t0.5 -59q0 -10 -1 -21q-1 -10 -3.5 -23.5t-7.5 -29.5q-10 -1 -19 -7q-4 -3 -8 -5q-9 -6 -16.5 -13.5t-13.5 -2.5q-8 6 -19.5 8t-28.5 2q-8 0 -17 5t-17 11.5t-14 14.5t-7 14q-2 6 -5 17.5t-5.5 24t-4.5 24t-3 16.5t0 50t4 118.5t7 169t9 201.5q-38 -4 -64 -6.5 t-32 -4.5q-11 -2 -17.5 -4.5t-11 -4.5t-8.5 -2.5t-8 1.5q-6 0 -11.5 7.5t-7.5 17.5q-11 2 -14.5 7.5t-5.5 8.5z" />
<glyph unicode="I" horiz-adv-x="526" d="M170 303q0 50 1 100.5t2.5 96.5t2.5 83t2 60q2 72 5.5 151t7 157.5t7.5 151.5t8 133.5t7.5 103t7.5 59.5q6 21 21 24q7 3 11.5 -1t10.5 5q2 5 6 6t8 1h8t7 2q6 6 12.5 2.5t9.5 -6.5q3 -7 8 -10.5t11 1.5q3 3 8.5 3t7.5 -5q3 -5 10 -10t6 -14q0 -181 -6.5 -367.5 t-9.5 -370.5v-48q0 -61 2 -119q2 -82 6 -156.5t6.5 -136t1.5 -103.5q0 -29 -1.5 -46.5t-6.5 -20.5q-5 -5 -9 -6t-8 -1t-8.5 0.5t-10.5 -2.5q-7 -3 -9 -6.5t-4 -7.5t-6 -8t-14 -8q-13 -3 -24.5 6.5t-22.5 15.5q-17 10 -27.5 16.5t-19.5 20.5q-7 12 -12 36.5t-8 58t-4 74.5 t-1 85z" />
<glyph unicode="J" horiz-adv-x="858" d="M0 188v8q0 55 12 102q13 50 31.5 89t39.5 65t36 37q18 13 25.5 15t15.5 4q10 2 14.5 1.5t6 -2t2.5 -4t5 -3.5q5 -2 11 -2h10.5t6 -1.5t-2.5 -7.5q-2 -3 0.5 -4t7 -1.5t8 -2.5t2.5 -6q-2 -3 1 -8.5t8 -3.5q13 3 12 1.5t-10 -9t-22 -20.5t-23 -32q-26 -51 -39 -109 t-13 -114q0 -37 5.5 -69.5t16.5 -57.5t27.5 -40.5t38.5 -18.5q9 -1 17 -1q41 0 75 27q41 34 73 92t56 133t40 150.5t24.5 145t11.5 116.5q4 66 5.5 132t1.5 131q0 116 -4 221.5t-9.5 188.5t-11.5 136.5t-10 65.5q-2 5 -0.5 8t6 4.5t10 0.5t10.5 -3q7 -2 8 4.5t7 9.5 q5 2 10 -2t8 -4q5 0 8.5 4t8.5 2q3 -2 6.5 -4t11.5 0q3 1 5 4.5t4.5 7t5 4.5t7.5 -3q7 -8 10.5 -8.5t5 2t2.5 6t3 2.5q13 -6 18.5 -10t8 -15t4.5 -33t8 -63q5 -35 11 -96t11.5 -139t9 -170t3.5 -189q0 -108 -5.5 -217.5t-18 -211t-34.5 -190t-55 -153.5q-17 -33 -48 -74 t-76 -74t-104 -51q-35 -11 -76 -11q-27 0 -56 5q-52 9 -95.5 39t-75.5 73.5t-50 96t-19 104.5z" />
<glyph unicode="K" horiz-adv-x="1270" d="M57 627.5q-3 10.5 19 27.5q15 13 41 18.5t69 16.5l4.5 108t6.5 124.5t8.5 130t9.5 124.5t11 108t12 81q2 14 5.5 20t8.5 9q6 1 11 -4t13 0q6 3 10 5.5t6.5 3t4.5 -2.5t6 -11q1 -1 2.5 0t3.5 3l4 4q7 3 18 4.5t13 -6.5q1 -7 3 -5.5t5.5 5.5t8.5 8t12 2q14 -5 21 -16.5 t-1 -32.5q-2 -10 -5.5 -74.5t-9.5 -167.5q-5 -112 -13.5 -199.5t-14.5 -158.5q39 27 87 72.5t98.5 99t100 109.5t90.5 105t71 86t41 52q22 28 47.5 52.5t48.5 44t42.5 32t29.5 16.5q7 2 12 1t8.5 -4.5t3.5 -12.5q7 -5 4 -8t0 -6l6 -8t-2 -13q-8 -18 -17 -32t-25 -34 t-43.5 -51t-73.5 -82q-45 -48 -104 -117t-126.5 -143t-141.5 -146t-149 -126q29 -6 65.5 -18t79 -33t91 -52t102.5 -75q62 -52 121 -104t119 -93.5t123 -67.5t133 -26q46 0 96.5 13t106.5 44q13 7 19.5 8t8 -1t-0.5 -6.5t-5 -8.5q-2 -2 -7 -5.5t-11.5 -8t-12.5 -10 t-10 -11.5q-3 -2 0 -2.5t5.5 -2t1.5 -5t-13 -10.5q-6 -4 -10 -10.5t-7.5 -13t-8.5 -13t-13 -10.5q-18 -10 -27.5 -25.5t-15.5 -21.5q-8 -9 -35 -25t-64.5 -30.5t-82.5 -22.5q-25 -5 -49 -5l-41 3q-68 11 -128.5 52t-117 96.5t-109.5 119.5t-105 121t-104.5 100.5 t-107.5 59.5q0 -40 1.5 -91t3 -105.5t3.5 -107t3 -95.5t2.5 -72t2.5 -35q4 -25 0 -30.5t-16 -8.5q-5 -2 -10.5 0.5t-11.5 -2.5q-3 -3 -4 -7t-3 -8.5t-6.5 -8.5t-15.5 -7q-5 -2 -10.5 -2h-12.5q-8 -2 -20.5 5.5t-22.5 15.5q-5 5 -10 13.5t-10 16.5q-5 6 -11.5 9t-9.5 16 q-11 46 -14.5 114t-3.5 140q0 42 1 83.5t2.5 79t3 69.5t3.5 54l-43 5q-18 0 -26 2t-12.5 5.5t-8.5 8.5t-12 10q-16 11 -19 21.5z" />
<glyph unicode="L" horiz-adv-x="1090" d="M37 71.5q1 6.5 12 8.5l123 33q-11 69 -15.5 161.5t-4.5 200.5q0 93 4 190.5t12 196.5q20 250 33.5 383.5t25.5 155.5q3 5 5 9.5t6 4.5q6 3 9 -1t11 -1q2 0 3.5 2.5t4.5 5.5l2 1q2 2 8 5q15 -5 22 -9q4 -2 5 -3q6 -3 12 -10.5t11 -1.5l2 2q2 2 6 2l6 -4t5 -4q3 -3 5 -4 q5 -3 9 -8t8 -19q2 -11 2 -37q-1 -16 -1 -37q-2 -56 -7.5 -138t-11.5 -184t-7 -212q-1 -51 -3 -109.5t-4 -120t-3.5 -121.5t-1.5 -114q0 -43 0.5 -80.5t5.5 -64.5q109 23 244.5 41t289.5 17q56 0 93.5 -5t62.5 -15q6 -2 17 -7.5t23 -12.5t22 -14t14 -13q5 -7 6 -10 t-0.5 -4.5t-4.5 -2.5t-5 -3q-5 -3 -2.5 -6t-3.5 -11q-4 -3 -1 -6.5t1 -5.5q-15 -23 -23 -29q-8 0 -14 -2q-3 -1 -4 -2q-3 -3 -6 -7.5t-5 -8t-4.5 -5t-5.5 2.5q-3 5 -7.5 5t-6.5 -3q-2 -2 -5 -4.5t-3.5 -5t2.5 -5t14 -5.5q25 -7 9.5 -13.5t-58.5 -3.5q-41 3 -78 5.5t-73.5 4 t-74.5 2.5h-39h-42q-57 -1 -120.5 -5t-126 -9t-120 -10.5t-103.5 -10.5t-77.5 -9.5t-40.5 -6.5q-9 -3 -12.5 -2.5t-5 5.5t-2.5 15t-5 27q-3 10 -8.5 20.5t-7.5 16.5q-3 16 -2 22.5z" />
<glyph unicode="M" horiz-adv-x="1595" d="M42.5 49.5q-2.5 14.5 2.5 36.5q2 7 8 36.5t14.5 72t18.5 94t20 104.5t18.5 102t14.5 87q6 33 19.5 93.5t31.5 134.5t38.5 155t39.5 156.5t34.5 139t23.5 101.5q-2 5 -3 10t-1 10q-4 10 1.5 11t8.5 4q0 2 1 3t1 3q0 6 2 6q0 13 4 17t8.5 5t8.5 1t5 6q2 13 4.5 17.5t6 4 t9.5 -4t15 -7.5q5 -2 8.5 -1.5t7.5 0t9.5 -2.5t13.5 -8q6 -5 10.5 -5t8 3t6 7t4.5 7q3 5 9 5t11 -5q6 -8 9.5 -11t5 -4.5t1.5 -2t1 -3.5q15 -45 26.5 -94t24 -112t29.5 -145.5t43 -194.5q43 -190 75 -319.5t54 -194.5q20 46 48.5 112t60.5 143.5t67 161t69 165.5t65.5 157 t56 135t41.5 101t22 53q6 14 9.5 23t8.5 14q3 8 8.5 11.5t12.5 0.5q2 -2 5 -3q2 -2 4.5 -2.5t4.5 -2.5q1 5 4 5.5t7 0.5q4 -1 9 -2h3h4q3 2 6 3.5t6 -1.5q9 -5 12.5 -0.5t11.5 4.5q5 0 9 1q3 1 6 2.5t4 4.5q4 0 6.5 -1t4.5 -2l3 -3q3 -4 9 -34.5t13.5 -75t15 -96.5t13.5 -99 q2 -16 8 -70.5t14 -133t18 -174.5t20 -194t19 -191.5t15.5 -167.5t10 -121.5t2.5 -53.5q-2 -8 -1.5 -15.5t-1 -10.5t-7.5 1.5t-21 20.5l-26 8l-11 -11q-3 -3 -6 -5q-8 -7 -14.5 -1.5t-16.5 13.5q-8 7 -11.5 9t-4 0.5t0 -7t-0.5 -12.5q0 -3 -5 -10.5t-5 -10.5q-2 -9 -6 -6 t-8 2q-2 0 -6 2q-3 2 -7.5 6t-9.5 13q-4 10 -7 16.5t-6 13.5t-6.5 17t-7.5 26q-3 16 -8 59t-11 103.5t-13.5 135.5t-15 157t-15.5 166.5t-15 164t-13 150.5t-11 125l-410 -1022q-12 -29 -28 -52.5t-32.5 -38t-32 -19.5t-25.5 2q-15 10 -24.5 24.5t-16 31t-11.5 34.5t-12 37 q-10 29 -25.5 93t-35.5 149.5t-42 187t-45 206t-44.5 205t-40.5 185.5q-5 -35 -16 -101.5t-25.5 -152t-31.5 -183.5t-33.5 -196t-32 -190t-28 -166t-21 -122.5t-9.5 -60.5q0 -9 -4 -19q-3 -8 -8.5 -17.5t-14.5 -18.5l-16 -6t-14 0q-7 3 -8 10.5t-11 13.5q-6 5 -13 7.5 t-13 13.5q0 7 -2 11q-1 2 -2 3t-3 4t-12 13q-6 12 -8.5 26.5z" />
<glyph unicode="N" horiz-adv-x="1321" d="M133 111q0 6 2 56.5t5.5 130.5t8 182t10 211t11 217t12 200t12.5 160.5t11 97.5q-5 12 -7.5 23t-2.5 20q-1 6 1.5 8t7 3.5t9.5 3.5t10 8q2 3 3.5 14.5t6.5 11.5q14 0 23 6.5t25 8.5q0 17 9 22q4 3 9 2q17 -2 26.5 -13.5t14.5 -21.5q5 -12 8 -18t8 -17q7 -11 27.5 -47 t50.5 -90t68 -121.5t79.5 -143t85.5 -154t86 -153.5t80 -143t69 -122.5t52 -91t29 -48.5q20 -29 28 -32.5t19 18.5q5 10 9.5 46.5t9 92.5t8 127t6.5 149t5 160t2 159v75v70q0 68 -3 120q-1 28 -1 50q0 19 2 35t7 16q7 5 12.5 6.5t9 1t6.5 -1.5t5 0t2 3t0.5 5t2.5 6.5t9 5.5 q8 3 12.5 3.5t7.5 -0.5t5 -2t6 1q8 4 13 7.5t9 2.5t6.5 -8.5t4.5 -25.5t2 -74.5t-1.5 -138.5t-4 -183t-6.5 -209.5t-8.5 -218t-9.5 -207.5t-11 -178.5t-12 -130.5q0 -6 -5.5 -10.5t-11.5 -15.5q-6 -10 -12 -11t-10 0t-6 0t0 -10q2 -6 -6.5 -9.5t-14.5 1.5q-8 6 -19 14.5 t-14 8.5q-6 1 -4 -5t5.5 -13t5 -13.5t-6.5 -7.5q-15 -2 -34.5 7t-36.5 21q-14 11 -42 49t-66.5 96.5t-85 133.5t-96.5 160t-102 176t-101 181.5t-94 176.5t-81 160q-4 -42 -7 -114.5t-5.5 -161t-4.5 -186.5t-4 -193t-2.5 -180t-1.5 -146q0 -40 -1.5 -56.5t-3 -22.5t-3 -8.5 t-0.5 -14.5q0 -32 -4 -58.5t-18 -29.5q-8 -4 -15 2.5t-18 3.5q-3 0 -7.5 -5.5t-15.5 -5.5q-9 0 -22 8t-17 29l-4 37q-1 6 -2.5 8t-3 6t-2.5 13.5t-2 32.5z" />
<glyph unicode="O" horiz-adv-x="1413" d="M72 626q0 93 23 185.5t62.5 177t92 158.5t112 130t122 91.5t122.5 44.5q8 1 10.5 1.5t3.5 0.5t2 -0.5t5 0.5q23 2 33 1t12 -3q2 -3 -0.5 -4t-7.5 -4q-2 0 -4.5 -1t-0.5 -3q2 -5 -4 -9t-8 -6t-1 -3t1.5 -1t0 -1t-4.5 -3q-12 -8 -25.5 -14.5t-27.5 -15.5q-72 -52 -127 -134 t-92 -181t-56 -208.5t-19 -216.5v-27.5t1 -27.5q2 -43 14 -94t32.5 -101.5t50 -97.5t67.5 -83.5t85 -59t103 -23.5h15q75 0 136 27q67 30 118.5 80.5t88.5 116t61.5 135t38.5 137t19 121.5q2 21 3 42.5t1 41.5q0 128 -33.5 228t-89 169t-127.5 106.5t-149 40.5q-8 1 -19 0.5 t-22.5 -0.5t-20 -0.5t-10.5 0.5q-13 6 -16 9l-2 2q0 8 4 12l10 5q5 2 9.5 4.5t7.5 4.5q2 3 -1 4.5t-3 8.5q-2 5 3 9.5t7 4.5q9 3 12.5 3.5t9.5 0.5q10 1 16.5 2.5t12 3.5t12.5 3.5t19 2.5q9 2 20 2t33 2h15q78 0 142 -20q72 -22 129.5 -61.5t100.5 -94t72.5 -118t46 -132.5 t20.5 -137q1 -11 1 -21v-21q0 -108 -29.5 -222t-83.5 -216.5t-131 -186t-172 -130.5q-56 -27 -121 -40t-131 -13q-48 0 -94.5 7t-88.5 18q-94 27 -168.5 83.5t-127.5 130.5t-83.5 159.5t-35.5 169.5q-1 12 -1.5 24t-0.5 24z" />
<glyph unicode="P" horiz-adv-x="1169" d="M-9.5 1185.5q-0.5 4.5 0.5 8.5t3 10q1 6 0 11t-1.5 9t1 8.5t8.5 10.5q14 11 46 34t79.5 50.5t109 56.5t134 53.5t155 41t172.5 18.5h15q81 1 143 -19q68 -22 119.5 -57.5t86 -81t55.5 -91.5t30 -89t10 -74q0 -57 -18 -115t-52.5 -112t-83 -102t-108 -84.5t-128.5 -59.5 t-144 -28q-14 -2 -27.5 0.5t-24.5 5.5q-8 3 -22.5 9t-18.5 9q-6 6 -16.5 18.5t-15.5 20.5q-3 5 -2.5 16.5t0.5 26.5q0 14 -0.5 29.5t2.5 17.5q2 2 9.5 -3.5t29.5 -8.5q9 -2 20.5 -1t22.5 3q35 3 81 20t94.5 45t95.5 65.5t83.5 80.5t59 91t22.5 97q0 38 -15 73.5t-47 70.5 q-20 23 -78 36t-139 13q-69 0 -148 -11t-157 -36q-67 -22 -114 -38.5t-80.5 -29.5t-55 -22t-37.5 -15.5t-29 -12t-28 -9.5q-14 -5 -22 -5.5t-13 -0.5q-8 2 -11.5 4.5t-8.5 5.5q-4 3 -8 2.5t-7.5 -1.5t-7.5 0t-8 7q-6 11 -8.5 17.5t-3 11zM262 373q0 57 1.5 124t6.5 142 q5 67 12 145t14.5 153t13.5 140t9 107q1 7 5 9t11 3t18 2.5t26 7.5q12 6 28.5 12t31 9.5t24 2.5t8.5 -11q-1 -5 -3.5 -34t-6 -74.5t-7.5 -103.5t-8 -121t-7.5 -127.5t-4.5 -123.5q-2 -60 -3 -123.5t-1 -128.5q0 -75 3.5 -148t12.5 -141q4 -23 -3 -36t-7 -23q0 -3 3 -5.5 t1 -4.5q-3 -5 -10.5 -4t-13.5 6q-3 3 -5 7.5t-4 7.5t-5 3.5t-9 -4.5q-5 -5 -11.5 -14t-13.5 -18.5t-14 -17t-14 -9.5q-6 -2 -14.5 -4t-10.5 6q-2 4 -4 5l-5 2.5t-5.5 4t-3.5 10.5q-5 17 -11.5 25.5t-6.5 19.5q-2 17 -9.5 98t-7.5 224z" />
<glyph unicode="Q" horiz-adv-x="1278" d="M80 627q0 149 31 264.5t79 201t105.5 144t110 94.5t92.5 51.5t53 16.5q2 -1 11.5 -1t20 -1.5t19 -6.5t8.5 -16q11 6 25.5 10.5t42.5 4.5q38 0 90.5 -8t109.5 -31t113.5 -65.5t101 -112.5t72 -170.5t27.5 -239.5q0 -142 -27.5 -251t-72.5 -190.5t-102.5 -137.5t-117.5 -93 q18 -35 45 -74.5t61.5 -73t76.5 -55.5t90 -22q52 0 111 25.5t106 86.5q-5 -29 -15 -47t-20.5 -31t-19.5 -22.5t-13 -21.5q-10 -32 -36 -57t-59 -42.5t-69 -27t-65 -9.5q-54 0 -99.5 21t-85 61t-75.5 96.5t-72 127.5q-42 -14 -77 -19.5t-58 -5.5q-19 0 -52.5 4.5t-75.5 18 t-89 37t-92 61.5q-19 -17 -38.5 -37t-36 -38t-29 -30.5t-17.5 -13.5q4 0 0.5 0t-9.5 1t-12 3t-6 6q0 8 10.5 23t27 34.5t37 41t40.5 41.5q-35 34 -67 80t-56 104.5t-38.5 130.5t-14.5 160zM270 616q0 -114 30.5 -208t78.5 -162q45 28 91 43.5t101 15.5q78 0 138.5 -30.5 t103.5 -86.5q45 43 81.5 110.5t61.5 148t38.5 169t13.5 172.5q0 113 -24.5 209.5t-68.5 167t-105 110.5t-134 40q-20 0 -36.5 -5.5t-29 -12t-21.5 -12t-14 -5.5q-9 0 -18 6l-25 4q-51 -32 -98.5 -87t-84 -137t-58 -193.5t-21.5 -256.5zM410 205q16 -20 36 -38.5t43.5 -33 t50.5 -23t58 -8.5q38 0 80 11q-51 72 -92 101.5t-76 29.5q-15 0 -31 -5t-30.5 -11.5t-25 -13t-13.5 -9.5z" />
<glyph unicode="R" horiz-adv-x="1153" d="M33 1243q0 6 6.5 10t15.5 11q12 7 42 27t72.5 45t94.5 52t109.5 49.5t117.5 37t117 14.5q58 0 111 -20t99 -53t83 -76.5t63.5 -91t41 -96t14.5 -91.5q0 -50 -32.5 -96t-83 -86t-110.5 -72.5t-114 -56.5q-51 -22 -104.5 -31.5t-98.5 -11.5q50 -19 105.5 -52t109.5 -92 q27 -30 53 -80.5t52 -111.5t52.5 -129t56 -134.5t63 -127t72 -106.5t83 -73.5t97.5 -27.5q48 0 104.5 24.5t122.5 83.5q25 20 32.5 31.5t10.5 11.5t4.5 -4t2 -8.5t0.5 -8.5t1 -5v-2q0 -5 -4 -9q3 0 4.5 -3.5t1.5 -8.5q0 -8 -4 -16q-7 -10 -17 -35.5t-26.5 -57.5t-40.5 -66.5 t-58.5 -63.5t-82.5 -47.5t-111 -18.5q-38 0 -78.5 10t-81 34.5t-80.5 64.5t-77 100q-19 29 -39.5 91t-43 140.5t-47.5 165.5t-54 167t-62.5 144.5t-71.5 98.5q-21 18 -43 35t-43.5 29.5t-42.5 20t-39 7.5h-4q0 -54 0.5 -115t1 -122.5t1.5 -120.5t2.5 -109.5t3.5 -89t4 -58.5 q1 -14 -7.5 -27.5t-20 -24.5t-23 -17.5t-17.5 -7.5q-14 -2 -31 3t-26 13q-7 6 -9.5 14.5t-5.5 24.5q-5 23 -9.5 37.5t-7.5 25t-5.5 19.5t-3.5 22q-11 121 -13 243q-1 40 -1 80q0 79 3 154q4 112 12.5 208.5t17 168t15.5 113.5t9 45q3 8 17.5 15t33.5 10q14 2 21 4t12 4.5 t11.5 5t20.5 6.5q12 3 14 -12t-1 -55t-8.5 -109t-8.5 -174q11 -2 24.5 -2h29.5q53 0 123 11t140.5 39.5t133.5 78t102 125.5q6 15 6 35q0 28 -18.5 55.5t-58.5 49t-104 35t-154 13.5q-53 0 -110 -8t-116 -26t-119 -47t-118 -72q-3 -3 -11 -4.5t-16 -1.5q-15 0 -29 11t-14 23 q0 6 4 10.5t9.5 8.5t9.5 7t4 5q0 3 -4 8t-4 13q0 1 -5 2t-11.5 3t-11.5 6.5t-5 12.5z" />
<glyph unicode="S" horiz-adv-x="1186" d="M-39 207q0 37 15 72t39 66t53 55.5t57 39.5q39 22 81.5 42.5t85.5 37t86 27.5t83 14q17 2 43 4t49 2q15 0 25 -8t8 -14q-5 -11 -17.5 -11t-29.5 -4q-19 -5 -38 -7t-34 -7q-114 -26 -192.5 -66t-125 -81t-63.5 -77.5t-10 -55.5q10 -27 37 -42t61 -21.5t69 -7.5t60 1 q58 3 129.5 17t145 37t143.5 54.5t124 69t87 81t33 91.5q0 16 -4.5 31.5t-12.5 32.5q-15 29 -57 49.5t-100.5 35t-127 26t-135 23.5t-126.5 27t-101 37q-46 25 -67.5 49.5t-24.5 61.5q-1 4 -6 14t-11.5 21t-12.5 21t-9 16q-16 29 -16 63q0 38 17.5 78t43.5 69 q48 55 126.5 102t171.5 82t191.5 56.5t186.5 24.5h10q32 0 71 -5q45 -6 83.5 -21.5t61.5 -41.5q18 -20 18 -46q0 -8 -2 -17q-8 -41 -38.5 -80.5t-68.5 -67.5q-5 -5 -19.5 -11t-31 -12.5t-32.5 -11.5t-25 -6q-8 -2 -12.5 1t-8.5 7t-9.5 7.5t-15.5 3.5q-12 0 -14.5 5.5 t2.5 20.5q2 5 7 14t16 23q8 9 13.5 20t2 20.5t-19.5 15.5t-50 6q-35 0 -90 -9q-60 -8 -124.5 -30t-125 -51t-111.5 -62t-83.5 -64.5t-41.5 -59t15 -44.5q21 -15 64 -25.5t99 -19t120 -18t127.5 -22.5t121 -32t101.5 -47q31 -21 52 -40t34 -37.5t21 -36t14 -35.5 q4 -11 14.5 -24.5t22.5 -32.5t22 -43.5t13 -57.5v-15q0 -58 -26 -110q-30 -59 -79 -109t-108 -89.5t-113 -65.5q-47 -23 -100 -43t-109 -34.5t-113.5 -23t-113.5 -8.5q-93 0 -174.5 25.5t-141.5 85.5q-29 31 -42 62.5t-13 62.5z" />
<glyph unicode="T" horiz-adv-x="1096" d="M-63 1351.5q2 13.5 2 22.5q-1 9 5.5 12t26 2.5t54 -2.5t90.5 -2q42 0 96 2t123 7q34 3 98.5 9.5t146 13t173.5 11.5t182 5q34 0 76 -3.5t83.5 -9.5t77 -14t58.5 -16q15 -6 18 -10.5t2.5 -7.5t-1.5 -5t5 -4t13 -3t13 -3.5t10 -6.5t3 -10q-5 -10 -9.5 -16t-7.5 -9 q-4 -4 -7 -5q-8 -2 -32 -5.5t-65 -5.5q-30 -2 -82 -8.5t-118.5 -16t-144.5 -19.5t-162 -17q-8 -140 -11.5 -286t-5.5 -293.5t-3.5 -294t-4.5 -287.5q0 -5 -4 -9.5t-6 -7.5q-5 -20 -18 -34.5t-27 -14.5q-42 0 -64.5 13t-38.5 28q-7 9 -13.5 26.5t-11.5 39t-9 46t-5 46.5 q-2 22 -3 43t-1 43q0 48 3 94t5 86q1 25 3.5 71t6.5 105t9 126.5t12.5 135.5t16.5 132.5t20 117.5q5 16 9 31.5t7 32.5q-92 -6 -180 -6q-113 0 -215 13.5t-174 47.5q-9 5 -10.5 18t-7.5 27q-8 11 -6 24.5z" />
<glyph unicode="U" horiz-adv-x="1241" d="M137 526q0 85 8 189t18 211t19 209.5t11 183.5q0 26 4.5 40.5t25.5 22.5q4 1 8 -0.5t8 -2t9 1.5t10 8q6 9 11 9.5t8.5 -3.5t7 -9t6.5 -6q4 -2 12.5 -10t16.5 -18.5t14 -21t6 -17.5q0 -8 6 -29t8 -59q2 -27 2 -60q0 -27 -2 -59q-2 -70 -7 -149t-11 -162t-11 -160t-7 -141 q-2 -32 -2 -59t2 -48q7 -96 16 -150.5t20 -60.5t26.5 -8t41.5 -2q146 7 243 54.5t156.5 140.5t88 235.5t36.5 339.5q3 82 7 146t8.5 116t10 95t11.5 83q2 6 10 10t15 7q5 5 5.5 9.5t8.5 6.5q4 1 11 2.5t14.5 0t14 -5.5t9.5 -13q3 -7 12 -10t15 -9q3 -5 5.5 -11t0.5 -17 q-2 -46 -4.5 -119.5t-5 -164t-5 -192.5t-4.5 -205t-3 -201t-1 -181q0 -93 1.5 -159t4.5 -91q2 -8 0.5 -11t-4.5 -4t-7 -1.5t-7 -2.5t-3 -6v-8t-1 -7t-6 -3q-32 0 -47.5 6t-28.5 20q-15 16 -26.5 36t-14.5 46q-1 9 -3 24t-4.5 33.5t-4 40.5t-0.5 46q0 28 -1 55t-3 53 q-12 -31 -28 -70.5t-39 -80.5t-52.5 -80t-68 -69.5t-86.5 -49t-107 -18.5q-47 0 -99 12q-69 18 -119 53t-85 85.5t-57.5 115t-37.5 141.5q-5 28 -7.5 61.5t-2.5 75.5z" />
<glyph unicode="V" horiz-adv-x="1241" d="M23 1374q-5 9 2.5 21.5t19.5 15.5q8 3 13 -1.5t10 -4.5q4 0 8.5 3.5l9 7t8.5 6t8 1.5q3 -1 7 -2q7 -2 18 0q4 4 10 7l8 4q11 3 19.5 2t13.5 2q7 3 11.5 6.5t8.5 3.5t9.5 -6t15.5 -23q5 -11 21.5 -56t40.5 -112.5t54 -153t62 -179t64.5 -189t62.5 -184t54.5 -164 t40.5 -127.5q22 54 57.5 132.5t78 170.5t89.5 192t93 197t88.5 185t75.5 155.5t54 109t25 46.5q9 14 14.5 11.5t13.5 -5.5q9 -3 10 -6t1 -5.5t2 -5t12 -4.5q7 0 10 -2.5t6.5 -6t8.5 -7t16 -4.5q4 -1 5.5 -2t2 -2.5t1.5 -2t5 0.5q10 3 9 -15.5t-15 -40.5q-15 -25 -41.5 -72.5 t-64.5 -120.5t-88 -172.5t-113 -229.5q-50 -102 -101 -206t-98 -202t-86 -186t-65 -158q-3 -8 -13.5 -10.5t-15.5 0.5q-3 2 -2.5 5.5t0.5 6.5q-1 7 -3 5.5t-7.5 -6t-15.5 -9.5t-27 -6q-20 0 -25.5 7t-15.5 27q-2 5 -19 55t-43.5 130.5t-61.5 184.5t-73.5 217.5t-78.5 229 t-78 219t-70.5 187.5t-56.5 135z" />
<glyph unicode="W" horiz-adv-x="1901" d="M39 1374q-2 9 5.5 14.5t16.5 -2.5q7 -5 11.5 -1t9.5 4q3 0 9.5 -2t13.5 -4.5t13.5 -5.5t10.5 -5t5.5 -1t3 4l3 6t6.5 5q11 4 21 -1t18 -7q6 -1 6 1.5t-0.5 6t1 6t10.5 1.5q14 0 23.5 -6.5t17.5 -38.5q2 -8 13.5 -48.5t29 -103.5t39.5 -143t46 -166.5t48.5 -174 t46.5 -166.5t39.5 -143t28.5 -104q28 55 63 138.5t72 179.5t74 196.5t69.5 190.5t57.5 162t38 110q8 23 11.5 41.5t9.5 34.5q6 12 17 27t16 18q14 6 23.5 4.5t23.5 -4.5q5 -1 6.5 2t2.5 7.5t3 9.5t10 9q25 13 31 11t12 -25q1 -5 10.5 -45.5t25 -104.5t35 -147t42 -173 t45 -181.5t44 -173t40 -148t31.5 -106.5q13 28 37.5 77t55.5 112.5t68 138t75 153.5t75.5 158.5t70.5 153.5t60.5 138.5t44.5 112.5q3 9 10 18t14.5 16.5t14 12t8.5 4.5q8 -2 15 -5t10 -9q4 -4 4.5 -7.5t1 -6.5t2.5 -4.5t8 -1.5q10 0 13 -5t3.5 -10t0.5 -9.5t4 -2.5 q5 0 5.5 -7.5t0.5 -10.5q0 -4 -17 -42t-46 -100.5t-68.5 -145.5t-84.5 -176t-93 -192t-94.5 -194t-89 -181.5t-76 -154.5t-56 -113.5t-29.5 -58.5q-3 -8 -8.5 -9t-13.5 -1q-6 0 -8.5 2.5t-5.5 -0.5q-7 -4 -13.5 0.5t-9.5 1.5q-11 -10 -17 -11.5t-6 11.5v6q0 24 -8 74 q-8 56 -23.5 131.5t-36.5 164.5t-44 182t-46 184t-44 169.5t-37 139.5t-25 93q-15 -38 -40 -103.5t-55 -147.5t-63 -174.5t-66 -183.5t-62.5 -175.5t-52.5 -150t-37 -106.5t-15 -46q-2 -3 -5 -8t-7 -11.5t-12 -15.5q-7 -2 -11.5 -3t-9.5 -1q-7 -4 -12 -7.5t-9 -5.5 q-4 -3 -8 -5q-5 -5 -10 -8t-10 -5q-2 0 -8.5 2t-13 5t-12.5 6.5t-7 7.5q-5 14 -16 52t-26.5 94t-34 127t-40 150t-44 163t-44.5 167q-17 65 -36 133t-38 134t-36.5 126t-32 108.5t-24.5 82t-13 45.5z" />
<glyph unicode="X" horiz-adv-x="1106" d="M23 72q-2 10 0 18q1 8 18.5 36.5t47.5 73t71 102.5t89 125.5t102 141.5t110 150q-22 37 -55.5 95t-72 124t-77.5 134t-72.5 125.5t-57.5 98.5t-32 54q-5 7 -7 16.5t-2 17.5t3 13t8 4q10 -1 21 -1q9 -1 20.5 -1t24.5 -2q-16 9 -16 14.5t6 9.5q7 4 20 6q12 1 18 0.5t9.5 -1 t5.5 -1t4 1.5q4 2 5.5 7t5 9.5t11 7t23.5 -0.5q9 -2 31 -31.5t52 -77t65.5 -107.5t70.5 -121t66.5 -118.5t54.5 -99.5q66 88 128.5 170t116 150.5t95 120t65.5 77.5q15 17 26 25t19 10t14 0t11 -6q3 -3 8 -1.5t10 1.5q4 -2 5 -11.5t-1.5 -22.5t-7 -26.5t-10.5 -21.5 q-5 -6 -41 -56.5t-93.5 -130t-131.5 -181t-154 -210.5q41 -75 85 -150.5t86 -145t80.5 -130.5t68.5 -108t48.5 -76.5t22.5 -36.5q5 -7 5 -11.5t-2.5 -8t-5 -6.5t-3.5 -7q-2 -8 -2 -12t-8 -2q-3 2 -13.5 2t-17.5 -2q-17 -3 -10 -14l7.5 -7.5t-1.5 -5.5q-1 -3 -5 -5 q-7 -5 -19 -5q-11 6 -17.5 8.5t-10.5 3.5t-7 0q-6 -5 -7 -10t5 -10q2 0 4 -2l4 -4t4 -6q-2 -11 -6 -17t-9 -9q-5 -4 -11 -5q-5 -1 -10.5 5t-11.5 15.5t-13 21.5t-15 24q-9 13 -30 45.5t-49.5 77t-62 98.5t-68.5 109.5t-68.5 110t-61.5 101.5q-52 -72 -102 -140t-95 -129 t-83 -113t-66.5 -90.5t-45.5 -61t-19 -25.5q-4 -4 -9 -8t-10.5 -10.5t-13.5 -14.5q-11 2 -18 3t-12 2t-9 2q-8 2 -14 9t-6 19q0 11 -2 21z" />
<glyph unicode="Y" horiz-adv-x="1020" d="M-3 1378q-1 8 0 13.5t3 7.5q4 2 11 4q6 2 15 2.5t23 -0.5q4 -12 7 -15t6 -1.5t6 6t6 6.5q11 11 14 12t14 -8q10 -9 15 -5t14 19q9 13 20.5 6.5t26.5 -24.5l15 -17q12 -14 37 -50.5t57.5 -86.5t70 -109.5t74.5 -119.5t71 -116t60 -99q21 37 56.5 92.5t76.5 117.5t85 125.5 t83 117.5t69.5 92.5t45.5 50.5q7 6 12.5 9t10 4.5t9 1.5t9.5 1q15 0 19.5 -2t6 -4t3 -3.5t8.5 -0.5q15 2 29 2t16 -6q0 -2 3 -3t21 -1q7 0 8 -3.5t-10 -11.5q-2 -2 -2 -3.5v-3.5t-1.5 -5.5t-6.5 -9.5q-9 -10 -33 -40t-57 -72.5t-72.5 -94.5t-81 -107t-82 -109.5t-75.5 -102 t-61 -84t-38 -56.5v-32q0 -38 -1.5 -92t-3.5 -114.5t-4 -122.5t-4 -115t-3.5 -93t-1.5 -57q0 -14 -1.5 -21t-4.5 -9.5t-8.5 -2.5h-14.5t-10 6t-4 8q-3 1 -4 -4t-1 -11t-0.5 -11t-2.5 -5q-6 0 -12.5 3.5t-12 7.5t-10 6.5t-6.5 1.5t-1 -4t1 -6t-1 -4.5t-5 0.5q-5 1 -10 4.5 t-9 6t-6.5 2t-3.5 -6.5q-2 -14 -3 -27.5t-7 -11.5q-10 2 -26 8t-19 25q-2 12 -2 30v41q0 51 2.5 119t5.5 139t5.5 137t2.5 113q0 64 -6 76q-5 8 -31 49.5t-64.5 102t-85 133.5t-91 144.5t-83 134.5t-61.5 104q-4 7 -6 15.5t-3 16.5z" />
<glyph unicode="Z" horiz-adv-x="1208" d="M20.5 64.5q-0.5 14.5 8.5 29.5q6 8 9.5 23t8.5 37q2 12 32 48t76 86t103 108.5t114 116t108.5 108.5t86.5 86q23 23 61.5 66.5t84.5 98t95.5 114.5t94.5 116t81 103t56 75q-55 -12 -122 -22t-140 -18t-149.5 -12.5t-151.5 -4.5q-93 0 -180 8t-156 26q-31 10 -44 26.5 t-13 23.5q1 13 9 14.5t11 7.5q2 5 -3.5 10t-8.5 15q-5 9 -2.5 21.5t2.5 19.5q0 6 5 4.5t7 3.5q0 6 5 10t14 -2q9 -5 16 -6.5t23 0.5q21 1 69 2.5t108 2.5t123 1.5t113 1.5q87 2 173.5 7t158.5 10q71 6 123 10q40 3 60 2h10q17 0 31 -4q12 -3 23.5 -9t16.5 -16l66 -24 q12 -16 10.5 -25.5t-28.5 -20.5q-5 0 -5 -2q-19 -25 -62.5 -76t-104 -120.5t-134 -152.5t-152.5 -172t-159 -179.5t-154 -175t-137.5 -158.5t-109.5 -129q24 6 66.5 13.5t100.5 14t128.5 11t148.5 4.5q102 0 212.5 -9t219.5 -32q17 -3 21.5 -7t1.5 -13q-1 -4 0.5 -7t2.5 -7 t1 -9t-4 -12q-2 -5 -0.5 -15t-9.5 -16q-6 -4 -8 -8.5t-2.5 -10.5t-0.5 -12.5t-2 -13.5q-3 -6 -13 -12t-13 -14q-1 -2 -0.5 -5.5t-0.5 -7.5t-4 -6.5t-10 -1.5q-9 0 -41.5 3.5t-85.5 7t-125 7t-159 3.5q-112 0 -242 -7.5t-277 -27.5q-15 -2 -25.5 2t-8.5 18q-27 -13 -31 -2 q-2 3 -7 11.5t-9 20.5t-4.5 26.5z" />
<glyph unicode="[" horiz-adv-x="723" d="M164 78q0 28 0.5 65.5t0.5 78t0.5 80.5t0.5 75v79.5t-2 80.5v63q0 76 3.5 158t9 161.5t11.5 153t11.5 133t9 102t4.5 60.5v14q-2 5 0.5 8t5.5 5q0 2 1 2t3 2q7 5 28.5 19t61 27.5t100 22.5t144.5 5q16 -2 20 -13.5t15 -34.5q7 -12 14 -25.5t11 -24.5t1.5 -17t-14.5 -4 q-15 3 -47 3t-68.5 -2.5t-72 -6t-56.5 -7.5q-1 -32 -3.5 -85.5t-5.5 -118t-6 -135.5t-6 -138.5t-5.5 -128t-3.5 -102.5q-2 -29 -2 -64v-75q0 -68 1 -147.5t2.5 -154.5t2.5 -137t2 -96q59 3 114.5 10t86.5 17q15 3 20 -4t-6 -27q-3 -5 0.5 -8t8.5 -6t9.5 -7t3.5 -10 q0 -3 -0.5 -10t-2 -14t-3.5 -13.5t-4 -7.5q-7 -3 -28 -10.5t-61 -14.5t-100 -11t-145 1q-6 0 -8 2q-10 -3 -14 7q-2 4 -6.5 5t-9.5 2t-9.5 3t-5.5 10q-8 34 -10 86.5t-2 118.5z" />
<glyph unicode="\" horiz-adv-x="811" d="M20 1374q0 1 3 11t9 22t15.5 21.5t22.5 9.5q6 -1 13 -2q6 -1 13.5 -1.5t16.5 -0.5t19 1t18 1q6 0 10.5 -6t8.5 -14q4 -9 7 -19q0 -5 13.5 -39t37 -89t55.5 -128t69 -156t78 -173.5t82 -180t81 -175.5t75.5 -161t65 -134.5t49.5 -97.5q9 -18 9 -43q0 -17 -5 -23.5 t-14 -6.5q-20 0 -43 -5t-31 -5q-11 0 -19 2t-14.5 7.5t-12.5 14t-13 21.5q-18 30 -47 84.5t-64.5 126.5t-76.5 157t-83 175.5t-84.5 182.5t-81 178.5t-72 163t-58 136t-38.5 98t-14 47.5z" />
<glyph unicode="]" horiz-adv-x="723" d="M104.5 -46.5q2.5 6.5 14.5 7.5q15 1 47.5 1.5t68.5 1.5t70.5 3t54.5 6q2 32 4.5 85t6 117.5t6.5 135.5t6 139t5.5 128.5t4.5 103.5q2 29 2 64v75q0 67 -1 146t-2.5 154t-2.5 137.5t-2 97.5q-29 -2 -58.5 -4.5t-56.5 -6t-49 -8t-37 -8.5q-15 -3 -20 4t6 27q3 4 -0.5 7.5 t-8.5 6.5t-9.5 7t-3.5 10q0 3 0.5 11.5t2 17.5t3.5 16.5t4 9.5q7 3 29 7t62.5 8t100 6.5t142.5 2.5h4t4 -2q5 2 8.5 -0.5t5.5 -5.5q2 -5 6.5 -5.5t9.5 -1.5t9 -3.5t6 -9.5q8 -34 10 -86.5t2 -118.5q0 -29 -0.5 -66t-0.5 -77.5t-0.5 -81t-0.5 -74.5v-41v-47t0.5 -59t1.5 -76 q0 -76 -3.5 -158t-9 -162t-12 -154.5t-12 -136t-9 -106.5t-3.5 -66q0 -14 -0.5 -23.5t-3.5 -12.5q-7 -6 -29.5 -16.5t-63.5 -20.5t-102 -16t-145 -1q-8 1 -12.5 4t-7.5 9t-6.5 14.5t-8.5 19.5q-7 12 -14 24.5t-11 23t-1.5 17z" />
<glyph unicode="^" horiz-adv-x="778" d="M92 1036q0 3 15.5 26.5t40.5 59t56 77.5t61 82.5t56.5 74.5t43.5 53q4 4 14.5 8t22.5 8t22.5 6.5t15.5 2.5t11 -1t12 -1q3 0 5 3t5 3q2 0 3.5 -0.5t4.5 -3.5q7 -6 13 -10.5t12.5 -12t15.5 -21.5t21.5 -39t30.5 -63t44 -94q18 -40 33.5 -68t26.5 -48t17.5 -34t6.5 -26 q0 -5 -7.5 -8t-17 -5t-19.5 -3t-15 -1q-19 0 -33.5 -2t-29.5 -4q-20 0 -35 27t-31 69t-35 93.5t-47 101.5q-22 -24 -46 -54.5t-47 -62.5t-44 -62.5t-36.5 -54.5t-25.5 -38.5l-10 -14.5q-2 0 -9.5 1t-16 3t-16 3.5t-9.5 3.5q-7 3 -20 5.5t-26.5 5.5t-23.5 6.5t-10 8.5z" />
<glyph unicode="_" horiz-adv-x="1536" d="M0 -215q-1 9 17 11.5t53 2t86.5 -3t119.5 -2.5q53 0 113 2t131 8q23 2 70.5 6.5t108.5 9.5t129 10t133.5 8.5t122 5t94.5 -0.5q34 -2 76.5 -5t83.5 -8.5t77 -13.5t58 -18q4 -1 6 -4t4 -7t5 -8t9 -5q5 -2 12 -3t13.5 -3.5t10.5 -6.5t3 -10q0 -8 -8.5 -17.5t-16.5 -13.5 q-8 -2 -32 -5t-64 -5q-30 -2 -86 -8t-131.5 -15t-165 -18.5t-186.5 -17.5t-196.5 -13.5t-194.5 -5.5q-66 0 -128.5 3.5t-118 11t-102.5 19t-83 28.5q-9 4 -13 15t-6 25t-2.5 28.5t-1.5 23.5z" />
<glyph unicode="`" horiz-adv-x="922" d="M288 1239.5q-1 12.5 5 16.5t10 4q2 0 8.5 -1t14 -1.5t14 -1.5t8.5 -1q1 0 7.5 1t14 1.5t13.5 1.5t8 1t14 1t17 -6q18 -26 41 -56t46.5 -60.5t45.5 -60.5t39.5 -55.5t28 -46t10.5 -32.5q0 -9 -15.5 -13t-27.5 1q-16 6 -25.5 1t-23.5 -5q-18 0 -40 20t-47 51.5t-53 70 t-57 75.5q-32 37 -43.5 59.5t-12.5 35z" />
<glyph unicode="a" horiz-adv-x="762" d="M16 78q5 64 31 118t65 99.5t87.5 82t99 65t99.5 48t89 31.5q-2 54 -4.5 94.5t-7.5 59.5q-15 62 -46 92.5t-75 30.5q-28 0 -56.5 -21t-51.5 -57t-37.5 -83t-15.5 -99q0 -13 1 -25t3 -25q1 -7 -4.5 -10t-13.5 -4.5t-17 -2.5t-15 -3q-5 -2 -8 -2.5t-6 1t-7.5 5.5t-12.5 10 t-16.5 10t-15 7t-11 5.5t-4.5 6.5q0 62 27.5 128t74 120.5t108 89.5t130.5 35q56 0 97 -17t70 -44t47.5 -60t29 -66.5t15 -63t5.5 -48.5v-9q0 -33 -6 -77q-7 -50 -16 -107.5t-17 -117.5t-8 -113q0 -35 5 -66.5t17 -54.5q7 -13 7.5 -23t-1.5 -17.5t-4 -13t0 -10.5t-1 -11.5 t-9 -12t-13.5 -8t-13.5 1.5q-11 7 -17.5 8t-11 -0.5t-8 -3.5t-8.5 0q-17 9 -37 21t-26 26q-4 6 -7.5 20t-6 33t-4.5 41t-3 43q-33 -62 -70.5 -103t-75 -65.5t-74 -34.5t-66.5 -10q-31 0 -54.5 8t-36.5 19q-49 49 -69.5 79.5t-18.5 49.5zM131 69.5q-4 -24.5 2 -38.5t14 -17 q17 -7 35 -7q14 1 30 5q34 10 67 34t64.5 58.5t59.5 71t50 72t36 61.5v99q-30 -11 -66 -29t-73 -42.5t-74 -56.5t-69 -71q-38 -45 -55 -80t-21 -59.5z" />
<glyph unicode="b" horiz-adv-x="887" d="M80 365q0 49 0.5 106.5t3.5 126.5q4 125 10 247t13 223.5t15.5 174.5t18.5 100q2 10 8.5 12t24.5 7q17 5 35.5 10t28.5 2q4 -2 11 0t13.5 2t11 -4t2.5 -16q-1 -7 -3.5 -45t-6 -95.5t-8 -128t-9 -141.5t-8 -136.5t-5.5 -113.5q13 22 34 44t50.5 39.5t68 28.5t86.5 11 q61 0 121.5 -22t108.5 -67.5t78 -116t30 -167.5q0 -81 -21.5 -147t-56 -117.5t-78.5 -89.5t-89 -63t-87 -37t-73 -12q-32 0 -59.5 6t-48 15t-32 20t-12.5 22q-2 23 -0.5 49t18.5 43q16 16 27.5 19t22.5 -11t13.5 -31t-3.5 -26q-3 -5 0.5 -8.5t11 -6t17 -4t18.5 -1.5 q34 0 77.5 27.5t81.5 76.5t64 115q25 64 25 137v6q-1 61 -15 106.5t-35 77t-47.5 51.5t-52 30.5t-48 13.5t-36.5 2q-59 -7 -101 -40.5t-61 -84.5q-3 -106 -7 -213.5t-5 -200.5q0 -46 1.5 -88t6.5 -74q1 -10 -0.5 -14t-5.5 -4t-9 2t-9 4t-2 -5t2.5 -14.5t-3 -11t-18.5 5.5 q-8 7 -19.5 10.5t-8.5 -4.5q1 -3 -6 -3.5t-16.5 2.5t-18 11t-11.5 23q-5 31 -9.5 66.5t-7.5 78t-5 94t-2 116.5z" />
<glyph unicode="c" horiz-adv-x="811" d="M31 377q0 92 35.5 174.5t93.5 144t132.5 97.5t153.5 36q73 0 123.5 -19.5t81.5 -46t44.5 -54.5t13.5 -45q0 -38 -16 -62t-36.5 -36t-39 -13.5t-23.5 6.5q-4 4 -8.5 4t-9.5 -2t-9.5 -4t-7.5 0q-5 2 -0.5 9t4.5 12q0 9 -0.5 20.5t4.5 24.5q9 18 7.5 39.5t-15 40.5t-42 32 t-73.5 13q-32 0 -76 -21t-83.5 -65.5t-67 -113t-27.5 -163.5q0 -41 10.5 -86t37.5 -83t73 -62.5t117 -24.5q47 0 86.5 13t71.5 33t57 44t42 45.5t26.5 37.5t11.5 20q4 5 10 7.5t12 1t10.5 -7t4.5 -16.5q0 -57 -25 -116t-70.5 -107.5t-110.5 -79.5t-146 -31q-66 0 -133.5 28 t-121.5 80.5t-88 127.5t-34 168z" />
<glyph unicode="d" horiz-adv-x="977" d="M37 332q0 85 21 154t54 123.5t72.5 94.5t76.5 67t66 41t42 17q24 7 48 9t46 2q44 0 82 -9t69.5 -23t56 -31t42.5 -32l6 120t6.5 114t7 100t8.5 78q8 54 15.5 93t15 67.5t15 48.5t14.5 35q4 4 13.5 4.5t21.5 -2t25 -7.5t24 -12q10 -7 17 -15t11 -21t4.5 -33t-2.5 -51 q-1 -21 -6 -63t-12.5 -99.5t-15.5 -128t-15 -148t-11.5 -159t-4.5 -162.5q0 -42 2 -95t4 -107.5t5.5 -107t5.5 -94.5t2 -69t-3 -31q-5 -6 -13 -5.5t-16 2t-15.5 2.5t-10.5 -3q-2 -5 -7 -10.5t-11.5 -10t-15.5 -6.5t-19 2q-17 10 -31.5 28.5t-17.5 47.5q-3 20 -4.5 47 t-2.5 58.5t-1.5 65t-0.5 65.5q-24 -66 -57 -118.5t-71.5 -90.5t-80.5 -61.5t-83 -32.5q-25 -5 -52 -5q-30 1 -60 7q-58 12 -109 41.5t-88 73t-48 96.5q-8 37 -11 72t-3 67zM168 401q0 -51 10.5 -98t33.5 -83t60 -56q34 -19 81 -19h9q58 3 105.5 28t85 64t64.5 88t45 99 t27 97t9 83q0 13 1 28.5t3 29.5q-8 -7 -14.5 -12.5t-9.5 -10.5q-22 -25 -30 -27.5t-17 6.5q-68 68 -130.5 92.5t-113.5 24.5q-34 0 -59.5 -7.5t-40.5 -16.5q-27 -16 -49 -48.5t-37.5 -74.5t-24 -90.5t-8.5 -96.5z" />
<glyph unicode="e" horiz-adv-x="788" d="M35 342q0 64 16.5 126t44 117t65 101.5t79 80t86 52.5t86.5 19q73 0 120.5 -23t75.5 -57t39.5 -72.5t11.5 -69.5q0 -30 -14.5 -68.5t-47.5 -73t-86 -58t-130 -23.5q-41 0 -73.5 11.5t-57.5 29t-42.5 38t-29.5 38.5q-18 -62 -18 -145q0 -57 16.5 -102.5t45.5 -77.5t69 -49 t88 -17q60 0 105 20.5t78.5 51.5t58 67.5t42.5 67t31.5 50.5t26.5 19q6 0 6 -10q0 -5 -1 -10t-3 -10q0 -11 1 -26t1 -34q0 -24 -7 -59.5t-22.5 -74.5t-41.5 -78t-64 -70t-89.5 -50.5t-117.5 -19.5q-59 0 -120.5 22.5t-112 70t-83 121t-32.5 175.5zM199 569q14 7 24.5 12 t14.5 5q2 0 6 -4q23 -39 57.5 -55.5t77.5 -16.5q34 0 58.5 11.5t40.5 29.5t23 39.5t7 42.5q0 45 -23 74.5t-63 29.5q-18 0 -46.5 -7.5t-60 -26.5t-62.5 -51.5t-54 -82.5z" />
<glyph unicode="f" horiz-adv-x="565" d="M-10 610q0 6 1.5 14t6.5 11q11 6 45 25.5t100 39.5v15q0 109 14 195q15 92 40.5 161.5t60 118.5t72 81t76 49t73.5 23q16 3 31 3q30 0 54 -12q38 -18 63 -50.5t38 -73t13 -77.5q0 -45 -5 -79.5t-11.5 -59t-14 -40t-12.5 -22.5q-9 -17 -17.5 -27t-13.5 -4q-6 5 -13 7.5 t-13.5 5.5t-10.5 7t-4 13q0 4 -3.5 5t-7 2.5t-6.5 4.5t-1 10q12 58 12 113q0 45 -8.5 82.5t-25 64t-41 38t-56.5 3.5q-22 -5 -42.5 -41t-37 -102t-27.5 -160.5t-14 -216.5q83 16 203 25q12 1 19 -1.5t13 -7.5t12.5 -13t16.5 -19t20 -23.5t15 -23t3.5 -17.5t-13.5 -6 q-18 0 -51 -3t-73.5 -7.5t-84 -11t-82.5 -13.5q-2 -54 -3.5 -114t-3 -121t-3 -118.5t-2.5 -106.5t-1 -85.5t1 -54.5q2 -44 -2 -60t-11 -18.5t-15 3.5t-13 8q-5 1 -7.5 -5t-4.5 -13.5t-5 -14t-10 -4.5q-12 3 -30 17.5t-29 35.5q-6 11 -9 24.5t-8 28.5q-2 10 -3.5 29t-2.5 45 t-1.5 58t-0.5 67q0 47 0.5 97t1.5 98.5t2 92.5t2 79q-20 -5 -47.5 -12.5t-64.5 -18.5q-14 -5 -20 2t3 27q3 5 -1 8t-9.5 5.5t-10.5 5.5t-5 9z" />
<glyph unicode="g" horiz-adv-x="799" d="M-51 -399q0 46 18 86.5t47.5 74.5t67.5 61.5t78.5 46t79.5 28.5t71 10q17 -2 23 -4.5t6 -5.5t-3 -7.5t-3 -7.5q2 -6 4 -14t2 -16q0 -10 -3.5 -17.5t-14.5 -9.5q-42 -10 -92.5 -34t-95 -56.5t-74.5 -70t-31 -75.5q0 -18 17 -26t48 -8q38 0 91 11t110 31.5t112.5 50 t100 66.5t71.5 80t27 92q0 24 -9.5 37.5t-22 20.5t-26 8.5t-22.5 1.5q-71 0 -145 -8.5t-134.5 -18t-99.5 -18t-41 -8.5q-22 0 -40.5 9t-31.5 23t-20.5 32.5t-7.5 37.5q0 15 18 43.5t47 61.5t66.5 65t75.5 53q-34 18 -61 44t-45.5 56t-28.5 63.5t-10 68.5q0 68 19 120.5 t50 91.5t69.5 65t76.5 42t72 22.5t57 6.5q11 0 18.5 -1t13.5 -3q25 40 57.5 85.5t67 90t69 85t63 72t48.5 50t27 18.5q9 0 22 -11.5t25 -26t20.5 -28t8.5 -18.5t-4 -9t-4 -7q0 -5 5.5 -8.5t16.5 -8.5q2 -2 3 -2t1 -2q0 -4 -13 -13.5t-42 -33t-75 -65.5t-113 -111 q-16 -15 -33 -37t-37 -47q26 -14 54 -37t50.5 -53.5t37 -69.5t14.5 -84q0 -96 -32 -161t-83 -104.5t-114 -56.5t-124 -17q-15 0 -28.5 1t-26.5 3q-23 -15 -52 -37t-57 -48t-51.5 -53t-35.5 -51q40 1 77 6.5t74.5 12.5t77.5 12.5t86 5.5q60 0 119.5 -11t107.5 -37t77.5 -68.5 t29.5 -106.5q0 -47 -22 -95t-61 -93t-91.5 -85t-113.5 -69.5t-127 -46.5t-132 -17q-54 0 -101.5 11.5t-83 34.5t-56.5 57.5t-21 81.5zM215 471q0 -31 7.5 -59.5t23.5 -51t41.5 -36t62.5 -13.5q40 0 71.5 14.5t55.5 38t40.5 52.5t27 57.5t15.5 53.5t5 40q0 60 -19.5 93.5 t-45.5 50.5q-14 -17 -29 -32.5t-31 -31.5q-2 -2 -6 -2q-3 0 -5 3t-7 3q-3 0 -6 -3t-8 -3q-7 0 -11 8t-4 31q0 20 23 68q-47 -15 -84 -45t-63 -68t-40 -81.5t-14 -86.5z" />
<glyph unicode="h" horiz-adv-x="741" d="M51 94q3 70 5 152.5t4.5 169t4.5 173.5t5 166.5t5.5 148t6.5 118.5q12 149 24 234.5t15 99.5q3 10 6 15t5.5 7t4 3t2.5 5q2 4 7.5 4.5t12.5 0t13 0t10 4.5q8 6 13.5 10t19.5 4q17 2 26 -0.5t11 -19.5q2 -23 2 -57v-24q-1 -50 -5 -110t-9 -126.5t-10.5 -130.5t-10 -121.5 t-6.5 -98.5q-2 -23 -2.5 -55.5t-0.5 -70v-78t-1 -79.5q31 96 67 167.5t72 119.5t69.5 73t59.5 29q6 1 21.5 -3t32.5 -9t31 -10.5t16 -7.5q4 -5 12 -13.5t16.5 -22.5t16 -36t12.5 -53q2 -14 3 -31.5t1 -36.5q0 -48 -4 -112t-10 -152q-2 -34 -3 -86.5t-1 -108.5q0 -48 1.5 -93 t4.5 -79q2 -15 -7 -16t-20 2q-5 2 -9 0t-7.5 -5t-7 -4.5t-9.5 3.5q-5 4 -17 12t-25.5 17.5t-25.5 20.5t-18 20q-6 14 -8 69t-2 133v135q1 44 4 87t7 83t7 75.5t3 64.5q0 46 -13 69q-3 4 -18 -5t-38.5 -38t-53 -82t-62 -137t-66 -203t-63.5 -280q-3 -14 -7.5 -19.5 t-16.5 -5.5q-8 0 -13.5 12.5t-13.5 20.5q-19 0 -34.5 4.5t-18.5 24.5q0 7 -3.5 13t-8 13.5t-8 16t-3.5 20.5z" />
<glyph unicode="i" horiz-adv-x="348" d="M82 399v74q0 51 3.5 104t8 99t9 80.5t6.5 48.5q4 24 8.5 37.5t10 19.5t11 7.5t11.5 2.5q12 2 27.5 1t29.5 -3t24.5 -5.5t12.5 -6.5q5 -5 7.5 -33t2.5 -73q0 -30 -1 -65t-2.5 -72t-3.5 -74.5t-3 -71.5q-3 -56 -3.5 -103.5t-0.5 -91.5q0 -58 1 -106t1 -80q0 -35 -2.5 -53.5 t-10.5 -20.5q-9 -2 -15 -8.5t-11 -12.5t-11.5 -10.5t-15.5 -2.5q-5 1 -17 9t-25.5 19.5t-25.5 26.5t-16 31q-2 8 -3.5 32t-2.5 58t-2 75.5t-1.5 84t-0.5 83.5zM111 1253q0 19 6.5 46.5t16.5 53.5t21.5 47.5t22.5 29.5q17 14 31.5 16t23.5 -2q22 -5 39 -12.5t28.5 -23 t17.5 -40.5t8 -63q1 -20 -1.5 -44.5t-8 -47.5t-15 -41t-22.5 -25q-33 -17 -58 -17q-20 0 -34.5 9.5t-28.5 21.5q-20 16 -33.5 42t-13.5 50z" />
<glyph unicode="j" horiz-adv-x="340" d="M-223 -338q4 70 15 122t23.5 87t25 52.5t20.5 19.5q11 2 24.5 -1t24.5 -16q4 -5 11.5 -10t14 -11t10 -14t-0.5 -20q-2 -9 -8 -37.5t-12 -68t-10.5 -85.5t-4.5 -90q0 -27 2 -51.5t7.5 -44.5t14 -34.5t21.5 -20.5q7 -3 18 8.5t23.5 40.5t24.5 77.5t20 119.5q4 38 8.5 106.5 t8.5 151t8 172.5t7.5 171.5t6 146.5t4.5 99q2 33 5.5 70.5t8 74.5t9 70.5t8.5 60t6.5 43t3.5 19.5q2 10 16 9.5t19 -7.5q3 -3 15 -7t34 5q3 1 5.5 4.5t7.5 5t14.5 -0.5t27.5 -11q6 -3 5 -36t-5.5 -92t-11 -143t-12.5 -189q-4 -55 -6 -134.5t-5 -170.5t-8.5 -187 t-16.5 -183.5t-28 -161t-43 -118.5q-5 -9 -13 -12t-20 -6.5t-30 -10.5t-43 -24q-23 -17 -37 -25t-33 -10h-12.5t-16.5 2q-37 4 -66 36t-48.5 76t-29.5 93q-7 41 -7 76v14zM84 1294q0 17 2.5 35t7.5 35q1 7 7 23t14 31.5t18.5 27.5t22.5 12q10 0 28 -4t37 -10.5t34 -15.5 t19 -19q10 -23 14.5 -48.5t4.5 -51.5q0 -29 -5 -56t-13.5 -49t-20.5 -36.5t-27 -18.5t-31.5 -2.5t-32.5 7.5t-30 17t-24 27q-25 40 -25 96z" />
<glyph unicode="k" horiz-adv-x="909" d="M53 178q0 51 1 114.5t3.5 135t5.5 149t7 156.5q6 134 11 235t10 174.5t12 122t16 76.5q3 7 13 16t26 15q23 8 41.5 16.5t23.5 8.5q7 0 14.5 -5t13.5 -12t10 -15t5 -15q1 -3 -1 -34t-5.5 -81t-8.5 -115l-10.5 -136.5t-11 -146t-10.5 -142.5t-8.5 -126t-4.5 -98 q21 12 50 39.5t61.5 62.5t66.5 73.5t64 73t54 61.5t37 38q18 15 30.5 19.5t21 3t14 -7t9.5 -11.5q3 -6 5.5 -14t1.5 -17.5t-7.5 -19.5t-21.5 -20q-26 -19 -56.5 -59.5t-67.5 -87.5t-80.5 -92t-94.5 -73q15 -15 35.5 -43t46 -61t56 -67t66 -62t75.5 -46t85 -18h8q45 -1 81 9 q40 10 68.5 25.5t47 30.5t25.5 23q18 25 30.5 16t10.5 -40q-1 -12 -9.5 -36.5t-24.5 -53.5t-39 -59.5t-53.5 -55.5t-69 -41t-83.5 -16q-58 0 -106.5 25t-89.5 64t-75.5 87.5t-64.5 95.5t-56.5 87t-50.5 63q2 -16 1.5 -32.5t-0.5 -33.5q0 -52 -0.5 -109.5t-1 -106.5 t-1.5 -83.5t-1 -40.5q0 -15 -11.5 -19.5t-23.5 -4.5q-11 0 -26.5 9.5t-30.5 22t-28.5 25.5t-19.5 20q-5 7 -7.5 50t-2.5 114z" />
<glyph unicode="l" horiz-adv-x="346" d="M80 160q0 57 1 123t1 135v79.5t-2 80.5v63q0 81 4 162.5t10 156.5t13 141t12 117t8 83t2 40q-1 7 1.5 10t7 3.5t9.5 1t9 2.5q7 4 11.5 2.5t7.5 -4.5t5.5 -6.5t7.5 -3.5q6 1 9.5 3.5t6 5t5 4.5t6.5 1q8 -2 15.5 -2.5t7.5 2.5q2 8 6 7.5t10 -5.5t10 -10.5t4 -16.5 q0 -14 -2 -55t-5 -98.5t-6.5 -126t-7.5 -137t-7 -132.5t-4 -112q-2 -29 -2.5 -64t-0.5 -75q0 -53 0.5 -110.5t1.5 -113.5t2.5 -107.5t2.5 -92.5t1.5 -68.5t0.5 -34.5q0 -14 -4.5 -21.5t-11 -10t-13.5 -1t-12 4.5q-6 3 -9.5 7t-5.5 6t-3.5 1t-2.5 -8q-3 -26 -11.5 -39 t-18 -17.5t-17.5 -2.5t-10 7t-6.5 6t-9.5 1.5t-9.5 3t-5.5 10.5q-8 34 -10 86.5t-2 118.5z" />
<glyph unicode="m" horiz-adv-x="1155" d="M68 219q0 18 1.5 71t5.5 122t10 144.5t14 138.5t19 104t25 41q7 0 13 -5t11 -10.5t9.5 -10.5t9.5 -5q4 0 8.5 4t8 9.5t7 9.5t5.5 4q3 0 9 -10t11.5 -23.5t10 -28t4.5 -22.5q0 -20 -3.5 -57t-8 -81.5t-8 -90.5t-3.5 -85v-4q13 43 30.5 88.5t38.5 89t44.5 82.5t49.5 68 t53 46t55 17q34 0 58.5 -11.5t39.5 -32t22 -47t7 -56.5q0 -26 -3.5 -60t-7.5 -75.5t-7.5 -91t-4.5 -107.5q13 36 31.5 86.5t41 104.5t48 107t51.5 95t52.5 68t50.5 26q7 0 31.5 -4.5t52 -13t51.5 -21t32 -28.5q8 -17 14.5 -47.5t6.5 -81.5q0 -45 -6.5 -107.5t-22.5 -150.5 q-5 -29 -6.5 -56t-1.5 -53q0 -38 3.5 -71t8.5 -59t10 -44.5t9 -25.5q3 -8 4.5 -13t1.5 -10q0 -9 -7.5 -10.5t-15.5 -3.5q-2 -1 -4 -9.5t-5.5 -18.5t-11 -18t-20.5 -8q-42 3 -66 18.5t-36 42.5t-15 64.5t-3 83.5q0 54 4.5 113t10.5 115t10.5 105.5t4.5 84.5q0 51 -8.5 79 t-23.5 28q-7 0 -36 -41.5t-69.5 -125.5t-87 -211t-88.5 -298q-2 -7 -2 -15t-1 -14.5t-4.5 -11t-10.5 -4.5q-14 0 -22 5.5t-14 12t-11 12t-13 5.5q-3 0 -5 -4t-5 -9.5t-7 -9.5t-11 -4q-6 0 -13 2.5t-14 13t-11.5 31t-4.5 55.5v45q0 14 3 43.5t6.5 68.5t8 84.5t8 92.5t6 92 t2.5 82q0 113 -28 113q-7 0 -16 -5t-21.5 -20.5t-29 -44t-37 -76t-47 -116t-58.5 -164.5q-7 -21 -15.5 -61.5t-15.5 -82.5t-11.5 -77.5t-4.5 -46.5q0 -3 -10.5 -9.5t-24.5 -12.5t-28.5 -10.5t-22.5 -4.5q-17 0 -26 9.5t-13.5 35t-5 70t-0.5 114.5z" />
<glyph unicode="n" horiz-adv-x="797" d="M51 25q0 12 4 49.5t9.5 92t12 122t12 139.5t9.5 144t4 137q0 32 -1 59.5t-1 52.5q0 6 6 6q12 0 18.5 -4.5t9.5 -9.5t3.5 -9.5t1.5 -4.5q3 0 7 3.5t8.5 7.5t8.5 7.5t7 3.5h10q15 0 21 4.5t8.5 10t3.5 10t6 4.5q3 0 8.5 -4.5t11 -15t9.5 -27.5t4 -41q0 -32 -2.5 -81 t-6 -104.5t-6.5 -112t-4 -102.5q11 43 26.5 95.5t36 106.5t44.5 105.5t52 91.5t59 64.5t65 24.5q54 0 88.5 -20t54.5 -55t27.5 -82t7.5 -101q0 -46 -4 -96.5t-8.5 -101t-8 -99.5t-3.5 -92q0 -53 6 -95.5t6 -64.5q0 -12 -8.5 -26.5t-24.5 -14.5q-9 0 -14 5t-10 5 q-7 0 -13.5 -5t-21.5 -5q-20 0 -34.5 14.5t-23.5 37t-13.5 49t-4.5 49.5q0 45 3.5 102.5t8 118t8 120.5t3.5 111q0 68 -9 106t-32 38q-22 -3 -45 -38t-47 -89.5t-47 -123t-44.5 -140t-40.5 -139t-34 -120.5t-26 -85.5t-15 -32.5q-8 0 -12 3.5t-7.5 7.5t-8.5 7.5t-15 3.5 q-9 0 -12 -2t-7 -5t-10 -5t-21 -2q-18 0 -35.5 9t-17.5 28z" />
<glyph unicode="o" horiz-adv-x="838" d="M39 336q0 82 20 149.5t51.5 121t71.5 92.5t80 65.5t77 39.5t64 15q14 1 12.5 -3t-7.5 -9t-10.5 -10t3.5 -6q7 -2 11.5 -4t9.5 -5l8 9q7 5 13.5 5t11.5 -1.5t8 -1.5t4 6q2 11 7.5 12.5t25.5 1.5q12 0 36.5 -7t54 -24t60 -45.5t56 -72t41.5 -103.5t16 -139 q0 -105 -30.5 -189t-83 -143t-121.5 -91t-146 -32q-32 0 -70 7.5t-76 24.5t-74 45t-64 69q-29 41 -45 96q-16 52 -15 119v8zM211 348q0 -69 12.5 -125t36.5 -95.5t58.5 -61t78.5 -21.5q39 0 77.5 22t68.5 66t48.5 109t18.5 151q0 87 -23 146t-51.5 95.5t-54.5 52t-32 15.5 h-21.5t-24.5 13q-35 -21 -69 -57t-61.5 -83t-44.5 -105t-17 -122z" />
<glyph unicode="p" horiz-adv-x="858" d="M6.5 575q-1.5 5 1 9.5t10.5 5.5q7 1 2 5.5t-9.5 12t-2.5 19t25 26.5q12 10 42 25.5t72 34.5q11 78 22.5 127.5t20.5 60.5q5 5 7 9t4 7t5 5t11 4q7 1 12 -3t9.5 -10.5t9.5 -12.5t12 -7q14 -2 22.5 -14.5t6.5 -38.5q-2 -7 -3 -28t-3 -52q43 12 88 19t92 7q52 0 104 -11.5 t97 -39.5q35 -21 59.5 -67t40.5 -99q9 -31 18 -68.5t9 -82.5q0 -38 -9.5 -79t-33.5 -84.5t-65 -89t-105 -91.5q-62 -45 -110.5 -68.5t-82.5 -32.5t-52.5 -8.5t-21.5 2.5q-9 6 -18 22.5t-25 35.5q-5 6 -9 12.5t-9 15.5q-3 -96 -4.5 -188t-1.5 -172q0 -50 1 -93.5t3 -78.5 q0 -13 1.5 -25.5t1 -22.5t-4.5 -16t-15 -6q-20 0 -30.5 -9.5t-24.5 -29.5q-8 -9 -17 -13.5t-18.5 0t-19 19t-17.5 43.5q-3 12 -5.5 31.5t-4 49t-2 71t-0.5 98.5l4 346q2 131 10 255t19 233q-25 -10 -46 -15t-26 -2q-10 4 -13 9t-4 9.5t-2.5 8t-8.5 4.5t-12 6t-6.5 10z M254 168q9 -3 20 -3.5t25 -0.5q33 0 76.5 9t88.5 27.5t89 45t78.5 61.5t55.5 78t22 94q1 30 -13.5 59.5t-43 53.5t-71.5 38.5t-100 14.5q-45 0 -96 -10t-113 -33z" />
<glyph unicode="q" horiz-adv-x="879" d="M37 344q2 97 28.5 170.5t67 126.5t89.5 88t98 55.5t92.5 28.5t72.5 8q68 -2 120 -22.5t83 -44.5q0 18 -1 30.5t-1 20.5q0 17 8.5 20.5t22.5 5.5q7 1 11 -0.5t8 -4t8 -4t10 0.5q5 1 7.5 2.5t4.5 1.5t4.5 -2.5l7.5 -7.5q6 -5 8 -8.5t1.5 -8.5t-3 -13t-6.5 -23 q-3 -11 -7 -54t-7 -103.5t-5.5 -130.5t-2.5 -134q0 -43 1.5 -82.5t4.5 -66.5q4 -38 7 -97.5t5 -128t3.5 -140t2.5 -132.5t2 -105.5t2 -60.5v-14q0 -37 -14 -55q-16 -22 -51 -27q-6 -1 -11 -1q-28 0 -52 22q-27 26 -33 79q-4 29 -5.5 67.5t-1.5 82.5q0 76 3.5 164t7.5 173 t7 161q1 54 1 97v33q-17 -108 -51.5 -175.5t-77 -105t-89.5 -50.5t-89 -13q-22 0 -41.5 2.5t-36.5 5.5q-39 7 -77.5 41.5t-69 86t-49.5 114.5q-17 57 -17 115v12zM135 315v-17q0 -49 10 -82q12 -39 35 -61.5t56 -30.5q26 -7 56 -7h15q68 3 123 40.5t96.5 92.5t70 118.5 t44.5 118.5q3 45 7 90.5t9 96.5q-20 6 -41 8t-41 2q-51 0 -103 -15.5t-100 -42.5t-90.5 -63t-74.5 -77t-51 -85t-21 -86z" />
<glyph unicode="r" horiz-adv-x="557" d="M82.5 53.5q0.5 35.5 1 85.5t1.5 109.5t1 118.5q0 38 2.5 84.5t6 94.5t7.5 94t7.5 82.5t6 61t3.5 29.5q1 8 7.5 6t14 -7l13.5 -9t8 0q2 9 15 2.5t24 -14.5q4 -5 9.5 -8.5t10.5 -9t8.5 -14.5t3.5 -24q0 -14 2 -42t5 -66q11 36 26.5 76t37.5 73.5t52 55.5t72 22q23 0 46 -9 t41.5 -26.5t29.5 -42.5t10 -57q-1 -29 -5.5 -57.5t-12.5 -54t-19.5 -45.5t-25.5 -32q-12 -10 -19 -10t-11.5 4t-7.5 9t-8 6q-4 1 -10.5 -0.5t-13 -0.5t-12 7.5t-7.5 23.5q-2 19 1.5 49.5t3.5 59.5q0 26 -5.5 43.5t-19.5 17.5q-7 0 -24.5 -10.5t-38.5 -44.5t-42 -98.5 t-34 -171.5q0 -138 2 -222t2 -131q0 -40 -2 -57t-10 -22q-5 -3 -19.5 -7.5t-31 -8.5t-31.5 -7t-19 -2q-3 1 -11 6.5t-16.5 13.5t-15.5 16.5t-8 14.5q-2 10 -1.5 45.5z" />
<glyph unicode="s" horiz-adv-x="752" d="M20 100q0 48 18.5 82t43.5 56.5t50 33t38 11.5q6 0 10.5 1t9.5 1q9 0 9 -11v-10q0 -6 3 -10.5t3 -9.5q0 -6 -14.5 -18t-31.5 -28t-31.5 -34t-14.5 -35q0 -20 32 -20q40 0 84.5 15.5t87 39.5t81 54.5t67.5 59.5t46 54.5t17 40.5q0 18 -20.5 29t-56 18t-82.5 9.5t-99 2.5 q-54 0 -89.5 -5t-43.5 -5q-6 0 -19.5 1.5t-27 9t-23.5 22.5t-10 43q0 19 8.5 43t30 51.5t59 59.5t95.5 67q61 37 114.5 60.5t97 36.5t76.5 17.5t52 4.5q45 0 67 -11.5t33 -40.5q3 -6 3.5 -12t0.5 -14q0 -32 -33.5 -67t-105.5 -64q-15 -6 -27 -6q-15 0 -25.5 8.5t-10.5 17.5 q0 6 7.5 14t16 16t16 15t7.5 11q0 8 -13 8q-20 0 -51 -11.5t-65.5 -30t-70 -40t-63.5 -42t-45.5 -36.5t-17.5 -23q0 -4 8 -4h29q27 0 69.5 -3t89.5 -11.5t94.5 -24t85 -41.5t61.5 -63t24 -88q0 -26 -8.5 -55.5t-30 -60t-58.5 -62t-94 -62.5q-86 -46 -160.5 -68t-134.5 -22 q-78 0 -123 35t-45 100z" />
<glyph unicode="t" horiz-adv-x="498" d="M-37 766q0 14 4 26t15 15q21 8 73.5 17.5t118.5 19.5q11 81 22.5 148.5t22.5 117t20.5 77t16.5 27.5q2 0 5 -1t5 -1q6 0 9.5 6.5t13.5 6.5q9 0 19.5 -5.5t19 -13.5t14.5 -16.5t6 -13.5q0 -6 -2 -31.5t-5.5 -67.5t-8.5 -97.5t-10 -119.5q63 8 119.5 12.5t95.5 4.5 q13 0 23 -5t16.5 -11.5t10.5 -14t5 -12.5q0 -5 1 -9.5t1 -9.5q0 -20 -17.5 -40t-52.5 -25l-213 -23q-5 -72 -9 -148t-7.5 -151.5t-5.5 -148.5t-2 -138q0 -42 2 -68t2 -34q0 -17 -6.5 -33.5t-15 -30t-18 -22t-15.5 -8.5q-36 0 -57 22.5t-31.5 60.5t-13.5 87t-3 102 q0 125 7 250.5t20 241.5l-125 -15q-3 0 -6 -1t-7 -1q-19 0 -30.5 9t-17.5 21t-7.5 24.5t-1.5 19.5z" />
<glyph unicode="u" horiz-adv-x="793" d="M61 389q0 27 1 70t4 92.5t7.5 100t11 91t15.5 66t21 25.5q8 0 28 -4.5t41 -4.5q31 0 43.5 5.5t18.5 5.5q10 0 10 -17v-9.5t-2 -10.5q-1 -6 -4.5 -31t-8.5 -64t-10 -87.5t-9.5 -101.5t-7.5 -107t-2 -103q0 -33 1 -66t5 -60t11 -43.5t17 -16.5q9 0 25.5 8.5t39 34.5 t49.5 74t58.5 127.5t66 195t70.5 275.5q0 3 3.5 4.5t8.5 1.5q13 0 33 -2.5t38.5 -7t32 -10.5t13.5 -13q0 -45 -4 -98t-9 -109.5t-9 -115.5t-4 -117q0 -104 6.5 -198.5t17.5 -162.5q0 -9 -15 -22t-38 -13q-7 0 -25.5 7t-38.5 20.5t-36 33t-17 44.5q-2 11 -2 30.5v45.5v89 t2 99q-7 -36 -17 -74.5t-25 -76.5t-35 -75t-46 -71q-14 -18 -29.5 -30.5t-30.5 -21t-28 -12.5t-20 -4q-4 0 -18.5 8.5t-34 22t-41.5 30t-42 33t-36 31t-23 23.5q-7 10 -12.5 34t-9.5 59t-6.5 79t-2.5 94z" />
<glyph unicode="v" horiz-adv-x="737" d="M-6.5 815q2.5 8 16.5 6q9 -2 21 -4.5t23.5 -5.5t21 -6t14.5 -4q4 -2 5.5 0t3 4.5t4 5t8.5 2.5t8.5 1.5t4.5 3t5.5 3t11.5 2.5q17 0 22.5 -3.5t8.5 -14.5q1 -3 9.5 -39t23 -91.5t33 -124t39 -135.5t42 -126t41.5 -96q9 19 26.5 56t40 85t49 103.5l53 111t51 108t45 94.5 t34 69.5t17.5 33.5q4 7 6.5 8.5t5.5 0.5t6 -4t8 -5q9 -5 19 -12t18.5 -15t12.5 -17t0 -17q-3 -6 -17 -36t-35.5 -75.5t-49 -104t-57 -121.5t-59.5 -128t-57.5 -123.5t-50 -107.5t-37.5 -81q-5 -9 -11.5 -18t-13.5 -16t-14.5 -11.5t-13.5 -3.5q-6 0 -13.5 2t-13.5 2 q-3 -1 -5 -4t-4.5 -5t-6 -2t-8.5 5q-4 4 -9 5.5t-9.5 2.5t-8 3t-4.5 8q-3 15 -12.5 42.5t-26.5 79t-42.5 131.5t-59.5 199q-15 52 -33 108.5t-34.5 105.5t-29 85.5t-16.5 48.5q-9 23 -6.5 31z" />
<glyph unicode="w" horiz-adv-x="1194" d="M7 839.5q5 2.5 13 0.5q6 -1 16.5 -4t21.5 -6.5t21 -6.5t15 -4q6 -1 8.5 1t3 5t-0.5 7.5t-1 9.5q0 8 6.5 10t24.5 2q7 0 14.5 0.5t13.5 -0.5t10 -5t5 -13q0 -4 8 -37l20 -82.5t26.5 -110t29.5 -120.5t28.5 -113t22.5 -88q16 32 40 81.5t51 105.5t53.5 113t48.5 104.5 t36 79.5t15 38q6 23 13 25t12 -3q6 -6 9 -1t3 12q-1 8 3 10t9 1.5t10.5 -1t8.5 3.5q0 6 2.5 7t11.5 1q15 0 16.5 -2t3.5 -10q7 -29 18 -75.5t24 -102.5t28.5 -116.5t30.5 -118t29 -107.5t26 -84q14 25 41 73.5t59.5 107.5t67.5 122.5t64.5 119t51 96.5t27.5 56q5 9 8.5 13.5 t6.5 6t5.5 2.5t4.5 3q4 5 7 5.5t6 -0.5t6 -1.5t6 2.5q6 6 9 6.5t17 -8.5q31 -20 31 -39q0 -7 -4 -14q-2 -3 -17.5 -31.5t-39.5 -73t-54 -101.5t-62 -116.5t-63 -117.5t-57 -106t-43.5 -81t-22.5 -43q-11 -22 -18 -39t-11.5 -29t-8 -20.5t-7.5 -13.5q-9 -12 -14.5 -14 t-10 -0.5t-9 4t-11.5 -0.5q-15 -6 -26 -7.5t-17 -6.5q-6 -6 -10.5 -4.5t-9.5 6.5q-4 4 -8.5 7t-8 7t-6.5 10t-4 17q0 6 -7.5 41.5t-18.5 88t-25 115t-28.5 121t-28 107.5t-23.5 74q-12 -24 -32.5 -70.5t-45.5 -103t-52 -119t-51 -120t-43 -104.5t-28 -73q-2 -5 -6 -11.5 t-9.5 -10.5t-11 -4t-8.5 6q-12 24 -24 24q-8 0 -18 2.5t-15 22.5q-6 28 -17.5 76t-26.5 107t-33 125t-35.5 131.5t-34 126t-29.5 108t-21.5 78.5t-9.5 36q-6 20 -1 22.5z" />
<glyph unicode="x" horiz-adv-x="735" d="M-29 -0.5q-5 15.5 9 35.5q1 2 16 20.5t38.5 48t53.5 66.5t62 75.5t63 75.5t57 66q-31 45 -68 101t-72 107.5t-62.5 90.5t-38.5 51q-11 11 -17 20q-5 8 -6 14t8 7q5 1 6.5 5.5l3 9t3.5 8.5t8 6q11 3 29.5 3t29.5 5q13 3 17.5 0t13.5 -12q3 -4 3.5 -3t0.5 4t1 6.5t5 4.5 q9 3 13.5 4t7.5 10q2 11 3.5 10.5t12.5 -10.5q4 -5 26 -34.5t53 -74t65.5 -97t64.5 -103.5q30 41 67 91.5t72.5 96.5t65.5 79.5t45 41.5q11 7 16 9t8 2q5 0 11 -6q9 -5 17.5 -7.5t14.5 -11.5q8 -9 9 -18.5t-2 -20.5q-2 -5 -17.5 -29t-48 -67t-83 -105.5t-122.5 -146.5 q20 -35 45 -74t51.5 -77.5t51.5 -74t46 -64t35.5 -47.5t18.5 -23q7 -9 5 -18t-8 -16t-14.5 -10.5t-15.5 -0.5q-14 3 -29.5 -2.5t-21.5 -10.5q-6 -6 -2.5 -13t8.5 -15q8 -10 1 -21.5t-21 -9.5q-6 0 -22.5 18.5t-39 47.5t-48.5 66.5t-52.5 76t-51 75.5t-42.5 66 q-22 -27 -49.5 -59.5t-55 -66t-54 -65t-47.5 -56t-35 -40t-17 -16.5q-11 -6 -18.5 -16t-22.5 -13q-7 -1 -12.5 1.5t-10.5 6t-10 6t-10 1.5q-10 0 -15 15.5z" />
<glyph unicode="y" horiz-adv-x="825" d="M-18 805q1 12 5 16.5t10.5 4.5t14 -3t15.5 -6q12 -5 23 -9.5t16 3.5q3 8 17 8.5t23 -4.5q3 -3 5.5 -2t5 4t6 6.5t8.5 5.5q11 2 20 -4t17 -26q5 -15 20.5 -52t37 -86t47.5 -105.5t52 -111t49.5 -102.5t41.5 -80q27 50 58.5 106.5t64 113t64.5 110.5t60.5 100t50.5 80.5 t36 52.5q8 10 8 13t8 6q6 2 10.5 4t14.5 0q9 -2 14 -2t8 -6q2 -3 6 -2t9.5 3.5t11.5 5t12 1.5q7 -1 14 -2.5t12.5 -5.5t6.5 -10t-4 -15q-3 -5 -20.5 -33.5t-44.5 -72t-61.5 -99t-71 -115t-72.5 -118.5t-67.5 -110.5t-54.5 -91.5t-34 -60t-31 -62t-46 -96.5t-55.5 -117.5 t-59 -126.5t-57 -123t-49 -106.5t-35.5 -77.5t-16 -36.5q-9 -23 -16.5 -28.5t-21.5 -8.5q-7 -1 -11 4t-7 12t-6 12.5t-7 6.5q-13 2 -14.5 5.5t-6.5 13.5q-3 4 -6 4.5t-6 0.5t-4.5 1t-1.5 6q2 17 3.5 34t4.5 31q3 11 20.5 46t43.5 85.5t58.5 112t66 125t66 125.5t58.5 113 q-13 28 -35 72.5t-48 99t-55.5 115.5t-57.5 121t-54 116t-45.5 100.5t-30.5 74t-11 36.5z" />
<glyph unicode="z" horiz-adv-x="795" d="M-22.5 9q-2.5 6 0 11.5t12.5 8.5q9 2 9.5 7.5t-2.5 11.5t-7 12.5t-4 11.5q1 9 28.5 42.5t73 83t105 111t124 126.5t129.5 130t123 121q-29 3 -68.5 4.5t-82.5 1.5q-39 0 -77 -1t-71.5 -2.5t-59 -3.5t-38.5 -3q-14 -2 -20 -0.5t-8 5t-2.5 8t-2.5 7.5q-3 3 -7.5 6t-7.5 7 t-4 8.5t3 9.5q4 4 1.5 7t-6.5 5.5t-8 6.5t-4 10q0 11 0.5 21t8.5 12t9 10t15 16q13 8 40 13t63.5 7.5t80.5 3.5t91 1t94.5 -0.5t91 -1.5t81 -1.5t64.5 -0.5q9 0 19 -8t18 -19t11 -24t-2 -23q-3 -5 -5.5 -8.5t-6.5 -6.5l-10 -7.5t-15 -12.5q-17 -13 -57 -49.5t-93 -87.5 t-113.5 -111.5t-118.5 -121t-108 -115.5t-82 -96q40 7 92.5 14t108.5 11.5t111.5 7.5t101.5 3q61 0 94 -6q17 -2 29.5 -11.5t21 -20.5t13 -22t4.5 -17q0 -9 1 -17t-0.5 -15t-7.5 -13t-20 -9q-8 -2 -18.5 0t-20.5 4t-18.5 3t-11.5 -3q-11 -14 -4.5 -24t20.5 -23q7 -5 4 -11.5 t-13.5 -10.5t-28 -4t-38.5 6q-9 3 -30.5 5t-51 3.5t-66 2.5t-75.5 1q-50 0 -101.5 -1.5t-96.5 -4.5t-80 -8t-52 -12q-20 -10 -30.5 -8.5t-22.5 12.5q-5 6 -10.5 12.5t-8 12.5z" />
<glyph unicode="{" horiz-adv-x="760" d="M20 668q0 6 3.5 11.5t7 11.5t5 12.5t-2.5 15.5q0 9 9 15.5t22.5 11t28 6.5t26.5 2q46 0 72.5 15t39.5 39t16 53.5t3 58.5q0 58 -8.5 121t-8.5 122q0 50 8 93t29 77q22 33 54 55t65.5 35.5t64.5 19t50 5.5q4 0 17 1t28 2.5t28 3t17 1.5t15.5 -6t24 -20t22.5 -36t10 -53 q0 -11 -4 -17.5t-15 -6.5q-24 0 -43.5 3t-37 6t-34 6t-34.5 3q-40 0 -62.5 -16t-34 -41t-14 -56t-2.5 -61q0 -33 3.5 -66.5t8 -66.5t8 -65.5t3.5 -63.5q0 -45 -10.5 -77t-28.5 -55t-41.5 -39t-48.5 -30q12 -2 34.5 -14.5t44 -39t38 -67t16.5 -98.5q0 -41 -6 -77.5t-12.5 -75 t-12.5 -81t-6 -93.5q0 -82 26 -120t74 -38q15 0 33 5t36 11.5t33.5 11.5t24.5 5q12 0 12 -11q0 -5 -4 -10.5t-4 -13.5q0 -6 4 -9t9.5 -8.5t9.5 -15.5t4 -29q0 -9 -5 -19.5t-25 -19t-59.5 -14.5t-107.5 -6q-60 0 -101 24.5t-66.5 61.5t-36.5 80.5t-11 81.5q0 28 5.5 67 t12 80.5t12 83t5.5 76.5q0 53 -9 90.5t-28.5 61t-50.5 34.5t-76 11q-24 0 -38 3.5t-21.5 9.5t-10 14.5t-2.5 17.5z" />
<glyph unicode="|" horiz-adv-x="512" d="M169 -358.5q-1 23.5 2 59t3 82.5q0 57 1 123t1 135q0 56 -1 111t-1 112q0 58 1 136.5t3.5 168.5t5 186.5t5 190t5 178.5t5 152t3.5 111t1 55v10q0 4 5.5 7.5t12 5t12.5 2.5t7 1q8 0 11 -7t11 -7q11 2 15 8t12 6q5 -2 9 -2h7q8 0 7.5 4.5t4.5 4.5q7 0 16 -8.5t9 -22.5 q0 -15 -0.5 -58t-1 -106t-1.5 -141.5t-2 -165.5t-2 -177t-2 -176.5t-2 -164t-1.5 -139.5t-1 -103.5t-0.5 -54.5q0 -53 0.5 -110.5t1.5 -113.5t2 -107.5t2 -92.5t1.5 -68.5t0.5 -34.5q0 -18 -7.5 -25t-17.5 -7q-15 0 -22.5 4t-9.5 4t-9.5 -2t-17.5 -4.5t-21 -4.5t-18 -2 q-25 0 -34 12t-10 35.5z" />
<glyph unicode="}" horiz-adv-x="760" d="M80 -14q0 11 3.5 17.5t14.5 6.5q24 0 44 -3t37.5 -6t34 -6t34.5 -3q40 0 62.5 16t33.5 41t13.5 56t2.5 61q0 33 -3.5 69.5t-7.5 73.5t-7.5 72.5t-3.5 67.5q0 45 10.5 76.5t28.5 54.5t41 39t49 30q-12 1 -34.5 14t-44.5 39.5t-38 67.5t-16 98q0 41 6 75t12.5 68.5 t12.5 73.5t6 91q0 81 -26.5 119t-74.5 38q-15 0 -33 -5t-36 -11.5t-33.5 -11.5t-24.5 -5q-12 0 -12 11q0 5 4 10.5t4 13.5q0 6 -4 9.5t-9 9t-9 15.5t-4 28q0 9 5 19.5t24.5 19t59 14.5t107.5 6q60 0 101 -24.5t66.5 -61.5t36.5 -80.5t11 -81.5q0 -28 -5.5 -63.5t-12 -73.5 t-12 -76.5t-5.5 -72.5q0 -53 9 -90.5t28.5 -61t51 -34.5t75.5 -11q24 0 38 -3.5t21.5 -9.5t10 -14.5t2.5 -17.5q0 -6 -3.5 -11.5t-6.5 -11.5t-4.5 -13t2.5 -15q0 -9 -9 -16t-22.5 -11t-28.5 -6t-26 -2q-46 0 -72.5 -15t-39.5 -39t-16 -53.5t-3 -58.5t2.5 -63t5.5 -69 t5.5 -69t2.5 -63q0 -50 -7.5 -93t-29.5 -77q-21 -33 -53 -55t-65.5 -35.5t-64.5 -19t-50 -5.5q-4 0 -17 -1.5t-28 -3t-28 -2.5t-17 -1t-16 6t-24.5 20t-22 35.5t-9.5 53.5z" />
<glyph unicode="~" d="M106 547q0 18 14 51t38.5 65.5t59 57t75.5 27.5q55 3 96 -18.5t78 -48.5t76.5 -50t91.5 -23q34 0 59.5 27.5t34.5 77.5q3 15 10 22.5t23 7.5q7 0 11.5 -3t9 -6.5t9.5 -6t11 -0.5q12 3 24.5 -7t12.5 -26q0 -25 -13 -61.5t-38.5 -70t-63 -57.5t-86.5 -24q-57 0 -103.5 23 t-85 51t-69.5 51t-57 23q-30 0 -48.5 -20t-31 -44t-21.5 -44t-20 -21q-13 -2 -21 -10.5t-24 -8.5q-4 0 -8.5 5t-9 10.5t-9.5 10.5t-10 5q-13 0 -14 13t-1 22z" />
<glyph unicode="&#xa1;" horiz-adv-x="377" d="M82 1110q-1 15 1 33t7.5 35t14.5 30.5t22 18.5q34 12 57 12q20 0 34 -6.5t28 -15.5q20 -11 33.5 -30t13.5 -38q0 -15 -6.5 -35t-16.5 -39.5t-21.5 -35t-21.5 -21.5q-17 -9 -27 -9.5t-20 -0.5q-46 0 -71 23t-27 79zM86 -182q0 8 1 16t3 19q6 34 11 86t8.5 116t5.5 137 t2 150q0 57 -0.5 114.5t-3.5 114.5q0 17 -1 56t-1 96q0 33 0.5 65t1.5 58.5t2.5 44t3.5 22.5q9 20 18.5 27.5t16.5 5.5q4 0 8 -8q0 -3 10 -1.5t21 -0.5q3 0 5 -1.5t4.5 -3t6 -3t8.5 -0.5q6 0 11.5 -8.5t7.5 -22.5q0 -7 2 -40t4.5 -81t5 -106.5t5 -116.5t4 -111.5t1.5 -91.5 q0 -42 2 -94t4 -107.5t4 -111.5t2 -105q0 -32 -0.5 -59.5t-3.5 -50.5q-1 -6 -1 -9.5t-2.5 -6.5t-9.5 -7t-22 -10q-20 -9 -33 -13.5t-24 -4.5t-22 8q-8 4 -14 5t-11.5 0t-10 -2.5t-10.5 -0.5q-8 2 -14 9.5t-6 27.5z" />
<glyph unicode="&#xa2;" horiz-adv-x="784" d="M72 621q0 72 25 137.5t68 117.5t99.5 87t118.5 47q2 38 3.5 86.5t6.5 117.5q2 25 7.5 32t15.5 5q9 -2 13 0t15 4q13 2 19 -4t6 -37q0 -5 -0.5 -22t-1.5 -43.5t-2 -61t-2 -73.5q57 -4 96 -21.5t63 -40.5t35 -46t11 -38q0 -34 -14 -54t-33 -29.5t-37 -10t-27 5.5 q-6 4 -14.5 -0.5t-16.5 -1.5q-9 8 -3.5 25t12.5 31q4 13 3 28.5t-9.5 30.5t-25.5 26t-44 15q-2 -43 -3 -87t-2 -84.5t-1.5 -77t-1.5 -64.5q-1 -13 -2 -34.5t-2 -49t-3 -60t-4 -67.5q48 4 86 25t66.5 47t48 51.5t29.5 39.5q4 7 11.5 11t14.5 3t12 -7t5 -19q0 -48 -19.5 -97.5 t-56 -91t-88 -70t-115.5 -34.5l-12 -231q-3 -43 -27 -33q-12 5 -25.5 16.5t-13.5 32.5q2 19 3.5 78t5.5 139q-54 8 -106.5 35.5t-94 72.5t-67 106.5t-25.5 136.5zM221 627q0 -31 6.5 -65t23.5 -64t45.5 -53t72.5 -31l10 329q2 60 1 101t1 80q-28 -12 -56.5 -36t-51.5 -61 t-37.5 -86.5t-14.5 -113.5z" />
<glyph unicode="&#xa3;" horiz-adv-x="956" d="M37 104q0 5 28.5 16t77.5 23q31 18 60.5 39t52.5 50t37 67.5t14 91.5q0 37 -12 72q-38 -4 -75 -8.5t-68 -8t-53 -6t-31 -2.5q-5 0 -8 4.5t-5 11.5t-3 14.5t-1 12.5t4 11.5t4 11.5q0 2 -8 7.5t-8 14.5q11 10 36 21q21 9 57 19t93 20q-24 38 -50 80.5t-47 92.5t-34.5 109 t-13.5 131q0 61 18 115t49 98.5t71.5 79.5t86 59.5t92.5 37t91 12.5q73 0 148 -21t136 -59.5t100 -92.5t39 -120q0 -42 -17 -78.5t-42.5 -62.5t-55.5 -41t-57 -15q-2 0 -11 5t-19 11.5t-17.5 13.5t-7.5 11q0 9 9 15.5t19.5 17t19.5 28t9 46.5q0 57 -21 103.5t-55 79.5 t-78 51t-89 18q-58 0 -102.5 -22.5t-74.5 -62t-45.5 -94.5t-15.5 -120q0 -70 12.5 -128t31.5 -107t41.5 -92t43.5 -83q40 3 84.5 4.5t100.5 1.5q20 0 40 -0.5t36.5 -2t27 -4.5t10.5 -9q0 -5 -2 -10t-2 -15q0 -14 5 -18.5t5 -7.5t-9 -12t-9 -33q0 -3 1 -5.5t1 -5.5t-8 -7.5 t-39 -4.5q-25 0 -67 2t-93 2h-16.5t-18.5 -2q6 -24 6 -51q0 -63 -26.5 -125t-65.5 -115q63 8 130 13.5t139 5.5q60 0 115 -5t97 -16t66.5 -30.5t24.5 -47.5q0 -9 -8.5 -13t-8.5 -13q0 -2 1 -4t1 -4q0 -18 -11 -24.5t-24.5 -9.5t-24.5 -5t-11 -11q0 -2 3.5 -4t8 -5t8.5 -5.5 t4 -3.5q0 -8 -26 -8q-48 0 -89.5 5.5t-84 12t-89 12t-102.5 5.5q-87 0 -155.5 -3.5t-120.5 -8t-86 -8t-52 -3.5q-5 0 -5.5 1t-0.5 3q0 6 5 16t5 21t-4 13.5t-9 5.5t-9 10.5t-4 27.5z" />
<glyph unicode="&#xa4;" horiz-adv-x="1024" d="M106 461q-7 14 7 33l137 139q-29 38 -46.5 87t-17.5 101q0 53 15.5 98t44.5 87l-123 114q-17 23 -14.5 45t30.5 25l4 2q11 8 25 15t33 -7l118 -119q41 29 89.5 47.5t101.5 18.5t98.5 -16.5t85.5 -45.5q22 22 49 52.5t45 52.5q20 23 33.5 21t24.5 -11q5 -5 5.5 -8t0.5 -6 q5 -3 12.5 -10.5t11.5 -17.5t2 -22t-14 -24l-94 -98q29 -42 47.5 -89.5t18.5 -103.5q0 -49 -16.5 -97.5t-45.5 -90.5l125 -111q12 -10 17.5 -18.5t6 -15.5t-3 -13t-8.5 -10q-5 -5 -8 -5.5t-6 -0.5q-6 -11 -23 -18t-49 5q-34 26 -63.5 56.5t-61.5 58.5q-38 -31 -87.5 -47 t-102.5 -16t-97.5 14t-86.5 43q-7 -6 -17 -16t-18 -19l-98 -104q-23 -17 -45 -14.5t-25 30.5l-2 4q-8 11 -15 25zM289 821q0 -45 17.5 -85.5t47.5 -70.5t70.5 -47.5t85.5 -17.5q46 0 86.5 17.5t71 47.5t48 70.5t17.5 85.5q0 46 -17.5 86.5t-48 71t-71 48t-86.5 17.5 q-45 0 -85.5 -17.5t-70.5 -48t-47.5 -71t-17.5 -86.5z" />
<glyph unicode="&#xa5;" horiz-adv-x="981" d="M11 1378q-1 8 0 13.5t3 7.5q3 2 9 4q12 3 34 2q5 -12 8.5 -15t6 -1.5t5 6t5.5 6.5q11 11 16.5 12t16.5 -8q9 -9 10 -5t10 19q8 13 19 6.5t26 -24.5q5 -3 7.5 -7.5t7.5 -9.5q11 -13 34 -49.5t53 -86.5t65 -110t69.5 -120.5t67 -118t57.5 -102.5q18 36 48.5 91.5t67 118 t76 127t74.5 119t63 94t41 52.5q8 6 13.5 9t10 4.5t8.5 1.5t9 1q15 0 20 -2t6.5 -4t2.5 -3.5t8 -0.5q16 2 29.5 2t15.5 -6q0 -2 3 -3t22 -1q6 0 7.5 -3.5t-9.5 -11.5q-2 -2 -2 -3.5v-3.5t-1.5 -5.5t-6.5 -9.5q-10 -13 -39.5 -54.5t-70 -99t-87.5 -125.5t-92 -134.5 t-83.5 -124.5t-62.5 -95h50h33.5h42t42 -0.5t35.5 -1.5q11 -1 19.5 -13.5t14 -30t8.5 -36.5t3 -31q0 -10 -12 -10q-22 0 -62.5 2t-97.5 2h-92q0 -21 -1 -45.5t-1 -50.5q18 2 38 2h42h31h35t35 -0.5t32 -1.5q22 -2 34.5 -23.5t12.5 -46.5q0 -2 -1 -10.5t-3 -17.5t-4.5 -16 t-5.5 -7q-22 0 -52.5 2t-87.5 2h-110q-2 -54 -4.5 -106t-4 -96t-2.5 -77t-1 -48q0 -28 -4.5 -33.5t-18.5 -5.5t-22 -6.5t-11 -6.5q-8 0 -14 -4t-12 -9t-14 -9t-21 -4q-4 0 -10 1.5t-12.5 5.5t-12 10.5t-6.5 15.5q-2 12 -2 30v41q0 28 1 63.5t2.5 74t3 79t3.5 80.5 q-57 -3 -108 -7t-113 -9q-3 0 -4.5 -1t-3.5 -1q-13 0 -13 10q0 5 4.5 11.5t4.5 13.5q0 4 -3.5 6.5t-8 5t-8 6t-3.5 8.5q0 7 12.5 17t42.5 20t80 19.5t125 15.5q0 26 1 51t1 45v2q-27 -2 -53 -4t-54.5 -5.5t-60.5 -8.5t-71 -11q-4 0 -5.5 -1t-3.5 -1q-12 0 -12 11q0 5 4 11.5 t4 12.5q0 8 -1 18t-1 21q0 7 10 16t35 19t68 19t110 16q-19 30 -49 78.5t-66 106.5t-75 121.5t-75.5 123.5t-67.5 111.5t-50 87.5q-4 7 -6 15.5t-3 16.5z" />
<glyph unicode="&#xa6;" horiz-adv-x="512" d="M170 332q0 9 2 20t5 20.5t7 16t9 6.5q19 0 27 3t14 6.5t14 6.5t26 3q20 0 31.5 -12.5t17.5 -34t7.5 -51.5t1.5 -64q0 -93 -3 -208.5t-3 -240.5q0 -26 -11.5 -35.5t-31.5 -9.5q-5 0 -12 1t-13 1q-8 0 -19.5 -1t-23.5 -1q-19 0 -31 5t-12 22l2 61q0 79 -0.5 161t-1.5 150.5 t-1.5 116t-0.5 58.5zM172 666q5 104 10.5 201.5t9.5 175.5t6.5 130t2.5 64v10q0 5 5.5 8t12 5t12.5 3t7 1q8 0 11 -7.5t11 -7.5q11 2 15 8.5t12 6.5q5 -2 9 -2h7q8 0 7.5 4t4.5 4q7 0 16 -8.5t9 -22.5v10v-39.5t-0.5 -76.5t-1.5 -100t-2.5 -111t-4 -108.5t-5.5 -93.5 t-7.5 -66t-9.5 -25q-6 0 -10 3t-8.5 7t-10 7t-14.5 3q-10 0 -26 -0.5t-31 0.5t-26 4.5t-11 12.5z" />
<glyph unicode="&#xa7;" horiz-adv-x="872" d="M68 -168q0 25 6 45t16 36t22.5 29.5t24.5 24.5q4 4 13.5 9t20 10.5t21 9.5t15.5 6q5 1 8 -1t5.5 -5.5t6.5 -6.5t11 -3q9 0 10 -4.5t-2 -18.5l-15 -31q-6 -7 -9.5 -15.5t-1 -16t13 -12.5t32.5 -5q6 0 15.5 0.5t21 1t23 1.5t20.5 3q39 7 80 24.5t78 40t67.5 49t49 51.5 t22.5 47t-12 36q-14 12 -41 20.5t-61 15.5t-73.5 15t-79 19t-76 27t-64.5 40q-42 34 -57.5 64t-22.5 61q-2 9 -9 20t-15 26t-15 36t-8 49q-3 44 9 83.5t33 74t49.5 64.5t59.5 55q-17 7 -24 14q-31 22 -42 46t-14 55q-1 4 -4 12t-7.5 17l-8.5 17t-6 13q-11 22 -11 53t12 64.5 t29 58.5q31 45 83.5 85t113.5 70t126 47t122 17q30 0 58.5 -5t51 -17t36 -33t13.5 -53q0 -25 -6 -45t-16 -36t-22.5 -29.5t-24.5 -24.5q-4 -4 -13 -9.5t-20 -10.5t-22 -9.5t-17 -5.5q-5 -2 -7.5 0.5t-5.5 6t-7 6.5t-11 3q-8 0 -9.5 4.5t3.5 18.5q2 3 4.5 10.5t10.5 19.5 q5 7 8.5 16t1 16.5t-13 12.5t-31.5 5q-11 0 -26 -2t-34 -5q-39 -7 -79 -24t-75 -40t-63.5 -49t-45 -51t-19 -47t13.5 -36q14 -13 39 -21t57 -15.5t68.5 -15t73.5 -18.5t72 -27.5t63 -40.5q21 -17 34.5 -33t22.5 -31t14 -30.5t9 -30.5q3 -8 10 -19t15 -26.5t15 -36.5t9 -49 q1 -43 -10.5 -81.5t-32 -73t-47.5 -64t-56 -53.5l39 -18q29 -22 40.5 -46t13.5 -55q1 -4 4.5 -12t8 -17t8 -17.5t5.5 -12.5q11 -21 11 -53q0 -31 -11 -65t-28 -58q-32 -45 -90 -84t-124.5 -68.5t-134.5 -47t-120 -19.5q-29 -1 -59.5 4t-55.5 17.5t-41 33.5t-16 53zM221 489 q0 -12 3.5 -25.5t8.5 -27.5q7 -18 19.5 -29t30.5 -18.5t43 -13.5t57 -13q53 18 101.5 42.5t85.5 55.5t59 68.5t22 81.5q0 13 -3.5 26.5t-8.5 27.5q-7 18 -19 29t-30 18.5t-42.5 13t-55.5 12.5q-54 -18 -103 -42t-86.5 -55t-59.5 -68.5t-22 -82.5z" />
<glyph unicode="&#xa8;" horiz-adv-x="922" d="M225 1069q0 12 5 28t13 32t17.5 29t18.5 18q14 8 22 8h16q38 0 58 -19t22 -65q1 -12 -0.5 -26.5t-6 -28.5t-12 -24.5t-18.5 -14.5q-28 -11 -47 -11q-15 0 -26.5 5.5t-22.5 13.5q-17 9 -28 24.5t-11 30.5zM522 1081q-1 12 0.5 26.5t6 28.5t12 25t18.5 15q14 5 26 7.5 t21 2.5q16 0 27 -5.5t22 -13.5q17 -9 28 -24t11 -31q0 -12 -5 -28t-13 -32t-17 -29t-18 -17q-14 -8 -22.5 -8.5t-16.5 -0.5q-37 0 -57.5 19t-22.5 65z" />
<glyph unicode="&#xa9;" horiz-adv-x="1741" d="M109 559q0 117 28.5 225t81 202.5t128 172.5t170 133.5t205 86t234.5 30.5q141 0 264.5 -48.5t215 -138t144 -217t52.5 -284.5q0 -124 -17 -219.5t-44.5 -167t-63 -121.5t-71.5 -83t-70.5 -51.5t-60.5 -27.5q-59 -83 -183 -132.5t-311 -49.5q-141 0 -268.5 43.5t-224 130 t-153 216t-56.5 300.5zM248 539q0 -138 45.5 -244t122.5 -178t177.5 -109t211.5 -37q56 0 112.5 8.5t108 24t94.5 36t72 44.5q-3 6 -3.5 11t-0.5 18q0 14 12 22t37 19q78 31 131 85.5t84.5 127.5t45 161.5t13.5 188.5q0 72 -17 142t-49.5 132.5t-79.5 115.5t-106.5 91.5 t-131 60t-152.5 21.5q-84 0 -170.5 -17t-167.5 -54t-151.5 -95t-123.5 -140.5t-83.5 -190.5t-30.5 -244zM444 592q0 110 42.5 205.5t114.5 166.5t166.5 111.5t199.5 40.5q24 0 55 -3.5t61 -12.5t55.5 -25t39.5 -41q16 -9 32 -37q11 -25 11 -49q0 -39 -22 -70t-49.5 -53 t-52.5 -33.5t-30 -11.5q-11 0 -19.5 3t-14.5 8q-7 5 -13 12q0 4 13.5 12t29.5 23t29.5 40t13.5 64q-14 19 -43 33t-90 14q-13 0 -48.5 -5.5t-81 -22.5t-94.5 -47.5t-90 -81t-67.5 -123t-26.5 -172.5q0 -82 22.5 -132.5t57.5 -82.5q9 -5 21.5 -12.5t35 -14t56 -11.5t84.5 -5 q67 0 125 23t103 53t75 59.5t39 42.5q17 15 22.5 19.5t12.5 4.5q3 0 6 4t8 4q11 0 13.5 -4.5t2.5 -9.5q0 -3 -1 -7.5t-1 -6.5q0 -5 -5 -30t-19.5 -60t-39.5 -74.5t-65.5 -72.5t-98 -55t-136.5 -22q-48 0 -88 8.5t-72 21.5t-56.5 28t-41.5 28q-36 21 -68.5 52.5t-57.5 75 t-40 101t-15 130.5z" />
<glyph unicode="&#xaa;" horiz-adv-x="580" d="M33 791q0 42 17.5 81.5t46.5 74t66.5 64t76.5 52.5t77 39t68 24q-2 61 -8.5 98.5t-18 58t-28.5 27.5t-41 7q-23 0 -45.5 -12.5t-39.5 -35.5t-27.5 -56t-10.5 -74q0 -11 1 -20.5t1 -20.5q0 -5 -13 -10t-22 -5l-63 35q0 56 25.5 106.5t65 89t87 61t92.5 22.5q44 0 76 -12.5 t54.5 -32.5t37 -45t22 -50t10.5 -47t3 -36q0 -26 -6 -63.5t-12.5 -81t-12.5 -88.5t-6 -85q0 -18 4 -35t9 -31.5t9 -26t4 -18.5q0 -8 -4 -13.5t-4 -8.5q0 -2 2 -3.5t2 -4.5q0 -6 -9.5 -14.5t-20.5 -8.5q-7 0 -14 5t-13 5q-5 0 -7 -2t-7 -2q-37 0 -53 25.5t-21 75.5 q-24 -38 -50.5 -62t-52.5 -37.5t-51 -18.5t-47 -5q-41 0 -69.5 17.5t-46 38.5t-25.5 39t-8 20zM133 774q0 -12 4 -19t10 -10.5t13 -4.5t12 -1q31 0 61 19t58 48.5t52 63.5t42 64q0 17 1 40.5t1 57.5q-35 -16 -79 -43.5t-83 -62t-65.5 -74t-26.5 -78.5z" />
<glyph unicode="&#xab;" horiz-adv-x="1014" d="M27 410q0 3 2.5 5t5.5 4t4 5q0 6 -2 13t-2 12q-2 12 12 26.5t31 24.5q20 18 52 47t67.5 62t72 67.5t66.5 63.5t51 48t25 23q8 4 17 0t17 -11.5t15 -17t12 -16.5q5 -9 9.5 -13t-9.5 -12q-6 -5 -27 -24t-50 -46.5t-62 -59.5t-62.5 -61t-53 -52t-32.5 -33q20 -16 48 -35 t59 -38.5t61.5 -38t55.5 -33t41 -23.5t18 -10q11 -5 14.5 -11t3.5 -24q-1 -9 -2.5 -13t-3 -6t-3 -4.5t-1.5 -9.5q0 -14 -3.5 -28t-0.5 -23q1 -5 -3 -6t-9.5 -2t-9.5 -4.5t-2 -14.5q2 -14 -4.5 -16.5t-24.5 6.5q-13 11 -50 35t-91 59q-61 39 -102 65.5t-68 44t-41.5 26.5 t-22.5 12q-6 2 -6 11t-6 17q-6 6 -6 9zM437 430q0 3 2 5t5.5 4t4.5 5q0 7 -2.5 13.5t-2.5 11.5q-1 6 2.5 13t10 14t14.5 13t16 11q20 18 52 47t67.5 62.5t72 68t67 63t51 47.5t24.5 23q9 4 17.5 0.5t17 -11t15.5 -17t12 -17.5q2 -5 5 -7.5t4 -5t-0.5 -5t-8.5 -6.5 q-6 -5 -27 -24.5t-50 -47t-62 -59.5t-63 -61t-53 -52t-32 -33q20 -16 48 -35t59 -38.5t61.5 -38t55 -33t41 -23.5t18.5 -10q11 -5 14.5 -10.5t3.5 -24.5q-1 -9 -2.5 -12.5t-3 -5.5t-3 -4.5t-1.5 -9.5q0 -14 -3.5 -28t-0.5 -24q1 -5 -3 -6t-9.5 -2t-10 -4.5t-2.5 -13.5 q2 -14 -4 -17t-25 7q-12 11 -49.5 35t-91.5 59q-61 38 -102 64.5t-67.5 44t-41.5 26.5t-22 12q-7 2 -6.5 11.5t-6.5 17.5q-5 5 -5 8z" />
<glyph unicode="&#xac;" d="M115 793q0 14 3.5 28.5t14.5 16.5q16 4 54 7t89 5t111.5 3t122.5 1h113q43 0 83 -2t68.5 -7t42.5 -15t6 -25l-8 -17q0 -2 2 -12t2 -12q-3 -20 -20 -29q2 -35 3 -84.5t1 -118.5v-55q0 -18 1.5 -33t0 -26.5t-8.5 -18t-24 -6.5h-33l-16 -2q-19 3 -32 25.5t-15 44.5v45 q1 26 1.5 45t1 37t1 39t0.5 51v49q-39 1 -89.5 1.5t-103.5 1l-106 1t-98 0.5q-50 0 -76.5 -1t-38.5 -3h-8q-15 1 -23.5 9t-13.5 18t-6.5 20.5t-1.5 18.5z" />
<glyph unicode="&#xad;" horiz-adv-x="715" d="M41 442q0 7 1 16t3.5 17.5t6.5 14.5t9 8q20 5 57 8.5t84 6t101 4t108 2.5t106 1h95q15 0 26.5 -7.5t19.5 -17.5t12 -20t4 -14q0 -31 -17 -55.5t-63 -26.5q-9 -1 -47 -2t-90.5 -2t-112.5 -2.5t-112 -2.5t-88.5 -2t-43.5 -1q-21 0 -33 10.5t-18 24t-7 25.5t-1 15z" />
<glyph unicode="&#xae;" horiz-adv-x="1253" d="M92 813q0 123 44 231.5t123 189.5t188 128t239 47q99 0 185.5 -34t151 -97t101.5 -152t37 -200q0 -130 -25.5 -216t-62 -139.5t-75.5 -79t-66 -34.5q-42 -59 -129 -93t-217 -34q-100 0 -190 30.5t-157.5 91.5t-107 151t-39.5 210zM219 799q0 -90 29.5 -159t79 -115.5 t115 -70.5t137.5 -24q38 0 77 5.5t75 14.5t66.5 21t51.5 25q33 21 68 60.5t63.5 94t47 123.5t18.5 150q0 70 -25 136t-70.5 117t-109.5 82t-142 31q-83 0 -168.5 -26t-155 -84t-113.5 -151.5t-44 -229.5zM393 1114q0 3 2.5 3.5t7.5 2.5q10 6 36.5 21.5t63 31.5t79.5 28.5 t86 12.5q44 0 82.5 -18.5t67 -45t45 -55t16.5 -48.5q0 -36 -14.5 -64t-38 -49.5t-52.5 -37.5t-59 -26t-57 -15t-46 -5q32 -8 51 -26.5t32 -42t22.5 -48.5t22.5 -46t32 -34.5t51 -13.5q13 -1 26 2q11 2 24 7t26 16q3 3 13 2t10 -17q0 -15 -10.5 -36.5t-28 -40.5t-41 -32.5 t-49.5 -13.5q-47 0 -72.5 21t-40 53.5t-23 71t-20 72.5t-32.5 59t-60 31q-2 -36 -2.5 -76t0 -75.5t1.5 -63.5t3 -41q0 -10 -7.5 -16t-16.5 -11q-11 -5 -23 -8q-7 0 -16.5 1t-18 3.5t-14.5 7t-7 12.5q-3 29 -5 53.5t-3 46.5t-1.5 43.5t-0.5 45.5q0 62 4 111.5t9.5 84t10 53.5 t5.5 21q1 1 11.5 4t24.5 6t28 5.5t20 2.5q8 0 8 -12q0 -8 -0.5 -13t-1.5 -14.5t-2 -26.5t-2 -48h51q18 0 52 10.5t68 26.5t59.5 35.5t25.5 37.5q0 12 -6 24.5t-22.5 22.5t-46 16.5t-75.5 6.5q-54 0 -106.5 -14.5t-112.5 -55.5q-2 -2 -5.5 -2h-8.5q-3 0 -7 5.5t-7.5 12 t-6 13.5t-2.5 10q0 5 8.5 8t8.5 5q0 4 -3.5 6.5t-8 4.5t-8 4t-3.5 7z" />
<glyph unicode="&#xaf;" horiz-adv-x="922" d="M176 1104q0 12 5 28.5t16 18.5q31 7 87 11t124 6t140.5 2.5t137.5 0.5q15 0 26.5 -6.5t19.5 -15t12 -17t4 -12.5q0 -26 -17 -46.5t-63 -22.5q-9 -1 -42.5 -2t-79.5 -2.5t-97.5 -3t-96.5 -2.5t-77.5 -2t-38.5 -1q-22 0 -34 9.5t-18 21.5t-7 22.5t-1 12.5z" />
<glyph unicode="&#xb0;" horiz-adv-x="551" d="M72 1147q1 63 24.5 108.5t56.5 75.5t68 45t58 17q20 0 31 -2t22 -2q10 0 34 -8.5t49 -30.5t44.5 -60.5t19.5 -99.5q0 -53 -17 -96t-46.5 -73t-68 -46.5t-81.5 -16.5q-26 0 -59.5 8.5t-63.5 30.5t-50.5 58t-20.5 92zM188 1159q0 -52 21 -82t61 -30q18 0 35.5 8t31 24.5 t22 41t8.5 57.5q0 34 -10.5 56t-23 35.5t-24 19t-12.5 5.5q-9 0 -11 0.5t-7 3.5q-2 0 -3.5 1t-3.5 1q-15 -7 -30 -20t-27 -31.5t-19.5 -41.5t-7.5 -48z" />
<glyph unicode="&#xb1;" d="M106 670q0 14 4 28.5t15 16.5q13 3 40.5 5.5t64.5 4.5t82 3.5t94 2.5v115q0 49 -1.5 75.5t-3.5 39.5v8q2 15 9.5 23.5t17.5 13.5t20.5 6.5t18.5 1.5q14 0 30.5 -6t18.5 -17q3 -13 5 -38t3.5 -59t2 -75.5t1.5 -87.5h107q44 0 83.5 -2t68 -7t42.5 -15t7 -25l-9 -16 q0 -2 2 -12.5t2 -12.5q-3 -19 -18 -27t-49 -10h-72q-32 0 -74.5 1t-89.5 1v-78q0 -43 1.5 -79.5t0 -63.5t-8 -42t-23.5 -15h-33l-16 -2q-19 3 -32.5 21t-15.5 52v70q0 31 1 66t1 73h-129q-49 0 -75.5 -1t-38.5 -3h-8q-15 1 -24 9t-14 18t-6.5 20.5t-1.5 18.5zM147 178 q0 14 4 28.5t15 16.5q16 4 54 7t89 5t111.5 3.5t122.5 1.5h51q44 0 83.5 -2t68 -7.5t42.5 -15.5t7 -25l-9 -16q0 -2 2.5 -12t2.5 -12q-4 -19 -19 -27t-49 -10h-72q-78 2 -161.5 3t-174.5 1q-49 0 -75.5 -1t-38.5 -3h-8q-15 1 -24 9t-14 17.5t-6.5 20t-1.5 18.5z" />
<glyph unicode="&#xb2;" horiz-adv-x="717" d="M37 604q0 3 0.5 6t3.5 8q5 9 31 30t64.5 53t86 74t96.5 93q105 105 149 182.5t44 133.5q0 37 -17.5 61t-43 38t-54.5 20t-53 6q-43 0 -80.5 -10t-65 -26t-43.5 -37t-16 -42q0 -19 18 -29t33 -10t33 3t35 8t32 11.5t23 14.5q6 5 9 4.5t4 -4t0 -8.5t-4 -8q-8 -8 -6.5 -8 t8.5 -3q10 -3 10 -16q0 -3 -0.5 -7.5t-3.5 -11.5q-5 -6 -6.5 -11.5t-12.5 -14.5q-23 -20 -45.5 -29.5t-44.5 -9.5q-40 0 -69.5 11.5t-49 30.5t-29.5 43t-10 48q1 29 19.5 65.5t53.5 69t86.5 54.5t119.5 22q67 0 120 -15t90 -42.5t56 -66.5t19 -87q0 -37 -18.5 -78.5 t-49 -84.5t-69 -86t-79 -83.5t-79.5 -76t-70 -64.5q43 6 93 9t100 3q31 0 60 -1t52 -3t39.5 -4.5t22.5 -5.5q15 -9 17.5 -15.5t8.5 -11.5q7 -6 10 -13.5t-8 -10.5q-6 -2 -6 -6t11 -17q15 -18 21 -26.5t-11 -6.5q-16 0 -93 1t-210 1q-67 0 -122.5 -3t-96 -7t-64.5 -8.5 t-29 -7.5q-8 -6 -9.5 -6.5t-4.5 2.5q-2 3 -4 7t-2 9z" />
<glyph unicode="&#xb3;" horiz-adv-x="758" d="M45 713q0 33 25 62.5t60.5 52.5t73.5 38.5t64 20.5q14 3 19 1t4.5 -6t-4 -9t-6.5 -7q-7 -2 -20.5 -7.5t-33.5 -14.5q-48 -22 -70 -47.5t-22 -46.5q0 -20 12.5 -32t30 -18t37 -8t33.5 -2q38 0 79.5 9t80.5 24t74 35.5t60 43.5t36.5 47t5.5 48q-11 37 -36.5 60t-59 35 t-71 16t-71.5 4q-40 0 -70 -3t-38 -5q-13 -3 -19 2.5t-8 14.5t-2.5 19.5t-1.5 18.5q-2 7 -5.5 10.5t-5 6t1.5 4.5t15 5q9 2 36 9.5t62.5 19t74.5 27.5t71.5 35.5t53.5 43t21 50.5q0 15 -7.5 23.5t-18.5 13t-23 5.5t-22 1q-36 0 -74.5 -7t-73.5 -19t-63 -28t-43 -34 q-5 -8 8.5 -8t33 3.5t40 8.5t30.5 8t5.5 -4t-11.5 -16q-3 -7 -3.5 -10.5t-6.5 -8.5q-8 -6 -13 -12t-8 -11t-5.5 -9t-6.5 -5q-17 -5 -44 -8.5t-46 -3.5q-32 0 -51.5 18.5t-19.5 42.5q0 50 47 88t143 76q19 7 40.5 12t42 8t39 4t32.5 1q52 0 85.5 -12t47.5 -21 q26 -22 36.5 -45.5t22.5 -42.5q5 -8 6.5 -15.5t1.5 -15.5q0 -26 -24.5 -51t-60.5 -48t-77 -42t-75 -33q47 -5 99 -19.5t96 -40t73 -63t29 -88.5q0 -49 -21.5 -89t-57 -71.5t-81.5 -54t-94.5 -37.5t-96 -22.5t-86.5 -7.5q-35 0 -75 5.5t-75 20.5t-58 41t-23 66z" />
<glyph unicode="&#xb4;" horiz-adv-x="922" d="M287 961q0 8 9.5 26.5t25.5 43t35.5 53t40 56.5t39 53t32.5 44q8 6 16.5 14.5t16.5 8.5q2 0 7 1t11 2.5t11 3t8 1.5q1 0 10 -1.5t18.5 -3t18 -2.5t10.5 -1q1 0 10.5 -0.5t17.5 -4.5t11 -12.5t-10 -23.5q-36 -42 -75.5 -92t-75.5 -94t-65 -73.5t-42 -29.5q-7 0 -8.5 3 t-6.5 5q-6 2 -17 1.5t-21.5 0t-18.5 5t-8 16.5z" />
<glyph unicode="&#xb5;" horiz-adv-x="793" d="M78 389q0 27 1 70t3.5 92.5t7 100t11 91t15.5 66t21 25.5q8 0 28 -4.5t42 -4.5q31 0 43 5.5t18 5.5q11 0 11 -17q0 -5 -0.5 -9.5t-2.5 -10.5q-1 -6 -4.5 -31t-8.5 -64t-10 -87.5t-9.5 -101.5t-7.5 -107t-3 -103q0 -33 6.5 -66t19 -60t30 -43.5t39.5 -16.5q9 0 24.5 9 t34.5 36t41 76t44 128.5t44 193.5t41 272q0 3 3.5 4.5t8.5 1.5q13 0 33 -2.5t38.5 -7t32 -10.5t13.5 -13q0 -45 -1 -98t-2 -109.5t-2 -115.5t-1 -117q0 -104 7 -198.5t18 -162.5q0 -9 -15.5 -22t-38.5 -13q-7 0 -25.5 7t-38 20.5t-35.5 33t-17 44.5q-2 11 -2.5 30.5 t-0.5 45.5q0 40 0.5 90.5t2.5 101.5q-10 -63 -26 -128.5t-40 -119t-55.5 -87.5t-73.5 -34q-12 0 -29 7.5t-35.5 25.5t-37.5 47.5t-35 73.5q7 -47 13 -100.5t11 -107.5t9.5 -105.5t7.5 -94.5q0 -8 1.5 -16t1 -14.5t-4.5 -10.5t-15 -4q-20 0 -30.5 -6t-24.5 -20q-8 -9 -17 -14 t-18.5 -2.5t-19 13.5t-17.5 34q-6 15 -9 50t-3 107l4 219q1 52 -1 92t-5 76.5t-5.5 75t-2.5 88.5z" />
<glyph unicode="&#xb6;" horiz-adv-x="940" d="M92 858q0 83 28.5 151.5t75.5 123.5t108 95.5t126.5 67.5t131 40.5t120.5 13.5q33 0 66 -5t59 -14.5t42.5 -24t16.5 -32.5q0 -6 -6.5 -10t-14 -6.5t-14 -5.5t-6.5 -7q0 -3 2 -7t2 -7q0 -4 -7.5 -6t-16.5 -3.5t-17.5 -4t-9.5 -7.5l-10 -809q0 -48 0.5 -101t0.5 -105 t1 -99.5t1 -85t0.5 -62.5t0.5 -32q0 -16 -7.5 -23.5t-16.5 -10t-17.5 -2t-9.5 0.5q-3 0 -14 0.5t-23 5t-21.5 14.5t-9.5 29q0 22 1.5 60t4 86.5t4 104.5t1.5 114q0 51 -1 102t-1 105q0 84 2.5 184.5t6 200t7.5 187.5t6 147q-11 2 -21.5 2h-19.5q-19 0 -32.5 -2t-22.5 -7 l-8 -813q0 -48 0.5 -101t0.5 -105t1 -99.5t1 -85t0.5 -62.5t0.5 -32q0 -16 -7.5 -23.5t-19 -10t-24.5 -2t-25 0.5q-26 0 -33.5 13.5t-7.5 39.5q0 25 1 64t2 86.5t2 101t1 109.5q0 51 -1 102t-1 105v69.5t2 73.5q-46 -22 -84 -29.5t-67 -7.5q-39 0 -80 23.5t-74.5 60 t-54.5 81t-21 85.5z" />
<glyph unicode="&#xb7;" horiz-adv-x="336" d="M55 651q0 15 6.5 35t16.5 39.5t21.5 35t21.5 21.5q17 10 27.5 10.5t19.5 0.5q46 0 71 -23.5t27 -79.5q1 -15 -1 -33t-7.5 -35t-14.5 -30.5t-22 -18.5q-17 -6 -31.5 -9t-25.5 -3q-20 0 -34 6.5t-28 16.5q-20 11 -33.5 30t-13.5 37z" />
<glyph unicode="&#xb8;" horiz-adv-x="922" d="M209 -446q0 1 6.5 20.5t16 42t19.5 41t17 18.5q2 0 3 -1t3 -1q23 -13 48 -22t48 -15t43.5 -9t35.5 -3q52 0 81 20t29 54q0 24 -8 43t-27.5 32.5t-52.5 21t-84 7.5h-19.5t-22 3t-16.5 9.5t-1 18.5q15 43 35.5 99.5t42.5 107.5h92q-9 -25 -16 -42.5t-12.5 -32t-10.5 -27 t-10 -27.5q112 -5 161 -49.5t49 -112.5q0 -37 -16.5 -81t-51.5 -82t-89.5 -63.5t-130.5 -25.5q-35 0 -74 10.5t-82 36.5q-6 3 -6 9z" />
<glyph unicode="&#xb9;" horiz-adv-x="348" d="M100 688q0 31 1.5 65t3 67.5t3 64t1.5 53.5q0 21 1 59t2.5 82t3 90t3.5 84.5t3.5 64.5t2.5 30q0 8 3.5 13t6.5 3q8 0 9.5 3t5.5 3q12 0 17 -1t5 1q6 6 25 6q9 0 20 -5.5t19 -14.5q2 -2 4 -16.5t3.5 -36.5t2 -49t0.5 -54q0 -24 -0.5 -46t-0.5 -40.5t-0.5 -31.5t-0.5 -17 q-3 -32 -3.5 -66.5t-0.5 -68.5q0 -47 -1 -92t-1.5 -84.5t1 -71t7.5 -51.5q5 -23 0 -31t-15 -10q-9 0 -19 2t-24 -4q-7 -2 -12 -2.5t-11 0.5t-14.5 3.5t-23.5 6.5q-20 6 -21.5 9t-1.5 9q-2 16 -3 34t-1 40z" />
<glyph unicode="&#xba;" horiz-adv-x="629" d="M49 1034q0 62 16 113.5t41.5 92t57 70t64 49t61.5 29t49 9.5q15 0 35 -4t39 -4q9 0 28 -5t42 -17.5t47 -33.5t44 -53.5t32.5 -77t12.5 -104.5q0 -78 -24 -141t-65.5 -107.5t-95.5 -68t-114 -23.5q-38 0 -84.5 13t-88 44.5t-69.5 84.5t-28 134zM199 1042q0 -103 34.5 -159 t96.5 -56q28 0 55.5 13.5t48.5 43.5t34 77.5t13 115.5q0 65 -16 109t-36.5 70.5t-39 37.5t-22.5 11q-14 -2 -20 1.5t-11 8.5q-25 -15 -49.5 -39.5t-44 -58.5t-31.5 -77.5t-12 -97.5z" />
<glyph unicode="&#xbb;" horiz-adv-x="1014" d="M76 666q1 9 2.5 12.5t3 5.5t3 4.5t1.5 9.5q0 14 3.5 28t0.5 24q-2 5 2.5 6t10 2t9.5 4t3 14q-2 14 4 17t24 -7q13 -11 50.5 -35t91.5 -59q60 -38 101.5 -65t68 -44t41 -26t22.5 -12q6 -2 6 -11.5t6 -17.5q6 -5 6 -8t-2.5 -5t-5.5 -4t-4 -5q0 -7 2 -13.5t2 -11.5 q2 -12 -12 -27t-31 -24q-20 -18 -52 -47t-67.5 -62.5t-72 -68t-66.5 -63t-50.5 -48t-24.5 -23.5q-9 -4 -18 0t-17 11.5t-15.5 17t-11.5 17.5q-2 4 -5 7t-4 5.5t0.5 5t8.5 6.5q6 4 26.5 23.5t49.5 46.5t61.5 59t62.5 61t53.5 52t33.5 33q-20 16 -48 35.5t-59 39t-61.5 38 t-55.5 33.5t-41 24t-18 10q-11 5 -14.5 10.5t-3.5 24.5zM485 686q1 9 2.5 13t3.5 6t3.5 4.5t1.5 9.5q0 14 3.5 28t0.5 23q-2 5 2.5 6t9.5 2t9 4.5t3 14.5q-2 14 4 16.5t25 -6.5q12 -11 49.5 -35t91.5 -59q61 -39 102 -65.5t68 -44t41.5 -26.5t22.5 -12q6 -2 6 -11t6 -17 q5 -6 5 -9t-2 -5t-5 -4t-4 -5q0 -6 2 -13t2 -12q2 -12 -12 -26.5t-31 -24.5q-21 -18 -52.5 -47t-67 -62t-72 -67.5t-66.5 -63.5t-51 -48.5t-25 -22.5q-8 -4 -17 0t-17.5 11.5t-15.5 16.5t-11 17q-5 9 -9.5 13t9.5 12q5 4 26 23t49.5 46.5t61.5 59t63 60.5t53 52l33 33 q-20 16 -48 35.5t-58.5 39.5t-61 38.5t-55.5 33t-41 23.5t-18 10q-11 5 -15 11t-4 24z" />
<glyph unicode="&#xbc;" horiz-adv-x="1386" d="M141 729q0 31 1.5 65t3 67.5t3 64t1.5 53.5q0 21 1 56t2.5 74.5t3 80t3.5 74.5t3.5 57t2.5 27q0 8 3.5 13t6.5 3q8 0 9.5 3t4.5 3q13 0 18 -1t5 1q6 6 25 6q9 0 19.5 -5.5t18.5 -14.5q3 -2 5 -16.5t3.5 -36.5t2 -49t0.5 -54q0 -24 -0.5 -46t-0.5 -40.5t-0.5 -31.5 t-0.5 -17q-2 -16 -2.5 -26.5t-1 -20t-0.5 -20v-27.5q0 -47 -1 -92t-1.5 -84.5t1 -71t7.5 -51.5q5 -23 0 -31t-15 -10q-9 0 -19 2t-24 -4q-7 -2 -12 -2.5t-11 0.5t-14.5 3.5t-23.5 6.5q-20 6 -21.5 9t-1.5 9q-2 16 -3 34t-1 40zM150 82q5 9 29 45t61.5 91.5t87 127t106 152.5 t117 168t121 172.5t118 167t107.5 151t90 125t66 88.5q12 16 21 22.5t22 6.5q4 -1 14 -7t21 -15.5t19.5 -22t8.5 -25.5q-2 -11 -5 -20t-11 -19q-23 -27 -61 -78t-87.5 -119t-107 -149t-118.5 -167.5t-122.5 -174.5t-118.5 -170.5t-107.5 -155.5t-88.5 -129.5t-61 -92 t-27 -42.5q-5 -8 -9 -14q-5 -5 -10 -9.5t-10 -4.5t-5.5 1t-0.5 3v8q-17 9 -29 21q-11 11 -20 26.5t-10 38.5zM573.5 290.5q6.5 3.5 14.5 6.5q79 45 138 89t104.5 85.5t79.5 81t62 78t53.5 74.5t53.5 71q4 6 13.5 3.5t19 -8t16 -12t5.5 -9.5q-44 -86 -97.5 -156.5 t-108 -125.5t-106.5 -95.5t-94 -67.5q31 1 68.5 1.5t79 1t83.5 1t82 2.5q4 46 8.5 91.5t9 87t8 76t5.5 59.5q1 9 4.5 14.5t8.5 10.5t11.5 10t12.5 14q12 15 16.5 26t12.5 5q3 -4 9 -6.5t13 -1.5t13 6t8 16q1 2 5 3.5t8.5 1t8 -3t2.5 -7.5q-1 -4 -1.5 -23.5t-2 -50.5t-3 -70 t-3 -81.5t-3.5 -86t-3 -82.5q12 2 25 2.5t22 0.5q14 0 25.5 -0.5t19.5 -4.5q4 -2 7.5 -10.5t5 -18t0.5 -18.5t-5 -10q-9 -2 -12.5 -11t-5.5 -16q-2 -5 -26.5 -6.5t-61.5 -3.5q-3 -65 -4 -107t-2 -68t-2.5 -38t-4.5 -16q-8 -11 -15.5 -9.5t-12.5 1.5q-2 0 -10.5 -2.5 t-18 -4.5t-18 -2.5t-11.5 3.5q-3 6 -10.5 4t-7.5 4q0 3 -3.5 4t-7.5 1.5t-7.5 1.5t-4.5 3q-1 7 -2.5 9.5t-3 4.5t-2.5 6t-2 15q-2 12 -2 26v29q0 29 1 62.5t3 70.5q-25 0 -65 -0.5t-86 -2t-93.5 -3t-87 -2.5t-66.5 -2.5t-32 -1.5q-12 -2 -15.5 6.5t-8.5 17.5q-4 11 -5 17 t15 8h2q-5 3 -8 8t-6 8q-11 13 -4.5 16.5z" />
<glyph unicode="&#xbd;" horiz-adv-x="1468" d="M141 729q0 31 1.5 65t3 67.5t3 64t1.5 53.5q0 21 1 56t2.5 74.5t3 80t3.5 74.5t3.5 57t2.5 27q0 8 3.5 13t6.5 3q8 0 9.5 3t4.5 3q13 0 18 -1t5 1q6 6 25 6q9 0 19.5 -5.5t18.5 -14.5q3 -2 5 -16.5t3.5 -36.5t2 -49t0.5 -54q0 -24 -0.5 -46t-0.5 -40.5t-0.5 -31.5 t-0.5 -17q-2 -16 -2.5 -26.5t-1 -20t-0.5 -20v-27.5q0 -47 -1 -92t-1.5 -84.5t1 -71t7.5 -51.5q5 -23 0 -31t-15 -10q-9 0 -19 2t-24 -4q-7 -2 -12 -2.5t-11 0.5t-14.5 3.5t-23.5 6.5q-20 6 -21.5 9t-1.5 9q-2 16 -3 34t-1 40zM150 82q5 9 29 45t61.5 91.5t87 127t106 152.5 t117 168t121 172.5t118 167t107.5 151t90 125t66 88.5q12 16 21 22.5t22 6.5q4 -1 14 -7t21 -15.5t19.5 -22t8.5 -25.5q-2 -11 -5 -20t-11 -19q-23 -27 -61 -78t-87.5 -119t-107 -149t-118.5 -167.5t-122.5 -174.5t-118.5 -170.5t-107.5 -155.5t-88.5 -129.5t-61 -92 t-27 -42.5q-5 -8 -9 -14q-5 -5 -10 -9.5t-10 -4.5t-5.5 1t-0.5 3v8q-17 9 -29 21q-11 11 -20 26.5t-10 38.5zM770 -6q0 3 0.5 6t3.5 8q5 9 31 30t64.5 52.5t86.5 72.5t97 89q104 100 148 179t44 132q0 35 -17.5 58t-43 36.5t-54.5 19t-53 5.5q-43 0 -80.5 -10t-65 -26 t-43.5 -36.5t-16 -42.5q0 -18 18 -30.5t34 -12.5q15 0 32.5 3t35 8t32 11.5t23.5 14.5q5 5 8 4.5t4 -4t0 -8.5t-4 -8q-8 -8 -6 -7.5t8 -2.5q10 -5 10 -17q0 -3 -0.5 -7.5t-3.5 -10.5q-5 -6 -6.5 -12t-12.5 -15q-23 -20 -45.5 -29.5t-44.5 -9.5q-40 0 -69.5 12.5t-49 32 t-29 44t-9.5 48.5q1 29 19 65.5t53 69t86.5 54.5t119.5 22q136 0 210.5 -53.5t74.5 -146.5q0 -43 -17.5 -87t-47 -86.5t-66.5 -83t-76.5 -77.5t-77 -69.5t-67.5 -59.5q82 12 180 12q31 0 60 -1t52.5 -3t39.5 -4.5t22 -5.5q15 -10 17.5 -16t9.5 -11q6 -6 9.5 -13.5 t-7.5 -10.5q-7 -2 -7 -9.5t11 -19.5q15 -19 21 -27t-11 -6q-16 0 -93 1t-210 1q-67 0 -122 -2.5t-95.5 -6.5t-65 -8t-28.5 -7q-8 -7 -10 -7.5t-5 2.5l-4 8t-2 9z" />
<glyph unicode="&#xbe;" horiz-adv-x="1632" d="M66 713q0 33 25 62.5t60 52.5t73.5 38.5t64.5 20.5q14 3 18.5 1t4 -6t-4 -9t-6.5 -7q-12 -3 -53 -22q-48 -22 -70 -47.5t-22 -46.5q0 -20 12.5 -32t30 -18t36.5 -8t33 -2q38 0 79.5 9t81 24t74.5 35.5t59.5 43.5t36.5 47t5 48q-11 37 -36.5 60t-58.5 35t-70.5 16t-71.5 4 q-41 0 -71 -3t-38 -5q-13 -3 -19 2.5t-8 14.5t-2.5 19.5t-1.5 18.5q-2 7 -5 10.5t-4.5 6t1.5 4.5t14 5q9 2 36 9.5t62.5 19t74.5 27.5t71.5 35.5t54 43t21.5 50.5q0 15 -7.5 23.5t-18.5 13t-23.5 5.5t-22.5 1q-36 0 -74.5 -7t-73.5 -19t-63 -28t-43 -34q-5 -8 8.5 -8 t33.5 3.5t40.5 8.5t30.5 8q9 3 4.5 -4t-10.5 -16q-3 -7 -3.5 -10.5t-6.5 -8.5q-17 -12 -21.5 -23t-11.5 -14q-9 -2 -20.5 -4.5t-24 -4t-24.5 -2.5t-21 -1q-32 0 -52 18.5t-20 42.5q0 50 47.5 88t142.5 76q39 14 82.5 19.5t71.5 5.5q53 0 86 -12t47 -21q26 -22 36.5 -45.5 t23.5 -42.5q5 -8 6.5 -15.5t1.5 -15.5q0 -26 -24.5 -51t-60.5 -48t-77.5 -42t-75.5 -33q47 -5 99 -19.5t96 -40t73 -63t29 -88.5q0 -49 -21.5 -89t-57 -71.5t-81 -54t-94 -37.5t-96 -22.5t-86.5 -7.5q-35 0 -75 5.5t-75 20.5t-58 41t-23 66zM395 82q7 12 42 64.5t90 132 t124.5 180t144.5 207.5t151 215t143.5 202.5t121.5 169.5t86 117q13 16 22 22.5t21 6.5q4 -1 14.5 -7t21.5 -15.5t19.5 -22t8.5 -25.5q-2 -11 -5 -20t-11 -19q-28 -34 -80.5 -104.5t-119.5 -164t-144 -202t-153 -217.5t-147 -211.5t-126 -183.5t-90 -133.5t-40 -61.5 q-5 -8 -9 -14q-4 -5 -9 -9.5t-10 -4.5t-5.5 1t-0.5 3v8q-16 9 -29 21q-11 11 -20.5 26.5t-10.5 38.5zM817.5 284q-0.5 4 1.5 6.5t6.5 3.5t8.5 3q79 45 138 89t104 85.5t79 81t62.5 78t54 74.5t53.5 71q4 6 13 3.5t18.5 -8t16 -12t5.5 -9.5q-44 -86 -97 -156.5t-108 -125.5 t-107 -95.5t-93 -67.5q31 1 68.5 1.5t79 1t83.5 1t82 2.5q4 46 8.5 91.5t8.5 87t8 76t6 59.5q1 9 4.5 14.5t8.5 10.5t11.5 10t12.5 14q12 15 16 26t12 5q3 -4 9.5 -6.5t13 -1.5t12.5 6t8 16q1 2 5 3.5t9 1t8.5 -3t2.5 -7.5q-1 -4 -1.5 -23.5t-2 -50.5t-3 -70t-3 -81.5 t-3.5 -86t-3 -82.5q12 2 24.5 2.5t22.5 0.5q14 0 25.5 -0.5t19.5 -4.5q4 -2 7.5 -10.5t5 -18t0.5 -18.5t-5 -10q-9 -2 -12.5 -11t-5.5 -16q-2 -5 -26.5 -6.5t-62.5 -3.5q-3 -65 -4 -107t-2 -68t-2 -38t-4 -16q-8 -11 -16 -9.5t-13 1.5q-2 0 -10.5 -2.5t-18 -4.5t-18 -2.5 t-10.5 3.5q-3 6 -10.5 4t-7.5 4q0 3 -3.5 4t-7.5 1.5t-7.5 1.5t-4.5 3q-1 7 -2.5 9.5t-3 4.5t-2.5 6t-2 15q-2 12 -2 26v29q0 29 1 62.5t3 70.5q-25 0 -65 -0.5t-86.5 -2t-93.5 -3t-86.5 -2.5t-66.5 -2.5t-32 -1.5q-12 -2 -16 6.5t-9 17.5q-3 11 -4 17t15 8h2q-5 3 -8.5 8 t-6.5 8q-5 6 -5.5 10z" />
<glyph unicode="&#xbf;" horiz-adv-x="971" d="M0 135q0 82 46.5 157t125 135.5t183 102.5t220.5 58q2 17 3.5 40t1.5 48q0 52 -2.5 94.5t-10.5 73.5q-6 27 -6 40t4.5 17.5t12.5 2t18 -6.5t16.5 5.5t13.5 23t15 26.5t21 15q12 2 21.5 -2.5t16.5 -12.5t12 -17t9 -15q3 -5 6 -37t6 -77t4.5 -95t1.5 -90q0 -23 -1 -39.5 t-3 -24.5q-8 -34 -24.5 -48.5t-24.5 -19.5q-2 -1 -24 -2.5t-57.5 -7t-80 -16.5t-90.5 -30.5t-90 -49t-78 -72.5t-55 -101t-21 -134q0 -51 21.5 -88.5t57 -62t82.5 -36.5t98 -12q60 0 121 16.5t110.5 48t81 76.5t33.5 103q0 25 -5.5 49t-27.5 29q-5 2 -8.5 8.5t-10.5 9.5 q-5 3 -6 7.5t1.5 9t7 8t10.5 4.5q12 3 15 8.5t9 7.5q5 1 6 2.5t3.5 2t9.5 0t24 -4.5q25 -6 51.5 -23t48 -42t35 -57t13.5 -68q0 -34 -15 -70.5t-49 -71.5q-37 -38 -85.5 -67t-105 -49t-118 -30.5t-123.5 -10.5q-70 0 -138 14t-127 43.5t-106.5 75.5t-76.5 110 q-14 31 -20.5 60.5t-6.5 58.5zM506 1110q-1 15 1 33t7.5 35t14.5 30.5t22 18.5q17 6 31.5 9t25.5 3q20 0 34 -6.5t28 -15.5q20 -11 33.5 -30t13.5 -38q0 -15 -6.5 -35t-16.5 -39.5t-21.5 -35t-21.5 -21.5q-17 -9 -27.5 -9.5t-19.5 -0.5q-46 0 -71 23t-27 79z" />
<glyph unicode="&#xc0;" horiz-adv-x="1120" d="M31 0.5q2 15.5 2 32.5t-0.5 32t4.5 29l12.5 37.5t26.5 76t35 97t39 101.5q-18 0 -25 10q-5 8 -12 9.5t-15 4.5q-8 2 -11 9t-1 12q2 6 -3 10t-5 18q0 6 9.5 11.5t23.5 9.5t31.5 7t33.5 5h7.5t9.5 2q22 53 50 114.5t57.5 125.5t59.5 128t57 120.5t49.5 103.5t37.5 78 q-12 37 -21.5 68t-16.5 54t-11 36.5t-4 15.5q-1 2 0 4q2 5 10 6q-8 15 -8 22q0 4 2 5q2 2 10 4t17 3.5t17 2t11 0.5q1 0 5 -1q6 -2 17 -9q1 5 2.5 7t3.5 4l3 3q6 3 13 1.5t13 -1.5t8.5 5t12.5 5q13 0 22 -28q1 -5 14 -37.5t33 -85t46.5 -121.5t55.5 -146.5t58.5 -160 t56.5 -162.5q56 -163 94 -275t61.5 -183t35 -106t14.5 -42q5 -16 8 -25.5t3 -17.5t-10 -8.5t-21 -0.5l-10 -2q-5 -2 -10.5 -3.5t-10.5 -6.5q2 -10 1.5 -15.5t-0.5 -8.5l-1 -4q-3 -4 -12 -6.5t-19 -2.5q-2 0 -6 1q-7 2 -14 10q-17 5 -40 10q-12 3 -26 6q-11 3 -19 16 t-14.5 30.5t-12 36t-9.5 32.5l-98 309q-22 0 -55.5 -0.5t-71.5 -1t-77 -2t-71 -2.5l-200 -10l-117 -306q-3 -5 -8.5 -20t-11.5 -31.5t-11 -31t-6 -17.5q-2 -8 -12 -10t-17 -4q-6 -2 -10 -11t-12 -12q-8 -5 -20 -1t-21 13q-8 10 -6 25.5zM287 1814.5q-1 12.5 5 16.5t10 4 q2 0 8.5 -1t14 -1.5t14 -1.5t8.5 -1q1 0 7.5 1t14 1.5t13.5 1.5t8 1t14 1t17 -6q18 -26 41 -56t46.5 -60.5t45.5 -60.5t39.5 -55.5t28 -46t10.5 -32.5q0 -9 -15.5 -13t-27.5 1q-16 6 -25.5 1t-23.5 -5q-18 0 -40 20t-47 51.5t-53 70t-57 75.5q-32 37 -43.5 59.5t-12.5 35z M328 524l180 11q23 0 55 1q54 1 156 3l-60 174q-26 74 -56.5 166t-59.5 182q-17 -44 -41 -106t-50.5 -128t-51.5 -129t-44 -108z" />
<glyph unicode="&#xc1;" horiz-adv-x="1120" d="M31 0.5q2 15.5 2 32.5t-0.5 32t4.5 29l12.5 37.5t26.5 76t35 97t39 101.5q-18 0 -25 10q-5 8 -12 9.5t-15 4.5q-8 2 -11 9t-1 12q2 6 -3 10t-5 18q0 6 9.5 11.5t23.5 9.5t31.5 7t33.5 5h7.5t9.5 2q22 53 50 114.5t57.5 125.5t59.5 128t57 120.5t49.5 103.5t37.5 78 q-12 37 -21.5 68t-16.5 54t-11 36.5t-4 15.5q-1 2 0 4q2 5 10 6q-8 15 -8 22q0 4 2 5q2 2 10 4t17 3.5t17 2t11 0.5q1 0 5 -1q6 -2 17 -9q1 5 2.5 7t3.5 4l3 3q6 3 13 1.5t13 -1.5t8.5 5t12.5 5q13 0 22 -28q1 -5 14 -37.5t33 -85t46.5 -121.5t55.5 -146.5t58.5 -160 t56.5 -162.5q56 -163 94 -275t61.5 -183t35 -106t14.5 -42q5 -16 8 -25.5t3 -17.5t-10 -8.5t-21 -0.5l-10 -2q-5 -2 -10.5 -3.5t-10.5 -6.5q2 -10 1.5 -15.5t-0.5 -8.5l-1 -4q-3 -4 -12 -6.5t-19 -2.5q-2 0 -6 1q-7 2 -14 10q-17 5 -40 10q-12 3 -26 6q-11 3 -19 16 t-14.5 30.5t-12 36t-9.5 32.5l-98 309q-22 0 -55.5 -0.5t-71.5 -1t-77 -2t-71 -2.5l-200 -10l-117 -306q-3 -5 -8.5 -20t-11.5 -31.5t-11 -31t-6 -17.5q-2 -8 -12 -10t-17 -4q-6 -2 -10 -11t-12 -12q-8 -5 -20 -1t-21 13q-8 10 -6 25.5zM328 524l180 11q23 0 55 1 q54 1 156 3l-60 174q-26 74 -56.5 166t-59.5 182q-17 -44 -41 -106t-50.5 -128t-51.5 -129t-44 -108zM451 1536q0 8 9.5 26.5t25.5 43t35.5 53t40 56.5t39 53t32.5 44q8 6 16.5 14.5t16.5 8.5q2 0 7 1t11 2.5t11 3t8 1.5q1 0 10 -1.5t18.5 -3t18 -2.5t10.5 -1q1 0 10.5 -0.5 t17.5 -4.5t11 -12.5t-10 -23.5q-36 -42 -75.5 -92t-75.5 -94t-65 -73.5t-42 -29.5q-7 0 -8.5 3t-6.5 5q-6 2 -17 1.5t-21.5 0t-18.5 5t-8 16.5z" />
<glyph unicode="&#xc2;" horiz-adv-x="1120" d="M31 0.5q2 15.5 2 32.5t-0.5 32t4.5 29l12.5 37.5t26.5 76t35 97t39 101.5q-18 0 -25 10q-5 8 -12 9.5t-15 4.5q-8 2 -11 9t-1 12q2 6 -3 10t-5 18q0 6 9.5 11.5t23.5 9.5t31.5 7t33.5 5h7.5t9.5 2q22 53 50 114.5t57.5 125.5t59.5 128t57 120.5t49.5 103.5t37.5 78 q-12 37 -21.5 68t-16.5 54t-11 36.5t-4 15.5q-1 2 0 4q2 5 10 6q-8 15 -8 22q0 4 2 5q2 2 10 4t17 3.5t17 2t11 0.5q1 0 5 -1q6 -2 17 -9q1 5 2.5 7t3.5 4l3 3q6 3 13 1.5t13 -1.5t8.5 5t12.5 5q13 0 22 -28q1 -5 14 -37.5t33 -85t46.5 -121.5t55.5 -146.5t58.5 -160 t56.5 -162.5q56 -163 94 -275t61.5 -183t35 -106t14.5 -42q5 -16 8 -25.5t3 -17.5t-10 -8.5t-21 -0.5l-10 -2q-5 -2 -10.5 -3.5t-10.5 -6.5q2 -10 1.5 -15.5t-0.5 -8.5l-1 -4q-3 -4 -12 -6.5t-19 -2.5q-2 0 -6 1q-7 2 -14 10q-17 5 -40 10q-12 3 -26 6q-11 3 -19 16 t-14.5 30.5t-12 36t-9.5 32.5l-98 309q-22 0 -55.5 -0.5t-71.5 -1t-77 -2t-71 -2.5l-200 -10l-117 -306q-3 -5 -8.5 -20t-11.5 -31.5t-11 -31t-6 -17.5q-2 -8 -12 -10t-17 -4q-6 -2 -10 -11t-12 -12q-8 -5 -20 -1t-21 13q-8 10 -6 25.5zM276 1540q0 8 14 27.5t36 46t49.5 56 t55 57.5t51 51.5t38.5 37.5q8 6 16.5 14.5t16.5 8.5q2 0 8.5 -0.5t14 -1.5t14 -1.5t8.5 -0.5q3 0 11 2t11 2q2 0 13 -0.5t14 -3.5q6 -6 10 -9.5t8 -9.5t9.5 -16t15 -28t24.5 -46t39 -70q16 -30 30.5 -51t25 -36t16.5 -26t6 -20q0 -3 -6.5 -5.5t-15.5 -4t-18.5 -2t-14.5 -0.5 q-17 0 -30 -1t-27 -3q-18 0 -31.5 20t-28.5 51.5t-33 70t-43 75.5q-30 -27 -59.5 -64t-55 -70.5t-46.5 -57t-35 -23.5q-3 0 -9.5 1t-13 2.5t-12.5 2.5t-8 2q-6 2 -17.5 1.5t-23 0t-19.5 5t-8 16.5zM328 524l180 11q23 0 55 1q54 1 156 3l-60 174q-26 74 -56.5 166t-59.5 182 q-17 -44 -41 -106t-50.5 -128t-51.5 -129t-44 -108z" />
<glyph unicode="&#xc3;" horiz-adv-x="1120" d="M31 0.5q2 15.5 2 32.5t-0.5 32t4.5 29l12.5 37.5t26.5 76t35 97t39 101.5q-18 0 -25 10q-5 8 -12 9.5t-15 4.5q-8 2 -11 9t-1 12q2 6 -3 10t-5 18q0 6 9.5 11.5t23.5 9.5t31.5 7t33.5 5h7.5t9.5 2q22 53 50 114.5t57.5 125.5t59.5 128t57 120.5t49.5 103.5t37.5 78 q-12 37 -21.5 68t-16.5 54t-11 36.5t-4 15.5q-1 2 0 4q2 5 10 6q-8 15 -8 22q0 4 2 5q2 2 10 4t17 3.5t17 2t11 0.5q1 0 5 -1q6 -2 17 -9q1 5 2.5 7t3.5 4l3 3q6 3 13 1.5t13 -1.5t8.5 5t12.5 5q13 0 22 -28q1 -5 14 -37.5t33 -85t46.5 -121.5t55.5 -146.5t58.5 -160 t56.5 -162.5q56 -163 94 -275t61.5 -183t35 -106t14.5 -42q5 -16 8 -25.5t3 -17.5t-10 -8.5t-21 -0.5l-10 -2q-5 -2 -10.5 -3.5t-10.5 -6.5q2 -10 1.5 -15.5t-0.5 -8.5l-1 -4q-3 -4 -12 -6.5t-19 -2.5q-2 0 -6 1q-7 2 -14 10q-17 5 -40 10q-12 3 -26 6q-11 3 -19 16 t-14.5 30.5t-12 36t-9.5 32.5l-98 309q-22 0 -55.5 -0.5t-71.5 -1t-77 -2t-71 -2.5l-200 -10l-117 -306q-3 -5 -8.5 -20t-11.5 -31.5t-11 -31t-6 -17.5q-2 -8 -12 -10t-17 -4q-6 -2 -10 -11t-12 -12q-8 -5 -20 -1t-21 13q-8 10 -6 25.5zM280 1640q0 14 10.5 43.5t29 60 t44 53.5t56.5 25q40 2 68.5 -14t55 -36t53.5 -37t64 -17q25 0 42.5 20t25.5 58q2 12 8.5 17t22.5 5q7 0 11.5 -2t8.5 -4.5t8.5 -4.5t10.5 -1q11 3 22.5 -4.5t11.5 -20.5q0 -18 -10 -50t-29 -63t-47 -54t-65 -23q-41 0 -74 17t-60 38t-49 38t-40 17q-22 0 -35 -14.5 t-22 -32.5t-15.5 -33t-13.5 -16q-13 -2 -20 -8t-23 -6q-8 0 -17.5 11t-19.5 11q-11 0 -12 10.5t-1 16.5zM328 524l180 11q23 0 55 1q54 1 156 3l-60 174q-26 74 -56.5 166t-59.5 182q-17 -44 -41 -106t-50.5 -128t-51.5 -129t-44 -108z" />
<glyph unicode="&#xc4;" horiz-adv-x="1120" d="M31 0.5q2 15.5 2 32.5t-0.5 32t4.5 29l12.5 37.5t26.5 76t35 97t39 101.5q-18 0 -25 10q-5 8 -12 9.5t-15 4.5q-8 2 -11 9t-1 12q2 6 -3 10t-5 18q0 6 9.5 11.5t23.5 9.5t31.5 7t33.5 5h7.5t9.5 2q22 53 50 114.5t57.5 125.5t59.5 128t57 120.5t49.5 103.5t37.5 78 q-12 37 -21.5 68t-16.5 54t-11 36.5t-4 15.5q-1 2 0 4q2 5 10 6q-8 15 -8 22q0 4 2 5q2 2 10 4t17 3.5t17 2t11 0.5q1 0 5 -1q6 -2 17 -9q1 5 2.5 7t3.5 4l3 3q6 3 13 1.5t13 -1.5t8.5 5t12.5 5q13 0 22 -28q1 -5 14 -37.5t33 -85t46.5 -121.5t55.5 -146.5t58.5 -160 t56.5 -162.5q56 -163 94 -275t61.5 -183t35 -106t14.5 -42q5 -16 8 -25.5t3 -17.5t-10 -8.5t-21 -0.5l-10 -2q-5 -2 -10.5 -3.5t-10.5 -6.5q2 -10 1.5 -15.5t-0.5 -8.5l-1 -4q-3 -4 -12 -6.5t-19 -2.5q-2 0 -6 1q-7 2 -14 10q-17 5 -40 10q-12 3 -26 6q-11 3 -19 16 t-14.5 30.5t-12 36t-9.5 32.5l-98 309q-22 0 -55.5 -0.5t-71.5 -1t-77 -2t-71 -2.5l-200 -10l-117 -306q-3 -5 -8.5 -20t-11.5 -31.5t-11 -31t-6 -17.5q-2 -8 -12 -10t-17 -4q-6 -2 -10 -11t-12 -12q-8 -5 -20 -1t-21 13q-8 10 -6 25.5zM319 1644q0 12 5 28t13 32t17.5 29 t18.5 18q14 8 22 8h16q38 0 58 -19t22 -65q1 -12 -0.5 -26.5t-6 -28.5t-12 -24.5t-18.5 -14.5q-28 -11 -47 -11q-15 0 -26.5 5.5t-22.5 13.5q-17 9 -28 24.5t-11 30.5zM328 524l180 11q23 0 55 1q54 1 156 3l-60 174q-26 74 -56.5 166t-59.5 182q-17 -44 -41 -106 t-50.5 -128t-51.5 -129t-44 -108zM616 1656q-1 12 0.5 26.5t6 28.5t12 25t18.5 15q14 5 26 7.5t21 2.5q16 0 27 -5.5t22 -13.5q17 -9 28 -24t11 -31q0 -12 -5 -28t-13 -32t-17 -29t-18 -17q-14 -8 -22.5 -8.5t-16.5 -0.5q-37 0 -57.5 19t-22.5 65z" />
<glyph unicode="&#xc5;" horiz-adv-x="1120" d="M31 0.5q2 15.5 2 32.5t-0.5 32t4.5 29l12.5 37.5t26.5 76t35 97t39 101.5q-18 0 -25 10q-5 8 -12 9.5t-15 4.5q-8 2 -11 9t-1 12q2 6 -3 10t-5 18q0 6 9.5 11.5t23.5 9.5t31.5 7t33.5 5h7.5t9.5 2q22 53 50 114.5t57.5 125.5t59.5 128t57 120.5t49.5 103.5t37.5 78 q-12 37 -21.5 68t-16.5 54t-11 36.5t-4 15.5q-1 2 0 4q2 5 10 6q-8 15 -8 22q0 4 2 5q2 2 10 4t17 3.5t17 2t11 0.5q1 0 5 -1q6 -2 17 -9q1 5 2.5 7t3.5 4l3 3q6 3 13 1.5t13 -1.5t8.5 5t12.5 5q13 0 22 -28q1 -5 14 -37.5t33 -85t46.5 -121.5t55.5 -146.5t58.5 -160 t56.5 -162.5q56 -163 94 -275t61.5 -183t35 -106t14.5 -42q5 -16 8 -25.5t3 -17.5t-10 -8.5t-21 -0.5l-10 -2q-5 -2 -10.5 -3.5t-10.5 -6.5q2 -10 1.5 -15.5t-0.5 -8.5l-1 -4q-3 -4 -12 -6.5t-19 -2.5q-2 0 -6 1q-7 2 -14 10q-17 5 -40 10q-12 3 -26 6q-11 3 -19 16 t-14.5 30.5t-12 36t-9.5 32.5l-98 309q-22 0 -55.5 -0.5t-71.5 -1t-77 -2t-71 -2.5l-200 -10l-117 -306q-3 -5 -8.5 -20t-11.5 -31.5t-11 -31t-6 -17.5q-2 -8 -12 -10t-17 -4q-6 -2 -10 -11t-12 -12q-8 -5 -20 -1t-21 13q-8 10 -6 25.5zM328 524l180 11q23 0 55 1 q54 1 156 3l-60 174q-26 74 -56.5 166t-59.5 182q-17 -44 -41 -106t-50.5 -128t-51.5 -129t-44 -108zM358 1695q1 63 24.5 107.5t56.5 73t68 42t58 15.5q20 0 31 -2t22 -2q10 0 34.5 -7t49.5 -27.5t44.5 -58t19.5 -98.5q0 -53 -17.5 -95.5t-46.5 -72.5t-67.5 -46.5 t-81.5 -16.5q-26 0 -60 8.5t-64 30t-50.5 58t-20.5 91.5zM464 1708q0 -53 26 -83t67 -30q18 0 37 8t34.5 24.5t25 41t9.5 57.5q0 34 -12 55t-26.5 33t-27.5 16.5t-14 4.5q-9 0 -11 0.5t-7 3.5q-2 0 -3 1t-3 1q-15 -7 -31.5 -19.5t-30.5 -29t-23.5 -38t-9.5 -46.5z" />
<glyph unicode="&#xc6;" horiz-adv-x="1743" d="M-20 0.5q2 15.5 2 32.5t4.5 32t9.5 29l180 309h-6q-8 2 -22 3.5t-19 9.5t-12 9.5t-15 4.5q-8 2 -11 9t-1 12q2 6 -3 10t-5 18q0 6 9.5 14t23.5 15t31.5 12.5t33.5 7.5q10 0 27.5 2.5t40.5 4.5q30 54 67 117t76 129.5t79.5 133.5t77.5 128.5t69.5 114.5t56.5 91h-31 q-12 0 -22 3q-9 2 -17 7t-12 15q-16 2 -23.5 6t-11.5 8t-4 10q2 11 6.5 17t20.5 14q17 6 24 15.5t17 11.5q2 1 25.5 5t62 10.5t88.5 14t105.5 15t113.5 13.5t112 9q70 5 138.5 6t128.5 1q40 0 75 -0.5t62 -1.5t44.5 -2.5t22.5 -2.5q7 -2 14 -7q5 -5 11 -13.5t10 -22.5 q8 -4 12 -7.5t6 -6.5q3 -4 3 -6v-14.5t-2 -14.5q-1 -2 -4 -4q-7 -4 -15 -8q1 -14 0 -22t-3 -13t-5 -8q-6 -5 -22.5 -7.5t-61.5 -2.5q-9 0 -41 -0.5t-79 -1.5t-106.5 -2t-124.5 -2.5t-132 -3t-129 -3.5q-4 -42 -8 -108t-8 -135.5t-7 -132.5t-4 -99q38 10 83.5 16.5t83.5 10.5 q45 4 89 6q29 2 56.5 2h52.5q100 0 154.5 -4t62.5 -6q5 -1 12 -8t13.5 -16.5t11 -21t4.5 -20.5q0 -17 -9.5 -31t-15.5 -26q-4 -6 -9.5 -12.5t-11.5 -12t-12 -8.5t-10 -2q-3 0 -24.5 1t-54 2.5t-71 2.5t-74 2t-64.5 1.5t-42 0.5q-16 0 -46 -3q-26 -2 -70 -7t-113 -14 q-2 -40 -2 -88.5v-102.5q0 -69 1.5 -136.5t6.5 -121.5h103q57 0 112.5 1.5t102.5 4.5q67 5 127.5 11t108.5 11t79.5 7.5t40.5 1.5q7 -2 21 -1t29 3t28.5 4t21.5 4q8 1 17 -3.5t17 -12t13.5 -15.5t6.5 -12q0 -4 -5 -15t-11.5 -23t-14 -22.5t-12.5 -12.5q-4 -2 -27.5 -10.5 t-62.5 -20t-91.5 -24.5t-114 -24.5t-131 -19t-141.5 -8.5q-60 -2 -112 -4t-97 -2q-24 0 -47 1t-43 3q-28 3 -54 7q-23 4 -47.5 10t-41.5 16q-5 1 -9 5q-8 6 -7 17q-10 5 -14 11q-2 3 -3 4q0 2 1 5q1 4 9 15q-11 1 -15 11q-3 4 -3 10q-1 6 1 12q4 13 17 25q0 13 3 19q2 4 4 5 q1 3 8 6t16 5t18.5 3t16.5 0l2 -2l6 234q-25 0 -56 -0.5t-63.5 -1t-64.5 -2t-60 -2.5l-168 -8q-28 -56 -54.5 -108t-47.5 -93.5t-34.5 -67.5t-16.5 -30q-5 -6 -13 -22.5t-16 -34.5t-15 -33.5t-9 -18.5q-2 -8 -12.5 -10t-16.5 -4t-10.5 -11t-12.5 -12q-4 -2 -14.5 -2 t-22.5 1.5t-23 4.5t-15 8q-8 10 -6 25.5zM391 545l121 6q25 0 58 1q58 2 163 3q2 34 3 52q1 11 1 20q4 94 11 198q6 89 16 200t24 226h-12q-6 -9 -11.5 -16.5t-8.5 -13.5q-5 -8 -23 -42.5t-45 -85t-59.5 -111.5t-66 -123.5t-65 -120.5t-55.5 -101q-12 -20 -24.5 -43.5 t-26.5 -48.5z" />
<glyph unicode="&#xc7;" horiz-adv-x="1288" d="M70 637q0 106 28 204t78.5 183t120.5 154t154 118t179.5 76t196.5 27q36 0 80.5 -5t88 -18.5t80.5 -36.5t57 -59q25 -18 45 -53q18 -38 18 -72q0 -38 -13.5 -70t-34.5 -58t-45.5 -46t-47.5 -33.5t-40 -20.5t-22 -7t-16.5 5t-22.5 12q-13 7 -28 17q0 1 19 12t42.5 34 t42.5 60.5t19 92.5q-9 18 -25 34.5t-41 29t-60.5 20.5t-84.5 8q-17 0 -52 -5t-81 -18t-99.5 -35.5t-107 -59t-103 -88t-87.5 -121t-60.5 -159.5t-22.5 -204q0 -62 10 -112.5t26.5 -91t38.5 -72t46 -56.5q15 -8 34 -20.5t51.5 -24t83.5 -20t130 -8.5q68 0 129.5 16t115 41 t98.5 55.5t79.5 60t57.5 54t32 37.5q19 26 27 33.5t14 7.5q5 0 9.5 -1t9.5 -1q9 0 11 9t5 9q2 0 3 -8t1 -19q0 -6 -1 -11.5t-1 -10.5q-1 -6 -8.5 -40.5t-28 -82t-57 -101t-95 -99.5t-141.5 -76.5t-196 -30.5l-31 -80q112 -5 161.5 -49.5t49.5 -112.5q0 -37 -16.5 -81 t-52 -82t-90 -63.5t-130.5 -25.5q-35 0 -73.5 10.5t-82.5 36.5q-6 3 -6 9q0 1 6.5 20.5t16 42t20 41t17.5 18.5q2 0 3 -1t3 -1q23 -13 47.5 -22t47.5 -15t43.5 -9t35.5 -3q53 0 81.5 20t28.5 54q0 24 -8 43t-27.5 32.5t-52.5 21t-84 7.5h-19.5t-22 3t-16.5 9.5t-1 18.5 q12 34 27 77.5t32 86.5q-51 7 -95 20.5t-79.5 30t-63.5 35t-48 35.5q-51 29 -98 74t-83 108t-57.5 146.5t-21.5 189.5z" />
<glyph unicode="&#xc8;" horiz-adv-x="1165" d="M16 1298q2 11 7 17t20 14q17 6 24.5 15.5t16.5 11.5q4 1 47 9.5t109 20t148 22t163 15.5q69 5 137.5 6t128.5 1q82 0 138 -2t67 -5q7 -2 14 -7q5 -5 11 -13.5t10 -22.5q8 -4 11.5 -7.5t5.5 -6.5l3 -6v-14.5t-2 -14.5q-1 -2 -4 -4q-2 -2 -5.5 -4t-8.5 -4q1 -14 0 -22 t-3 -13t-5 -8q-7 -5 -23.5 -7.5t-60.5 -2.5l-619 -13q-3 -29 -5.5 -68.5t-5 -84.5t-5 -92t-4.5 -90.5t-4 -80.5t-3 -61q38 11 84 17.5t86 10.5q47 4 93 7q29 2 56 2h52q100 0 154.5 -4t62.5 -6q6 -1 13 -8t13 -16.5t10.5 -21t4.5 -20.5q0 -17 -9 -36t-15 -31q-8 -13 -21 -25 t-22 -10q-3 0 -25 1t-54.5 2.5t-70.5 2.5t-74 2t-64.5 1.5t-41.5 0.5q-16 0 -47 -3q-26 -2 -72 -7t-117 -14q-2 -41 -2 -86v-95q0 -69 2 -136.5t7 -121.5h108q57 0 113 1.5t102 4.5q67 5 127.5 11t108.5 11t80 7.5t40 1.5q8 -2 21.5 -1t28.5 3t29 4t22 4q7 1 16 -3.5t17 -12 t13.5 -15.5t6.5 -12q0 -4 -5 -15t-11.5 -23t-14 -22.5t-12.5 -12.5q-3 -2 -26.5 -10.5t-62.5 -20t-91.5 -24.5t-114 -24.5t-131 -19t-141.5 -8.5q-60 -2 -112 -4t-97 -2q-25 0 -47.5 1t-42.5 3q-28 3 -54 7q-23 4 -47.5 10t-42.5 16q-5 1 -9 5q-8 6 -7 17q-9 5 -13 11 q-2 3 -3 4q0 2 1 5q1 4 9 15q-7 1 -10.5 4t-5.5 7q-3 4 -3 10t2 12q2 5 5.5 11.5t11.5 13.5q0 13 3 19q1 4 3 5q1 3 8 6t16 5t18.5 3t16.5 0l2 -2q2 66 5 143t6 143q4 77 8 153q4 94 12 198q7 89 17 200t26 226l-115 -2q-11 0 -21 3q-8 2 -17 7t-13 15q-16 2 -23.5 6 t-11.5 8t-4 10zM323 1827.5q-1 12.5 5 16.5t10 4q2 0 8.5 -1t14 -1.5t14 -1.5t8.5 -1q1 0 7.5 1t14 1.5t13.5 1.5t8 1t14 1t17 -6q18 -26 41 -56t46.5 -60.5t45.5 -60.5t39.5 -55.5t28 -46t10.5 -32.5q0 -9 -15.5 -13t-27.5 1q-16 6 -25.5 1t-23.5 -5q-18 0 -40 20t-47 51.5 t-53 70t-57 75.5q-32 37 -43.5 59.5t-12.5 35z" />
<glyph unicode="&#xc9;" horiz-adv-x="1165" d="M16 1298q2 11 7 17t20 14q17 6 24.5 15.5t16.5 11.5q4 1 47 9.5t109 20t148 22t163 15.5q69 5 137.5 6t128.5 1q82 0 138 -2t67 -5q7 -2 14 -7q5 -5 11 -13.5t10 -22.5q8 -4 11.5 -7.5t5.5 -6.5l3 -6v-14.5t-2 -14.5q-1 -2 -4 -4q-2 -2 -5.5 -4t-8.5 -4q1 -14 0 -22 t-3 -13t-5 -8q-7 -5 -23.5 -7.5t-60.5 -2.5l-619 -13q-3 -29 -5.5 -68.5t-5 -84.5t-5 -92t-4.5 -90.5t-4 -80.5t-3 -61q38 11 84 17.5t86 10.5q47 4 93 7q29 2 56 2h52q100 0 154.5 -4t62.5 -6q6 -1 13 -8t13 -16.5t10.5 -21t4.5 -20.5q0 -17 -9 -36t-15 -31q-8 -13 -21 -25 t-22 -10q-3 0 -25 1t-54.5 2.5t-70.5 2.5t-74 2t-64.5 1.5t-41.5 0.5q-16 0 -47 -3q-26 -2 -72 -7t-117 -14q-2 -41 -2 -86v-95q0 -69 2 -136.5t7 -121.5h108q57 0 113 1.5t102 4.5q67 5 127.5 11t108.5 11t80 7.5t40 1.5q8 -2 21.5 -1t28.5 3t29 4t22 4q7 1 16 -3.5t17 -12 t13.5 -15.5t6.5 -12q0 -4 -5 -15t-11.5 -23t-14 -22.5t-12.5 -12.5q-3 -2 -26.5 -10.5t-62.5 -20t-91.5 -24.5t-114 -24.5t-131 -19t-141.5 -8.5q-60 -2 -112 -4t-97 -2q-25 0 -47.5 1t-42.5 3q-28 3 -54 7q-23 4 -47.5 10t-42.5 16q-5 1 -9 5q-8 6 -7 17q-9 5 -13 11 q-2 3 -3 4q0 2 1 5q1 4 9 15q-7 1 -10.5 4t-5.5 7q-3 4 -3 10t2 12q2 5 5.5 11.5t11.5 13.5q0 13 3 19q1 4 3 5q1 3 8 6t16 5t18.5 3t16.5 0l2 -2q2 66 5 143t6 143q4 77 8 153q4 94 12 198q7 89 17 200t26 226l-115 -2q-11 0 -21 3q-8 2 -17 7t-13 15q-16 2 -23.5 6 t-11.5 8t-4 10zM488 1549q0 8 9.5 26.5t25.5 43t35.5 53t40 56.5t39 53t32.5 44q8 6 16.5 14.5t16.5 8.5q2 0 7 1t11 2.5t11 3t8 1.5q1 0 10 -1.5t18.5 -3t18 -2.5t10.5 -1q1 0 10.5 -0.5t17.5 -4.5t11 -12.5t-10 -23.5q-36 -42 -75.5 -92t-75.5 -94t-65 -73.5t-42 -29.5 q-7 0 -8.5 3t-6.5 5q-6 2 -17 1.5t-21.5 0t-18.5 5t-8 16.5z" />
<glyph unicode="&#xca;" horiz-adv-x="1165" d="M16 1298q2 11 7 17t20 14q17 6 24.5 15.5t16.5 11.5q4 1 47 9.5t109 20t148 22t163 15.5q69 5 137.5 6t128.5 1q82 0 138 -2t67 -5q7 -2 14 -7q5 -5 11 -13.5t10 -22.5q8 -4 11.5 -7.5t5.5 -6.5l3 -6v-14.5t-2 -14.5q-1 -2 -4 -4q-2 -2 -5.5 -4t-8.5 -4q1 -14 0 -22 t-3 -13t-5 -8q-7 -5 -23.5 -7.5t-60.5 -2.5l-619 -13q-3 -29 -5.5 -68.5t-5 -84.5t-5 -92t-4.5 -90.5t-4 -80.5t-3 -61q38 11 84 17.5t86 10.5q47 4 93 7q29 2 56 2h52q100 0 154.5 -4t62.5 -6q6 -1 13 -8t13 -16.5t10.5 -21t4.5 -20.5q0 -17 -9 -36t-15 -31q-8 -13 -21 -25 t-22 -10q-3 0 -25 1t-54.5 2.5t-70.5 2.5t-74 2t-64.5 1.5t-41.5 0.5q-16 0 -47 -3q-26 -2 -72 -7t-117 -14q-2 -41 -2 -86v-95q0 -69 2 -136.5t7 -121.5h108q57 0 113 1.5t102 4.5q67 5 127.5 11t108.5 11t80 7.5t40 1.5q8 -2 21.5 -1t28.5 3t29 4t22 4q7 1 16 -3.5t17 -12 t13.5 -15.5t6.5 -12q0 -4 -5 -15t-11.5 -23t-14 -22.5t-12.5 -12.5q-3 -2 -26.5 -10.5t-62.5 -20t-91.5 -24.5t-114 -24.5t-131 -19t-141.5 -8.5q-60 -2 -112 -4t-97 -2q-25 0 -47.5 1t-42.5 3q-28 3 -54 7q-23 4 -47.5 10t-42.5 16q-5 1 -9 5q-8 6 -7 17q-9 5 -13 11 q-2 3 -3 4q0 2 1 5q1 4 9 15q-7 1 -10.5 4t-5.5 7q-3 4 -3 10t2 12q2 5 5.5 11.5t11.5 13.5q0 13 3 19q1 4 3 5q1 3 8 6t16 5t18.5 3t16.5 0l2 -2q2 66 5 143t6 143q4 77 8 153q4 94 12 198q7 89 17 200t26 226l-115 -2q-11 0 -21 3q-8 2 -17 7t-13 15q-16 2 -23.5 6 t-11.5 8t-4 10zM313 1553q0 8 14 27.5t36 46t49.5 56t55 57.5t51 51.5t38.5 37.5q8 6 16.5 14.5t16.5 8.5q2 0 8.5 -0.5t14 -1.5t14 -1.5t8.5 -0.5q3 0 11 2t11 2q2 0 13 -0.5t14 -3.5q6 -6 10 -9.5t8 -9.5t9.5 -16t15 -28t24.5 -46t39 -70q16 -30 30.5 -51t25 -36t16.5 -26 t6 -20q0 -3 -6.5 -5.5t-15.5 -4t-18.5 -2t-14.5 -0.5q-17 0 -30 -1t-27 -3q-18 0 -31.5 20t-28.5 51.5t-33 70t-43 75.5q-30 -27 -59.5 -64t-55 -70.5t-46.5 -57t-35 -23.5q-3 0 -9.5 1t-13 2.5t-12.5 2.5t-8 2q-6 2 -17.5 1.5t-23 0t-19.5 5t-8 16.5z" />
<glyph unicode="&#xcb;" horiz-adv-x="1165" d="M16 1298q2 11 7 17t20 14q17 6 24.5 15.5t16.5 11.5q4 1 47 9.5t109 20t148 22t163 15.5q69 5 137.5 6t128.5 1q82 0 138 -2t67 -5q7 -2 14 -7q5 -5 11 -13.5t10 -22.5q8 -4 11.5 -7.5t5.5 -6.5l3 -6v-14.5t-2 -14.5q-1 -2 -4 -4q-2 -2 -5.5 -4t-8.5 -4q1 -14 0 -22 t-3 -13t-5 -8q-7 -5 -23.5 -7.5t-60.5 -2.5l-619 -13q-3 -29 -5.5 -68.5t-5 -84.5t-5 -92t-4.5 -90.5t-4 -80.5t-3 -61q38 11 84 17.5t86 10.5q47 4 93 7q29 2 56 2h52q100 0 154.5 -4t62.5 -6q6 -1 13 -8t13 -16.5t10.5 -21t4.5 -20.5q0 -17 -9 -36t-15 -31q-8 -13 -21 -25 t-22 -10q-3 0 -25 1t-54.5 2.5t-70.5 2.5t-74 2t-64.5 1.5t-41.5 0.5q-16 0 -47 -3q-26 -2 -72 -7t-117 -14q-2 -41 -2 -86v-95q0 -69 2 -136.5t7 -121.5h108q57 0 113 1.5t102 4.5q67 5 127.5 11t108.5 11t80 7.5t40 1.5q8 -2 21.5 -1t28.5 3t29 4t22 4q7 1 16 -3.5t17 -12 t13.5 -15.5t6.5 -12q0 -4 -5 -15t-11.5 -23t-14 -22.5t-12.5 -12.5q-3 -2 -26.5 -10.5t-62.5 -20t-91.5 -24.5t-114 -24.5t-131 -19t-141.5 -8.5q-60 -2 -112 -4t-97 -2q-25 0 -47.5 1t-42.5 3q-28 3 -54 7q-23 4 -47.5 10t-42.5 16q-5 1 -9 5q-8 6 -7 17q-9 5 -13 11 q-2 3 -3 4q0 2 1 5q1 4 9 15q-7 1 -10.5 4t-5.5 7q-3 4 -3 10t2 12q2 5 5.5 11.5t11.5 13.5q0 13 3 19q1 4 3 5q1 3 8 6t16 5t18.5 3t16.5 0l2 -2q2 66 5 143t6 143q4 77 8 153q4 94 12 198q7 89 17 200t26 226l-115 -2q-11 0 -21 3q-8 2 -17 7t-13 15q-16 2 -23.5 6 t-11.5 8t-4 10zM356 1657q0 12 5 28t13 32t17.5 29t18.5 18q14 8 22 8h16q38 0 58 -19t22 -65q1 -12 -0.5 -26.5t-6 -28.5t-12 -24.5t-18.5 -14.5q-28 -11 -47 -11q-15 0 -26.5 5.5t-22.5 13.5q-17 9 -28 24.5t-11 30.5zM653 1669q-1 12 0.5 26.5t6 28.5t12 25t18.5 15 q14 5 26 7.5t21 2.5q16 0 27 -5.5t22 -13.5q17 -9 28 -24t11 -31q0 -12 -5 -28t-13 -32t-17 -29t-18 -17q-14 -8 -22.5 -8.5t-16.5 -0.5q-37 0 -57.5 19t-22.5 65z" />
<glyph unicode="&#xcc;" horiz-adv-x="526" d="M31 1839.5q-1 12.5 5 16.5t10 4q2 0 8.5 -1t14 -1.5t14 -1.5t8.5 -1q1 0 7.5 1t14 1.5t13.5 1.5t8 1t14 1t17 -6q18 -26 41 -56t46.5 -60.5t45.5 -60.5t39.5 -55.5t28 -46t10.5 -32.5q0 -9 -15.5 -13t-27.5 1q-16 6 -25.5 1t-23.5 -5q-18 0 -40 20t-47 51.5t-53 70 t-57 75.5q-32 37 -43.5 59.5t-12.5 35zM170 303q0 50 1 100.5t2.5 96.5t2.5 83t2 60q2 72 5.5 151t7 157.5t7.5 151.5t8 133.5t7.5 103t7.5 59.5q6 21 21 24q7 3 11.5 -1t10.5 5q2 5 6 6t8 1h8t7 2q6 6 12.5 2.5t9.5 -6.5q3 -7 8 -10.5t11 1.5q3 3 8.5 3t7.5 -5q3 -5 10 -10 t7 -14q0 -181 -7 -367.5t-10 -370.5q-1 -84 1.5 -166.5t6 -157t6.5 -136t3 -103.5q0 -29 -2 -46.5t-7 -20.5q-5 -5 -9 -6t-8 -1t-8.5 0.5t-10.5 -2.5q-7 -3 -9 -6.5t-4 -7.5t-6 -8t-14 -8q-13 -3 -24.5 6.5t-22.5 15.5q-17 10 -27.5 16.5t-19.5 20.5q-7 12 -12 36.5t-8 58 t-4 74.5t-1 85z" />
<glyph unicode="&#xcd;" horiz-adv-x="526" d="M170 303q0 50 1 100.5t2.5 96.5t2.5 83t2 60q2 72 5.5 151t7 157.5t7.5 151.5t8 133.5t7.5 103t7.5 59.5q6 21 21 24q7 3 11.5 -1t10.5 5q2 5 6 6t8 1h8t7 2q6 6 12.5 2.5t9.5 -6.5q3 -7 8 -10.5t11 1.5q3 3 8.5 3t7.5 -5q3 -5 10 -10t7 -14q0 -181 -7 -367.5t-10 -370.5 q-1 -84 1.5 -166.5t6 -157t6.5 -136t3 -103.5q0 -29 -2 -46.5t-7 -20.5q-5 -5 -9 -6t-8 -1t-8.5 0.5t-10.5 -2.5q-7 -3 -9 -6.5t-4 -7.5t-6 -8t-14 -8q-13 -3 -24.5 6.5t-22.5 15.5q-17 10 -27.5 16.5t-19.5 20.5q-7 12 -12 36.5t-8 58t-4 74.5t-1 85zM196 1561 q0 8 9.5 26.5t25.5 43t35.5 53t40 56.5t39 53t32.5 44q8 6 16.5 14.5t16.5 8.5q2 0 7 1t11 2.5t11 3t8 1.5q1 0 10 -1.5t18.5 -3t18 -2.5t10.5 -1q1 0 10.5 -0.5t17.5 -4.5t11 -12.5t-10 -23.5q-36 -42 -75.5 -92t-75.5 -94t-65 -73.5t-42 -29.5q-7 0 -8.5 3t-6.5 5 q-6 2 -17 1.5t-21.5 0t-18.5 5t-8 16.5z" />
<glyph unicode="&#xce;" horiz-adv-x="526" d="M21 1565q0 8 14 27.5t36 46t49.5 56t55 57.5t51 51.5t38.5 37.5q8 6 16.5 14.5t16.5 8.5q2 0 8.5 -0.5t14 -1.5t14 -1.5t8.5 -0.5q3 0 11 2t11 2q2 0 13 -0.5t14 -3.5q6 -6 10 -9.5t8 -9.5t9.5 -16t15 -28t24.5 -46t39 -70q16 -30 30.5 -51t25 -36t16.5 -26t6 -20 q0 -3 -6.5 -5.5t-15.5 -4t-18.5 -2t-14.5 -0.5q-17 0 -30 -1t-27 -3q-18 0 -31.5 20t-28.5 51.5t-33 70t-43 75.5q-30 -27 -59.5 -64t-55 -70.5t-46.5 -57t-35 -23.5q-3 0 -9.5 1t-13 2.5t-12.5 2.5t-8 2q-6 2 -17.5 1.5t-23 0t-19.5 5t-8 16.5zM170 303q0 50 1 100.5 t2.5 96.5t2.5 83t2 60q2 72 5.5 151t7 157.5t7.5 151.5t8 133.5t7.5 103t7.5 59.5q6 21 21 24q7 3 11.5 -1t10.5 5q2 5 6 6t8 1h8t7 2q6 6 12.5 2.5t9.5 -6.5q3 -7 8 -10.5t11 1.5q3 3 8.5 3t7.5 -5q3 -5 10 -10t7 -14q0 -181 -7 -367.5t-10 -370.5q-1 -84 1.5 -166.5 t6 -157t6.5 -136t3 -103.5q0 -29 -2 -46.5t-7 -20.5q-5 -5 -9 -6t-8 -1t-8.5 0.5t-10.5 -2.5q-7 -3 -9 -6.5t-4 -7.5t-6 -8t-14 -8q-13 -3 -24.5 6.5t-22.5 15.5q-17 10 -27.5 16.5t-19.5 20.5q-7 12 -12 36.5t-8 58t-4 74.5t-1 85z" />
<glyph unicode="&#xcf;" horiz-adv-x="526" d="M64 1669q0 12 5 28t13 32t17.5 29t18.5 18q14 8 22 8h16q38 0 58 -19t22 -65q1 -12 -0.5 -26.5t-6 -28.5t-12 -24.5t-18.5 -14.5q-28 -11 -47 -11q-15 0 -26.5 5.5t-22.5 13.5q-17 9 -28 24.5t-11 30.5zM170 303q0 50 1 100.5t2.5 96.5t2.5 83t2 60q2 72 5.5 151t7 157.5 t7.5 151.5t8 133.5t7.5 103t7.5 59.5q6 21 21 24q7 3 11.5 -1t10.5 5q2 5 6 6t8 1h8t7 2q6 6 12.5 2.5t9.5 -6.5q3 -7 8 -10.5t11 1.5q3 3 8.5 3t7.5 -5q3 -5 10 -10t7 -14q0 -181 -7 -367.5t-10 -370.5q-1 -84 1.5 -166.5t6 -157t6.5 -136t3 -103.5q0 -29 -2 -46.5 t-7 -20.5q-5 -5 -9 -6t-8 -1t-8.5 0.5t-10.5 -2.5q-7 -3 -9 -6.5t-4 -7.5t-6 -8t-14 -8q-13 -3 -24.5 6.5t-22.5 15.5q-17 10 -27.5 16.5t-19.5 20.5q-7 12 -12 36.5t-8 58t-4 74.5t-1 85zM361 1681q-1 12 0.5 26.5t6 28.5t12 25t18.5 15q14 5 26 7.5t21 2.5q16 0 27 -5.5 t22 -13.5q17 -9 28 -24t11 -31q0 -12 -5 -28t-13 -32t-17 -29t-18 -17q-14 -8 -22.5 -8.5t-16.5 -0.5q-37 0 -57.5 19t-22.5 65z" />
<glyph unicode="&#xd0;" horiz-adv-x="1339" d="M20 1165q0 2 3 5q2 2 7 5t15 5q-3 6 -3.5 8t-0.5 4q0 3 1 6t9 6q-15 7 -21 12.5t-7.5 8.5t-0.5 4t1 0q0 3 4 4t6 6q0 1 6 13t25.5 28t55.5 33t97 30q21 5 57 13.5t83.5 16.5t103.5 14t117 6q167 0 296 -49.5t216.5 -132.5t132.5 -192t45 -228q0 -70 -19 -144t-54.5 -146 t-85.5 -139t-112 -122.5t-133.5 -97.5t-150.5 -64t-143.5 -30.5t-118.5 -8.5q-72 0 -117 8.5t-69.5 19t-33 20.5t-8.5 13q-6 6 -6 19q0 20 2 82q1 27 2 65.5t3.5 93t5 126t6.5 163.5q-65 -6 -117.5 -12t-71.5 -6q-5 0 -8 4.5t-4.5 11.5t-2.5 14t-1 13q0 5 4 11t4 11 q0 2 -8 8t-8 15q8 12 34 23q22 10 65 20t118 18l14 336q0 21 11.5 29t28.5 12t36.5 7.5t34.5 15.5q6 5 13.5 8.5t12.5 3.5q8 0 8 -6q0 -2 -0.5 -34.5t-1.5 -87t-2 -125.5t-2 -148q29 0 58.5 1t64.5 1q20 0 40.5 -0.5t37 -2t27 -5t10.5 -9.5q0 -5 -2 -10t-2 -14 q0 -17 5 -19.5t5 -5.5q0 -4 -3 -7t-6.5 -8t-6.5 -12.5t-3 -19.5q0 -3 1.5 -5t1.5 -5t-8.5 -8t-39.5 -5q-24 0 -66 2.5t-93 2.5h-21q-1 -56 -1.5 -110.5t-0.5 -104v-92v-74.5v-60q14 -2 27.5 -2h27.5q42 0 100.5 8t126 34.5t141 77t144.5 136.5q85 102 121.5 204t36.5 204 q0 86 -18.5 149t-50.5 106.5t-76 70.5t-94 42t-105 20t-110 5q-58 0 -124 -11t-131.5 -28t-126.5 -36t-109 -36t-79.5 -28t-38.5 -11q-10 10 -17 19q-6 7 -11 13t-5 7z" />
<glyph unicode="&#xd1;" horiz-adv-x="1321" d="M133 111q0 6 2 56.5t5.5 130.5t8 182t10 211t11 217t12 200t12.5 160.5t11 97.5q-5 12 -7.5 23t-2.5 20q-1 6 1.5 8t7 3.5t9.5 3.5t10 8q2 3 3.5 14.5t6.5 11.5q14 0 23 6.5t25 8.5q0 17 9 22q4 3 9 2q17 -2 26.5 -13.5t14.5 -21.5q5 -12 8 -18t8 -17q7 -11 27.5 -47 t50.5 -90t68 -121.5t79.5 -143t85.5 -154t86 -153.5t80 -143t69 -122.5t52 -91t29 -48.5q20 -29 28 -32.5t19 18.5q5 10 9.5 46.5t9 92.5t8 127t6.5 149t5 160t2.5 159t0 145t-3.5 120q-1 28 -1 50q0 19 2 35t7 16q7 5 12.5 6.5t9 1t6.5 -1.5t5 0t2 3t0.5 5t2.5 6.5t9 5.5 q8 3 12.5 3.5t7.5 -0.5t5 -2t6 1q8 4 13 7.5t9 2.5t6.5 -8.5t4.5 -25.5t2 -74.5t-1.5 -138.5t-4 -183t-6.5 -209.5t-8.5 -218t-9.5 -207.5t-11 -178.5t-12 -130.5q0 -6 -5.5 -10.5t-11.5 -15.5q-6 -10 -12 -11t-10 0t-6 0t0 -10q2 -6 -6.5 -9.5t-14.5 1.5q-8 6 -19 14.5 t-14 8.5q-6 1 -4 -5t5.5 -13t5 -13.5t-6.5 -7.5q-15 -2 -34.5 7t-36.5 21q-14 11 -42 49t-66.5 96.5t-85 133.5t-96.5 160t-102 176t-101 181.5t-94 176.5t-81 160q-4 -42 -7 -114.5t-5.5 -161t-4.5 -186.5t-3.5 -193t-2.5 -180t-2 -146q0 -40 -1.5 -56.5t-3 -22.5t-3 -8.5 t-0.5 -14.5q0 -32 -4 -58.5t-18 -29.5q-8 -4 -15 2.5t-18 3.5q-3 0 -7.5 -5.5t-15.5 -5.5q-9 0 -22 8t-17 29l-4 37q-1 6 -2.5 8t-3 6t-2.5 13.5t-2 32.5zM450 1663q0 14 10.5 43.5t29 60t44 53.5t56.5 25q40 2 68.5 -14t55 -36t53.5 -37t64 -17q25 0 42.5 20t25.5 58 q2 12 8.5 17t22.5 5q7 0 11.5 -2t8.5 -4.5t8.5 -4.5t10.5 -1q11 3 22.5 -4.5t11.5 -20.5q0 -18 -10 -50t-29 -63t-47 -54t-65 -23q-41 0 -74 17t-60 38t-49 38t-40 17q-22 0 -35 -14.5t-22 -32.5t-15.5 -33t-13.5 -16q-13 -2 -20 -8t-23 -6q-8 0 -17.5 11t-19.5 11 q-11 0 -12 10.5t-1 16.5z" />
<glyph unicode="&#xd2;" horiz-adv-x="1413" d="M72 626q0 93 23 185.5t62.5 177t92 158.5t112 130t122 91.5t122.5 44.5q8 1 10.5 1.5t3.5 0.5t2 -0.5t5 0.5q23 2 33 1t12 -3q2 -3 -0.5 -4t-7.5 -4q-2 0 -4.5 -1t-0.5 -3q2 -5 -4 -9t-8 -6t-1 -3t1.5 -1t0 -1t-4.5 -3q-12 -8 -25.5 -14.5t-27.5 -15.5q-72 -52 -127 -134 t-92 -181t-56 -208.5t-19 -216.5v-27.5t1 -27.5q2 -43 14 -94t32.5 -101.5t50 -97.5t67.5 -83.5t85 -59t103 -23.5q84 -3 151 27t118.5 80.5t88.5 116t61.5 135t38.5 137t19 121.5q2 21 3 42.5t1 41.5q0 128 -33.5 228t-89 169t-127.5 106.5t-149 40.5q-8 1 -19 0.5 t-22.5 -0.5t-20 -0.5t-10.5 0.5q-13 6 -16 9l-2 2q0 8 4 12l10 5q5 2 9.5 4.5t7.5 4.5q2 3 -1 4.5t-3 8.5q-2 5 3 9.5t7 4.5q9 3 12.5 3.5t9.5 0.5q10 1 16.5 2.5t12 3.5t12.5 3.5t19 2.5q9 2 20 2t33 2q86 2 157.5 -19.5t129 -61.5t100.5 -94.5t72.5 -118t46 -132.5 t20.5 -137q1 -11 1 -21v-21q0 -108 -29.5 -222t-83.5 -216.5t-131 -186t-172 -130.5q-56 -27 -121 -40t-131 -13q-48 0 -94.5 7t-88.5 18q-94 27 -168.5 83.5t-127.5 130.5t-83.5 159.5t-35.5 169.5q-1 12 -1.5 24t-0.5 24zM505 1821.5q-1 12.5 5 16.5t10 4q2 0 8.5 -1 t14 -1.5t14 -1.5t8.5 -1q1 0 7.5 1t14 1.5t13.5 1.5t8 1t14 1t17 -6q18 -26 41 -56t46.5 -60.5t45.5 -60.5t39.5 -55.5t28 -46t10.5 -32.5q0 -9 -15.5 -13t-27.5 1q-16 6 -25.5 1t-23.5 -5q-18 0 -40 20t-47 51.5t-53 70t-57 75.5q-32 37 -43.5 59.5t-12.5 35z" />
<glyph unicode="&#xd3;" horiz-adv-x="1413" d="M72 626q0 93 23 185.5t62.5 177t92 158.5t112 130t122 91.5t122.5 44.5q8 1 10.5 1.5t3.5 0.5t2 -0.5t5 0.5q23 2 33 1t12 -3q2 -3 -0.5 -4t-7.5 -4q-2 0 -4.5 -1t-0.5 -3q2 -5 -4 -9t-8 -6t-1 -3t1.5 -1t0 -1t-4.5 -3q-12 -8 -25.5 -14.5t-27.5 -15.5q-72 -52 -127 -134 t-92 -181t-56 -208.5t-19 -216.5v-27.5t1 -27.5q2 -43 14 -94t32.5 -101.5t50 -97.5t67.5 -83.5t85 -59t103 -23.5q84 -3 151 27t118.5 80.5t88.5 116t61.5 135t38.5 137t19 121.5q2 21 3 42.5t1 41.5q0 128 -33.5 228t-89 169t-127.5 106.5t-149 40.5q-8 1 -19 0.5 t-22.5 -0.5t-20 -0.5t-10.5 0.5q-13 6 -16 9l-2 2q0 8 4 12l10 5q5 2 9.5 4.5t7.5 4.5q2 3 -1 4.5t-3 8.5q-2 5 3 9.5t7 4.5q9 3 12.5 3.5t9.5 0.5q10 1 16.5 2.5t12 3.5t12.5 3.5t19 2.5q9 2 20 2t33 2q86 2 157.5 -19.5t129 -61.5t100.5 -94.5t72.5 -118t46 -132.5 t20.5 -137q1 -11 1 -21v-21q0 -108 -29.5 -222t-83.5 -216.5t-131 -186t-172 -130.5q-56 -27 -121 -40t-131 -13q-48 0 -94.5 7t-88.5 18q-94 27 -168.5 83.5t-127.5 130.5t-83.5 159.5t-35.5 169.5q-1 12 -1.5 24t-0.5 24zM670 1543q0 8 9.5 26.5t25.5 43t35.5 53t40 56.5 t39 53t32.5 44q8 6 16.5 14.5t16.5 8.5q2 0 7 1t11 2.5t11 3t8 1.5q1 0 10 -1.5t18.5 -3t18 -2.5t10.5 -1q1 0 10.5 -0.5t17.5 -4.5t11 -12.5t-10 -23.5q-36 -42 -75.5 -92t-75.5 -94t-65 -73.5t-42 -29.5q-7 0 -8.5 3t-6.5 5q-6 2 -17 1.5t-21.5 0t-18.5 5t-8 16.5z" />
<glyph unicode="&#xd4;" horiz-adv-x="1413" d="M72 626q0 93 23 185.5t62.5 177t92 158.5t112 130t122 91.5t122.5 44.5q8 1 10.5 1.5t3.5 0.5t2 -0.5t5 0.5q23 2 33 1t12 -3q2 -3 -0.5 -4t-7.5 -4q-2 0 -4.5 -1t-0.5 -3q2 -5 -4 -9t-8 -6t-1 -3t1.5 -1t0 -1t-4.5 -3q-12 -8 -25.5 -14.5t-27.5 -15.5q-72 -52 -127 -134 t-92 -181t-56 -208.5t-19 -216.5v-27.5t1 -27.5q2 -43 14 -94t32.5 -101.5t50 -97.5t67.5 -83.5t85 -59t103 -23.5q84 -3 151 27t118.5 80.5t88.5 116t61.5 135t38.5 137t19 121.5q2 21 3 42.5t1 41.5q0 128 -33.5 228t-89 169t-127.5 106.5t-149 40.5q-8 1 -19 0.5 t-22.5 -0.5t-20 -0.5t-10.5 0.5q-13 6 -16 9l-2 2q0 8 4 12l10 5q5 2 9.5 4.5t7.5 4.5q2 3 -1 4.5t-3 8.5q-2 5 3 9.5t7 4.5q9 3 12.5 3.5t9.5 0.5q10 1 16.5 2.5t12 3.5t12.5 3.5t19 2.5q9 2 20 2t33 2q86 2 157.5 -19.5t129 -61.5t100.5 -94.5t72.5 -118t46 -132.5 t20.5 -137q1 -11 1 -21v-21q0 -108 -29.5 -222t-83.5 -216.5t-131 -186t-172 -130.5q-56 -27 -121 -40t-131 -13q-48 0 -94.5 7t-88.5 18q-94 27 -168.5 83.5t-127.5 130.5t-83.5 159.5t-35.5 169.5q-1 12 -1.5 24t-0.5 24zM495 1547q0 8 14 27.5t36 46t49.5 56t55 57.5 t51 51.5t38.5 37.5q8 6 16.5 14.5t16.5 8.5q2 0 8.5 -0.5t14 -1.5t14 -1.5t8.5 -0.5q3 0 11 2t11 2q2 0 13 -0.5t14 -3.5q6 -6 10 -9.5t8 -9.5t9.5 -16t15 -28t24.5 -46t39 -70q16 -30 30.5 -51t25 -36t16.5 -26t6 -20q0 -3 -6.5 -5.5t-15.5 -4t-18.5 -2t-14.5 -0.5 q-17 0 -30 -1t-27 -3q-18 0 -31.5 20t-28.5 51.5t-33 70t-43 75.5q-30 -27 -59.5 -64t-55 -70.5t-46.5 -57t-35 -23.5q-3 0 -9.5 1t-13 2.5t-12.5 2.5t-8 2q-6 2 -17.5 1.5t-23 0t-19.5 5t-8 16.5z" />
<glyph unicode="&#xd5;" horiz-adv-x="1413" d="M72 626q0 93 23 185.5t62.5 177t92 158.5t112 130t122 91.5t122.5 44.5q8 1 10.5 1.5t3.5 0.5t2 -0.5t5 0.5q23 2 33 1t12 -3q2 -3 -0.5 -4t-7.5 -4q-2 0 -4.5 -1t-0.5 -3q2 -5 -4 -9t-8 -6t-1 -3t1.5 -1t0 -1t-4.5 -3q-12 -8 -25.5 -14.5t-27.5 -15.5q-72 -52 -127 -134 t-92 -181t-56 -208.5t-19 -216.5v-27.5t1 -27.5q2 -43 14 -94t32.5 -101.5t50 -97.5t67.5 -83.5t85 -59t103 -23.5q84 -3 151 27t118.5 80.5t88.5 116t61.5 135t38.5 137t19 121.5q2 21 3 42.5t1 41.5q0 128 -33.5 228t-89 169t-127.5 106.5t-149 40.5q-8 1 -19 0.5 t-22.5 -0.5t-20 -0.5t-10.5 0.5q-13 6 -16 9l-2 2q0 8 4 12l10 5q5 2 9.5 4.5t7.5 4.5q2 3 -1 4.5t-3 8.5q-2 5 3 9.5t7 4.5q9 3 12.5 3.5t9.5 0.5q10 1 16.5 2.5t12 3.5t12.5 3.5t19 2.5q9 2 20 2t33 2q86 2 157.5 -19.5t129 -61.5t100.5 -94.5t72.5 -118t46 -132.5 t20.5 -137q1 -11 1 -21v-21q0 -108 -29.5 -222t-83.5 -216.5t-131 -186t-172 -130.5q-56 -27 -121 -40t-131 -13q-48 0 -94.5 7t-88.5 18q-94 27 -168.5 83.5t-127.5 130.5t-83.5 159.5t-35.5 169.5q-1 12 -1.5 24t-0.5 24zM499 1647q0 14 10.5 43.5t29 60t44 53.5t56.5 25 q40 2 68.5 -14t55 -36t53.5 -37t64 -17q25 0 42.5 20t25.5 58q2 12 8.5 17t22.5 5q7 0 11.5 -2t8.5 -4.5t8.5 -4.5t10.5 -1q11 3 22.5 -4.5t11.5 -20.5q0 -18 -10 -50t-29 -63t-47 -54t-65 -23q-41 0 -74 17t-60 38t-49 38t-40 17q-22 0 -35 -14.5t-22 -32.5t-15.5 -33 t-13.5 -16q-13 -2 -20 -8t-23 -6q-8 0 -17.5 11t-19.5 11q-11 0 -12 10.5t-1 16.5z" />
<glyph unicode="&#xd6;" horiz-adv-x="1413" d="M72 626q0 93 23 185.5t62.5 177t92 158.5t112 130t122 91.5t122.5 44.5q8 1 10.5 1.5t3.5 0.5t2 -0.5t5 0.5q23 2 33 1t12 -3q2 -3 -0.5 -4t-7.5 -4q-2 0 -4.5 -1t-0.5 -3q2 -5 -4 -9t-8 -6t-1 -3t1.5 -1t0 -1t-4.5 -3q-12 -8 -25.5 -14.5t-27.5 -15.5q-72 -52 -127 -134 t-92 -181t-56 -208.5t-19 -216.5v-27.5t1 -27.5q2 -43 14 -94t32.5 -101.5t50 -97.5t67.5 -83.5t85 -59t103 -23.5q84 -3 151 27t118.5 80.5t88.5 116t61.5 135t38.5 137t19 121.5q2 21 3 42.5t1 41.5q0 128 -33.5 228t-89 169t-127.5 106.5t-149 40.5q-8 1 -19 0.5 t-22.5 -0.5t-20 -0.5t-10.5 0.5q-13 6 -16 9l-2 2q0 8 4 12l10 5q5 2 9.5 4.5t7.5 4.5q2 3 -1 4.5t-3 8.5q-2 5 3 9.5t7 4.5q9 3 12.5 3.5t9.5 0.5q10 1 16.5 2.5t12 3.5t12.5 3.5t19 2.5q9 2 20 2t33 2q86 2 157.5 -19.5t129 -61.5t100.5 -94.5t72.5 -118t46 -132.5 t20.5 -137q1 -11 1 -21v-21q0 -108 -29.5 -222t-83.5 -216.5t-131 -186t-172 -130.5q-56 -27 -121 -40t-131 -13q-48 0 -94.5 7t-88.5 18q-94 27 -168.5 83.5t-127.5 130.5t-83.5 159.5t-35.5 169.5q-1 12 -1.5 24t-0.5 24zM538 1651q0 12 5 28t13 32t17.5 29t18.5 18 q14 8 22 8h16q38 0 58 -19t22 -65q1 -12 -0.5 -26.5t-6 -28.5t-12 -24.5t-18.5 -14.5q-28 -11 -47 -11q-15 0 -26.5 5.5t-22.5 13.5q-17 9 -28 24.5t-11 30.5zM835 1663q-1 12 0.5 26.5t6 28.5t12 25t18.5 15q14 5 26 7.5t21 2.5q16 0 27 -5.5t22 -13.5q17 -9 28 -24t11 -31 q0 -12 -5 -28t-13 -32t-17 -29t-18 -17q-14 -8 -22.5 -8.5t-16.5 -0.5q-37 0 -57.5 19t-22.5 65z" />
<glyph unicode="&#xd7;" d="M152 857q-1 12 2.5 22.5t10.5 19.5t13 14q9 10 25 17.5t24 1.5q12 -8 37 -30.5t58.5 -53.5t72 -68.5t76.5 -74.5l111 112q31 31 61 57.5t54 43t40.5 19.5t22.5 -13l6 -17q0 -3 9 -8q4 -3 9 -6q13 -16 8 -32.5t-28 -41.5l-51 -51q-25 -23 -66 -63t-88 -87l107 -106 q30 -31 56.5 -56t44.5 -45t23.5 -35.5t-6.5 -27.5q-2 -3 -11 -12.5t-11 -9.5l-10 -15q-16 -11 -38 -7.5t-46 26.5l-52 49q-23 25 -62 64l-85 85q-37 -37 -70.5 -70t-56.5 -55q-35 -35 -52.5 -54.5t-25.5 -29.5l-6 -6q-12 -9 -23.5 -10t-21.5 3t-18.5 10t-14.5 12 q-9 9 -17.5 22t-0.5 23q7 10 28 35t51.5 58.5t67 72.5t74.5 77l-131 134q-34 35 -53.5 53t-30.5 26l-6 5q-9 11 -10 23z" />
<glyph unicode="&#xd8;" horiz-adv-x="1413" d="M74 578q-7 97 12.5 194.5t58 187t92 168.5t115 139.5t127 98.5t127.5 47q8 1 10.5 1.5t3.5 0.5t2 -0.5t5 0.5q23 2 33 1t12 -3q2 -3 -0.5 -4t-7.5 -4q-2 0 -4.5 -1t-0.5 -3q2 -5 -4 -9t-8 -6t-1 -3t1.5 -1t0 -1t-4.5 -3q-12 -8 -25.5 -14.5t-27.5 -15.5 q-77 -56 -134.5 -145t-94.5 -196t-53 -224.5t-11 -229.5q3 -54 19.5 -117t45.5 -123q75 110 150.5 220.5t152 223t155.5 228.5t161 238q-54 54 -118 83.5t-132 32.5q-8 1 -19 0.5t-22.5 -0.5t-20 -0.5t-10.5 0.5q-13 6 -16 9l-2 2q0 8 4 12l10 5q5 2 9.5 4.5t7.5 4.5 q2 3 -1 4.5t-3 8.5q-2 5 3 9.5t7 4.5q9 3 12.5 3.5t9.5 0.5q10 1 16.5 2.5t12 3.5t12.5 3.5t19 2.5q9 2 19.5 3t33.5 1q75 0 139.5 -18t118.5 -49l88 131q17 25 29.5 27t23.5 -5q11 -6 15 -6t16 -4q5 -3 10 -7t7 -11t-0.5 -18t-12.5 -27l-92 -146q43 -41 76 -91t55.5 -105.5 t35.5 -115t17 -118.5q4 -74 -6.5 -153t-34.5 -156.5t-60.5 -151t-84 -137.5t-105.5 -115t-124 -84q-56 -27 -121 -40t-131 -13q-48 0 -94.5 7t-88.5 18t-78.5 28.5t-70.5 40.5q-31 -43 -61 -84t-56 -79q-11 -19 -29 -22.5t-26 5.5q-3 6 -9.5 14.5t-12 17.5t-7.5 19t4 19 q29 43 58.5 87t60.5 87q-87 84 -134.5 192t-53.5 218zM422 219q42 -54 98.5 -88.5t128.5 -36.5q84 -3 151 27t118.5 80.5t88.5 116t61.5 135t38.5 137t19 121.5q2 21 3 42.5t1 41.5q0 102 -21.5 185t-59.5 148q-73 -110 -152 -226t-159.5 -232.5t-160.5 -230.5t-155 -220z " />
<glyph unicode="&#xd9;" horiz-adv-x="1241" d="M137 526q0 85 8 189t18 211t19 209.5t11 183.5q0 26 4.5 40.5t25.5 22.5q4 1 8 -0.5t8 -2t9 1.5t10 8q6 9 11 9.5t8.5 -3.5t7 -9t6.5 -6q4 -2 12.5 -10t16.5 -18.5t14 -21t6 -17.5q0 -8 6 -29t8 -59q3 -49 0.5 -118.5t-7.5 -149t-11 -162.5t-11 -160t-8 -141.5t0 -106.5 q7 -96 16.5 -150.5t20.5 -60.5t26.5 -8t41.5 -2q146 7 243 54.5t156.5 140.5t88 235.5t36.5 339.5q3 82 7 146t8.5 116t10 95t11.5 83q2 6 10 10t15 7q5 5 5.5 9.5t8.5 6.5q4 1 11 2.5t14.5 0t14 -5.5t9.5 -13q3 -7 12 -10t15 -9q3 -5 5.5 -11t0.5 -17q-2 -46 -4.5 -119.5 t-5 -164t-5 -192.5t-4.5 -205t-3 -201t-1 -181q0 -93 1.5 -159t4.5 -91q2 -8 0.5 -11t-4.5 -4t-7 -1.5t-7 -2.5t-3 -6v-8t-1 -7t-6 -3q-32 0 -47.5 6t-28.5 20q-15 16 -26.5 36t-14.5 46q-1 9 -3 24t-4.5 33.5t-4 40.5t-0.5 46q0 28 -1 55t-3 53q-12 -31 -28 -70.5 t-39 -80.5t-52.5 -80t-68 -69.5t-86.5 -49t-107 -18.5q-47 0 -99 12q-69 18 -119 53t-85 85.5t-57.5 115t-37.5 141.5q-5 28 -7.5 61.5t-2.5 75.5zM392 1806.5q-1 12.5 5 16.5t10 4q2 0 8.5 -1t14 -1.5t14 -1.5t8.5 -1q1 0 7.5 1t14 1.5t13.5 1.5t8 1t14 1t17 -6 q18 -26 41 -56t46.5 -60.5t45.5 -60.5t39.5 -55.5t28 -46t10.5 -32.5q0 -9 -15.5 -13t-27.5 1q-16 6 -25.5 1t-23.5 -5q-18 0 -40 20t-47 51.5t-53 70t-57 75.5q-32 37 -43.5 59.5t-12.5 35z" />
<glyph unicode="&#xda;" horiz-adv-x="1241" d="M137 526q0 85 8 189t18 211t19 209.5t11 183.5q0 26 4.5 40.5t25.5 22.5q4 1 8 -0.5t8 -2t9 1.5t10 8q6 9 11 9.5t8.5 -3.5t7 -9t6.5 -6q4 -2 12.5 -10t16.5 -18.5t14 -21t6 -17.5q0 -8 6 -29t8 -59q3 -49 0.5 -118.5t-7.5 -149t-11 -162.5t-11 -160t-8 -141.5t0 -106.5 q7 -96 16.5 -150.5t20.5 -60.5t26.5 -8t41.5 -2q146 7 243 54.5t156.5 140.5t88 235.5t36.5 339.5q3 82 7 146t8.5 116t10 95t11.5 83q2 6 10 10t15 7q5 5 5.5 9.5t8.5 6.5q4 1 11 2.5t14.5 0t14 -5.5t9.5 -13q3 -7 12 -10t15 -9q3 -5 5.5 -11t0.5 -17q-2 -46 -4.5 -119.5 t-5 -164t-5 -192.5t-4.5 -205t-3 -201t-1 -181q0 -93 1.5 -159t4.5 -91q2 -8 0.5 -11t-4.5 -4t-7 -1.5t-7 -2.5t-3 -6v-8t-1 -7t-6 -3q-32 0 -47.5 6t-28.5 20q-15 16 -26.5 36t-14.5 46q-1 9 -3 24t-4.5 33.5t-4 40.5t-0.5 46q0 28 -1 55t-3 53q-12 -31 -28 -70.5 t-39 -80.5t-52.5 -80t-68 -69.5t-86.5 -49t-107 -18.5q-47 0 -99 12q-69 18 -119 53t-85 85.5t-57.5 115t-37.5 141.5q-5 28 -7.5 61.5t-2.5 75.5zM557 1528q0 8 9.5 26.5t25.5 43t35.5 53t40 56.5t39 53t32.5 44q8 6 16.5 14.5t16.5 8.5q2 0 7 1t11 2.5t11 3t8 1.5 q1 0 10 -1.5t18.5 -3t18 -2.5t10.5 -1q1 0 10.5 -0.5t17.5 -4.5t11 -12.5t-10 -23.5q-36 -42 -75.5 -92t-75.5 -94t-65 -73.5t-42 -29.5q-7 0 -8.5 3t-6.5 5q-6 2 -17 1.5t-21.5 0t-18.5 5t-8 16.5z" />
<glyph unicode="&#xdb;" horiz-adv-x="1241" d="M137 526q0 85 8 189t18 211t19 209.5t11 183.5q0 26 4.5 40.5t25.5 22.5q4 1 8 -0.5t8 -2t9 1.5t10 8q6 9 11 9.5t8.5 -3.5t7 -9t6.5 -6q4 -2 12.5 -10t16.5 -18.5t14 -21t6 -17.5q0 -8 6 -29t8 -59q3 -49 0.5 -118.5t-7.5 -149t-11 -162.5t-11 -160t-8 -141.5t0 -106.5 q7 -96 16.5 -150.5t20.5 -60.5t26.5 -8t41.5 -2q146 7 243 54.5t156.5 140.5t88 235.5t36.5 339.5q3 82 7 146t8.5 116t10 95t11.5 83q2 6 10 10t15 7q5 5 5.5 9.5t8.5 6.5q4 1 11 2.5t14.5 0t14 -5.5t9.5 -13q3 -7 12 -10t15 -9q3 -5 5.5 -11t0.5 -17q-2 -46 -4.5 -119.5 t-5 -164t-5 -192.5t-4.5 -205t-3 -201t-1 -181q0 -93 1.5 -159t4.5 -91q2 -8 0.5 -11t-4.5 -4t-7 -1.5t-7 -2.5t-3 -6v-8t-1 -7t-6 -3q-32 0 -47.5 6t-28.5 20q-15 16 -26.5 36t-14.5 46q-1 9 -3 24t-4.5 33.5t-4 40.5t-0.5 46q0 28 -1 55t-3 53q-12 -31 -28 -70.5 t-39 -80.5t-52.5 -80t-68 -69.5t-86.5 -49t-107 -18.5q-47 0 -99 12q-69 18 -119 53t-85 85.5t-57.5 115t-37.5 141.5q-5 28 -7.5 61.5t-2.5 75.5zM383 1532q0 8 14 27.5t36 46t49.5 56t55 57.5t51 51.5t38.5 37.5q8 6 16.5 14.5t16.5 8.5q2 0 8.5 -0.5t14 -1.5t14 -1.5 t8.5 -0.5q3 0 11 2t11 2q2 0 13 -0.5t14 -3.5q6 -6 10 -9.5t8 -9.5t9.5 -16t15 -28t24.5 -46t39 -70q16 -30 30.5 -51t25 -36t16.5 -26t6 -20q0 -3 -6.5 -5.5t-15.5 -4t-18.5 -2t-14.5 -0.5q-17 0 -30 -1t-27 -3q-18 0 -31.5 20t-28.5 51.5t-33 70t-43 75.5 q-30 -27 -59.5 -64t-55 -70.5t-46.5 -57t-35 -23.5q-3 0 -9.5 1t-13 2.5t-12.5 2.5t-8 2q-6 2 -17.5 1.5t-23 0t-19.5 5t-8 16.5z" />
<glyph unicode="&#xdc;" horiz-adv-x="1241" d="M137 526q0 85 8 189t18 211t19 209.5t11 183.5q0 26 4.5 40.5t25.5 22.5q4 1 8 -0.5t8 -2t9 1.5t10 8q6 9 11 9.5t8.5 -3.5t7 -9t6.5 -6q4 -2 12.5 -10t16.5 -18.5t14 -21t6 -17.5q0 -8 6 -29t8 -59q3 -49 0.5 -118.5t-7.5 -149t-11 -162.5t-11 -160t-8 -141.5t0 -106.5 q7 -96 16.5 -150.5t20.5 -60.5t26.5 -8t41.5 -2q146 7 243 54.5t156.5 140.5t88 235.5t36.5 339.5q3 82 7 146t8.5 116t10 95t11.5 83q2 6 10 10t15 7q5 5 5.5 9.5t8.5 6.5q4 1 11 2.5t14.5 0t14 -5.5t9.5 -13q3 -7 12 -10t15 -9q3 -5 5.5 -11t0.5 -17q-2 -46 -4.5 -119.5 t-5 -164t-5 -192.5t-4.5 -205t-3 -201t-1 -181q0 -93 1.5 -159t4.5 -91q2 -8 0.5 -11t-4.5 -4t-7 -1.5t-7 -2.5t-3 -6v-8t-1 -7t-6 -3q-32 0 -47.5 6t-28.5 20q-15 16 -26.5 36t-14.5 46q-1 9 -3 24t-4.5 33.5t-4 40.5t-0.5 46q0 28 -1 55t-3 53q-12 -31 -28 -70.5 t-39 -80.5t-52.5 -80t-68 -69.5t-86.5 -49t-107 -18.5q-47 0 -99 12q-69 18 -119 53t-85 85.5t-57.5 115t-37.5 141.5q-5 28 -7.5 61.5t-2.5 75.5zM426 1636q0 12 5 28t13 32t17.5 29t18.5 18q14 8 22 8h16q38 0 58 -19t22 -65q1 -12 -0.5 -26.5t-6 -28.5t-12 -24.5 t-18.5 -14.5q-28 -11 -47 -11q-15 0 -26.5 5.5t-22.5 13.5q-17 9 -28 24.5t-11 30.5zM723 1648q-1 12 0.5 26.5t6 28.5t12 25t18.5 15q14 5 26 7.5t21 2.5q16 0 27 -5.5t22 -13.5q17 -9 28 -24t11 -31q0 -12 -5 -28t-13 -32t-17 -29t-18 -17q-14 -8 -22.5 -8.5t-16.5 -0.5 q-37 0 -57.5 19t-22.5 65z" />
<glyph unicode="&#xdd;" horiz-adv-x="1020" d="M-3 1378q-1 8 0 13.5t3 7.5q4 2 11 4q6 2 15 2.5t23 -0.5q4 -12 7 -15t6 -1.5t6 6t6 6.5q11 11 14 12t14 -8q10 -9 15 -5t14 19q9 13 20.5 6.5t26.5 -24.5l15 -17q12 -14 37 -50.5t57.5 -86.5t70 -109.5t74.5 -119.5t71 -116t60 -99q21 37 56.5 92.5t76.5 117.5t85 125.5 t83 117.5t69.5 92.5t45.5 50.5q7 6 12.5 9t10 4.5t9 1.5t9.5 1q15 0 19.5 -2t6 -4t3 -3.5t8.5 -0.5q15 2 29 2t16 -6q0 -2 3 -3t21 -1q7 0 8 -3.5t-10 -11.5q-2 -2 -2 -3.5v-3.5t-1.5 -5.5t-6.5 -9.5q-9 -10 -33 -40t-57 -72.5t-72.5 -94.5t-81 -107t-82 -109.5t-75.5 -102 t-61 -84t-38 -56.5v-32q0 -38 -1.5 -92t-3.5 -114.5t-4 -122.5t-4 -115t-3.5 -93t-1.5 -57q0 -14 -1.5 -21t-4.5 -9.5t-8.5 -2.5h-14.5t-10 6t-4 8q-3 1 -4 -4t-1 -11t-0.5 -11t-2.5 -5q-6 0 -12.5 3.5t-12 7.5t-10 6.5t-6.5 1.5t-1 -4t1 -6t-1 -4.5t-5 0.5q-5 1 -10 4.5 t-9 6t-6.5 2t-3.5 -6.5q-2 -14 -3 -27.5t-7 -11.5q-10 2 -26 8t-19 25q-2 12 -2 30v41q0 51 2.5 119t5.5 139t5.5 137t2.5 113q0 64 -6 76q-5 8 -31 49.5t-64.5 102t-85 133.5t-91 144.5t-83 134.5t-61.5 104q-4 7 -6 15.5t-3 16.5zM482 1539q0 8 9.5 26.5t25.5 43t35.5 53 t40 56.5t39 53t32.5 44q8 6 16.5 14.5t16.5 8.5q2 0 7 1t11 2.5t11 3t8 1.5q1 0 10 -1.5t18.5 -3t18 -2.5t10.5 -1q1 0 10.5 -0.5t17.5 -4.5t11 -12.5t-10 -23.5q-36 -42 -75.5 -92t-75.5 -94t-65 -73.5t-42 -29.5q-7 0 -8.5 3t-6.5 5q-6 2 -17 1.5t-21.5 0t-18.5 5t-8 16.5 z" />
<glyph unicode="&#xde;" horiz-adv-x="1139" d="M49.5 912.5q-0.5 4.5 0.5 9t3 10.5q1 5 0 9t-1.5 8t1 8t8.5 10l27 21t44.5 31.5t60.5 37t75 39.5q3 55 6 104.5t6.5 89t6.5 68t6 41.5q6 20 20 24q8 3 12.5 -1t10.5 5q2 5 5.5 6t7.5 1h8.5t7.5 2q6 6 12.5 2.5t9.5 -6.5q3 -7 7.5 -10.5t11.5 1.5q3 3 8.5 3t7.5 -5 q3 -5 9.5 -10t6.5 -14q0 -71 -1.5 -127t-4.5 -113q50 14 102 22.5t109 10.5q85 2 150 -19.5t113.5 -57t81.5 -81t53 -91.5t28.5 -89t9.5 -74q1 -86 -36.5 -172t-103.5 -157t-155 -118t-192 -55q-14 -2 -26 1t-21 6q-8 3 -21.5 9t-15.5 9q-6 6 -16 18.5t-15 20.5 q-3 5 -2.5 16t0.5 27q0 14 -0.5 29.5t2.5 17.5q2 2 8.5 -3.5t26.5 -8.5q8 -2 18 -1t19 3q32 3 73 20t84.5 45t85 65.5t74 80.5t52.5 91t20 97q0 37 -13 72.5t-44 71.5q-20 23 -75 36t-130 13q-59 0 -124 -8t-128 -25q-3 -66 -5.5 -149.5t-4.5 -194.5q-2 -60 -3 -123.5 t-1 -128.5q0 -75 3.5 -148t12.5 -141q3 -23 -3.5 -35.5t-6.5 -23.5q0 -3 3 -5.5t1 -4.5q-3 -5 -11 -4t-14 6q-3 3 -5 7.5t-4 7.5t-5 3.5t-8 -4.5q-6 -5 -12.5 -14t-13 -18.5t-14 -17t-14.5 -9.5q-6 -2 -14 -4t-10 6q-2 4 -4 5l-5 2.5t-5.5 4t-4.5 10.5q-5 17 -11.5 25.5 t-6.5 19.5q-2 17 -9 98t-7 224q0 57 1.5 124t6.5 142q2 66 4.5 140t5.5 149q-29 -11 -48 -19t-32.5 -15t-24.5 -12t-24 -10q-11 -5 -17.5 -5.5t-11.5 -0.5q-6 2 -8.5 4.5t-7.5 6.5q-3 3 -6.5 2t-6.5 -1.5t-6 0.5t-6 7q-6 10 -8.5 16.5t-3 11z" />
<glyph unicode="&#xdf;" horiz-adv-x="868" d="M76 258q0 68 1 137t2.5 126t2.5 96.5t0 48.5q-4 124 10 221t39 170.5t59.5 125t72.5 85.5t77.5 51.5t75.5 23.5q48 9 88.5 -9t69.5 -50.5t45 -73t16 -77.5q0 -60 -12.5 -106t-31 -80.5t-40.5 -59t-40.5 -41.5t-31 -29t-12.5 -20q0 -17 13.5 -18t33.5 -1q14 0 39.5 -4 t56.5 -16t63 -33t58.5 -56t43 -85t16.5 -119q0 -39 -6.5 -82.5t-24 -89t-47 -92t-74.5 -90.5q-69 -69 -127 -97t-106 -28q-63 0 -98.5 41t-35.5 135q0 56 12.5 96t29 65.5t33.5 38t26 13.5q3 0 6 1t8 1q3 0 4.5 -2.5t1.5 -12.5v-14q0 -9 2 -16t2 -15q0 -5 -9 -18t-20.5 -30 t-20.5 -36.5t-9 -37.5q0 -11 6 -26t18 -15q29 0 62.5 15.5t66.5 43t63.5 65t53.5 81.5t37 93t14 99q0 25 -18 42.5t-46.5 28.5t-64 16t-71.5 5q-37 0 -61.5 -7t-30.5 -7q-9 0 -18.5 1.5t-18 10t-14 26.5t-5.5 50q0 12 13.5 33t34 47.5t44 58.5t44 67t34 72t13.5 74 q0 45 -8.5 82.5t-25 64t-41 38t-57.5 3.5q-22 -5 -42.5 -41t-36.5 -102t-27 -161t-14 -218q-1 -48 -3 -111t-4 -131t-3.5 -136t-3 -127.5t-2 -105t0.5 -67.5q2 -44 -2 -60t-10.5 -18.5t-14.5 3.5t-14 8q-5 1 -7.5 -5t-4 -13.5t-4.5 -14t-10 -4.5q-13 3 -31 17t-29 36 q-6 11 -8.5 24.5t-7.5 28.5q-2 10 -3.5 29t-2.5 45t-1.5 58t-0.5 67z" />
<glyph unicode="&#xe0;" horiz-adv-x="762" d="M16 78q5 64 31 118t65 99.5t87.5 82t99 65t99.5 48t89 31.5q-2 54 -4.5 94.5t-7.5 59.5q-15 62 -46 92.5t-75 30.5q-28 0 -56.5 -21t-51.5 -57t-37.5 -83t-15.5 -99q0 -13 1 -25t3 -25q1 -7 -4.5 -10t-13.5 -4.5t-17 -2.5t-15 -3q-5 -2 -8 -2.5t-6 1t-7.5 5.5t-12.5 10 t-16.5 10t-15 7t-11 5.5t-4.5 6.5q0 62 27.5 128t74 120.5t108 89.5t130.5 35q56 0 97 -17t70 -44t47.5 -60t29 -66.5t15 -63t5.5 -48.5q1 -35 -6 -85.5t-16 -108t-17 -117.5t-8 -113q0 -35 5 -66.5t17 -54.5q7 -13 7.5 -23t-1.5 -17.5t-4 -13t0 -10.5t-1 -11.5t-9 -12 t-13.5 -8t-13.5 1.5q-11 7 -17.5 8t-11 -0.5t-8 -3.5t-8.5 0q-17 9 -37 21t-26 26q-4 6 -7.5 20t-6 33t-4.5 41t-3 43q-33 -62 -70.5 -103t-75 -65.5t-74 -34.5t-66.5 -10q-31 0 -54.5 8t-36.5 19q-49 49 -69.5 79.5t-18.5 49.5zM131 69.5q-4 -24.5 2 -38.5t14 -17 q31 -12 64.5 -2.5t67 34t65 59t59.5 71t50 72t36 61.5v99q-30 -11 -66 -29t-73 -42.5t-74 -56.5t-69 -71q-38 -45 -55 -80t-21 -59.5zM131 1305.5q-1 12.5 5 16.5t10 4q2 0 8.5 -1t14 -1.5t14 -1.5t8.5 -1q1 0 7.5 1t14 1.5t13.5 1.5t8 1t14 1t17 -6q18 -26 41 -56 t46.5 -60.5t45.5 -60.5t39.5 -55.5t28 -46t10.5 -32.5q0 -9 -15.5 -13t-27.5 1q-16 6 -25.5 1t-23.5 -5q-18 0 -40 20t-47 51.5t-53 70t-57 75.5q-32 37 -43.5 59.5t-12.5 35z" />
<glyph unicode="&#xe1;" horiz-adv-x="762" d="M16 78q5 64 31 118t65 99.5t87.5 82t99 65t99.5 48t89 31.5q-2 54 -4.5 94.5t-7.5 59.5q-15 62 -46 92.5t-75 30.5q-28 0 -56.5 -21t-51.5 -57t-37.5 -83t-15.5 -99q0 -13 1 -25t3 -25q1 -7 -4.5 -10t-13.5 -4.5t-17 -2.5t-15 -3q-5 -2 -8 -2.5t-6 1t-7.5 5.5t-12.5 10 t-16.5 10t-15 7t-11 5.5t-4.5 6.5q0 62 27.5 128t74 120.5t108 89.5t130.5 35q56 0 97 -17t70 -44t47.5 -60t29 -66.5t15 -63t5.5 -48.5q1 -35 -6 -85.5t-16 -108t-17 -117.5t-8 -113q0 -35 5 -66.5t17 -54.5q7 -13 7.5 -23t-1.5 -17.5t-4 -13t0 -10.5t-1 -11.5t-9 -12 t-13.5 -8t-13.5 1.5q-11 7 -17.5 8t-11 -0.5t-8 -3.5t-8.5 0q-17 9 -37 21t-26 26q-4 6 -7.5 20t-6 33t-4.5 41t-3 43q-33 -62 -70.5 -103t-75 -65.5t-74 -34.5t-66.5 -10q-31 0 -54.5 8t-36.5 19q-49 49 -69.5 79.5t-18.5 49.5zM131 69.5q-4 -24.5 2 -38.5t14 -17 q31 -12 64.5 -2.5t67 34t65 59t59.5 71t50 72t36 61.5v99q-30 -11 -66 -29t-73 -42.5t-74 -56.5t-69 -71q-38 -45 -55 -80t-21 -59.5zM295 1027q0 8 9.5 26.5t25.5 43t35.5 53t40 56.5t39 53t32.5 44q8 6 16.5 14.5t16.5 8.5q2 0 7 1t11 2.5t11 3t8 1.5q1 0 10 -1.5t18.5 -3 t18 -2.5t10.5 -1q1 0 10.5 -0.5t17.5 -4.5t11 -12.5t-10 -23.5q-36 -42 -75.5 -92t-75.5 -94t-65 -73.5t-42 -29.5q-7 0 -8.5 3t-6.5 5q-6 2 -17 1.5t-21.5 0t-18.5 5t-8 16.5z" />
<glyph unicode="&#xe2;" horiz-adv-x="762" d="M16 78q5 64 31 118t65 99.5t87.5 82t99 65t99.5 48t89 31.5q-2 54 -4.5 94.5t-7.5 59.5q-15 62 -46 92.5t-75 30.5q-28 0 -56.5 -21t-51.5 -57t-37.5 -83t-15.5 -99q0 -13 1 -25t3 -25q1 -7 -4.5 -10t-13.5 -4.5t-17 -2.5t-15 -3q-5 -2 -8 -2.5t-6 1t-7.5 5.5t-12.5 10 t-16.5 10t-15 7t-11 5.5t-4.5 6.5q0 62 27.5 128t74 120.5t108 89.5t130.5 35q56 0 97 -17t70 -44t47.5 -60t29 -66.5t15 -63t5.5 -48.5q1 -35 -6 -85.5t-16 -108t-17 -117.5t-8 -113q0 -35 5 -66.5t17 -54.5q7 -13 7.5 -23t-1.5 -17.5t-4 -13t0 -10.5t-1 -11.5t-9 -12 t-13.5 -8t-13.5 1.5q-11 7 -17.5 8t-11 -0.5t-8 -3.5t-8.5 0q-17 9 -37 21t-26 26q-4 6 -7.5 20t-6 33t-4.5 41t-3 43q-33 -62 -70.5 -103t-75 -65.5t-74 -34.5t-66.5 -10q-31 0 -54.5 8t-36.5 19q-49 49 -69.5 79.5t-18.5 49.5zM122 1031q0 8 14 27.5t36 46t49.5 56 t55 57.5t51 51.5t38.5 37.5q8 6 16.5 14.5t16.5 8.5q2 0 8.5 -0.5t14 -1.5t14 -1.5t8.5 -0.5q3 0 11 2t11 2q2 0 13 -0.5t14 -3.5q6 -6 10 -9.5t8 -9.5t9.5 -16t15 -28t24.5 -46t39 -70q16 -30 30.5 -51t25 -36t16.5 -26t6 -20q0 -3 -6.5 -5.5t-15.5 -4t-18.5 -2t-14.5 -0.5 q-17 0 -30 -1t-27 -3q-18 0 -31.5 20t-28.5 51.5t-33 70t-43 75.5q-30 -27 -59.5 -64t-55 -70.5t-46.5 -57t-35 -23.5q-3 0 -9.5 1t-13 2.5t-12.5 2.5t-8 2q-6 2 -17.5 1.5t-23 0t-19.5 5t-8 16.5zM131 69.5q-4 -24.5 2 -38.5t14 -17q31 -12 64.5 -2.5t67 34t65 59t59.5 71 t50 72t36 61.5v99q-30 -11 -66 -29t-73 -42.5t-74 -56.5t-69 -71q-38 -45 -55 -80t-21 -59.5z" />
<glyph unicode="&#xe3;" horiz-adv-x="762" d="M16 78q5 64 31 118t65 99.5t87.5 82t99 65t99.5 48t89 31.5q-2 54 -4.5 94.5t-7.5 59.5q-15 62 -46 92.5t-75 30.5q-28 0 -56.5 -21t-51.5 -57t-37.5 -83t-15.5 -99q0 -13 1 -25t3 -25q1 -7 -4.5 -10t-13.5 -4.5t-17 -2.5t-15 -3q-5 -2 -8 -2.5t-6 1t-7.5 5.5t-12.5 10 t-16.5 10t-15 7t-11 5.5t-4.5 6.5q0 62 27.5 128t74 120.5t108 89.5t130.5 35q56 0 97 -17t70 -44t47.5 -60t29 -66.5t15 -63t5.5 -48.5q1 -35 -6 -85.5t-16 -108t-17 -117.5t-8 -113q0 -35 5 -66.5t17 -54.5q7 -13 7.5 -23t-1.5 -17.5t-4 -13t0 -10.5t-1 -11.5t-9 -12 t-13.5 -8t-13.5 1.5q-11 7 -17.5 8t-11 -0.5t-8 -3.5t-8.5 0q-17 9 -37 21t-26 26q-4 6 -7.5 20t-6 33t-4.5 41t-3 43q-33 -62 -70.5 -103t-75 -65.5t-74 -34.5t-66.5 -10q-31 0 -54.5 8t-36.5 19q-49 49 -69.5 79.5t-18.5 49.5zM126 1131q0 14 10.5 43.5t29 60t44 53.5 t56.5 25q40 2 68.5 -14t55 -36t53.5 -37t64 -17q25 0 42.5 20t25.5 58q2 12 8.5 17t22.5 5q7 0 11.5 -2t8.5 -4.5t8.5 -4.5t10.5 -1q11 3 22.5 -4.5t11.5 -20.5q0 -18 -10 -50t-29 -63t-47 -54t-65 -23q-41 0 -74 17t-60 38t-49 38t-40 17q-22 0 -35 -14.5t-22 -32.5 t-15.5 -33t-13.5 -16q-13 -2 -20 -8t-23 -6q-8 0 -17.5 11t-19.5 11q-11 0 -12 10.5t-1 16.5zM131 69.5q-4 -24.5 2 -38.5t14 -17q31 -12 64.5 -2.5t67 34t65 59t59.5 71t50 72t36 61.5v99q-30 -11 -66 -29t-73 -42.5t-74 -56.5t-69 -71q-38 -45 -55 -80t-21 -59.5z" />
<glyph unicode="&#xe4;" horiz-adv-x="762" d="M16 78q5 64 31 118t65 99.5t87.5 82t99 65t99.5 48t89 31.5q-2 54 -4.5 94.5t-7.5 59.5q-15 62 -46 92.5t-75 30.5q-28 0 -56.5 -21t-51.5 -57t-37.5 -83t-15.5 -99q0 -13 1 -25t3 -25q1 -7 -4.5 -10t-13.5 -4.5t-17 -2.5t-15 -3q-5 -2 -8 -2.5t-6 1t-7.5 5.5t-12.5 10 t-16.5 10t-15 7t-11 5.5t-4.5 6.5q0 62 27.5 128t74 120.5t108 89.5t130.5 35q56 0 97 -17t70 -44t47.5 -60t29 -66.5t15 -63t5.5 -48.5q1 -35 -6 -85.5t-16 -108t-17 -117.5t-8 -113q0 -35 5 -66.5t17 -54.5q7 -13 7.5 -23t-1.5 -17.5t-4 -13t0 -10.5t-1 -11.5t-9 -12 t-13.5 -8t-13.5 1.5q-11 7 -17.5 8t-11 -0.5t-8 -3.5t-8.5 0q-17 9 -37 21t-26 26q-4 6 -7.5 20t-6 33t-4.5 41t-3 43q-33 -62 -70.5 -103t-75 -65.5t-74 -34.5t-66.5 -10q-31 0 -54.5 8t-36.5 19q-49 49 -69.5 79.5t-18.5 49.5zM131 69.5q-4 -24.5 2 -38.5t14 -17 q31 -12 64.5 -2.5t67 34t65 59t59.5 71t50 72t36 61.5v99q-30 -11 -66 -29t-73 -42.5t-74 -56.5t-69 -71q-38 -45 -55 -80t-21 -59.5zM165 1135q0 12 5 28t13 32t17.5 29t18.5 18q14 8 22 8h16q38 0 58 -19t22 -65q1 -12 -0.5 -26.5t-6 -28.5t-12 -24.5t-18.5 -14.5 q-28 -11 -47 -11q-15 0 -26.5 5.5t-22.5 13.5q-17 9 -28 24.5t-11 30.5zM462 1147q-1 12 0.5 26.5t6 28.5t12 25t18.5 15q14 5 26 7.5t21 2.5q16 0 27 -5.5t22 -13.5q17 -9 28 -24t11 -31q0 -12 -5 -28t-13 -32t-17 -29t-18 -17q-14 -8 -22.5 -8.5t-16.5 -0.5 q-37 0 -57.5 19t-22.5 65z" />
<glyph unicode="&#xe5;" horiz-adv-x="762" d="M16 78q5 64 31 118t65 99.5t87.5 82t99 65t99.5 48t89 31.5q-2 54 -4.5 94.5t-7.5 59.5q-15 62 -46 92.5t-75 30.5q-28 0 -56.5 -21t-51.5 -57t-37.5 -83t-15.5 -99q0 -13 1 -25t3 -25q1 -7 -4.5 -10t-13.5 -4.5t-17 -2.5t-15 -3q-5 -2 -8 -2.5t-6 1t-7.5 5.5t-12.5 10 t-16.5 10t-15 7t-11 5.5t-4.5 6.5q0 62 27.5 128t74 120.5t108 89.5t130.5 35q56 0 97 -17t70 -44t47.5 -60t29 -66.5t15 -63t5.5 -48.5q1 -35 -6 -85.5t-16 -108t-17 -117.5t-8 -113q0 -35 5 -66.5t17 -54.5q7 -13 7.5 -23t-1.5 -17.5t-4 -13t0 -10.5t-1 -11.5t-9 -12 t-13.5 -8t-13.5 1.5q-11 7 -17.5 8t-11 -0.5t-8 -3.5t-8.5 0q-17 9 -37 21t-26 26q-4 6 -7.5 20t-6 33t-4.5 41t-3 43q-33 -62 -70.5 -103t-75 -65.5t-74 -34.5t-66.5 -10q-31 0 -54.5 8t-36.5 19q-49 49 -69.5 79.5t-18.5 49.5zM131 69.5q-4 -24.5 2 -38.5t14 -17 q31 -12 64.5 -2.5t67 34t65 59t59.5 71t50 72t36 61.5v99q-30 -11 -66 -29t-73 -42.5t-74 -56.5t-69 -71q-38 -45 -55 -80t-21 -59.5zM204 1186q1 63 24.5 107.5t56.5 73t68 42t58 15.5q20 0 31 -2t22 -2q10 0 34.5 -7t49.5 -27.5t44.5 -58t19.5 -98.5q0 -53 -17.5 -95.5 t-46.5 -72.5t-67.5 -46.5t-81.5 -16.5q-26 0 -60 8.5t-64 30t-50.5 58t-20.5 91.5zM310 1199q0 -53 26 -83t67 -30q18 0 37 8t34.5 24.5t25 41t9.5 57.5q0 34 -12 55t-26.5 33t-27.5 16.5t-14 4.5q-9 0 -11 0.5t-7 3.5q-2 0 -3 1t-3 1q-15 -7 -31.5 -19.5t-30.5 -29 t-23.5 -38t-9.5 -46.5z" />
<glyph unicode="&#xe6;" horiz-adv-x="1257" d="M16 78q5 64 31 118t65 99.5t87.5 82t99 65t99.5 48t89 31.5q-2 57 -4.5 101.5t-7.5 62.5q-14 56 -48 84.5t-73 28.5q-28 0 -56.5 -21t-51.5 -57t-37.5 -83t-15.5 -99q0 -13 1 -25t3 -25q1 -7 -4.5 -10t-13.5 -4.5t-17 -2.5t-15 -3q-5 -2 -8 -2.5t-6 1t-7.5 5.5t-12.5 10 t-16.5 10t-15 7t-11 5.5t-4.5 6.5q0 62 27.5 128t74 120.5t108 89.5t130.5 35q54 0 94 -15.5t68.5 -41t47 -57.5t29.5 -64q54 60 115.5 95.5t120.5 35.5q73 0 120.5 -23t75.5 -57t39.5 -72.5t11.5 -69.5q0 -30 -14.5 -68.5t-47.5 -73t-86 -58t-130 -23.5q-38 0 -69.5 10.5 t-56 27t-43 36t-30.5 37.5q-8 -31 -11 -65t-3 -74q0 -57 15 -102.5t43 -77.5t66.5 -49t86.5 -17q60 0 105 20.5t78.5 51.5t58 67.5t42.5 67t31.5 50.5t26.5 19q6 0 6 -10q0 -5 -1 -10t-3 -10v-7q0 -6 1 -20t1 -33q0 -24 -7 -59.5t-22.5 -74.5t-41.5 -78t-64 -70t-89.5 -50.5 t-117.5 -19.5q-43 0 -88.5 12t-87.5 37.5t-77.5 64.5t-59.5 93q-25 -48 -57.5 -91.5t-74.5 -76t-94.5 -51.5t-117.5 -19q-31 0 -54.5 8t-36.5 19q-49 49 -69.5 79.5t-18.5 49.5zM131 69.5q-4 -24.5 2 -38.5t14 -17q33 -14 70 -6t73 30t70 54t62 65.5t48.5 64.5t29.5 52 q-5 23 -8 55t-3 79q-30 -11 -66 -29t-73 -42.5t-74 -56.5t-69 -71q-38 -45 -55 -80t-21 -59.5zM676 573q11 5 19 9t12 4q2 0 6 -4q23 -39 57.5 -55.5t77.5 -16.5q34 0 58.5 11.5t40.5 29.5t23 39.5t7 42.5q0 45 -23 74.5t-63 29.5q-17 0 -44.5 -7t-58 -25.5t-60.5 -50.5 t-52 -81z" />
<glyph unicode="&#xe7;" horiz-adv-x="811" d="M31 377q0 92 35.5 174.5t93.5 144t132.5 97.5t153.5 36q73 0 123.5 -19.5t81.5 -46t44.5 -54.5t13.5 -45q0 -38 -16 -62t-36.5 -36t-39 -13.5t-23.5 6.5q-4 4 -8.5 4t-9 -1.5t-9 -2.5t-8.5 2q-9 8 -4.5 25.5t12.5 36.5q9 18 7.5 39.5t-15 40.5t-42 32t-73.5 13 q-32 0 -76 -21t-83.5 -65.5t-67 -113t-27.5 -163.5q0 -41 10.5 -86t37.5 -83t73 -62.5t117 -24.5q47 0 86.5 13t71.5 33t57 44t42 45.5t26.5 37.5t11.5 20q4 5 10 7.5t12 1t10.5 -7t4.5 -16.5q0 -54 -22 -109.5t-63.5 -102.5t-100 -79.5t-130.5 -40.5q-8 -17 -13 -31.5 t-11 -31.5q112 -5 161.5 -49.5t49.5 -112.5q0 -37 -16.5 -81t-52 -82t-90 -63.5t-130.5 -25.5q-35 0 -73.5 10.5t-82.5 36.5q-6 3 -6 9q0 1 6.5 20.5t16 42t20 41t17.5 18.5q2 0 3 -1t3 -1q23 -13 47.5 -22t47.5 -15t43.5 -9t35.5 -3q52 0 81 20t29 54q0 24 -8 43 t-27.5 32.5t-52.5 21t-84 7.5h-19.5t-22 3t-16.5 9.5t-1 18.5l51 146q-60 10 -117.5 42t-102 83.5t-72 120t-27.5 151.5z" />
<glyph unicode="&#xe8;" horiz-adv-x="788" d="M35 342q0 64 16.5 126t44 117t65 101.5t79 80t86 52.5t86.5 19q73 0 120.5 -23t75.5 -57t39.5 -72.5t11.5 -69.5q0 -30 -14.5 -68.5t-47.5 -73t-86 -58t-130 -23.5q-41 0 -73.5 11.5t-57.5 29t-42.5 38t-29.5 38.5q-18 -62 -18 -145q0 -57 16.5 -102.5t45.5 -77.5t69 -49 t88 -17q60 0 105 20.5t78.5 51.5t58 67.5t42.5 67t31.5 50.5t26.5 19q6 0 6 -10q0 -5 -1 -10t-3 -10q0 -11 1 -26t1 -34q0 -24 -7 -59.5t-22.5 -74.5t-41.5 -78t-64 -70t-89.5 -50.5t-117.5 -19.5q-59 0 -120.5 22.5t-112 70t-83 121t-32.5 175.5zM156 1257.5 q-1 12.5 5 16.5t10 4q2 0 8.5 -1t14 -1.5t14 -1.5t8.5 -1q1 0 7.5 1t14 1.5t13.5 1.5t8 1t14 1t17 -6q18 -26 41 -56t46.5 -60.5t45.5 -60.5t39.5 -55.5t28 -46t10.5 -32.5q0 -9 -15.5 -13t-27.5 1q-16 6 -25.5 1t-23.5 -5q-18 0 -40 20t-47 51.5t-53 70t-57 75.5 q-32 37 -43.5 59.5t-12.5 35zM199 569q14 7 24.5 12t14.5 5q2 0 6 -4q23 -39 57.5 -55.5t77.5 -16.5q34 0 58.5 11.5t40.5 29.5t23 39.5t7 42.5q0 45 -23 74.5t-63 29.5q-18 0 -46.5 -7.5t-60 -26.5t-62.5 -51.5t-54 -82.5z" />
<glyph unicode="&#xe9;" horiz-adv-x="788" d="M35 342q0 64 16.5 126t44 117t65 101.5t79 80t86 52.5t86.5 19q73 0 120.5 -23t75.5 -57t39.5 -72.5t11.5 -69.5q0 -30 -14.5 -68.5t-47.5 -73t-86 -58t-130 -23.5q-41 0 -73.5 11.5t-57.5 29t-42.5 38t-29.5 38.5q-18 -62 -18 -145q0 -57 16.5 -102.5t45.5 -77.5t69 -49 t88 -17q60 0 105 20.5t78.5 51.5t58 67.5t42.5 67t31.5 50.5t26.5 19q6 0 6 -10q0 -5 -1 -10t-3 -10q0 -11 1 -26t1 -34q0 -24 -7 -59.5t-22.5 -74.5t-41.5 -78t-64 -70t-89.5 -50.5t-117.5 -19.5q-59 0 -120.5 22.5t-112 70t-83 121t-32.5 175.5zM199 569q14 7 24.5 12 t14.5 5q2 0 6 -4q23 -39 57.5 -55.5t77.5 -16.5q34 0 58.5 11.5t40.5 29.5t23 39.5t7 42.5q0 45 -23 74.5t-63 29.5q-18 0 -46.5 -7.5t-60 -26.5t-62.5 -51.5t-54 -82.5zM320 979q0 8 9.5 26.5t25.5 43t35.5 53t40 56.5t39 53t32.5 44q8 6 16.5 14.5t16.5 8.5q2 0 7 1 t11 2.5t11 3t8 1.5q1 0 10 -1.5t18.5 -3t18 -2.5t10.5 -1q1 0 10.5 -0.5t17.5 -4.5t11 -12.5t-10 -23.5q-36 -42 -75.5 -92t-75.5 -94t-65 -73.5t-42 -29.5q-7 0 -8.5 3t-6.5 5q-6 2 -17 1.5t-21.5 0t-18.5 5t-8 16.5z" />
<glyph unicode="&#xea;" horiz-adv-x="788" d="M35 342q0 64 16.5 126t44 117t65 101.5t79 80t86 52.5t86.5 19q73 0 120.5 -23t75.5 -57t39.5 -72.5t11.5 -69.5q0 -30 -14.5 -68.5t-47.5 -73t-86 -58t-130 -23.5q-41 0 -73.5 11.5t-57.5 29t-42.5 38t-29.5 38.5q-18 -62 -18 -145q0 -57 16.5 -102.5t45.5 -77.5t69 -49 t88 -17q60 0 105 20.5t78.5 51.5t58 67.5t42.5 67t31.5 50.5t26.5 19q6 0 6 -10q0 -5 -1 -10t-3 -10q0 -11 1 -26t1 -34q0 -24 -7 -59.5t-22.5 -74.5t-41.5 -78t-64 -70t-89.5 -50.5t-117.5 -19.5q-59 0 -120.5 22.5t-112 70t-83 121t-32.5 175.5zM146 983q0 8 14 27.5 t36 46t49.5 56t55 57.5t51 51.5t38.5 37.5q8 6 16.5 14.5t16.5 8.5q2 0 8.5 -0.5t14 -1.5t14 -1.5t8.5 -0.5q3 0 11 2t11 2q2 0 13 -0.5t14 -3.5q6 -6 10 -9.5t8 -9.5t9.5 -16t15 -28t24.5 -46t39 -70q16 -30 30.5 -51t25 -36t16.5 -26t6 -20q0 -3 -6.5 -5.5t-15.5 -4 t-18.5 -2t-14.5 -0.5q-17 0 -30 -1t-27 -3q-18 0 -31.5 20t-28.5 51.5t-33 70t-43 75.5q-30 -27 -59.5 -64t-55 -70.5t-46.5 -57t-35 -23.5q-3 0 -9.5 1t-13 2.5t-12.5 2.5t-8 2q-6 2 -17.5 1.5t-23 0t-19.5 5t-8 16.5zM199 569q14 7 24.5 12t14.5 5q2 0 6 -4 q23 -39 57.5 -55.5t77.5 -16.5q34 0 58.5 11.5t40.5 29.5t23 39.5t7 42.5q0 45 -23 74.5t-63 29.5q-18 0 -46.5 -7.5t-60 -26.5t-62.5 -51.5t-54 -82.5z" />
<glyph unicode="&#xeb;" horiz-adv-x="788" d="M35 342q0 64 16.5 126t44 117t65 101.5t79 80t86 52.5t86.5 19q73 0 120.5 -23t75.5 -57t39.5 -72.5t11.5 -69.5q0 -30 -14.5 -68.5t-47.5 -73t-86 -58t-130 -23.5q-41 0 -73.5 11.5t-57.5 29t-42.5 38t-29.5 38.5q-18 -62 -18 -145q0 -57 16.5 -102.5t45.5 -77.5t69 -49 t88 -17q60 0 105 20.5t78.5 51.5t58 67.5t42.5 67t31.5 50.5t26.5 19q6 0 6 -10q0 -5 -1 -10t-3 -10q0 -11 1 -26t1 -34q0 -24 -7 -59.5t-22.5 -74.5t-41.5 -78t-64 -70t-89.5 -50.5t-117.5 -19.5q-59 0 -120.5 22.5t-112 70t-83 121t-32.5 175.5zM189 1087q0 12 5 28t13 32 t17.5 29t18.5 18q14 8 22 8h16q38 0 58 -19t22 -65q1 -12 -0.5 -26.5t-6 -28.5t-12 -24.5t-18.5 -14.5q-28 -11 -47 -11q-15 0 -26.5 5.5t-22.5 13.5q-17 9 -28 24.5t-11 30.5zM199 569q14 7 24.5 12t14.5 5q2 0 6 -4q23 -39 57.5 -55.5t77.5 -16.5q34 0 58.5 11.5 t40.5 29.5t23 39.5t7 42.5q0 45 -23 74.5t-63 29.5q-18 0 -46.5 -7.5t-60 -26.5t-62.5 -51.5t-54 -82.5zM486 1099q-1 12 0.5 26.5t6 28.5t12 25t18.5 15q14 5 26 7.5t21 2.5q16 0 27 -5.5t22 -13.5q17 -9 28 -24t11 -31q0 -12 -5 -28t-13 -32t-17 -29t-18 -17 q-14 -8 -22.5 -8.5t-16.5 -0.5q-37 0 -57.5 19t-22.5 65z" />
<glyph unicode="&#xec;" horiz-adv-x="348" d="M-82 1292.5q-1 12.5 5 16.5t10 4q2 0 8.5 -1t14 -1.5t14 -1.5t8.5 -1q1 0 7.5 1t14 1.5t13.5 1.5t8 1t14 1t17 -6q18 -26 41 -56t46.5 -60.5t45.5 -60.5t39.5 -55.5t28 -46t10.5 -32.5q0 -9 -15.5 -13t-27.5 1q-16 6 -25.5 1t-23.5 -5q-18 0 -40 20t-47 51.5t-53 70 t-57 75.5q-32 37 -43.5 59.5t-12.5 35zM82 399v74q0 51 3.5 104t8 99t9 80.5t6.5 48.5q1 9 3.5 20.5t8 22t15.5 17.5t28 7q25 0 50 -4.5t30 -9.5t7.5 -33t2.5 -73q0 -30 -1 -65t-2.5 -72t-3.5 -74.5t-3 -71.5q-3 -56 -3.5 -103.5t-0.5 -91.5q0 -58 1 -106t1 -80 q0 -35 -2.5 -53.5t-10.5 -20.5q-9 -2 -15 -8.5t-11 -12.5t-11.5 -10.5t-15.5 -2.5q-5 1 -17 9t-25.5 19.5t-25.5 26.5t-16 31q-2 8 -3.5 32t-2.5 58t-2 75.5t-1.5 84t-0.5 83.5z" />
<glyph unicode="&#xed;" horiz-adv-x="348" d="M82 399v74q0 51 3.5 104t8 99t9 80.5t6.5 48.5q1 9 3.5 20.5t8 22t15.5 17.5t28 7q25 0 50 -4.5t30 -9.5t7.5 -33t2.5 -73q0 -30 -1 -65t-2.5 -72t-3.5 -74.5t-3 -71.5q-3 -56 -3.5 -103.5t-0.5 -91.5q0 -58 1 -106t1 -80q0 -35 -2.5 -53.5t-10.5 -20.5q-9 -2 -15 -8.5 t-11 -12.5t-11.5 -10.5t-15.5 -2.5q-5 1 -17 9t-25.5 19.5t-25.5 26.5t-16 31q-2 8 -3.5 32t-2.5 58t-2 75.5t-1.5 84t-0.5 83.5zM83 1014q0 8 9.5 26.5t25.5 43t35.5 53t40 56.5t39 53t32.5 44q8 6 16.5 14.5t16.5 8.5q2 0 7 1t11 2.5t11 3t8 1.5q1 0 10 -1.5t18.5 -3 t18 -2.5t10.5 -1q1 0 10.5 -0.5t17.5 -4.5t11 -12.5t-10 -23.5q-36 -42 -75.5 -92t-75.5 -94t-65 -73.5t-42 -29.5q-7 0 -8.5 3t-6.5 5q-6 2 -17 1.5t-21.5 0t-18.5 5t-8 16.5z" />
<glyph unicode="&#xee;" horiz-adv-x="348" d="M-91 1018q0 8 14 27.5t36 46t49.5 56t55 57.5t51 51.5t38.5 37.5q8 6 16.5 14.5t16.5 8.5q2 0 8.5 -0.5t14 -1.5t14 -1.5t8.5 -0.5q3 0 11 2t11 2q2 0 13 -0.5t14 -3.5q6 -6 10 -9.5t8 -9.5t9.5 -16t15 -28t24.5 -46t39 -70q16 -30 30.5 -51t25 -36t16.5 -26t6 -20 q0 -3 -6.5 -5.5t-15.5 -4t-18.5 -2t-14.5 -0.5q-17 0 -30 -1t-27 -3q-18 0 -31.5 20t-28.5 51.5t-33 70t-43 75.5q-30 -27 -59.5 -64t-55 -70.5t-46.5 -57t-35 -23.5q-3 0 -9.5 1t-13 2.5t-12.5 2.5t-8 2q-6 2 -17.5 1.5t-23 0t-19.5 5t-8 16.5zM82 399v74q0 51 3.5 104 t8 99t9 80.5t6.5 48.5q1 9 3.5 20.5t8 22t15.5 17.5t28 7q25 0 50 -4.5t30 -9.5t7.5 -33t2.5 -73q0 -30 -1 -65t-2.5 -72t-3.5 -74.5t-3 -71.5q-3 -56 -3.5 -103.5t-0.5 -91.5q0 -58 1 -106t1 -80q0 -35 -2.5 -53.5t-10.5 -20.5q-9 -2 -15 -8.5t-11 -12.5t-11.5 -10.5 t-15.5 -2.5q-5 1 -17 9t-25.5 19.5t-25.5 26.5t-16 31q-2 8 -3.5 32t-2.5 58t-2 75.5t-1.5 84t-0.5 83.5z" />
<glyph unicode="&#xef;" horiz-adv-x="348" d="M-48 1122q0 12 5 28t13 32t17.5 29t18.5 18q14 8 22 8h16q38 0 58 -19t22 -65q1 -12 -0.5 -26.5t-6 -28.5t-12 -24.5t-18.5 -14.5q-28 -11 -47 -11q-15 0 -26.5 5.5t-22.5 13.5q-17 9 -28 24.5t-11 30.5zM82 399v74q0 51 3.5 104t8 99t9 80.5t6.5 48.5q1 9 3.5 20.5t8 22 t15.5 17.5t28 7q25 0 50 -4.5t30 -9.5t7.5 -33t2.5 -73q0 -30 -1 -65t-2.5 -72t-3.5 -74.5t-3 -71.5q-3 -56 -3.5 -103.5t-0.5 -91.5q0 -58 1 -106t1 -80q0 -35 -2.5 -53.5t-10.5 -20.5q-9 -2 -15 -8.5t-11 -12.5t-11.5 -10.5t-15.5 -2.5q-5 1 -17 9t-25.5 19.5t-25.5 26.5 t-16 31q-2 8 -3.5 32t-2.5 58t-2 75.5t-1.5 84t-0.5 83.5zM249 1134q-1 12 0.5 26.5t6 28.5t12 25t18.5 15q14 5 26 7.5t21 2.5q16 0 27 -5.5t22 -13.5q17 -9 28 -24t11 -31q0 -12 -5 -28t-13 -32t-17 -29t-18 -17q-14 -8 -22.5 -8.5t-16.5 -0.5q-37 0 -57.5 19t-22.5 65z " />
<glyph unicode="&#xf0;" horiz-adv-x="838" d="M39 336q0 82 23.5 148t61 117t86.5 87.5t101.5 60.5t104.5 36t96 14q16 1 16.5 -3t-4 -9.5t-7.5 -10.5t7 -6q11 -2 17.5 -5.5t9.5 -8.5q-32 97 -84 173.5t-117 139.5q-31 -18 -58.5 -34t-50 -27t-39 -17t-24.5 -4q-5 2 -6 6.5t-6 7.5q-6 4 -15.5 5.5t-18 4.5t-13 8.5 t-0.5 18.5q1 6 13 16.5t31 25t44 32t53 35.5q-43 35 -88.5 66.5t-91.5 60.5q-8 4 -9.5 9t-1 10t1 9.5t-2.5 8.5q-7 8 -4 15t32 7q31 0 63 -11t58 -30q8 -6 47 -26.5t94 -57.5q44 26 80.5 47.5t59.5 32.5q11 6 22 13t21 4q3 0 9.5 0.5t13.5 0.5h13.5t8.5 -1q1 0 2 -4t2 -9 t2.5 -9t3.5 -5q1 0 12.5 -3.5t20.5 -9.5t9.5 -15t-20.5 -21q-35 -20 -76.5 -45t-84.5 -51q54 -47 107.5 -109.5t96 -143t69 -179.5t26.5 -218q0 -116 -27.5 -211t-77 -163t-118.5 -105t-152 -37q-32 0 -69.5 7.5t-76 24.5t-74 45t-63 69t-44 96t-15.5 127zM211 348 q0 -69 12.5 -125t36.5 -95.5t58.5 -61t78.5 -21.5q39 0 75.5 25t64.5 76t44.5 128t16.5 181q0 75 -10 141.5t-27 126.5q-5 -3 -12 -5.5t-17 -2.5q-85 -8 -146 -40.5t-100 -82t-57 -112.5t-18 -132z" />
<glyph unicode="&#xf1;" horiz-adv-x="797" d="M51 25q0 12 4 49.5t9.5 92t12 122t12 139.5t9.5 144t4 137q0 32 -1 59.5t-1 52.5q0 6 6 6q12 0 18.5 -4.5t9.5 -9.5t3.5 -9.5t1.5 -4.5q3 0 7 3.5t8.5 7.5t8.5 7.5t7 3.5h10q15 0 21 4.5t8.5 10t3.5 10t6 4.5q3 0 8.5 -4.5t11 -15t9.5 -27.5t4 -41q0 -32 -2.5 -81 t-6 -104.5t-6.5 -112t-4 -102.5q11 43 26.5 95.5t36 106.5t44.5 105.5t52 91.5t59 64.5t65 24.5q54 0 88.5 -20t54.5 -55t27.5 -82t7.5 -101q0 -46 -4 -96.5t-8.5 -101t-8 -99.5t-3.5 -92q0 -53 6 -95.5t6 -64.5q0 -12 -8.5 -26.5t-24.5 -14.5q-9 0 -14 5t-10 5 q-7 0 -13.5 -5t-21.5 -5q-20 0 -34.5 14.5t-23.5 37t-13.5 49t-4.5 49.5q0 45 3.5 102.5t8 118t8 120.5t3.5 111q0 68 -9 106t-32 38q-22 -3 -45 -38t-47 -89.5t-47 -123t-44.5 -140t-40.5 -139t-34 -120.5t-26 -85.5t-15 -32.5q-8 0 -12 3.5t-7.5 7.5t-8.5 7.5t-15 3.5 q-9 0 -12 -2t-7 -5t-10 -5t-21 -2q-18 0 -35.5 9t-17.5 28zM126 1096q0 14 10.5 43.5t29 60t44 53.5t56.5 25q40 2 68.5 -14t55 -36t53.5 -37t64 -17q25 0 42.5 20t25.5 58q2 12 8.5 17t22.5 5q7 0 11.5 -2t8.5 -4.5t8.5 -4.5t10.5 -1q11 3 22.5 -4.5t11.5 -20.5 q0 -18 -10 -50t-29 -63t-47 -54t-65 -23q-41 0 -74 17t-60 38t-49 38t-40 17q-22 0 -35 -14.5t-22 -32.5t-15.5 -33t-13.5 -16q-13 -2 -20 -8t-23 -6q-8 0 -17.5 11t-19.5 11q-11 0 -12 10.5t-1 16.5z" />
<glyph unicode="&#xf2;" horiz-adv-x="838" d="M39 336q0 82 20 149.5t51.5 121t71.5 92.5t80 65.5t77 39.5t64 15q14 1 12.5 -3t-7.5 -9t-10.5 -10t3.5 -6q7 -2 11.5 -4t9.5 -5l8 9q7 5 13.5 5t11.5 -1.5t8 -1.5t4 6q2 11 7.5 12.5t25.5 1.5q12 0 36.5 -7t54 -24t60 -45.5t56 -72t41.5 -103.5t16 -139 q0 -105 -30.5 -189t-83 -143t-121.5 -91t-146 -32q-32 0 -70 7.5t-76 24.5t-74 45t-64 69t-44.5 96t-15.5 127zM162 1239.5q-1 12.5 5 16.5t10 4q2 0 8.5 -1t14 -1.5t14 -1.5t8.5 -1q1 0 7.5 1t14 1.5t13.5 1.5t8 1t14 1t17 -6q18 -26 41 -56t46.5 -60.5t45.5 -60.5 t39.5 -55.5t28 -46t10.5 -32.5q0 -9 -15.5 -13t-27.5 1q-16 6 -25.5 1t-23.5 -5q-18 0 -40 20t-47 51.5t-53 70t-57 75.5q-32 37 -43.5 59.5t-12.5 35zM211 348q0 -69 12.5 -125t36.5 -95.5t58.5 -61t78.5 -21.5q39 0 77.5 22t68.5 66t48.5 109t18.5 151q0 87 -23 146 t-51.5 95.5t-54.5 52t-32 15.5h-21.5t-24.5 13q-35 -21 -69 -57t-61.5 -83t-44.5 -105t-17 -122z" />
<glyph unicode="&#xf3;" horiz-adv-x="838" d="M39 336q0 82 20 149.5t51.5 121t71.5 92.5t80 65.5t77 39.5t64 15q14 1 12.5 -3t-7.5 -9t-10.5 -10t3.5 -6q7 -2 11.5 -4t9.5 -5l8 9q7 5 13.5 5t11.5 -1.5t8 -1.5t4 6q2 11 7.5 12.5t25.5 1.5q12 0 36.5 -7t54 -24t60 -45.5t56 -72t41.5 -103.5t16 -139 q0 -105 -30.5 -189t-83 -143t-121.5 -91t-146 -32q-32 0 -70 7.5t-76 24.5t-74 45t-64 69t-44.5 96t-15.5 127zM211 348q0 -69 12.5 -125t36.5 -95.5t58.5 -61t78.5 -21.5q39 0 77.5 22t68.5 66t48.5 109t18.5 151q0 87 -23 146t-51.5 95.5t-54.5 52t-32 15.5h-21.5 t-24.5 13q-35 -21 -69 -57t-61.5 -83t-44.5 -105t-17 -122zM326 961q0 8 9.5 26.5t25.5 43t35.5 53t40 56.5t39 53t32.5 44q8 6 16.5 14.5t16.5 8.5q2 0 7 1t11 2.5t11 3t8 1.5q1 0 10 -1.5t18.5 -3t18 -2.5t10.5 -1q1 0 10.5 -0.5t17.5 -4.5t11 -12.5t-10 -23.5 q-36 -42 -75.5 -92t-75.5 -94t-65 -73.5t-42 -29.5q-7 0 -8.5 3t-6.5 5q-6 2 -17 1.5t-21.5 0t-18.5 5t-8 16.5z" />
<glyph unicode="&#xf4;" horiz-adv-x="838" d="M39 336q0 82 20 149.5t51.5 121t71.5 92.5t80 65.5t77 39.5t64 15q14 1 12.5 -3t-7.5 -9t-10.5 -10t3.5 -6q7 -2 11.5 -4t9.5 -5l8 9q7 5 13.5 5t11.5 -1.5t8 -1.5t4 6q2 11 7.5 12.5t25.5 1.5q12 0 36.5 -7t54 -24t60 -45.5t56 -72t41.5 -103.5t16 -139 q0 -105 -30.5 -189t-83 -143t-121.5 -91t-146 -32q-32 0 -70 7.5t-76 24.5t-74 45t-64 69t-44.5 96t-15.5 127zM152 965q0 8 14 27.5t36 46t49.5 56t55 57.5t51 51.5t38.5 37.5q8 6 16.5 14.5t16.5 8.5q2 0 8.5 -0.5t14 -1.5t14 -1.5t8.5 -0.5q3 0 11 2t11 2q2 0 13 -0.5 t14 -3.5q6 -6 10 -9.5t8 -9.5t9.5 -16t15 -28t24.5 -46t39 -70q16 -30 30.5 -51t25 -36t16.5 -26t6 -20q0 -3 -6.5 -5.5t-15.5 -4t-18.5 -2t-14.5 -0.5q-17 0 -30 -1t-27 -3q-18 0 -31.5 20t-28.5 51.5t-33 70t-43 75.5q-30 -27 -59.5 -64t-55 -70.5t-46.5 -57t-35 -23.5 q-3 0 -9.5 1t-13 2.5t-12.5 2.5t-8 2q-6 2 -17.5 1.5t-23 0t-19.5 5t-8 16.5zM211 348q0 -69 12.5 -125t36.5 -95.5t58.5 -61t78.5 -21.5q39 0 77.5 22t68.5 66t48.5 109t18.5 151q0 87 -23 146t-51.5 95.5t-54.5 52t-32 15.5h-21.5t-24.5 13q-35 -21 -69 -57t-61.5 -83 t-44.5 -105t-17 -122z" />
<glyph unicode="&#xf5;" horiz-adv-x="838" d="M39 336q0 82 20 149.5t51.5 121t71.5 92.5t80 65.5t77 39.5t64 15q14 1 12.5 -3t-7.5 -9t-10.5 -10t3.5 -6q7 -2 11.5 -4t9.5 -5l8 9q7 5 13.5 5t11.5 -1.5t8 -1.5t4 6q2 11 7.5 12.5t25.5 1.5q12 0 36.5 -7t54 -24t60 -45.5t56 -72t41.5 -103.5t16 -139 q0 -105 -30.5 -189t-83 -143t-121.5 -91t-146 -32q-32 0 -70 7.5t-76 24.5t-74 45t-64 69t-44.5 96t-15.5 127zM156 1065q0 14 10.5 43.5t29 60t44 53.5t56.5 25q40 2 68.5 -14t55 -36t53.5 -37t64 -17q25 0 42.5 20t25.5 58q2 12 8.5 17t22.5 5q7 0 11.5 -2t8.5 -4.5 t8.5 -4.5t10.5 -1q11 3 22.5 -4.5t11.5 -20.5q0 -18 -10 -50t-29 -63t-47 -54t-65 -23q-41 0 -74 17t-60 38t-49 38t-40 17q-22 0 -35 -14.5t-22 -32.5t-15.5 -33t-13.5 -16q-13 -2 -20 -8t-23 -6q-8 0 -17.5 11t-19.5 11q-11 0 -12 10.5t-1 16.5zM211 348q0 -69 12.5 -125 t36.5 -95.5t58.5 -61t78.5 -21.5q39 0 77.5 22t68.5 66t48.5 109t18.5 151q0 87 -23 146t-51.5 95.5t-54.5 52t-32 15.5h-21.5t-24.5 13q-35 -21 -69 -57t-61.5 -83t-44.5 -105t-17 -122z" />
<glyph unicode="&#xf6;" horiz-adv-x="838" d="M39 336q0 82 20 149.5t51.5 121t71.5 92.5t80 65.5t77 39.5t64 15q14 1 12.5 -3t-7.5 -9t-10.5 -10t3.5 -6q7 -2 11.5 -4t9.5 -5l8 9q7 5 13.5 5t11.5 -1.5t8 -1.5t4 6q2 11 7.5 12.5t25.5 1.5q12 0 36.5 -7t54 -24t60 -45.5t56 -72t41.5 -103.5t16 -139 q0 -105 -30.5 -189t-83 -143t-121.5 -91t-146 -32q-32 0 -70 7.5t-76 24.5t-74 45t-64 69t-44.5 96t-15.5 127zM195 1069q0 12 5 28t13 32t17.5 29t18.5 18q14 8 22 8h16q38 0 58 -19t22 -65q1 -12 -0.5 -26.5t-6 -28.5t-12 -24.5t-18.5 -14.5q-28 -11 -47 -11 q-15 0 -26.5 5.5t-22.5 13.5q-17 9 -28 24.5t-11 30.5zM211 348q0 -69 12.5 -125t36.5 -95.5t58.5 -61t78.5 -21.5q39 0 77.5 22t68.5 66t48.5 109t18.5 151q0 87 -23 146t-51.5 95.5t-54.5 52t-32 15.5h-21.5t-24.5 13q-35 -21 -69 -57t-61.5 -83t-44.5 -105t-17 -122z M492 1081q-1 12 0.5 26.5t6 28.5t12 25t18.5 15q14 5 26 7.5t21 2.5q16 0 27 -5.5t22 -13.5q17 -9 28 -24t11 -31q0 -12 -5 -28t-13 -32t-17 -29t-18 -17q-14 -8 -22.5 -8.5t-16.5 -0.5q-37 0 -57.5 19t-22.5 65z" />
<glyph unicode="&#xf7;" d="M147 629q0 14 4 28.5t15 16.5q16 4 54 7t89 5t111.5 3t122.5 1h51q44 0 83.5 -2t68 -7t42.5 -15t7 -25l-9 -16q0 -2 2.5 -12.5t2.5 -12.5q-4 -19 -19 -27t-49 -10h-72q-78 2 -161.5 3t-174.5 1q-49 0 -75.5 -1t-38.5 -3h-8q-15 1 -24 9t-14 18t-6.5 20.5t-1.5 18.5z M377 369q0 11 5 27.5t13 32.5t17.5 28.5t17.5 17.5q14 8 22.5 8h16.5q37 0 57.5 -18.5t22.5 -65.5q1 -11 -0.5 -26t-6 -28.5t-12 -24.5t-18.5 -15q-14 -5 -26 -7.5t-21 -2.5q-16 0 -27 5t-22 13q-17 10 -28 25t-11 31zM377 846q0 12 5 28t13 32t17.5 28.5t17.5 17.5 q14 8 22.5 8.5t16.5 0.5q37 0 57.5 -19t22.5 -65q1 -12 -0.5 -26.5t-6 -28.5t-12 -25t-18.5 -15q-14 -5 -26 -7.5t-21 -2.5q-16 0 -27 5.5t-22 13.5q-17 9 -28 24t-11 31z" />
<glyph unicode="&#xf8;" horiz-adv-x="838" d="M39 336q0 82 20 149.5t51.5 121t71.5 92.5t80 65.5t77 39.5t64 15q14 1 12.5 -3t-7.5 -9t-10.5 -10t3.5 -6q7 -2 11.5 -4t9.5 -5l8 9q7 5 13.5 5t11.5 -1.5t8 -1.5t4 6q2 11 7.5 12.5t25.5 1.5q15 0 50.5 -12t74.5 -43q17 26 33.5 51t33.5 53q16 26 29 27.5t24 -4.5 q6 -3 6.5 -5t0.5 -4t1 -4t7 -4q5 -2 10 -5t7 -9.5t-1 -17t-14 -25.5l-78 -115q34 -45 57 -111.5t23 -162.5q0 -105 -30.5 -189t-83 -143t-121.5 -91t-146 -32q-38 0 -84.5 11.5t-91.5 35.5q-19 -26 -37 -53.5t-37 -56.5q-12 -19 -25.5 -19t-19.5 11q-4 5 -10.5 12t-12 14.5 t-7 16.5t4.5 18q38 57 76 106q-44 43 -73 110.5t-27 162.5zM211 348q0 -45 5.5 -83t14.5 -72q76 103 153.5 210.5t156.5 223.5q-31 40 -58.5 57.5t-33.5 17.5h-19.5t-15.5 7l-11 6q-35 -21 -69 -57t-61.5 -83t-44.5 -105t-17 -122zM270 111q25 -32 56 -49t71 -17 q39 0 77.5 22t68.5 66t48.5 109t18.5 151q0 48 -8 87.5t-20 70.5q-42 -59 -80 -112t-75.5 -105.5t-76 -107t-80.5 -115.5z" />
<glyph unicode="&#xf9;" horiz-adv-x="793" d="M61 389q0 27 1 70t4 92.5t7.5 100t11 91t15.5 66t21 25.5q8 0 28 -4.5t41 -4.5q31 0 43.5 5.5t18.5 5.5q10 0 10 -17v-9.5t-2 -10.5q-1 -6 -4.5 -31t-8.5 -64t-10 -87.5t-9.5 -101.5t-7.5 -107t-3 -103q0 -33 1.5 -66t5.5 -60t11 -43.5t17 -16.5q9 0 25.5 8.5t39 34.5 t49.5 74t58.5 127.5t66 195t70.5 275.5q0 3 3.5 4.5t8.5 1.5q13 0 33 -2.5t38.5 -7t32 -10.5t13.5 -13q0 -45 -4 -98t-9 -109.5t-9 -115.5t-4 -117q0 -104 6.5 -198.5t17.5 -162.5q0 -9 -15 -22t-38 -13q-7 0 -25.5 7t-38.5 20.5t-36 33t-17 44.5q-2 11 -2 30.5v45.5v89 t2 99q-7 -36 -17 -74.5t-25 -76.5t-35 -75t-46 -71q-14 -18 -29.5 -30.5t-30.5 -21t-28 -12.5t-20 -4q-4 0 -18.5 8.5t-34 22t-41.5 30t-42 33t-36 31t-23 23.5q-7 10 -12.5 34t-9.5 59t-6.5 79t-2.5 94zM156 1259.5q-1 12.5 5 16.5t10 4q2 0 8.5 -1t14 -1.5t14 -1.5t8.5 -1 q1 0 7.5 1t14 1.5t13.5 1.5t8 1t14 1t17 -6q18 -26 41 -56t46.5 -60.5t45.5 -60.5t39.5 -55.5t28 -46t10.5 -32.5q0 -9 -15.5 -13t-27.5 1q-16 6 -25.5 1t-23.5 -5q-18 0 -40 20t-47 51.5t-53 70t-57 75.5q-32 37 -43.5 59.5t-12.5 35z" />
<glyph unicode="&#xfa;" horiz-adv-x="793" d="M61 389q0 27 1 70t4 92.5t7.5 100t11 91t15.5 66t21 25.5q8 0 28 -4.5t41 -4.5q31 0 43.5 5.5t18.5 5.5q10 0 10 -17v-9.5t-2 -10.5q-1 -6 -4.5 -31t-8.5 -64t-10 -87.5t-9.5 -101.5t-7.5 -107t-3 -103q0 -33 1.5 -66t5.5 -60t11 -43.5t17 -16.5q9 0 25.5 8.5t39 34.5 t49.5 74t58.5 127.5t66 195t70.5 275.5q0 3 3.5 4.5t8.5 1.5q13 0 33 -2.5t38.5 -7t32 -10.5t13.5 -13q0 -45 -4 -98t-9 -109.5t-9 -115.5t-4 -117q0 -104 6.5 -198.5t17.5 -162.5q0 -9 -15 -22t-38 -13q-7 0 -25.5 7t-38.5 20.5t-36 33t-17 44.5q-2 11 -2 30.5v45.5v89 t2 99q-7 -36 -17 -74.5t-25 -76.5t-35 -75t-46 -71q-14 -18 -29.5 -30.5t-30.5 -21t-28 -12.5t-20 -4q-4 0 -18.5 8.5t-34 22t-41.5 30t-42 33t-36 31t-23 23.5q-7 10 -12.5 34t-9.5 59t-6.5 79t-2.5 94zM320 981q0 8 9.5 26.5t25.5 43t35.5 53t40 56.5t39 53t32.5 44 q8 6 16.5 14.5t16.5 8.5q2 0 7 1t11 2.5t11 3t8 1.5q1 0 10 -1.5t18.5 -3t18 -2.5t10.5 -1q1 0 10.5 -0.5t17.5 -4.5t11 -12.5t-10 -23.5q-36 -42 -75.5 -92t-75.5 -94t-65 -73.5t-42 -29.5q-7 0 -8.5 3t-6.5 5q-6 2 -17 1.5t-21.5 0t-18.5 5t-8 16.5z" />
<glyph unicode="&#xfb;" horiz-adv-x="793" d="M61 389q0 27 1 70t4 92.5t7.5 100t11 91t15.5 66t21 25.5q8 0 28 -4.5t41 -4.5q31 0 43.5 5.5t18.5 5.5q10 0 10 -17v-9.5t-2 -10.5q-1 -6 -4.5 -31t-8.5 -64t-10 -87.5t-9.5 -101.5t-7.5 -107t-3 -103q0 -33 1.5 -66t5.5 -60t11 -43.5t17 -16.5q9 0 25.5 8.5t39 34.5 t49.5 74t58.5 127.5t66 195t70.5 275.5q0 3 3.5 4.5t8.5 1.5q13 0 33 -2.5t38.5 -7t32 -10.5t13.5 -13q0 -45 -4 -98t-9 -109.5t-9 -115.5t-4 -117q0 -104 6.5 -198.5t17.5 -162.5q0 -9 -15 -22t-38 -13q-7 0 -25.5 7t-38.5 20.5t-36 33t-17 44.5q-2 11 -2 30.5v45.5v89 t2 99q-7 -36 -17 -74.5t-25 -76.5t-35 -75t-46 -71q-14 -18 -29.5 -30.5t-30.5 -21t-28 -12.5t-20 -4q-4 0 -18.5 8.5t-34 22t-41.5 30t-42 33t-36 31t-23 23.5q-7 10 -12.5 34t-9.5 59t-6.5 79t-2.5 94zM146 985q0 8 14 27.5t36 46t49.5 56t55 57.5t51 51.5t38.5 37.5 q8 6 16.5 14.5t16.5 8.5q2 0 8.5 -0.5t14 -1.5t14 -1.5t8.5 -0.5q3 0 11 2t11 2q2 0 13 -0.5t14 -3.5q6 -6 10 -9.5t8 -9.5t9.5 -16t15 -28t24.5 -46t39 -70q16 -30 30.5 -51t25 -36t16.5 -26t6 -20q0 -3 -6.5 -5.5t-15.5 -4t-18.5 -2t-14.5 -0.5q-17 0 -30 -1t-27 -3 q-18 0 -31.5 20t-28.5 51.5t-33 70t-43 75.5q-30 -27 -59.5 -64t-55 -70.5t-46.5 -57t-35 -23.5q-3 0 -9.5 1t-13 2.5t-12.5 2.5t-8 2q-6 2 -17.5 1.5t-23 0t-19.5 5t-8 16.5z" />
<glyph unicode="&#xfc;" horiz-adv-x="793" d="M61 389q0 27 1 70t4 92.5t7.5 100t11 91t15.5 66t21 25.5q8 0 28 -4.5t41 -4.5q31 0 43.5 5.5t18.5 5.5q10 0 10 -17v-9.5t-2 -10.5q-1 -6 -4.5 -31t-8.5 -64t-10 -87.5t-9.5 -101.5t-7.5 -107t-3 -103q0 -33 1.5 -66t5.5 -60t11 -43.5t17 -16.5q9 0 25.5 8.5t39 34.5 t49.5 74t58.5 127.5t66 195t70.5 275.5q0 3 3.5 4.5t8.5 1.5q13 0 33 -2.5t38.5 -7t32 -10.5t13.5 -13q0 -45 -4 -98t-9 -109.5t-9 -115.5t-4 -117q0 -104 6.5 -198.5t17.5 -162.5q0 -9 -15 -22t-38 -13q-7 0 -25.5 7t-38.5 20.5t-36 33t-17 44.5q-2 11 -2 30.5v45.5v89 t2 99q-7 -36 -17 -74.5t-25 -76.5t-35 -75t-46 -71q-14 -18 -29.5 -30.5t-30.5 -21t-28 -12.5t-20 -4q-4 0 -18.5 8.5t-34 22t-41.5 30t-42 33t-36 31t-23 23.5q-7 10 -12.5 34t-9.5 59t-6.5 79t-2.5 94zM189 1089q0 12 5 28t13 32t17.5 29t18.5 18q14 8 22 8h16 q38 0 58 -19t22 -65q1 -12 -0.5 -26.5t-6 -28.5t-12 -24.5t-18.5 -14.5q-28 -11 -47 -11q-15 0 -26.5 5.5t-22.5 13.5q-17 9 -28 24.5t-11 30.5zM486 1101q-1 12 0.5 26.5t6 28.5t12 25t18.5 15q14 5 26 7.5t21 2.5q16 0 27 -5.5t22 -13.5q17 -9 28 -24t11 -31q0 -12 -5 -28 t-13 -32t-17 -29t-18 -17q-14 -8 -22.5 -8.5t-16.5 -0.5q-37 0 -57.5 19t-22.5 65z" />
<glyph unicode="&#xfd;" horiz-adv-x="825" d="M-18 805q1 12 5 16.5t10.5 4.5t14 -3t15.5 -6q12 -5 23 -9.5t16 3.5q3 8 17 8.5t23 -4.5q3 -3 5.5 -2t5 4t6 6.5t8.5 5.5q11 2 20 -4t17 -26q5 -15 20.5 -52t37 -86t47.5 -105.5t52 -111t49.5 -102.5t41.5 -80q27 50 58.5 106.5t64 113t64.5 110.5t60.5 100t50.5 80.5 t36 52.5q8 10 8 13t8 6q6 2 10.5 4t14.5 0q9 -2 14 -2t8 -6q2 -3 6 -2t9.5 3.5t11.5 5t12 1.5q7 -1 14 -2.5t12.5 -5.5t6.5 -10t-4 -15q-3 -5 -20.5 -33.5t-44.5 -72t-61.5 -99t-71 -115t-72.5 -118.5t-67.5 -110.5t-54.5 -91.5t-34 -60t-31 -62t-46 -96.5t-55.5 -117.5 t-59 -126.5t-57 -123t-49 -106.5t-35.5 -77.5t-16 -36.5q-9 -23 -16.5 -28.5t-21.5 -8.5q-7 -1 -11 4t-7 12t-6 12.5t-7 6.5q-13 2 -14.5 5.5t-6.5 13.5q-3 4 -6 4.5t-6 0.5t-4.5 1t-1.5 6q2 17 3.5 34t4.5 31q3 11 20.5 46t43.5 85.5t58.5 112t66 125t66 125.5t58.5 113 q-13 28 -35 72.5t-48 99t-55.5 115.5t-57.5 121t-54 116t-45.5 100.5t-30.5 74t-11 36.5zM365 981q0 8 9.5 26.5t25.5 43t35.5 53t40 56.5t39 53t32.5 44q8 6 16.5 14.5t16.5 8.5q2 0 7 1t11 2.5t11 3t8 1.5q1 0 10 -1.5t18.5 -3t18 -2.5t10.5 -1q1 0 10.5 -0.5t17.5 -4.5 t11 -12.5t-10 -23.5q-36 -42 -75.5 -92t-75.5 -94t-65 -73.5t-42 -29.5q-7 0 -8.5 3t-6.5 5q-6 2 -17 1.5t-21.5 0t-18.5 5t-8 16.5z" />
<glyph unicode="&#xfe;" horiz-adv-x="858" d="M6.5 575q-1.5 5 1 9.5t10.5 5.5q7 1 2 5.5t-9.5 12t-2.5 19t25 26.5q12 8 40 23.5t66 32.5l33 313q2 28 5 62.5t6.5 70t6.5 69.5t5.5 62t4.5 46.5t3 23.5q3 10 6.5 15t6.5 7t5.5 3t3.5 5q2 4 7.5 4.5t12.5 0t13 0t10 4.5q8 6 13.5 10t19.5 4q17 2 26 -0.5t11 -19.5 q3 -27 1 -66.5t-5.5 -86.5t-9 -99.5t-11 -104.5t-10 -101.5t-6.5 -90.5q-2 -7 -3 -27t-3 -51q42 11 84.5 17.5t87.5 6.5q52 0 104 -11.5t97 -39.5q35 -21 59.5 -67t40.5 -99q9 -31 18 -68.5t9 -82.5q0 -38 -9.5 -79t-33.5 -84.5t-65 -89t-105 -91.5q-62 -45 -110.5 -68.5 t-82.5 -32.5t-52.5 -8.5t-21.5 2.5q-9 6 -18 22.5t-25 35.5q-9 9 -16 26q-5 -96 -6.5 -187t-1.5 -171q0 -50 1 -93.5t3 -78.5q0 -13 1.5 -25.5t1 -22.5t-4.5 -16t-15 -6q-20 0 -30.5 -9.5t-24.5 -29.5q-8 -9 -17 -13.5t-18.5 0t-19 19t-17.5 43.5q-3 12 -5.5 31.5t-4 49 t-2 71t-0.5 98.5l4 346q2 103 10 230.5t19 257.5q-25 -10 -46 -15t-26 -2q-10 4 -13 9t-4 9.5t-2.5 8t-8.5 4.5t-12 6t-6.5 10zM256 168q8 -3 19.5 -3.5t23.5 -0.5q33 0 76.5 9t88.5 27.5t89 45t78.5 61.5t55.5 78t22 94q1 30 -13.5 59.5t-43 53.5t-71.5 38.5t-100 14.5 q-43 0 -93.5 -9.5t-108.5 -31.5q-7 -91 -12.5 -203t-10.5 -233z" />
<glyph unicode="&#xff;" horiz-adv-x="825" d="M-18 805q1 12 5 16.5t10.5 4.5t14 -3t15.5 -6q12 -5 23 -9.5t16 3.5q3 8 17 8.5t23 -4.5q3 -3 5.5 -2t5 4t6 6.5t8.5 5.5q11 2 20 -4t17 -26q5 -15 20.5 -52t37 -86t47.5 -105.5t52 -111t49.5 -102.5t41.5 -80q27 50 58.5 106.5t64 113t64.5 110.5t60.5 100t50.5 80.5 t36 52.5q8 10 8 13t8 6q6 2 10.5 4t14.5 0q9 -2 14 -2t8 -6q2 -3 6 -2t9.5 3.5t11.5 5t12 1.5q7 -1 14 -2.5t12.5 -5.5t6.5 -10t-4 -15q-3 -5 -20.5 -33.5t-44.5 -72t-61.5 -99t-71 -115t-72.5 -118.5t-67.5 -110.5t-54.5 -91.5t-34 -60t-31 -62t-46 -96.5t-55.5 -117.5 t-59 -126.5t-57 -123t-49 -106.5t-35.5 -77.5t-16 -36.5q-9 -23 -16.5 -28.5t-21.5 -8.5q-7 -1 -11 4t-7 12t-6 12.5t-7 6.5q-13 2 -14.5 5.5t-6.5 13.5q-3 4 -6 4.5t-6 0.5t-4.5 1t-1.5 6q2 17 3.5 34t4.5 31q3 11 20.5 46t43.5 85.5t58.5 112t66 125t66 125.5t58.5 113 q-13 28 -35 72.5t-48 99t-55.5 115.5t-57.5 121t-54 116t-45.5 100.5t-30.5 74t-11 36.5zM233 1089q0 12 5 28t13 32t17.5 29t18.5 18q14 8 22 8h16q38 0 58 -19t22 -65q1 -12 -0.5 -26.5t-6 -28.5t-12 -24.5t-18.5 -14.5q-28 -11 -47 -11q-15 0 -26.5 5.5t-22.5 13.5 q-17 9 -28 24.5t-11 30.5zM530 1101q-1 12 0.5 26.5t6 28.5t12 25t18.5 15q14 5 26 7.5t21 2.5q16 0 27 -5.5t22 -13.5q17 -9 28 -24t11 -31q0 -12 -5 -28t-13 -32t-17 -29t-18 -17q-14 -8 -22.5 -8.5t-16.5 -0.5q-37 0 -57.5 19t-22.5 65z" />
<glyph unicode="&#x152;" horiz-adv-x="2167" d="M74 578q-7 97 12.5 194.5t58 187t92 168.5t115 139.5t127 98.5t127.5 47q8 1 10.5 1.5t3.5 0.5t2 -0.5t5 0.5q23 2 33 1t12 -3q2 -3 -0.5 -4t-7.5 -4q-2 0 -4.5 -1t-0.5 -3q2 -5 -4 -9t-8 -6t-1 -3t1.5 -1t0 -1t-4.5 -3q-12 -8 -25.5 -14.5t-27.5 -15.5 q-77 -56 -134.5 -145t-94.5 -196t-53 -224.5t-11 -229.5q2 -43 14 -94t32.5 -101.5t50 -97.5t67.5 -83.5t85 -59t103 -23.5q84 -3 151 27t118.5 80.5t88.5 116t61.5 135t38.5 137t19 121.5q2 21 3 42.5t1 41.5q0 128 -33.5 228t-89 169t-127.5 106.5t-149 40.5q-8 1 -19 0.5 t-22.5 -0.5t-20 -0.5t-10.5 0.5q-13 6 -16 9l-2 2q0 8 4 12l10 5q5 2 9.5 4.5t7.5 4.5q2 3 -1 4.5t-3 8.5q-2 5 3 9.5t7 4.5q9 3 12.5 3.5t9.5 0.5q10 1 16.5 2.5t12 3.5t12.5 3.5t19 2.5q9 2 20 2t33 2q79 1 142 -17.5t111.5 -53t84 -82t59.5 -103.5q3 22 6 42t5 40 q-8 2 -19 6.5t-16 18.5q-14 2 -20.5 6t-9.5 8q-4 4 -3 10q2 11 5 17t16 14q12 6 17 15.5t13 11.5q2 1 34 9.5t81.5 20t111 22t121.5 15.5q70 5 138.5 6t128.5 1q40 0 75 -0.5t62 -1.5t44.5 -2.5t22.5 -2.5q7 -2 14 -7q5 -5 11 -13.5t10 -22.5q8 -4 12 -7.5t6 -6.5q3 -4 3 -6 v-14.5t-2 -14.5q-1 -2 -4 -4q-7 -4 -15 -8q1 -14 0 -22t-3 -13t-5 -8q-6 -5 -23 -7.5t-61 -2.5l-618 -15q-3 -29 -5.5 -69t-5.5 -84.5t-5.5 -91.5t-4.5 -90t-3.5 -79.5t-2.5 -60.5q38 11 83.5 17.5t85.5 10.5q47 4 93 7q29 2 56.5 2h52.5q100 0 154.5 -4t62.5 -6q5 -1 12 -8 t13.5 -16.5t11 -21t4.5 -20.5q0 -17 -9.5 -36l-15.5 -31q-4 -6 -9.5 -12.5t-11.5 -12t-12 -8.5t-10 -2q-2 0 -24 1t-54.5 2.5t-71 2.5t-74 2t-64.5 1.5t-42 0.5q-16 0 -47 -3q-26 -2 -71.5 -7t-116.5 -14q-2 -41 -2 -86v-95q0 -69 1.5 -136.5t6.5 -121.5h135q50 0 99 1.5 t90 4.5q67 5 127.5 11t108.5 11t79.5 7.5t40.5 1.5q7 -2 21 -1t29 3t28.5 4t21.5 4q8 1 17 -3.5t17 -12t13.5 -15.5t6.5 -12q0 -4 -5 -15t-11.5 -23t-14 -22.5t-12.5 -12.5q-4 -2 -27.5 -10.5t-62.5 -20t-91.5 -24.5t-114 -24.5t-131 -19t-141.5 -8.5q-51 -2 -95.5 -4 t-82.5 -2q-22 0 -41.5 1t-36.5 3q-36 3 -69 7q-28 4 -56 10t-43 16q-4 1 -8 5q-7 6 -6 17q-8 6 -12 11q-2 3 -2 4q0 2 1 5q1 4 9 15q-10 1 -14 11q-3 4 -3 10q-1 6 1 12q2 5 5 11.5t11 13.5q0 13 3 19q1 4 3 5q2 5 14.5 8.5t24.5 5.5l4 97q-43 -73 -100 -130.5t-129 -93.5 q-56 -27 -121 -40t-131 -13q-48 0 -94.5 7t-88.5 18q-94 27 -168.5 83.5t-127.5 130.5t-83.5 159.5t-35.5 169.5z" />
<glyph unicode="&#x153;" horiz-adv-x="1337" d="M39 336q0 82 20 149.5t51.5 121t71.5 92.5t80 65.5t77 39.5t64 15q14 1 12.5 -3t-7.5 -9t-10.5 -10t3.5 -6q7 -2 11.5 -4t9.5 -5l8 9q7 5 13.5 5t11.5 -1.5t8 -1.5t4 6q2 11 7.5 12.5t25.5 1.5q14 0 41 -9t58.5 -32t62 -62t51.5 -98q28 49 64 90.5t75.5 71.5t81.5 47 t82 17q73 0 120.5 -23t76 -57t40 -72.5t11.5 -69.5q0 -30 -15 -68.5t-48 -73t-86 -58t-130 -23.5q-41 0 -73 11.5t-57 29t-43 38t-30 38.5q-18 -62 -18 -145q0 -57 16.5 -102.5t45.5 -77.5t69 -49t88 -17q60 0 105 20.5t79 51.5t58 67.5t42 67t31.5 50.5t26.5 19q6 0 6 -10 q0 -5 -1 -10t-3 -10v-7q0 -6 1 -20t1 -33q0 -24 -7 -59.5t-22.5 -74.5t-41.5 -78t-64 -70t-89.5 -50.5t-117.5 -19.5q-42 0 -86.5 11.5t-85.5 35t-76 60t-59 87.5q-50 -86 -126.5 -133t-170.5 -47q-32 0 -70 7.5t-76 24.5t-74 45t-64 69t-44.5 96t-15.5 127zM211 348 q0 -69 12.5 -125t36.5 -95.5t58.5 -61t78.5 -21.5q39 0 77.5 22t68.5 66t48.5 109t18.5 151q0 87 -23 146t-51.5 95.5t-54.5 52t-32 15.5h-19.5t-15.5 7l-11 6q-35 -21 -69 -57t-61.5 -83t-44.5 -105t-17 -122zM803 569q14 7 25 12t14 5q2 0 6 -4q23 -39 57.5 -55.5 t77.5 -16.5q34 0 58.5 11.5t40.5 29.5t23 39.5t7 42.5q0 45 -23 74.5t-63 29.5q-18 0 -46.5 -7.5t-60 -26.5t-62.5 -51.5t-54 -82.5z" />
<glyph unicode="&#x178;" horiz-adv-x="1020" d="M-3 1378q-1 8 0 13.5t3 7.5q4 2 11 4q6 2 15 2.5t23 -0.5q4 -12 7 -15t6 -1.5t6 6t6 6.5q11 11 14 12t14 -8q10 -9 15 -5t14 19q9 13 20.5 6.5t26.5 -24.5l15 -17q12 -14 37 -50.5t57.5 -86.5t70 -109.5t74.5 -119.5t71 -116t60 -99q21 37 56.5 92.5t76.5 117.5t85 125.5 t83 117.5t69.5 92.5t45.5 50.5q7 6 12.5 9t10 4.5t9 1.5t9.5 1q15 0 19.5 -2t6 -4t3 -3.5t8.5 -0.5q15 2 29 2t16 -6q0 -2 3 -3t21 -1q7 0 8 -3.5t-10 -11.5q-2 -2 -2 -3.5v-3.5t-1.5 -5.5t-6.5 -9.5q-9 -10 -33 -40t-57 -72.5t-72.5 -94.5t-81 -107t-82 -109.5t-75.5 -102 t-61 -84t-38 -56.5v-32q0 -38 -1.5 -92t-3.5 -114.5t-4 -122.5t-4 -115t-3.5 -93t-1.5 -57q0 -14 -1.5 -21t-4.5 -9.5t-8.5 -2.5h-14.5t-10 6t-4 8q-3 1 -4 -4t-1 -11t-0.5 -11t-2.5 -5q-6 0 -12.5 3.5t-12 7.5t-10 6.5t-6.5 1.5t-1 -4t1 -6t-1 -4.5t-5 0.5q-5 1 -10 4.5 t-9 6t-6.5 2t-3.5 -6.5q-2 -14 -3 -27.5t-7 -11.5q-10 2 -26 8t-19 25q-2 12 -2 30v41q0 51 2.5 119t5.5 139t5.5 137t2.5 113q0 64 -6 76q-5 8 -31 49.5t-64.5 102t-85 133.5t-91 144.5t-83 134.5t-61.5 104q-4 7 -6 15.5t-3 16.5zM350 1647q0 12 5 28t13 32t17.5 29 t18.5 18q14 8 22 8h16q38 0 58 -19t22 -65q1 -12 -0.5 -26.5t-6 -28.5t-12 -24.5t-18.5 -14.5q-28 -11 -47 -11q-15 0 -26.5 5.5t-22.5 13.5q-17 9 -28 24.5t-11 30.5zM647 1659q-1 12 0.5 26.5t6 28.5t12 25t18.5 15q14 5 26 7.5t21 2.5q16 0 27 -5.5t22 -13.5 q17 -9 28 -24t11 -31q0 -12 -5 -28t-13 -32t-17 -29t-18 -17q-14 -8 -22.5 -8.5t-16.5 -0.5q-37 0 -57.5 19t-22.5 65z" />
<glyph unicode="&#x2c6;" horiz-adv-x="922" d="M182 965q0 8 14 27.5t36 46t49.5 56t55 57.5t51 51.5t38.5 37.5q8 6 16.5 14.5t16.5 8.5q2 0 8.5 -0.5t14 -1.5t14 -1.5t8.5 -0.5q3 0 11 2t11 2q2 0 13 -0.5t14 -3.5q6 -6 10 -9.5t8 -9.5t9.5 -16t15 -28t24.5 -46t39 -70q16 -30 30.5 -51t25 -36t16.5 -26t6 -20 q0 -3 -6.5 -5.5t-15.5 -4t-18.5 -2t-14.5 -0.5q-17 0 -30 -1t-27 -3q-18 0 -31.5 20t-28.5 51.5t-33 70t-43 75.5q-30 -27 -59.5 -64t-55 -70.5t-46.5 -57t-35 -23.5q-3 0 -9.5 1t-13 2.5t-12.5 2.5t-8 2q-6 2 -17.5 1.5t-23 0t-19.5 5t-8 16.5z" />
<glyph unicode="&#x2dc;" horiz-adv-x="922" d="M186 1065q0 14 10.5 43.5t29 60t44 53.5t56.5 25q40 2 68.5 -14t55 -36t53.5 -37t64 -17q25 0 42.5 20t25.5 58q2 12 8.5 17t22.5 5q7 0 11.5 -2t8.5 -4.5t8.5 -4.5t10.5 -1q11 3 22.5 -4.5t11.5 -20.5q0 -18 -10 -50t-29 -63t-47 -54t-65 -23q-41 0 -74 17t-60 38 t-49 38t-40 17q-22 0 -35 -14.5t-22 -32.5t-15.5 -33t-13.5 -16q-13 -2 -20 -8t-23 -6q-8 0 -17.5 11t-19.5 11q-11 0 -12 10.5t-1 16.5z" />
<glyph unicode="&#x2000;" horiz-adv-x="966" />
<glyph unicode="&#x2001;" horiz-adv-x="1933" />
<glyph unicode="&#x2002;" horiz-adv-x="966" />
<glyph unicode="&#x2003;" horiz-adv-x="1933" />
<glyph unicode="&#x2004;" horiz-adv-x="644" />
<glyph unicode="&#x2005;" horiz-adv-x="483" />
<glyph unicode="&#x2006;" horiz-adv-x="322" />
<glyph unicode="&#x2007;" horiz-adv-x="322" />
<glyph unicode="&#x2008;" horiz-adv-x="241" />
<glyph unicode="&#x2009;" horiz-adv-x="386" />
<glyph unicode="&#x200a;" horiz-adv-x="107" />
<glyph unicode="&#x2010;" horiz-adv-x="715" d="M41 442q0 7 1 16t3.5 17.5t6.5 14.5t9 8q20 5 57 8.5t84 6t101 4t108 2.5t106 1h95q15 0 26.5 -7.5t19.5 -17.5t12 -20t4 -14q0 -31 -17 -55.5t-63 -26.5q-9 -1 -47 -2t-90.5 -2t-112.5 -2.5t-112 -2.5t-88.5 -2t-43.5 -1q-21 0 -33 10.5t-18 24t-7 25.5t-1 15z" />
<glyph unicode="&#x2011;" horiz-adv-x="715" d="M41 442q0 7 1 16t3.5 17.5t6.5 14.5t9 8q20 5 57 8.5t84 6t101 4t108 2.5t106 1h95q15 0 26.5 -7.5t19.5 -17.5t12 -20t4 -14q0 -31 -17 -55.5t-63 -26.5q-9 -1 -47 -2t-90.5 -2t-112.5 -2.5t-112 -2.5t-88.5 -2t-43.5 -1q-21 0 -33 10.5t-18 24t-7 25.5t-1 15z" />
<glyph unicode="&#x2012;" horiz-adv-x="715" d="M41 442q0 7 1 16t3.5 17.5t6.5 14.5t9 8q20 5 57 8.5t84 6t101 4t108 2.5t106 1h95q15 0 26.5 -7.5t19.5 -17.5t12 -20t4 -14q0 -31 -17 -55.5t-63 -26.5q-9 -1 -47 -2t-90.5 -2t-112.5 -2.5t-112 -2.5t-88.5 -2t-43.5 -1q-21 0 -33 10.5t-18 24t-7 25.5t-1 15z" />
<glyph unicode="&#x2013;" horiz-adv-x="1024" d="M41 442q0 11 4.5 26.5t15.5 18.5q32 4 89.5 7t130.5 5.5t157 3.5t169.5 2t166.5 1h148q15 0 26 -6.5t19 -14.5t12 -16t4 -12q0 -25 -16.5 -44.5t-63.5 -21.5q-11 0 -49.5 -1t-94 -1.5t-124 -1.5t-139 -2t-138.5 -1.5t-122.5 -1t-91 -1t-44.5 -0.5q-21 0 -33 8.5t-18 19.5 t-7 21t-1 12z" />
<glyph unicode="&#x2014;" horiz-adv-x="2048" d="M0 442q0 11 4.5 26.5t15.5 18.5q55 3 143 5.5t201 4.5t245 3.5t274 2.5t289 1.5t290 1t276.5 0.5h248.5q14 0 25.5 -6.5t19.5 -14.5t12 -16t4 -12q0 -25 -16.5 -44.5t-63.5 -21.5q-21 0 -84 -0.5t-157 -1t-212 -1.5t-248.5 -1.5t-266 -1t-264.5 -1.5t-245 -1.5t-207 -1 t-150.5 -0.5h-74.5q-21 0 -33 8.5t-18 19.5t-7 21t-1 12z" />
<glyph unicode="&#x2018;" horiz-adv-x="283" d="M66 1133v14q0 32 7 70.5t25 97.5q11 35 34.5 62.5t51.5 47.5q7 5 18 7t23 2t23.5 -2t21 -5.5t15 -8.5t4.5 -11q0 -2 -2 -3.5t-4 -4.5q-38 -31 -58 -75t-26 -89q55 -31 55 -68q0 -13 -6 -30.5t-14.5 -35t-19 -32t-19.5 -20.5q-16 -8 -24.5 -8.5t-16.5 -0.5q-42 0 -65 21 t-23 72z" />
<glyph unicode="&#x2019;" horiz-adv-x="283" d="M47 1067q0 2 2 3.5t4 4.5q37 29 56.5 74.5t25.5 89.5q-53 32 -53 68q0 13 6 30.5t14.5 35t19 32t19.5 20.5q16 8 24.5 8.5t16.5 0.5q42 0 65 -21t23 -72q0 -21 -1.5 -41.5t-5.5 -42t-10 -45.5t-15 -53q-11 -35 -35 -62.5t-51 -47.5q-7 -5 -18 -7t-23 -2t-23.5 2t-21 5.5 t-15 8.5t-4.5 11z" />
<glyph unicode="&#x201a;" horiz-adv-x="283" d="M-18 -150q0 2 2 4t4 5q37 31 56 75t26 89q-26 15 -40 32.5t-14 34.5q0 13 6 31t15 35.5t19.5 32t19.5 20.5q15 8 24 8h17q42 0 65 -20.5t23 -71.5v-14q0 -32 -7 -71t-26 -97q-11 -35 -34.5 -63t-51.5 -48q-6 -5 -17.5 -6.5t-23.5 -1.5t-23.5 2t-20.5 5t-14.5 8t-4.5 11z " />
<glyph unicode="&#x201c;" horiz-adv-x="528" d="M66 1133q0 21 1.5 41.5t5.5 42t10 45.5t15 53q11 35 34.5 62.5t51.5 47.5q7 5 18 7t23 2t23.5 -2t21 -5.5t15 -8.5t4.5 -11q0 -2 -2 -3.5t-4 -4.5q-38 -31 -58 -75t-26 -89q55 -31 55 -68q0 -13 -6 -30.5t-14.5 -35t-19 -32t-19.5 -20.5q-16 -8 -24.5 -8.5t-16.5 -0.5 q-42 0 -65 21t-23 72zM311 1133q0 46 9 90t24 92q11 35 34.5 62.5t51.5 47.5q6 5 17.5 7t23.5 2t23.5 -2t21 -5.5t15 -8.5t4.5 -11q0 -2 -2.5 -3.5t-4.5 -4.5q-37 -31 -57 -75t-27 -89q56 -32 56 -68q0 -13 -6 -30.5t-15 -35t-19.5 -32t-19.5 -20.5q-15 -8 -24 -8.5 t-17 -0.5q-42 0 -65 21t-23 72z" />
<glyph unicode="&#x201d;" horiz-adv-x="528" d="M47 1067q0 2 2 3.5t4 4.5q37 29 56.5 74.5t25.5 89.5q-53 32 -53 68q0 13 6 30.5t14.5 35t19 32t19.5 20.5q16 8 24.5 8.5t16.5 0.5q42 0 65 -21t23 -72q0 -21 -1.5 -41.5t-5.5 -42t-10 -45.5t-15 -53q-11 -35 -35 -62.5t-51 -47.5q-7 -5 -18 -7t-23 -2t-23.5 2t-21 5.5 t-15 8.5t-4.5 11zM293 1067q0 2 2 3.5t4 4.5q37 29 56.5 74.5t25.5 89.5q-53 32 -53 68q0 13 5.5 30.5t14.5 35t19.5 32t19.5 20.5q16 8 24.5 8.5t16.5 0.5q42 0 65 -21t23 -72q0 -21 -1.5 -41.5t-5.5 -42t-10.5 -45.5t-15.5 -53q-11 -35 -34.5 -62.5t-51.5 -47.5 q-6 -5 -17 -7t-24 -2q-11 0 -22.5 2t-21 5.5t-15 8.5t-4.5 11z" />
</font>
</defs>
</svg>
