<?xml version="1.0" standalone="no"?>
<!DOCTYPE svg PUBLIC "-//W3C//DTD SVG 1.1//EN" "http://www.w3.org/Graphics/SVG/1.1/DTD/svg11.dtd" >
<svg xmlns="http://www.w3.org/2000/svg" xmlns:xlink="http://www.w3.org/1999/xlink" version="1.1">
<metadata></metadata>
<defs>
<font id="over_the_rainbowregular" horiz-adv-x="954" >
<font-face units-per-em="2048" ascent="1638" descent="-410" />
<missing-glyph horiz-adv-x="1024" />
<glyph horiz-adv-x="0" />
<glyph unicode="&#xd;" horiz-adv-x="1024" />
<glyph unicode=" "  horiz-adv-x="1024" />
<glyph unicode="&#x09;" horiz-adv-x="1024" />
<glyph unicode="&#xa0;" horiz-adv-x="1024" />
<glyph unicode="!" horiz-adv-x="764" d="M66 1094q18 154 67 313t113 304t135 266t137 198t117 102t75 -21q4 -4 4 -17t-4 -17q-116 -132 -221 -292t-180 -334t-109 -359t-10 -369q2 -16 23 -64t38 -104t17 -107t-42 -73q-26 -10 -43 5t-27 31q-70 106 -89 245t-1 293zM120 34q-12 48 3 78t39 43t51 9t38 -24 t0 -55t-61 -85q-8 -8 -20 -5t-22 10t-18 16t-10 13z" />
<glyph unicode="&#x22;" horiz-adv-x="624" d="M75 1462q3 74 14 134t31 99t54 39q38 0 57 -21t23 -53t-2 -73t-15 -79t-18 -71t-11 -51q-2 -16 -7 -60t-11 -94t-10 -94t-6 -62q-20 -12 -42 2t-28 32q-8 26 -16 83t-12 126t-1 143zM412 1541q0 67 4 125q8 20 28 30t42 10t42 -10t28 -30q0 -14 3 -58t5 -104t0 -127 t-10 -124t-24 -97t-44 -46q-6 2 -20 15t-16 19q-14 58 -22 125t-12 136t-4 136z" />
<glyph unicode="#" horiz-adv-x="1632" d="M34 868q24 36 59 49t75 16t82 1t80 2t70 19t50 53q6 8 19 37t31 68t38 84t37 84t30 68t19 39q26 44 53 92t60 92t74 78t93 52q22 8 40 -3t28 -31q-134 -142 -227 -311t-155 -349q20 -2 74 -2t113 4t107 11t54 19l312 592q2 4 16 18t30 31t32 32t26 21q4 4 17 4t17 -4 v-102l-278 -522l-34 -34q40 -6 79 0t77 16t76 17t80 1q16 -46 -2 -66t-58 -33t-94 -27t-109 -49t-105 -99t-82 -176q-2 -4 -2 -18t2 -18q78 -10 156 3t156 31t156 32t156 4v-104l-658 -104q-16 -2 -30 -45t-30 -105t-32 -132t-34 -123t-39 -79t-45 -2q-4 2 -9 12t-11 20 l-10 22q-4 12 -4 16q4 18 14 67t21 105t21 105t14 69q2 4 2 17t-2 17q-10 2 -52 -3t-88 -16t-84 -24t-38 -27v-276h-88l-66 242q-4 12 -36 4t-72 -21t-79 -21t-57 6q-34 22 -29 42t33 41t71 44t85 50t75 59t43 74q2 12 7 39t10 57t10 57t5 39h-310zM450 520q80 8 163 29 t147 64t97 113t11 178q-108 -8 -177 -20t-114 -43t-73 -90t-54 -161v-70z" />
<glyph unicode="$" horiz-adv-x="1354" d="M60 1626q-24 100 14 176t132 117t226 25v278q44 14 68 0t36 -47t15 -76t4 -87t4 -81t13 -57q12 -22 40 -53t62 -68t65 -78t51 -84t20 -85t-30 -82q-30 82 -84 168t-124 142q-8 -114 5 -245t29 -239q4 -4 17 -18t19 -18q126 -80 256 -164t230 -165t152 -155t21 -133 t-161 -98t-394 -49q-2 -18 6 -65t16 -104t13 -115t-2 -98t-31 -53t-72 19q-4 4 -17 18t-17 18q-2 48 -2 102t-5 109t-19 107t-44 98q-28 42 -69 74t-86 60t-90 57t-82 65t-61 83t-28 113q-4 46 -5 121t-1 147t1 125t5 57l34 36q-106 102 -130 202zM181 1684q-1 -48 17 -98 t62 -94q8 -8 31 -27t51 -42t53 -42t37 -27q4 -4 17 -4t17 4q10 114 0 226t-34 224q-54 38 -99 42t-79 -16t-53 -59t-20 -87zM206 1171q-2 -97 30 -187t93 -167t137 -123q18 -10 48 -27t58 -7q2 8 2 34t-2 36q-4 22 -13 81t-20 126t-22 126t-15 81q-52 62 -114 114t-128 96 q-52 -86 -54 -183zM210 1387q0 -17 16 -17q12 0 12 17t-12 17q-16 0 -16 -17zM633 986q-3 -64 3 -127t23 -124t51 -111q4 -4 18 -17t18 -17q214 -18 317 -2t125 56t-24 97t-129 121t-189 129t-204 119q-6 -60 -9 -124z" />
<glyph unicode="%" horiz-adv-x="2100" d="M48 895q-8 45 22 113q2 4 17 19t33 32t34 32t20 19l6 14q6 10 12 21t10 21t6 14q80 8 162 -13t160 -47t146 -43t122 -1q16 20 50 59t78 88t93 102t94 100t82 84t55 53q104 94 217 144t211 62t171 -10t97 -71t-9 -121t-148 -161t-322 -190t-529 -207q-50 -18 -89 -85 t-63 -161t-32 -201t5 -202t48 -165t97 -90q48 -16 110 -13t124 19t119 42t97 56q80 60 107 113t27 100t-14 92t-17 86t17 82t88 83q72 42 163 50t166 -20t115 -96t8 -178q-8 -30 -37 -52t-68 -39t-83 -30t-83 -23t-70 -17t-41 -13q-4 -2 -14 -18l-22 -32q-12 -18 -22 -34 t-12 -18q-54 -54 -145 -115t-195 -100t-207 -45t-181 50q-114 80 -162 196t-51 243t29 257t80 242q-6 2 -45 -22t-87 -56t-92 -61t-56 -35q-36 -14 -86 -22t-102 -7t-99 14t-77 40t-38 72zM204 919q0 -17 1 -31t3 -20q102 -16 176 3t136 101q-8 2 -54 15t-100 21t-102 3 t-56 -39q-2 -6 -3 -21t-1 -32zM450 1076q4 -16 18 -16t18 16q2 8 -4 12t-13 4t-14 -4t-5 -12zM1008 1110q8 -2 33 -2t35 2q22 6 69 21t97 32t92 31t54 20q204 90 307 178t125 151t-30 89t-158 -8t-258 -139t-332 -305q-4 -4 -10 -13t-11 -20t-9 -22t-4 -15zM1595 613 q5 -25 37 -57q66 -66 121 -70t90 25t46 76t-11 80t-81 39t-165 -46q-42 -22 -37 -47z" />
<glyph unicode="&#x26;" horiz-adv-x="1614" d="M49 215q5 51 33 102t69 97t88 83t91 59q20 10 74 35t115 53t115 52t76 34q-2 36 -3 124t-1 188t1 188t3 124q0 18 5 48t11 58t11 48t9 20h104q-4 -62 -7 -155t-2 -195t11 -202t32 -178q4 -2 49 5t109 20t137 33t132 44t96 52t29 59t-71 65t-203 68q-16 4 -25 17t-13 29 t-3 32t5 28q40 8 105 -4t132 -37t126 -60t88 -72t17 -74t-84 -65l-626 -244q-8 -4 -21 -46t-32 -108t-48 -146t-69 -156t-93 -139t-122 -98t-154 -31t-189 64q-64 36 -88 83t-19 98zM156 174q4 -8 14 -20l42 -42q10 -8 14 -8q124 -32 221 5t160 115t90 185t13 215 q-28 10 -86 -10t-127 -58t-140 -89t-123 -104t-77 -103t-1 -86z" />
<glyph unicode="'" horiz-adv-x="314" d="M52 1912q4 88 22 156t55 104t97 16q0 -12 1 -42t1 -63t-1 -63t-1 -42q-4 -34 -10 -83t-14 -102t-15 -106t-14 -96t-11 -70t-6 -29l-36 -34l-34 34q-10 28 -19 96t-14 152t-1 172z" />
<glyph unicode="(" horiz-adv-x="816" d="M40 818q18 154 73 309t136 302t167 273q28 38 50 64t45 35t50 2t63 -33q-66 -92 -146 -211t-150 -252t-120 -272t-55 -274t46 -259t181 -224q8 -6 46 -26t87 -45t101 -55t88 -59t47 -53t-19 -40q-12 2 -42 12l-64 20q-32 12 -62 23t-42 15q-200 80 -309 197t-149 257 t-22 294z" />
<glyph unicode=")" horiz-adv-x="938" d="M34 34q0 12 14 38t22 32q222 162 379 324t234 350t66 413t-125 511l-20 38q-14 30 -32 65t-34 65l-18 38q-2 4 -2 18t2 18q24 12 44 8t38 -16t33 -29t25 -33q140 -234 184 -463t1 -445t-170 -416t-327 -376q-4 -4 -30 -21t-59 -39t-67 -45t-52 -35q-32 -22 -54 -30 q-20 -8 -36 -4t-16 34z" />
<glyph unicode="*" horiz-adv-x="1024" d="M33 519q7 19 21 34t28 26t22 11h276q2 0 7 12t11 29t11 34t7 29q2 14 8 49t11 74t10 73t5 48q30 22 52 30q20 8 37 4t17 -34v-278q0 -34 24 -39t61 6t84 31t94 39t87 30t66 3q10 -16 1 -34t-24 -34t-31 -28l-14 -10q-18 -12 -62 -42t-94 -63t-95 -62t-63 -41 q-10 -42 -1 -81t23 -75t28 -68t14 -61t-21 -53t-77 -44l-106 210q-20 40 -46 23t-56 -60t-61 -97t-59 -90t-51 -40t-37 54q-2 8 -3 25t-1 34t1 30t3 17l174 240v36q-4 0 -42 -1t-85 4t-92 20t-61 47q-8 14 -1 33z" />
<glyph unicode="+" horiz-adv-x="1668" d="M16 450q-14 22 1 46t41 43t55 33t43 18q20 6 60 17t92 25t108 29t108 29t92 24t60 16q4 26 6 76t8 106t19 109t37 89q4 8 17 21t17 13q8 0 20 -4t23 -9t19 -11t8 -10v-346q20 -2 89 7t159 20t187 19t175 5t123 -22t31 -63q-2 -6 -15 -19t-19 -17q-18 0 -63 1t-95 1 t-94 -1t-62 -1q-46 -2 -116 -7t-136 -10t-114 -10t-50 -7l-34 -36l-6 -30q-4 -28 -10 -73t-14 -103l-16 -114q-8 -56 -14 -109t-10 -91q-2 -24 -4 -49t-12 -41t-30 -21t-58 7q-2 14 -3 48t-1 73t1 74t3 49q6 90 24 188t10 192q-62 16 -119 5t-113 -36t-109 -56t-106 -55 t-106 -36t-107 4z" />
<glyph unicode="," horiz-adv-x="590" d="M-33 -453q1 15 8 26t19 20t22 21q60 80 107 144t84 128t66 139t55 179q12 52 4 98t-22 88t-22 81t4 79q8 24 28 32t41 5t41 -14t30 -23q36 -36 41 -107t-12 -162t-53 -194t-81 -200t-96 -182t-98 -140t-87 -73t-64 18q-16 22 -15 37z" />
<glyph unicode="-" d="M14 584q6 12 18 21t27 13t27 6q26 6 83 17t129 25t151 29t152 29t130 24t85 16q46 8 58 -8t5 -42t-26 -52t-37 -38q-58 8 -137 -2t-162 -27t-167 -37t-153 -30t-118 -6t-63 34q-8 16 -2 28z" />
<glyph unicode="." horiz-adv-x="500" d="M142 107q8 39 32 73t58 59t71 29t71 -17t56 -77q14 -34 3 -67t-37 -58t-62 -42t-71 -21t-66 7t-45 41q-18 34 -10 73z" />
<glyph unicode="/" horiz-adv-x="1024" d="M12 87q0 13 4 17l18 76q14 52 31 117t35 137t36 137t32 117t22 76q36 112 85 227t108 226t125 216t134 199q20 26 57 68t76 80t70 66t39 28h70v-70q-18 -18 -63 -67t-95 -104t-94 -105t-60 -70q-6 -6 -16 -20t-21 -31t-21 -32t-12 -21q-14 -34 -45 -104t-69 -159 t-79 -187t-79 -188t-67 -161t-43 -105q-22 -52 -20 -115t1 -125t-16 -118t-69 -92q-4 2 -15 12t-22 21t-21 22t-12 15q-4 4 -4 17z" />
<glyph unicode="0" horiz-adv-x="1128" d="M59 407q3 99 22 216t54 242t85 242t114 217t141 166t167 88t192 -16q86 -32 130 -97t78 -147q0 -22 1 -81t1 -126t-1 -126t-1 -81q-4 -52 -43 -152t-103 -214t-147 -226t-175 -191t-186 -109t-180 22q-24 14 -46 40t-40 55t-31 60t-21 55q-14 64 -11 163zM153 404 q-1 -74 19 -135t72 -95q76 -52 142 -38t134 72q140 120 230 252t138 263t59 253t-5 222t-55 170t-92 96t-115 2t-124 -112q-30 -44 -71 -94t-80 -102t-74 -108t-53 -112q-10 -30 -31 -90t-42 -134t-36 -155t-16 -155z" />
<glyph unicode="1" horiz-adv-x="632" d="M114 1540q-2 8 20 44t60 86t86 108t97 109t92 89t72 50t37 -10t-12 -92q-6 -18 -20 -63t-31 -95t-32 -94t-23 -62q-4 -36 -12 -112t-19 -172t-22 -202t-21 -202t-18 -172t-10 -112q-6 -80 -6 -99t1 -12t3 26t2 17q-2 -40 -5 -111t-6 -149t-5 -149t-4 -109q0 -20 -9 -38 t-24 -30t-34 -14t-37 12v70q12 228 18 422t16 380t30 377t60 413q-18 -22 -45 -46t-60 -42t-69 -24t-70 8z" />
<glyph unicode="2" horiz-adv-x="1424" d="M50 87q0 17 1 32t1 21q14 98 49 187t92 162t134 125t175 80q48 88 92 185t75 199t43 207t-2 207l-278 -242h-68v68l312 314q38 38 71 36t57 -24t36 -56t10 -60q-4 -24 -9 -64t-10 -79t-10 -69t-5 -32q-8 -30 -32 -104t-52 -157t-53 -157t-37 -102q-30 -30 -18 -50t40 -32 q32 -14 82 -22q46 -4 105 4t122 22t126 30t117 29t94 19t60 0q10 -4 24 -17t10 -17l-68 -106q-4 -6 -46 -22t-97 -32t-112 -31t-91 -19q-26 -4 -90 -5t-137 -1t-137 1t-90 5q-12 -20 -46 -70t-72 -105t-74 -104t-50 -67q-16 -20 -41 -52t-56 -59t-69 -39t-76 10q0 6 -1 21 t-1 32zM142 138q0 -18 14 -18q12 0 12 18t-12 18q-14 0 -14 -18zM188 244q0 -26 2 -36h36l206 312h-34q-12 0 -43 -27t-65 -64t-63 -79t-37 -72q-2 -8 -2 -34z" />
<glyph unicode="3" horiz-adv-x="1008" d="M29 363q-1 63 5 123q18 12 38 -16t43 -75t52 -105t66 -106t85 -77t108 -18t135 70t169 187q126 172 136 301t-62 195t-212 59t-314 -103q-44 0 -27 32t67 84t121 115t135 125t110 115t46 85v34q-30 10 -70 -4t-84 -39t-88 -53t-84 -43t-73 -10t-53 45q-8 16 0 33t21 32 t27 25l22 14q26 8 90 29t136 43t136 41t88 27q8 2 35 2t35 -2q16 -56 -5 -120t-57 -125t-78 -116t-68 -91q24 8 57 -8t47 -28q92 -74 132 -168t37 -195t-41 -202t-100 -190t-140 -159t-162 -107t-166 -37t-150 52q-52 40 -83 93t-46 113t-16 123z" />
<glyph unicode="4" horiz-adv-x="1232" d="M34 590q10 26 28 80t42 123t51 144t51 144t43 123t29 80q6 18 21 46t35 46t42 17t40 -39q-6 -16 -21 -55t-32 -83t-31 -84t-18 -56q-4 -10 -4 -35t4 -33q16 -2 61 -19t101 -41t118 -50t114 -44t87 -26t39 6l242 936q6 26 25 32t39 -1t33 -25t7 -42l-172 -762v-104 q8 4 27 14t41 21t41 21t27 14h36q-52 -40 -92 -73t-70 -68t-50 -76t-30 -97q-4 -22 -13 -68t-19 -104t-21 -123t-21 -123t-18 -104t-12 -68q-8 -6 -20 -13t-27 -13t-30 -9t-27 1q0 6 -1 21t-1 31t1 31t1 21q2 12 7 50t12 87t15 106t15 106t12 87t7 50q0 6 1 21t1 31t-1 31 t-1 21q-22 8 -81 29t-126 43t-127 42t-84 26q-38 10 -72 -16t-65 -69t-59 -90t-53 -78t-50 -34t-47 43z" />
<glyph unicode="5" horiz-adv-x="1110" d="M67 303q-7 81 2 161t28 139t44 87t49 4q4 -18 -4 -75t-14 -132t-6 -154t18 -138t60 -88t120 -3q116 40 153 102t21 138t-69 159t-115 163t-119 150t-79 122q-46 100 -36 172t48 119t95 71t106 29t79 -8t18 -37l558 174q38 12 52 -6t10 -45t-21 -54t-41 -35l-626 -208 q-34 -10 -60 17t-44 53q-34 -8 -41 -42t-1 -73t20 -76t22 -51q12 -16 37 -48t56 -73t65 -86t64 -87t54 -75t36 -49q44 -62 49 -136t-19 -145t-72 -130t-109 -92t-130 -33t-135 50q-58 44 -87 116t-36 153z" />
<glyph unicode="6" horiz-adv-x="920" d="M39 331q-1 71 6 140t19 128t22 95q4 18 21 71t39 125t49 155t52 162t47 145t36 106q4 14 11 33t19 33t29 17t43 -13v-104l-242 -800v-380q0 -20 22 -46t48 -43t48 -16t22 35q6 26 25 90t41 136t42 136t28 88q4 14 31 54t64 87t82 91t86 67t73 14t48 -69q14 -98 3 -205 t-47 -210t-93 -191t-135 -149t-176 -84t-212 5q-56 14 -88 58t-47 106t-16 133zM462 242q0 -22 1 -41t3 -27q70 24 134 94t109 157t65 178t6 161h-104q-2 0 -15 -20t-30 -47t-34 -57t-25 -50q-10 -18 -26 -59t-32 -85t-30 -82t-18 -50q-2 -10 -3 -30t-1 -42z" />
<glyph unicode="7" horiz-adv-x="1076" d="M26 1068q-8 28 8 112q4 20 22 49t40 56t44 46t34 23l834 188v-118q-14 -42 -39 -132t-56 -203t-65 -238t-65 -238t-55 -203t-34 -132q-4 -14 -9 -48t-10 -73t-10 -74t-5 -49q-16 -10 -47 -27t-57 -7v140l342 1292l-654 -182q-2 -2 -24 -30t-51 -64t-60 -68t-53 -40 t-30 20z" />
<glyph unicode="8" horiz-adv-x="1180" d="M60 124q-4 60 9 124t36 120t35 82q10 22 39 77t62 116t64 115t43 76q20 74 0 153t-48 162t-50 169t-6 174q14 8 37 20t48 22t49 18t38 10q30 2 77 3t91 1t76 -1t34 -3l104 -138q4 -4 -10 -18t-24 -18q-4 -2 -17 -2t-17 2t-20 13t-33 23t-33 23t-20 11q-14 2 -48 3t-73 1 t-73 -1t-48 -3q-30 -16 -35 -50t2 -73t18 -73t15 -48q6 -22 18 -57t22 -68t18 -57l10 -24h36l556 520q42 38 65 36t29 -26t-2 -58t-24 -56q-18 -24 -50 -48t-68 -46t-70 -42t-54 -38q-26 -24 -62 -59t-75 -72t-76 -75t-67 -69t-49 -50t-19 -21v-590q0 -60 -44 -127 t-108 -115t-136 -64t-128 26q-40 30 -44 90zM174 174q10 -44 49 -45t82 21t77 59t34 69v382l-34 70q-40 -52 -83 -120t-76 -143t-49 -151t0 -142z" />
<glyph unicode="9" horiz-adv-x="816" d="M54 1384q6 90 46 170t107 141t149 84t173 0t181 -111q22 -22 40 -26t28 -9t11 -18t-9 -53l-382 -1458q22 -34 10 -56t-39 -34t-59 -15t-50 1v70l276 1040v244q-40 -30 -94 -62t-114 -55t-122 -32t-120 9q-38 80 -32 170zM186 1389q0 -23 1 -43t3 -28q40 -12 91 -4t102 30 t96 57t74 78t36 91t-17 98q-52 36 -115 29t-118 -41t-97 -88t-52 -110q-2 -8 -3 -27t-1 -42z" />
<glyph unicode=":" horiz-adv-x="538" d="M31 1121q-7 31 14 58t63 48t89 35t92 19t73 -2t32 -27t-30 -54l-174 -174q-2 -2 -15 -2t-19 2q-8 4 -35 16t-35 18q-48 32 -55 63zM190 294q-8 50 5 100t39 91t61 71t68 40t61 -2t42 -56q12 -34 -2 -75t-43 -78t-67 -68t-73 -46t-61 -12t-30 35z" />
<glyph unicode=";" horiz-adv-x="434" d="M-208 -590q110 120 198 240t145 251t77 275t-6 310q12 34 45 39t61 -5q38 -100 39 -201t-24 -199t-71 -193t-102 -185t-115 -173t-109 -159q-26 -34 -69 -34t-69 34zM64 833q0 23 1 43t5 28q12 38 46 61t75 34t83 12t72 -3q20 -52 -3 -102t-69 -87t-103 -54t-101 -1 q-4 8 -5 27t-1 42zM194 902q0 -18 12 -18q16 0 16 18t-16 18q-12 0 -12 -18z" />
<glyph unicode="&#x3c;" horiz-adv-x="1614" d="M29 430q11 24 47 43t78 31t54 16q26 14 81 47t124 73t144 86t144 87t123 74t80 51q22 14 52 45t66 59t76 41t82 -7q14 -22 -14 -56t-83 -76t-129 -88t-153 -92t-154 -90t-131 -82t-85 -65t-15 -41q128 -10 275 -49t292 -91t277 -107t232 -99q24 -12 31 -34t0 -42t-24 -30 t-41 0q-24 12 -78 36t-123 52t-144 58t-144 57t-124 47t-81 30q-66 20 -154 36t-184 25t-189 11t-167 -6q-52 26 -41 50z" />
<glyph unicode="=" horiz-adv-x="1874" d="M66 735q0 13 2 17q4 6 17 20t17 16q156 54 338 98t370 73t372 40t344 -3q8 -26 2 -60t-38 -44q-154 20 -329 9t-350 -39t-340 -68t-299 -76h-104q-2 4 -2 17zM102 336q-12 24 14 45t64 35t77 21t53 5l1286 174h240q14 -22 12 -41t-14 -34t-29 -23t-35 -8h-454l-1110 -208 q-34 -6 -61 -3t-43 37z" />
<glyph unicode="&#x3e;" horiz-adv-x="1562" d="M32 1115q10 15 30 23t42 10t36 -4q8 -2 28 -11t42 -20t41 -21t27 -16l1214 -242q8 -2 8 -16t-8 -20q-60 -60 -160 -114t-215 -108t-236 -112t-225 -127t-178 -151t-98 -186l-136 34q-8 2 -6 32t11 61t26 49t39 -2q24 20 75 59t115 87t136 101t137 100t117 84t78 55 q14 10 54 30l84 42q44 22 84 40q38 18 54 26q-130 22 -284 38q-156 18 -318 46t-320 73t-292 121q-12 24 -2 39z" />
<glyph unicode="?" horiz-adv-x="1284" d="M37 919q1 31 33 53l868 590q66 44 84 76t2 54t-59 35t-100 20t-122 7t-123 -2t-104 -7t-66 -11q-60 -16 -71 3t11 48t68 57t98 32q26 2 83 4t126 -2t140 -17t124 -41t78 -73t3 -113q-2 -8 -11 -24t-20 -33t-22 -31t-15 -16l-764 -520q-16 -12 -39 -42t-32 -60t4 -53 t67 -19q26 -4 90 -5t136 -1t136 1t90 5q10 0 42 8t74 19t91 23t91 23t74 20t42 11h70q8 -26 3 -60t-37 -44q-90 -24 -225 -57t-283 -53t-289 -16t-243 56q-22 10 -47 35t-41 57t-15 63zM672 125q10 41 43 61t76 12t77 -58q18 -26 1 -59t-48 -54t-67 -24t-60 31 q-32 50 -22 91z" />
<glyph unicode="@" horiz-adv-x="2032" d="M51 665q11 101 35 169q54 162 130 303t177 259t231 212t296 162q62 26 139 39t156 13t155 -13t140 -39q170 -70 270 -171t140 -218t25 -241t-76 -243t-162 -226t-233 -185q-72 -44 -132 -56t-117 -2t-114 35t-121 57q-32 16 -65 11t-68 -19t-71 -32t-72 -27t-72 -4 t-70 37q-18 78 15 173t98 189t152 174t178 128t176 51t145 -57q12 -12 -18 -30t-83 -42t-120 -52t-133 -58t-121 -63t-81 -65q-68 -86 -85 -150t9 -92t91 -15t159 83q22 16 40 59t40 81t52 54t76 -20q6 -28 -5 -61t-23 -66t-18 -63t10 -54q22 -34 62 -45t87 -5t98 24t98 41 t84 47t59 42q140 120 198 243t52 237t-66 213t-157 174t-221 118t-258 45t-269 -45t-251 -151q-68 -62 -152 -159t-158 -213t-129 -243t-67 -249t31 -231t163 -189q4 -4 22 -14t40 -21t43 -21t31 -14q106 -46 132 -84t-13 -52t-133 7t-226 95q-80 44 -121 132t-53 190 t-1 203z" />
<glyph unicode="A" horiz-adv-x="1528" d="M74 104v70q14 18 45 56t68 86t79 101t79 101t66 86t43 58q16 21 16 51q0 20 -7 44q-17 61 -50 131t-71 140t-54 120q-8 24 -8 41q0 19 10 31q8 10 30 10q25 0 68 -14q28 -84 78 -172t128 -140q64 42 121 114t106 162t90 191t74 200t57 187t40 152q16 28 45 44t57 26 q14 -18 18 -88t4 -171t-3 -224t-4 -248v-83q0 -82 1 -161q2 -119 11 -210t27 -147t50 -56h210v-124h-174q-36 0 -28 -45t37 -115t68 -155t66 -163t31 -142v-11q0 -55 -36 -79q-8 -4 -35 -4t-35 4q-10 36 -40 124t-63 188t-63 188t-42 124q-2 10 -15 36t-21 34q-22 8 -81 27 t-125 42t-125 43t-83 28q-6 2 -26 13t-44 24t-44 23t-26 10q-38 0 -72 -46t-68 -114t-72 -145t-84 -139t-101 -97q-36 -23 -78 -23q-22 0 -45 6zM664 798q8 -6 33 -21t52 -32t52 -31t37 -18q12 -6 45 -21t72 -32t75 -31t52 -20q4 -2 16 -2t16 2q4 41 4 92.5t-4 113.5 q-8 124 -21 254t-27 249t-20 191z" />
<glyph unicode="B" horiz-adv-x="1718" d="M16 1250q-5 17 -5 35q0 40 28 84q41 63 123 129t195 132t239 125t253 109t238 85t195 53q63 14 100 13q12 0 22 -1q36 -8 46 -40q6 -20 6 -43q0 -14 -2 -28q-6 -39 -21 -77t-29 -56q-62 -88 -114 -159t-107 -134t-118 -126t-145 -137q41 -7 80 -7q26 0 51 3q63 8 124 17 t126 10h5q63 0 134 -23q44 -14 78 -30t59 -38t42 -55t29 -83q9 -43 9 -86q0 -75 -29 -148q-46 -114 -139 -216t-217 -191t-252 -161t-247 -124t-201 -82q-22 -10 -42 3t-28 31q-4 12 -4 38t4 32q2 2 11 7t20 11t22 11t17 7q88 24 175 52t171 64t162 83t150 111 q172 156 247 269t79 191v11q0 71 -49 114q-53 47 -134 70t-178 25h-27q-81 0 -153 -10q-83 -12 -140 -34t-59 -46l-70 -694q-2 -18 -19 -27t-36 -9t-34 9t-15 27v558h-140q-2 4 -2 17t2 17q8 10 27 35t41 53t42 52t30 32q2 26 7 90t10 136t10 137t7 89q1 11 1 21 q0 37 -12 56q-15 23 -41 24t-58 -14t-64 -37t-60 -46t-44 -38q-16 -16 -56 -55t-84 -84t-84 -84t-54 -55h-104zM780 1770l36 -68v-452q14 12 41 39t62 61t73 71t71 72t60 63t39 42q20 20 49 59t57 78t48 69t20 36v104q-20 3 -42 3q-45 0 -99 -13q-81 -20 -161 -51t-149 -64 t-105 -49z" />
<glyph unicode="C" horiz-adv-x="1268" d="M56 584q6 130 35 260t79 248t118 205t153 132q63 33 132 33q25 0 51 -4q4 -20 15 -69t22 -105t20 -105t13 -69q4 -22 -14 -48t-43 -42t-49 -15t-32 35q-6 20 -10 58t-10 80t-16 79t-28 53t-45 5t-65 -65q-12 -16 -29 -43t-34 -55t-29 -50t-12 -26l-104 -556 q-9 -44 -8 -83q0 -44 10 -82q20 -73 64 -124t108 -80t135 -32h18q62 0 126 18q73 21 137 71q24 18 63 68t83 113t92 132t90 124t74 89t48 30q14 -42 14 -86q0 -49 -17 -100q-33 -98 -108 -191t-180 -173t-219 -132t-226 -68q-34 -5 -67 -5q-72 0 -133 25q-82 32 -133 115 t-73 194q-17 87 -17 186q0 27 1 55z" />
<glyph unicode="D" horiz-adv-x="1404" d="M-4 1236q-4 9 -4 17q0 26 35 52q47 35 137 62t210 44q107 15 221 15h27q128 -2 252 -27t222 -80t158 -143t60 -218q0 -46 -16 -98t-41 -104t-56 -99t-61 -79q-14 -16 -46 -49t-73 -75t-87 -87t-87 -86t-74 -73t-49 -48q-6 -48 -16 -88t-30 -62t-51 -21t-77 33 q-44 -30 -93 -85t-101 -106t-108 -81q-31 -17 -62 -17l-50 11v70l414 346q4 2 9 51t11 115t10 136t6 116q0 26 1 74t1 107t1 123q0 32 0.5 62t-0.5 59q-1 57 -2 101t-1 64q0 8 -5 28t-10 42t-11 41t-10 27q-21 2 -42 2q-49 0 -100 -10q-72 -14 -142 -32t-139 -30 q-34 -6 -67 -6t-64 6zM724 300q126 52 223 153t154 221t69 243q3 27 3 53q0 91 -33 164q-42 94 -143 145q-69 35 -170 35q-48 0 -103 -8v-1006z" />
<glyph unicode="E" d="M34 346q4 28 10 88t14 135t15 159t14 159t11 135t6 88q2 16 2 56v166q0 40 -2 56l36 36l624 208h70q10 -28 3 -60t-39 -44l-520 -210l-34 -34q-2 -2 -6 -42t-10 -95t-12 -113t-8 -96q0 -10 -1 -35t-1 -52t1 -52t1 -35l590 312q14 8 21 -4t7 -32t-7 -40t-21 -28 q-34 -22 -83 -50t-102 -59t-106 -61t-95 -54t-69 -39t-29 -15h-140v-450q0 -92 41 -118q26 -16 61 -16q20 0 43 5q63 15 137 59t139 94t112 93t57 55q8 50 22 82q12 28 32 40t50 -18q3 -17 3 -35q0 -47 -22 -99q-31 -72 -89 -140t-137 -125t-160 -90t-157 -36h-10 q-70 0 -122 39q-78 58 -103 138t-37 174z" />
<glyph unicode="F" horiz-adv-x="1354" d="M37 1070q3 26 15 40q12 18 39 54t61 80t72 94t72 94t61 79t41 51q80 8 151 46t141 75t143 57q32 9 66 9q44 0 91 -15q46 -46 57 -112q6 -33 5.5 -68.5t-5.5 -74.5q-11 -77 -36 -159t-48 -159t-38 -144q-9 -40 -9 -73q0 -22 4 -40q22 -7 43 -7q26 0 51 10q46 19 93 46 t95 48q29 13 58 13q20 0 40 -6q10 -28 -7 -58t-27 -46q-20 -6 -70 -25t-105 -42t-104 -43t-67 -30q-6 -4 -16 -13t-22 -20t-21 -21t-11 -16q-6 -26 -16 -90t-22 -135t-21 -135t-11 -90q-4 -26 1 -63q4 -31 4 -61v-12q-1 -36 -16 -66t-59 -42l-34 34q-2 2 -3 34t-1 77t1 92 t3 77q0 4 6 45t14 97t12 113q3 38 3 66q0 14 -1 25q-4 2 -17 2t-17 -2q-16 -6 -56 -26t-84 -43t-84 -43t-54 -28q-42 21 -42 45q0 3 1 7q7 28 46 57t100 61t120 66t104 71t53 77l140 658q6 26 -4 43t-27 25t-38 8t-35 -6q-28 -10 -73 -31t-90 -43t-79 -41t-38 -25l-450 -484 q-18 -22 -30 -14t-17 29t-2 47z" />
<glyph unicode="G" horiz-adv-x="1198" d="M62 585q2 87 8 145q2 22 11 81t20 126t22 126t17 81q52 216 115 348t128 201t129 83q26 6 49 6q35 0 66 -13q51 -21 86 -67t44 -99q3 -15 3 -31q0 -37 -16 -72q-22 -50 -84 -76q-10 -4 -25 -7t-29 -3t-23 3t-9 7v208q0 6 -21 6t-33 -6q-66 -38 -120 -125t-95 -188 t-66 -196t-31 -151q-2 -22 -4 -68t-3 -105t-1 -123t1 -122t3 -105t4 -69q0 -34 18 -71t44 -70t56 -60t56 -39q44 -22 94 -22q26 0 53 6q79 18 156 72t147 132t121 162t76 166q17 55 17 101q0 22 -4 41q-32 4 -64 4l-84 -7q-74 -13 -147 -31t-147 -31q-42 -7 -84 -7 q-33 0 -66 4q-4 12 -5 28t3 31t13 27t25 18q72 0 160 28t178 58t174 50q44 11 82 11q35 0 64 -9q3 -31 3 -63q0 -86 -23 -183q-32 -134 -96 -260t-155 -232t-199 -165q-104 -57 -219 -57h-8q-119 2 -239 92q-62 46 -93 128t-43 174q-10 79 -10 154v25z" />
<glyph unicode="H" horiz-adv-x="1544" d="M48 882q0 12 4 22q10 20 33 33t49 20t51 10t41 5q0 30 4 104t10 157t11 157t9 102q0 6 11 31t26 55t33 56t33 36t25 -5t10 -67q0 -12 -5 -53t-12 -87t-12 -87t-5 -53q-2 -22 -3 -75t-1 -114t1 -115t3 -76q30 -7 72 -7q28 0 60 3q82 8 165 33t155 62t104 81q38 56 58 128 t36 147t40 149t72 134q58 70 115 96q45 20 84 20q11 0 21 -1q48 -7 83 -42t46 -85q5 -21 5 -44q0 -32 -9 -67q-15 -61 -67 -121q-14 -16 -43 -46t-66 -68t-78 -80t-79 -79t-69 -67t-45 -44q-9 -90 -9 -186q0 -32 1 -64q4 -130 20 -260t40 -256t50 -240h-136l-106 938 q0 2 -13 2t-21 -2q-70 -26 -113 -45t-73 -33t-54 -25t-54 -22t-75 -22t-117 -27v-694q0 -36 -16 -38t-35 15t-36 44t-17 49q-2 46 -6 111t-7 134t-7 137t-7 122t-5 86l-2 34l-174 70q-4 2 -4 14zM1058 1214q60 30 111 84t89 114t63 118t32 98t-5 54t-48 -14 q-52 -44 -101 -94t-73 -116q-4 -14 -14 -48t-21 -73t-20 -74t-13 -49z" />
<glyph unicode="I" horiz-adv-x="1614" d="M16 -155q8 17 21 32t28 26t21 15l520 206l36 36q-2 34 -3 105t-1 159v374q0 90 1 160t3 104q0 12 5 42t10 64t10 63t9 41h-450q-26 0 -33 14t-3 32t15 35t21 23q61 -4 122 -4q182 0 362 40q42 96 116 148t164 70q56 11 114 11q36 0 73 -4q97 -11 182 -39t150 -68t91 -81 q15 -23 15 -44q0 -16 -9 -32q-20 -35 -105 -54q-73 -16 -201 -16h-42q-158 3 -408 39q-50 -72 -77 -164t-36 -194q-6 -66 -6 -133q0 -38 2 -76q5 -107 18 -210t31 -198t34 -173q34 -7 69 -7q26 0 52 4q61 9 122 29t121 45t121 45t121 29q23 4 47 4q37 0 75 -9q10 -26 4 -60 t-38 -44q-162 -30 -351 -71t-384 -97t-381 -126t-342 -158l-36 36q-8 14 0 31zM850 1446q224 -42 357 -52q70 -5 120 -5q45 0 75 4q62 9 64 32t-38 47t-110 43t-152 22h-21q-72 0 -145 -17q-84 -20 -150 -74z" />
<glyph unicode="J" horiz-adv-x="1266" d="M3 1258q7 20 33 30l1146 382h104q14 -42 8 -61t-23 -27t-41 -10t-48 -8q-20 -6 -69 -20t-105 -31t-105 -32t-67 -21q-5 -46 -5 -91q0 -69 11 -138q18 -115 64 -221l346 174q28 14 55 4t40 -30t9 -43t-36 -35q-46 -18 -109 -37t-125 -45t-112 -64t-68 -98q-8 -20 -14 -93 t-15 -177t-24 -226t-39 -239t-60 -219t-88 -165t-122 -75q-12 -2 -24 -2q-61 0 -138 50q-72 48 -80 146q-2 19 -2 39q0 82 27 179q33 120 94 251t128 245t127 201t90 119q2 8 2 35t-2 35q-4 24 -13 83t-20 126t-22 126t-15 83q-10 18 -29 30t-41 2l-554 -206q-24 -10 -42 2 t-26 32t-1 40zM452 44q-8 -64 -8 -126t8 -122q21 -43 46 -43q8 0 16 4q34 17 69 76t67 146t57 171t41 150t18 86q2 18 2 66v210q0 50 -2 70q-84 -88 -149 -201t-107 -236t-58 -251z" />
<glyph unicode="K" horiz-adv-x="1338" d="M34 730q28 36 95 80t137 90t125 91t59 85l70 728q2 18 16 27t31 12t34 1t23 -4v-660l106 70l414 520h70q4 -15 4 -31q0 -34 -17 -75q-25 -60 -64 -116t-78 -101t-51 -59q-14 -14 -44 -42t-67 -63t-79 -72t-80 -71t-68 -61t-46 -39q92 -24 179 -57t169 -79q50 -30 89 -95 t69 -149t50 -178t31 -181t12 -160v-16q0 -62 -7 -99q-8 -42 -26 -44h-1q-18 0 -45 52q-10 58 -19 137t-24 165t-38 172t-62 159t-97 126t-140 75q-16 4 -39 6t-46 2t-39 -2t-16 -6l-68 -624q-2 -18 -11 -36t-22 -31t-32 -16t-41 13v716l-310 -196q-24 -14 -60 -3t-46 39z " />
<glyph unicode="L" horiz-adv-x="1302" d="M34 34v1424q0 6 8 12t19 12t23 9t20 1t20 -11t23 -19t19 -21t8 -17v-1110q24 30 81 41t135 15t171 5t189 10t189 32t171 69q74 44 101 45t19 -25t-48 -68t-99 -84t-133 -74t-152 -36q-20 -2 -60 -2t-92 -1q-26 0 -53 -0.5t-55 0.5q-56 1 -108 1h-92q-40 0 -60 2 q-24 -18 -49 -61t-54 -83t-63 -64q-18 -13 -38 -13q-19 0 -40 11z" />
<glyph unicode="M" horiz-adv-x="1996" d="M52 346l174 1286q0 8 14 20t32 20t35 9t23 -13l546 -1214l320 1214q2 6 22 31t44 47t46 33t28 -9l34 -138q6 -136 10 -316t22 -370t58 -374t120 -328q6 -10 20 -27t30 -33t32 -29t22 -15q20 -8 54 -2t70 9q11 1 21 1q25 0 48 -5q33 -7 49 -39t3 -51t-43 -29t-70 -12 q-16 -1 -32 -1l-48 2q-40 3 -74 9t-48 12q-68 26 -115 83t-80 126t-52 143t-31 134q-6 32 -15 101t-20 154t-22 180t-21 179l-18 154q-8 68 -10 100l-240 -972l-12 -22q-8 -18 -23 -39t-33 -41t-37 -29t-37 -5t-32 34l-522 1040l-138 -1040q-4 -28 -22 -35t-37 0t-34 25 t-11 42z" />
<glyph unicode="N" horiz-adv-x="1198" d="M33 642q-4 144 -4 288q0 160 5 320q4 10 17 37t32 50t43 32t48 -15l174 -174l486 -800l10 -14q12 -14 28 -29t33 -24t33 1q-2 32 -8 100t-13 153t-15 179t-15 180t-12 154t-7 100q-2 26 -2 87t7 137t22 156t43 141t70 92q26 19 58 19q21 0 44 -8q8 0 21 -13t13 -21 q-14 -18 -34 -43t-39 -53t-37 -57t-26 -55q-2 -26 -2 -80t-1 -123q0 -34 -0.5 -70.5t0.5 -73.5q1 -75 1 -145v-122q0 -54 2 -80q0 -16 5 -77t11 -131t12 -132t6 -78q0 -20 1 -62t1 -86t-1 -81t-1 -47q-2 -10 -10 -30t-22 -36t-32 -21t-40 17l-244 242l-450 730l-54 34v-1076 q0 -28 -17 -35t-38 -2t-41 16t-24 21q-28 304 -37 608z" />
<glyph unicode="O" d="M53 543q13 129 48 257t55 240q8 44 12 106t10 130t16 134t32 118q2 4 14 17t20 17q112 67 206 67q22 0 42 -4q110 -19 190 -108t129 -232t65 -306q8 -79 7 -159q0 -85 -8 -171q-17 -167 -69 -306t-141 -233t-215 -110q-48 -6 -84 -8h-18q-26 0 -50 4q-32 6 -61 23t-63 51 q-100 100 -125 222q-16 80 -16 164q0 43 4 87zM190 314q0 -12 10 -36t25 -51t33 -51t36 -36q88 -60 159 -60q9 0 18 1q77 9 133 71t92 166t55 227t21 255v44q0 108 -8 204q-10 116 -33 207t-55 133q-74 98 -129 130q-39 23 -71 23q-13 0 -25 -4q-41 -13 -68 -64t-42 -122 t-20 -152q-3 -45 -3 -88q0 -34 2 -66q4 -73 16 -131t28 -80q6 -8 30 -26t54 -41t59 -51t46 -57t16 -55t-33 -48q-26 -18 -57 -10t-63 30t-62 56t-56 66t-45 60t-27 40l-36 -68v-416z" />
<glyph unicode="P" horiz-adv-x="1268" d="M34 1250q6 34 28 61t53 49t65 38t64 26q122 40 210 68t173 42q79 13 168 13h13q96 -1 234 -19q112 -28 155 -76q38 -42 38 -93q0 -7 -1 -15q-6 -60 -50 -127t-107 -134t-136 -131t-135 -116t-103 -90t-43 -52l-70 -624l-12 -16q-10 -14 -25 -29t-34 -25t-33 0v590 q-14 -12 -45 -39t-70 -54t-82 -43q-25 -9 -48 -9q-17 0 -33 5q-16 6 -25 18t-12 27t-2 31t5 30l364 208v590q0 18 22 27t48 9t48 -9t22 -27v-486q84 44 165 109t140 136t85 139q13 34 13 64t-13 55q-26 51 -115 76q-57 16 -147 16q-51 0 -112 -5q-36 -4 -92 -22t-122 -44 t-135 -54t-131 -51t-110 -34q-28 -6 -47 -6q-14 0 -23 3z" />
<glyph unicode="Q" horiz-adv-x="1370" d="M52 590q0 134 13 275t42 279t75 271t112 253q-4 2 -17 2t-17 -2q-6 -4 -22 -14t-32 -21t-30 -21t-20 -14q-18 35 -18 62q0 22 11 39q25 39 85 51q24 5 52 5q42 0 93 -11q85 -18 175 -71t176 -141t146 -217t85 -301q11 -75 11 -160q0 -108 -18 -230q-4 -20 -17 -69 t-29 -105t-33 -105t-25 -67q68 -82 121 -122t104 -40t104 40t121 122q17 -39 17 -75q0 -13 -2 -26q-9 -47 -39 -83t-75 -60t-95 -33q-26 -5 -53 -5l-47 4q-50 8 -86 34q-12 8 -37 27t-52 42t-52 43t-33 28q-84 -82 -169 -110q-57 -19 -110 -19q-26 0 -52 5q-77 14 -143 64 t-115 123t-77 164t-28 189zM170 613q14 -125 67 -237t161 -202q30 -26 83 -26t102 21t79 58q20 24 20 54q0 16 -6 33l-174 520q-20 58 -49 68t-59 -6t-57 -46t-43 -52q-8 0 -21 14t-13 22q0 28 13 60t33 60t44 51t48 35q25 12 48 12q26 0 51 -15q47 -29 87 -91t74 -143 t59 -159t41 -141t22 -87q46 22 68 94t26 170q1 23 1 47q0 77 -10 163q-13 112 -36 217t-54 189t-65 128q-22 28 -65 62t-90 70t-90 73t-67 73l-8 -14q-4 -10 -10 -21t-11 -21t-5 -14q-30 -110 -70 -236t-72 -258t-49 -266q-9 -73 -9 -144q0 -59 6 -115z" />
<glyph unicode="R" horiz-adv-x="1440" d="M28 1041q4 41 45 88t110 97t152 96t171 84t167 63t140 32q19 2 34 2q36 0 57 -11q54 -56 54 -138v-6q-2 -86 -38 -184t-94 -204t-112 -205t-92 -186q-36 -83 -36 -143v-6q2 -62 58 -92q37 -20 106 -19q37 0 84 5q68 16 142 51t144 78t131 91t103 90q70 -18 78 -52 q1 -6 1 -13q0 -29 -28 -63q-35 -42 -105 -88t-158 -89t-183 -77t-182 -52q-78 -16 -142 -16h-14q-69 2 -101 34q0 -12 -2 -42t-8 -63t-20 -62t-40 -41q-22 -10 -41 4t-29 30q-2 36 -5 109t-6 166t-7 195t-7 194t-5 165t-2 109q0 12 -1 41t-1 62t1 63t1 42q-24 -12 -57 -42 t-71 -65t-77 -64t-73 -37q-42 26 -42 63v6zM480 1210l6 -736l368 822q-14 46 -47 65q-31 18 -71 18h-4q-42 -1 -86 -19t-81 -43t-61 -54t-24 -53z" />
<glyph unicode="S" horiz-adv-x="1110" d="M44 468q8 76 30 123t51 52h5q26 0 44 -53q-11 -63 -11 -117.5t11 -101.5q22 -93 72 -154t122 -90t148 -30h5q73 0 143 27q72 28 124 81t76 133q13 44 13 94q0 42 -9 88q-10 46 -53 113t-98 143t-113 155t-97 152t-50 134q-2 13 -2 25q0 44 31 76q32 26 95 79t137 105 t151 91t139 39q46 0 49 -14t-21 -37t-69 -55t-97 -69t-105 -78t-90 -82t-54 -80q-8 -18 -7 -35q0 -20 10 -38q72 -102 145 -206t127 -205t81 -198q16 -56 15 -109q0 -39 -8 -77q-20 -89 -97 -169t-227 -146q-86 -36 -165 -36h-8q-83 2 -173 36q-114 46 -174 121t-82 156 q-16 59 -16 116q0 21 2 41z" />
<glyph unicode="T" horiz-adv-x="1424" d="M0 1076l70 68q316 30 622 123t592 225h104q10 -16 1 -34t-25 -33t-32 -27l-14 -10l-484 -174q-2 0 -3 -48t-1 -114t1 -137t3 -117q0 -16 3 -70t6 -125t7 -151t8 -152t6 -125t4 -71q0 -34 -19 -62t-43 -38t-47 3t-29 63q1 50 1 100q0 88 -4 177q-7 139 -16 278t-16 278 q-4 75 -4 149q0 64 3 128q-22 -6 -68 -17t-104 -25t-123 -29t-123 -29t-104 -25t-68 -15q-28 -6 -55 7t-49 29z" />
<glyph unicode="U" horiz-adv-x="1244" d="M48 385q0 57 4 101q2 30 7 96t12 148t14 172t14 172t12 147t9 97q10 18 29 32t41 4q28 -16 37 -42t9 -57t-5 -61t-5 -50q-6 -104 -26 -231t-31 -259q-6 -73 -6 -143q0 -58 4 -114q9 -125 59 -223q27 -53 64 -53h4q40 3 85 41t91 100t83 127t61 120t28 81v38q0 30 -1 66 t-1 66t2 38q2 30 12 104t20 157t20 157t16 102q10 32 44 38t62 -2q2 -40 2 -80q0 -74 -7 -147q-11 -113 -23 -226t-18 -226q-2 -31 -2 -62q0 -82 12 -163q16 -102 51 -154t81 -67q23 -8 48.5 -7.5t52.5 7.5q55 15 111 46t109 70t96 72t72 54t39 15q6 -18 6 -37 q0 -39 -25 -82q-37 -63 -106 -116t-161 -86q-84 -30 -168 -30h-15q-91 3 -170 51t-125 160q-32 -26 -71 -74t-83 -100t-93 -99t-100 -69q-33 -14 -67 -14q-18 0 -37 4q-53 12 -105 76q-28 36 -43 89t-22 111t-7 115z" />
<glyph unicode="V" horiz-adv-x="1318" d="M49 1212q1 26 37 38q14 6 41 6t29 -6l346 -834q16 132 43 268t71 267t109 252t159 221q28 32 74 79t91 91t78 76t35 32h104q16 -24 -7 -52t-58 -53t-69 -44t-40 -25q-160 -160 -252 -330t-142 -355t-67 -386t-25 -423l-14 -8q-10 -4 -21 -10t-21 -10t-14 -6q-6 -4 -19 -4 t-15 4l-382 1076q-6 8 -26 32t-33 51t-12 53z" />
<glyph unicode="W" horiz-adv-x="1510" d="M31 643q0 32 -0.5 66.5t0.5 70.5q1 72 1 136v118q0 52 2 76q12 34 45 39t61 -5q0 -30 2 -92t6 -141t7 -166t7 -165t7 -141t5 -93q2 -26 9 -60t19 -69t31 -65t45 -48q46 36 82 114t65 176t53 206t47 204t44 170t46 106t53 10t62 -118q4 -10 14 -42t24 -75t30 -91t30 -91 t25 -75t15 -42q22 -56 53 -122t69 -124t81 -98t86 -45q5 -1 10 0q38 0 74 35q41 40 77 144q2 26 4 77t3 117t1 137t-1 137t-3 117t-4 77q0 12 -10 62t-22 109t-23 110t-13 65q-2 18 5 54t21 64t34 31h2q19 0 42 -45q30 -134 59 -288t41 -313q6 -76 6 -152q0 -82 -7 -164 q-13 -157 -65 -297q-44 -116 -95 -164q-49 -46 -103 -46h-4q-56 2 -113 44t-111 109t-104 149t-90 163t-68 151t-40 114h-36q-4 -20 -13 -70t-20 -105t-21 -104t-14 -69q-10 -34 -26 -85t-41 -106t-57 -105t-72 -81t-86 -36q-6 -1 -11 -1q-41 0 -89 32q-44 30 -71 83 t-42 113t-20 119t-7 101q-2 24 -2 76t-1 117z" />
<glyph unicode="X" horiz-adv-x="1458" d="M70 1217q-13 48 -13 99.5t13 107.5q34 7 62 7q42 0 68 -16q44 -27 64 -80t25 -124t15 -142t33 -134t79 -101q6 2 19 15t15 19q52 82 88 144t66 113t58 95t65 90t87 98t124 120q104 96 192 106q15 2 29 1q69 0 120 -40q61 -49 91 -143q22 -70 23 -152q0 -27 -3 -55 q-10 -113 -65 -231t-164 -213t-275 -155q-156 -56 -371 -56h-29q-32 -58 -55 -130t-40 -147t-27 -148t-16 -131q-6 -14 -22 -24t-32 -13t-31 5t-19 32q-6 32 -6 64q0 52 16 105q26 85 57 170t50 166q7 30 7 59q0 49 -20 96q-38 88 -96 171t-107 170t-75 182zM552 747 q0 -13 4 -17q82 -13 154 -13q82 0 152 17q130 32 219 99t139 157t67 180q9 46 9 90q0 41 -8 79q-16 79 -58 121q-38 38 -97 38h-11q-66 -4 -153 -79t-191 -233t-222 -422q-4 -4 -4 -17z" />
<glyph unicode="Y" horiz-adv-x="1224" d="M20 616q-1 27 -1 57q0 181 51 455q10 32 44 37t60 -3v-660q0 -86 25 -105q11 -9 25 -9q17 0 37 13q37 23 80 75t82 108t66 102t31 60q10 28 27 87t38 134t44 158t43 159t35 136t23 90q6 14 21 24t32 12t31 -6t20 -30l138 -660q4 -14 31 -6t67 29t86 49t87 56t72 50t39 30 q66 -10 66 -40q0 -26 -32 -62q-34 -38 -94 -81t-119 -82t-107 -71t-60 -46q0 -20 -2 -60t-5 -92t-7 -108t-8 -108t-8 -92l-6 -60q-4 -26 -19 -84t-41 -131t-61 -154t-76 -153t-88 -129t-98 -82q-33 -16 -66 -16q-19 0 -38 5q-53 14 -105 84q-48 62 -58 145q-4 33 -4 68 q0 52 9 107q15 92 50 187t77 182t88 160t82 121q86 114 140 196t73 163q10 43 10 89q0 41 -8 85q-17 93 -75 231q-64 -272 -158 -474t-191 -320t-186 -144q-22 -6 -42 -6q-61 0 -102 59q-55 79 -65 271zM429 -268q7 -90 57 -166q24 -35 51 -35q7 0 15 3q36 12 74 58t74 113 t65 132t47 116t22 63q28 134 35 278q3 67 3 132q0 75 -4 146q-56 -48 -120 -121t-123 -160t-107 -183t-72 -191q-19 -74 -19 -144q0 -21 2 -41z" />
<glyph unicode="Z" horiz-adv-x="1338" d="M45 952q-3 12 7 20l590 520q26 22 49 27t39 -6t21 -34t-5 -55q-46 -138 -89 -262t-80 -246t-65 -244t-46 -256q-7 -61 -7 -108q0 -70 16 -109q27 -65 82 -72q8 -1 17 -1q49 0 111 34q73 40 145 98t134 121t94 107q16 22 27 62t21 87t22 94t30 82t43 52q15 10 34 10 q14 0 31 -5q6 -2 19 -15t15 -19q-8 -94 -58 -206t-125 -220t-168 -202t-186 -153t-177 -73q-18 -3 -34 -3q-62 0 -109 42q-59 53 -83 182q-11 60 -11 140q0 94 15 215l222 774l-500 -426q-2 0 -12 8t-18 18t-11 22z" />
<glyph unicode="[" horiz-adv-x="1302" d="M50 52q0 14 2 18q38 206 83 419t79 428t50 429t-4 424q2 6 40 20t96 32t128 38t135 41t117 41t74 36q12 8 42 32t63 52t62 53t41 37h104v-34l-172 -174l-558 -242l-206 -1458q118 -12 246 -7t258 16t257 20t243 5q10 -26 5 -60t-39 -44q-22 0 -68 1t-104 1h-246 q-58 0 -104 -1t-68 -1q-42 -2 -95 -21t-110 -43t-114 -49t-105 -40t-83 -14t-47 27q-2 4 -2 18z" />
<glyph unicode="\" horiz-adv-x="1076" d="M52 1318q26 10 60 5t44 -39q26 -192 82 -358t149 -309t224 -262t309 -215q68 -12 99 -41t29 -56t-35 -42t-93 -1q-22 12 -72 46t-105 73t-104 74t-67 51q-116 94 -220 215t-178 260t-109 291t-13 308z" />
<glyph unicode="]" horiz-adv-x="1198" d="M34 162q-4 18 3 32t33 14h660q2 184 11 388t31 411t62 410t104 387h-730l-138 36q-20 6 -9 17t34 23t48 20t31 8q10 0 51 -6t87 -12t87 -11t51 -5q26 0 88 -1t129 -1t124 1t77 1q34 2 63 16t58 29t58 24t63 1v-70q-88 -186 -131 -359t-63 -347t-27 -358t-21 -394 q-4 -50 4 -106t15 -109t7 -98t-18 -71t-61 -28t-121 30t-148 46t-142 18t-153 4t-181 2q-10 6 -21 23t-15 35z" />
<glyph unicode="^" horiz-adv-x="1706" d="M503 1175q3 21 9 33q2 6 0 6t5 10t30 36t77 84t145 154t233 246q4 8 17 4t17 -10q48 -70 72 -123t39 -93t30 -73t46 -64t86 -64t153 -73l-58 -130q-72 50 -146 74t-133 54t-96 85t-35 169l-430 -406q-26 -6 -40 6t-19 33t-2 42z" />
<glyph unicode="_" horiz-adv-x="1858" d="M32 64q6 12 18 21t27 13t27 6q38 10 119 28t184 40t216 44t216 42t184 35t121 21q36 4 91 7t118 4t127 1t118 -1t91 -4t47 -7l68 -36q2 -38 -30 -54t-83 -19t-113 3t-121 15t-106 16t-67 5q-34 -6 -108 -19t-166 -30t-194 -36t-194 -36t-166 -32t-108 -21q-10 -2 -53 -23 t-94 -37t-99 -16t-68 40q-8 18 -2 30z" />
<glyph unicode="`" horiz-adv-x="464" d="M59 1529q5 27 26 21t55 -36t73 -64t81 -63t80 -33q4 -48 -13 -66t-46 -16t-65 19t-71 41t-64 49t-43 43q-18 78 -13 105z" />
<glyph unicode="a" horiz-adv-x="1014" d="M43 204q-1 17 -1 35q0 69 10 141q2 28 10 84t18 124t22 144t22 144t19 121t13 79q16 84 35 143t52 91t86 34h7q51 0 130 -26q10 -2 22 -15t14 -19q4 -26 15 -80t25 -123t29 -144t29 -144t25 -123t17 -80q30 -142 74 -197t94 -57h5q47 0 98 33q53 35 105 74t98 67 q28 17 52 17q15 0 28 -7q0 -38 -18 -74t-43 -67t-55 -57t-56 -44q-112 -74 -187 -78h-14q-66 0 -113 34q-52 38 -84 104t-57 134t-48 121t-55 67q-6 -26 -25 -90t-41 -136t-42 -136t-28 -90q-4 -10 -17 -38t-33 -61t-45 -64t-51 -48t-52 -11t-46 48q-40 84 -43 170zM184 400 q0 -72 1 -136t5 -90q70 106 126 247t85 292q24 125 24 249q0 26 -1 51q-6 149 -60 271q-34 -62 -64 -156t-52 -191t-37 -182t-21 -131q-4 -24 -5 -88t-1 -136z" />
<glyph unicode="b" d="M70 1458q-1 19 -1 34q0 30 5 44q8 20 22 13t33 -37t36 -72t29 -92t14 -98q0 -24 3 -76t7 -117t8 -137t7 -137t6 -117t5 -76q44 32 75 79t60 96t62 95t79 78q128 80 212 87q11 1 22 1q68 0 107 -39q45 -45 53 -129q2 -21 2 -43q0 -67 -18 -144q-24 -103 -77 -214 t-130 -208t-177 -169t-218 -96l-18 16q-12 14 -14 18q-3 9 -3 18q0 22 17 46q24 34 68 69t99 71t106 70t90 65t53 59q30 60 51 140t28 155q3 35 3 67q0 37 -4 69q-8 61 -38 83q-13 10 -31 10q-22 0 -51 -16q-52 -28 -132 -126q-22 -28 -52 -99t-64 -157t-70 -173t-71 -147 t-67 -79q-9 -5 -17 -5q-22 0 -39 36q0 14 1 48t1 73t-1 73t-1 48q-6 136 -14 266t-17 258t-19 256t-20 262z" />
<glyph unicode="c" horiz-adv-x="1040" d="M31 377v22q0 83 20 169q23 98 61 190t85 171t95 134t90 78q22 12 40 12q16 0 28 -9q4 -22 15 -81t22 -126t20 -126t13 -81q4 -26 2 -55t-12 -52t-33 -34t-61 1q-2 14 -11 48t-20 73t-22 74t-15 49l-34 34q-62 -42 -103 -120t-59 -169q-12 -61 -12 -121q0 -30 3 -61 q9 -91 46 -160t104 -104q40 -21 91 -20q35 0 77 9q101 24 237 117t310 281v-70q0 -6 -24 -36t-58 -69t-69 -77t-59 -60q-66 -62 -141 -114t-155 -78q-59 -19 -121 -19q-21 0 -42 2q-83 9 -165 71q-74 56 -107 135t-36 172z" />
<glyph unicode="d" horiz-adv-x="1060" d="M40 231q-2 32 -2 68q0 53 5 113q9 100 32 208t58 206t80 179t99 126q53 44 113 44h3q62 -1 128 -65l68 558q2 8 16 21t20 13q8 0 20 -4t23 -9t19 -11t8 -10v-974q0 -110 38 -190t100 -118q46 -28 103 -28q19 0 40 3q81 13 169 89q28 0 26 -25t-23 -59t-60 -70t-86 -59 t-100 -25h-6q-50 0 -97 32q-40 26 -72 62t-57 78t-46 86t-35 86q-8 -18 -27 -53t-43 -80t-50 -94t-50 -94t-44 -80t-30 -51q-28 -52 -70 -78t-87 -26t-86 26t-67 78q-24 46 -30 127zM157 359q3 -99 17 -185q2 -6 10 -15t18 -16t21 -9t21 6q98 74 159 176t99 216t60 233 t42 227q-34 4 -64 4q-68 0 -121 -21q-77 -31 -129 -93t-82 -148t-42 -181q-10 -76 -9 -155q-1 -19 0 -39z" />
<glyph unicode="e" horiz-adv-x="1048" d="M33 359q5 19 37 57q4 6 25 26t45 43t44 44t24 27q22 50 27 110t6 125t7 129t30 120q14 32 53 79t88 91t100 79t88 43t54 -18q8 -13 8 -37q0 -25 -9 -63q-22 -88 -67 -171t-93 -164t-91 -161t-61 -162q-10 -44 -10 -107t14 -125t46 -113t88 -71q43 -16 85 -16l43 4 q64 12 125 46t117 85t104 105t86 105t64 87l34 -36q4 -4 4 -12q0 -18 -21 -56q-31 -56 -90 -127t-139 -145t-165 -124t-168 -62q-16 -2 -31 -2q-65 0 -118 42q-84 66 -133 155t-75 191q-12 -10 -36 -22t-49 -20t-49 -11t-35 5t-6 27zM344 816q0 -28 1 -52t3 -34 q64 110 120 234t88 250q-46 -16 -83 -49t-63 -76t-41 -91t-21 -94q-2 -10 -3 -35t-1 -53z" />
<glyph unicode="f" horiz-adv-x="1076" d="M-2 748l400 120l68 764q8 74 46 126t90 82t107 36q14 2 28 2q37 0 67 -13q40 -17 56 -58q6 -16 6 -35q0 -30 -16 -70q-30 -22 -47 -18t-26 19t-15 35t-16 32q-28 28 -52 28q-8 0 -15 -3q-29 -13 -51 -62t-38 -123t-26 -159t-16 -172t-9 -159t-3 -122v-60q18 -6 39 -6 q24 0 50 8q49 14 100 40t101 55t94 45q32 12 59 12q10 0 20 -2q35 -6 57 -50l-66 -68l-418 -174l-36 -34q-2 -4 -3 -56t-1 -124t1 -147t3 -123q2 -22 15 -66t22 -94q6 -32 6 -61q0 -17 -2 -32q-5 -43 -41 -61q-22 -10 -41 4t-29 30q-4 8 -9 23t-10 32t-10 31t-5 20 q-2 22 -5 68t-7 104t-7 123t-7 123t-6 104t-2 68q-4 2 -18 2t-18 -2q-16 -4 -55 -14t-83 -22l-84 -20q-40 -10 -54 -14z" />
<glyph unicode="g" horiz-adv-x="1080" d="M47 249v6q0 69 22 166q23 101 66 213t101 226t127 211t144 167t151 94q38 -12 39 -31t-20 -42t-56 -49t-72 -51t-68 -47t-41 -38q-48 -106 -100 -200t-93 -188t-63 -193q-14 -64 -14 -135q0 -39 4 -80l34 36q74 88 134 202t110 229t92 220t78 175t70 94q11 8 23 8 q22 0 44 -32q33 -48 69 -180t76 -370q10 8 39 29t62 43t63 41t42 25q10 4 36 4t34 -4q-8 -36 -45 -83t-80 -89t-79 -73t-38 -33q0 -20 -1 -60t-4 -92t-7 -108t-8 -108t-8 -92l-6 -60q-4 -26 -29 -95t-63 -155t-88 -172t-106 -143t-117 -71q-12 -3 -23 -3q-49 0 -98 49 q-62 62 -65 153v15q0 85 31 181q34 105 94 215t124 213t119 190t81 143q9 21 9 55q0 16 -2 36q-7 59 -22 120t-32 111t-23 62l-34 -36l-382 -660q-4 -4 -17 -14t-29 -20t-33 -20t-25 -14q-29 -12 -51 -12q-27 0 -44 18q-31 32 -32 103zM482 -382q0 -44 1 -84t3 -54 q106 44 176 148t106 231t43 259q2 34 2 66q0 91 -15 164q-58 -48 -110 -119t-94 -152t-70 -165t-38 -156q-2 -16 -3 -55t-1 -83z" />
<glyph unicode="h" horiz-adv-x="938" d="M68 1719q0 17 1 31t1 20h70q6 -36 19 -112t30 -172t36 -202t36 -202t31 -172t22 -112q0 -6 5 -21t10 -31t10 -31t9 -21q6 16 25 55t41 84t42 84t30 55q32 58 82 106t98 60q12 3 24 3q34 0 61 -26q37 -35 47 -143q2 -26 5 -80t7 -123t8 -145t7 -144t6 -122t3 -80 q22 -28 33 -65q6 -19 6 -38q0 -17 -5 -35q-19 -7 -35 -7q-18 0 -33 9q-28 16 -48 45t-34 65t-24 62q4 76 6 164q1 35 1 71q0 54 -2 108q-3 91 -12 181t-27 170q-13 6 -25 6q-22 0 -42 -20q-31 -32 -58 -97t-51 -153t-46 -185t-43 -193t-40 -174t-38 -130t-39 -62l-70 70 q12 141 12 275q0 67 -3 131q-9 194 -33 386t-56 390t-58 416q0 6 -1 20t-1 31z" />
<glyph unicode="i" horiz-adv-x="400" d="M0 1598q0 58 46 75q20 7 40 7q26 0 54 -12v-106q-6 -2 -21 -3t-32 -1t-32 1t-21 3q-8 2 -21 16t-13 20zM34 278v972q0 20 18 28t41 9t42 -1t21 -2v-1076q0 -34 22 -56t52 -35t62 -16t54 3q14 -21 14 -37q0 -17 -15 -30q-29 -25 -82 -28h-12q-47 0 -98 20q-57 23 -83 75 q-4 8 -10 31t-12 51t-10 54t-4 38z" />
<glyph unicode="j" horiz-adv-x="528" d="M-150 -974q4 58 17 113t29 97q8 24 26 73t42 111t50 130t51 129t45 109l30 72q4 40 4 79t-4 76q-8 75 -24 147t-38 144t-44 146q-8 26 3 43t29 22t39 -2t35 -29q32 -54 48 -109t28 -112t24 -115t36 -116q22 18 71 59t110 80t124 63q38 14 71 14q22 0 42 -6q6 -2 20 -15 t16 -21q-16 -26 -54 -50t-87 -49t-101 -49t-95 -50t-71 -55t-28 -59v-730q0 -32 -17 -86t-46 -113t-68 -112t-84 -81q-36 -22 -73 -22q-10 0 -19 1q-47 7 -91 67q-30 40 -40 94q-7 39 -7 79q0 16 1 33zM-4 -972q0 -44 1 -84t3 -54q4 -2 17 -2t17 2q32 16 57 70t43 113 t29 108t11 55q2 24 3 83t1 126t-1 126t-3 83q-64 -114 -114 -235t-60 -253q-2 -16 -3 -55t-1 -83zM140 1042q-14 26 1 45t41 25t54 -2t40 -32q12 -26 -3 -43t-41 -23t-53 0t-39 30z" />
<glyph unicode="k" horiz-adv-x="962" d="M-6 694q-6 22 12 50t51 61t67 68t61 69t31 66q-2 16 -7 70t-13 125t-15 151t-15 152t-13 125t-7 71q-2 26 1 49t15 39t33 21t55 -7q10 -76 20 -172t22 -198t27 -204t35 -190q20 16 48 55t60 86t67 94t67 76t60 34t46 -31q2 -4 2 -17t-2 -19q-26 -80 -83 -148t-116 -132 t-103 -131t-46 -143q18 -16 52 -52l174 -174q50 -48 94 -93t78 -81l52 -50q12 -12 38 -39t46 -59q22 -35 22 -65q0 -28 -36 -47q-4 -2 -17 -2t-17 2q-102 128 -225 259t-261 227q-2 -18 -6 -56t-11 -86t-14 -101t-15 -101t-14 -86t-10 -56q-2 -10 -11 -31t-23 -41t-32 -31 t-38 -1q0 8 -1 27t-1 42t1 43t1 28q2 32 15 93t24 130t14 137v21q0 54 -13 94q-16 47 -57 63q-13 5 -30 5q-36 0 -89 -23q-44 12 -50 34z" />
<glyph unicode="l" horiz-adv-x="498" d="M52 366v84q0 22 2 89t6 156t8 190t8 190t7 155t3 88q0 30 1 104t1 157t-1 157t-1 104q30 22 52 30q20 8 36 3t16 -33v-1632q0 -14 9 -33t23 -33t33 -17t39 15l242 206q5 -21 5 -43q0 -26 -7 -53q-12 -50 -39 -94t-67 -80t-86 -55q-44 -18 -89 -18h-5q-48 1 -92 31 q-44 28 -65 87t-30 124t-9 121z" />
<glyph unicode="m" horiz-adv-x="1492" d="M52 1180q-2 26 12 45t32 26t36 -1t24 -36l70 -310q62 150 115 213t99 65h4q44 0 84 -44q42 -46 79 -111t71 -138t68 -125q82 282 187 407q89 106 173 106q15 0 29 -3q97 -22 171 -187t98 -463q4 -46 6 -121t2 -147t-2 -125t-6 -57l-34 -34l-70 68q8 73 8 151q0 32 -1 66 q-5 113 -22 227t-41 222t-48 202q-28 80 -68 93q-13 4 -26 4q-27 0 -55 -18q-41 -27 -75 -80t-52 -103q-12 -30 -29 -80t-33 -100t-28 -88t-14 -44q-8 -36 -19 -124t-22 -188t-19 -189t-10 -125q0 -30 -16 -34t-36 4q-22 8 -52 30q4 80 5 169v36q0 71 -3 143q-4 90 -13 179 t-25 169q-28 146 -71 223t-90 82h-6q-43 0 -82 -62q-41 -67 -63 -209q-4 -22 -10 -68t-13 -104t-14 -123t-14 -123t-11 -104t-6 -68q-12 -32 -45 -38t-61 4z" />
<glyph unicode="n" horiz-adv-x="1014" d="M67 1066q1 30 11 52t32 31q9 4 20 4q18 0 44 -9q2 -42 7 -99t13 -119t20 -122t30 -110q26 74 51 131t57 105t72 91t96 89q59 49 101 49q8 0 16 -2q47 -11 78 -68t51 -147t36 -191t33 -198t43 -168t65 -104q20 -17 47 -17q24 0 52 14q10 -31 10 -53q0 -16 -5 -26 q-13 -25 -44 -28h-9q-28 0 -64 16q-42 19 -83 52t-73 79t-44 98q-8 36 -14 118t-18 176t-37 185t-71 145l-140 -136q-6 -8 -29 -72t-51 -147t-54 -168t-38 -137q-4 -18 -10 -67t-12 -105t-9 -105t-3 -69q-18 -36 -52 -36t-52 36q2 26 2 90v272q0 64 -2 90q-2 12 -7 52 t-12 94t-15 114t-16 114t-13 94t-7 54q-4 28 -3 58z" />
<glyph unicode="o" horiz-adv-x="688" d="M-16 1236q2 8 15 21t19 15q53 8 100 8q115 0 201 -45q121 -63 193 -178t99 -263q21 -114 21 -227q0 -33 -2 -67q-8 -146 -46 -271t-96 -193q-52 -61 -117 -61q-8 0 -15 1q-74 8 -154 128q-50 74 -60 165q-5 46 -5 93.5t5 97.5q10 100 32 202t38 197t18 178v10 q0 76 -28 133q-16 32 -43 31t-58 -8t-62 -5t-55 38zM270 346q-2 -20 1 -45t9 -49t13 -45t13 -33q2 -6 12 -16t21 -22t21 -21t14 -11q74 42 110 114t43 160q2 28 2 57q0 62 -10 128q-15 97 -43 187t-65 166t-71 124q-2 -26 -8 -80t-12 -122t-14 -144t-15 -145t-13 -123 t-8 -80z" />
<glyph unicode="p" horiz-adv-x="1128" d="M11 -227q3 191 35 380t99 364t185 317q62 74 121 135t124 109t140 83t169 55q29 6 53 6q48 0 78 -24q45 -36 59 -107q7 -35 7 -77t-7 -91q-14 -97 -48 -200t-83 -201t-105 -172t-116 -115q-45 -31 -87 -31q-15 0 -29 4q-2 3 -2 9q0 17 20 57q26 52 69 128t94 169t92 189 t64 188q15 60 15 112q0 27 -4 52q-6 32 -36 38q-13 3 -27 3q-18 0 -38 -5q-35 -8 -67 -20t-40 -16q-152 -66 -263 -191t-187 -286t-119 -343t-61 -359q-15 -145 -15 -279q0 -30 1 -59q4 -161 26 -278t56 -178q26 -46 56 -46q10 0 20 5q4 2 17 16t17 20q28 84 46 184t27 208 t11 218q1 55 1 108.5t-1 104.5q-2 103 -7 195t-9 162q-6 14 -9 52t-4 82v22q0 33 2 65q3 43 13 65t26 16t42 -58q4 -26 9 -90t11 -137t10 -137t4 -90q2 -28 3 -77t1 -105v-230q0 -52 -1 -91t-3 -51q0 -18 -9 -71t-19 -114t-22 -117t-18 -80q-12 -42 -34 -86t-53 -74t-70 -37 q-7 -1 -15 -1q-33 0 -70 24q-40 26 -66 81t-42 117t-23 122t-9 96q-6 125 -6 260q0 51 1 103z" />
<glyph unicode="q" horiz-adv-x="678" d="M-34 -278q-10 16 2 42t32 28q45 6 93 6q18 0 37 -1q68 -3 135 -13t132 -27t123 -35q5 38 5 81q0 32 -3 67q-6 82 -18 163t-27 155t-27 126q-34 -26 -56 -58t-44 -65t-46 -65t-60 -56q-59 -40 -100 -40q-14 0 -26 5q-46 19 -63 85q-12 47 -12 112q0 26 2 56q7 102 33 214 t67 223t91 195t105 129q39 32 78 32q16 0 31 -5q4 -4 4 -18t-4 -18q-10 -18 -49 -88t-87 -167t-96 -206t-76 -203q-25 -85 -25 -147v-13q3 -66 57 -76q68 18 117 67t83 117t55 148t33 159t17 150t7 123q10 32 44 38t60 -4q0 -24 -1 -76t-1 -117t-1 -137q-1 -36 -1 -70t1 -67 q1 -65 1 -117t2 -76q0 -26 5 -79t13 -118t17 -136t20 -135t24 -115t25 -75q38 -72 105 -147t135 -154t124 -161t70 -166q4 -22 4 -44q0 -63 -30 -127q-40 -87 -164 -175q-8 4 -23 19t-32 31t-31 32t-18 22q-54 78 -92 165t-62 171t-33 160q-5 46 -5 83q0 25 2 47 q-18 120 -93 188t-174 101t-210 43t-201 14zM728 -573q0 -13 2 -17q6 -24 16 -68l20 -88q10 -44 19 -79t13 -43q6 -20 26 -70l42 -104q22 -56 42 -105t30 -67q32 -32 45 -10q11 19 11 64v14q-2 56 -20 136t-52 163t-82 161t-110 130q-2 -4 -2 -17z" />
<glyph unicode="r" horiz-adv-x="844" d="M70 518q2 110 7 212t13 187t17 134t19 53t20 -54q64 48 138 91t153 72t160 37q22 2 43 2q58 0 114 -16q8 -26 2 -60t-38 -44q-32 6 -84 6t-110 -8t-116 -26t-105 -47t-76 -70t-29 -97v-868q-32 -66 -54 -67t-37 44t-24 127t-12 182q-2 60 -2 124q0 42 1 86z" />
<glyph unicode="s" horiz-adv-x="746" d="M61 257v7q0 52 15 81q16 31 44 1v-18q0 -95 40 -146q44 -56 107 -70q24 -5 50 -5q40 0 84 13q71 22 122 69t70 115q6 22 6 45q0 48 -27 101q-52 58 -117 113t-131 109t-128 111t-110 121q-4 4 -4 17t4 17q14 18 40 56t60 86t72 101t72 101t61 86t41 56q28 36 57 42 q9 2 20 2q26 0 63 -10q-2 -8 -16 -35t-20 -35q-16 -24 -60 -83t-94 -126t-94 -126t-62 -81q-16 -24 12 -56t80 -72t118 -89t125 -105t100 -120t44 -137v-9q0 -69 -42 -144q-45 -80 -161 -170q-36 -28 -79 -48t-89 -27q-21 -3 -43 -3l-49 4q-46 8 -86 38q-48 36 -71 101 t-24 122z" />
<glyph unicode="t" horiz-adv-x="890" d="M52 798q-18 34 3 54t62 31t95 16t102 13t82 21t36 39l70 762q2 18 19 28t36 10t34 -9t15 -29v-658q28 -6 54 1t52 17t51 16t53 0q12 -22 -4 -41t-32 -29l-36 -22q-24 -14 -51 -31t-52 -31t-35 -18q-2 -28 -3 -97t-1 -147t1 -147t3 -97q8 -94 36 -172t76 -122t115 -44 t157 62q7 -21 7 -41q0 -22 -9 -41q-16 -36 -52 -57t-86 -27q-17 -2 -33 -2q-34 0 -68 8q-51 12 -99 43t-78 83q-44 74 -68 167t-34 191q-9 89 -9 177v17q1 96 5 176q-11 3 -24 3q-19 0 -40 -7q-36 -12 -76 -31t-82 -41t-78 -32q-22 -6 -43 -6q-12 0 -23 2q-30 6 -48 42z" />
<glyph unicode="u" horiz-adv-x="898" d="M70 244v764q0 18 14 26t32 10t35 0t23 -4q-2 -26 -2 -80t-1 -122q0 -34 -0.5 -70t0.5 -74q1 -76 1 -146v-122q0 -54 2 -80q4 -112 31 -156q25 -41 61 -42q2 0 5 1q39 3 82 44t80 98t62 119t25 110v520h140q-4 -46 -10 -120t-7 -160v-35q0 -69 3 -140q4 -89 19 -168 t43 -138t73 -84q27 -15 60 -15q23 0 49 7q64 17 152 91q6 -19 6 -37q0 -32 -20 -63q-32 -48 -84 -84t-112 -53q-38 -11 -68 -11q-18 0 -34 4q-6 2 -19 16t-17 20q-8 14 -28 53t-42 83t-41 84t-27 56q-12 -22 -40 -67t-67 -96t-84 -96t-91 -64q-26 -11 -51 -11q-20 0 -39 7 q-44 15 -80 85q-4 8 -10 27t-11 42t-9 43t-4 28z" />
<glyph unicode="v" horiz-adv-x="850" d="M16 972q6 22 26 32t42 9t43 -11t29 -30l276 -626l244 868l10 14q12 16 27 31t33 25t34 0q4 -8 4 -35t-4 -35q-4 -16 -25 -76t-45 -131t-44 -132t-24 -77t-13 -67t-19 -119t-22 -144t-23 -144t-19 -118t-10 -66q-4 -24 -13 -52t-25 -51t-41 -35t-59 -2q-8 26 -27 81 t-43 123t-50 144t-50 144t-43 122t-29 80q-6 16 -26 56l-42 84q-22 44 -43 83t-29 55z" />
<glyph unicode="w" horiz-adv-x="1232" d="M52 1101q-4 37 8 57t33 25t43 -2t38 -25t16 -46v-832l36 -104q98 68 158 166t92 210t44 230t16 228q10 2 27 4t33 -1t29 -12t17 -27l138 -728l70 -140q46 32 70 112t34 190t11 238q0 64 0.5 128t-0.5 128v63q0 94 2 181q3 116 19 200t49 126q22 28 56 28q16 0 35 -6 q38 -11 38 -42q0 -32 -21 -71q-19 -35 -42 -64t-25 -31v-938q0 -40 -17 -92t-45 -101t-64 -89t-77 -53q-17 -5 -33 -5q-25 0 -50 11q-42 19 -80 87q-28 48 -51 133t-41 175t-30 168q-12 76 -16 112q-6 -36 -24 -106t-48 -151t-70 -162t-89 -139t-105 -80q-21 -8 -42 -8 q-36 0 -74 24q-4 2 -10 15t-11 30t-9 33t-4 26v834q-30 56 -34 93z" />
<glyph unicode="x" horiz-adv-x="1180" d="M54 182q8 72 33 141t62 137t68 135t50 135q13 48 13 97q0 21 -2 41q-2 14 -8 54t-13 93t-15 114t-15 114t-13 93t-6 52q-2 22 -2 42q0 54 15 96q21 58 49 86t53 26t25 -40q-2 -26 -3 -90t-1 -137t1 -137t3 -90q0 -8 4 -28t9 -42t11 -41t10 -25q116 188 239 285t230 119 q37 8 70 7q64 0 117 -27q80 -42 110 -132q15 -46 16 -101q0 -54 -15 -117q-29 -128 -141 -278q-72 -96 -148 -136t-149 -46q-22 -2 -43 -2q-50 0 -97 10q-67 14 -120 26q-49 11 -83 11h-6q-36 -1 -48 -37q-10 -28 -27 -81t-33 -109t-30 -101t-16 -55q-4 -16 -4 -40 q0 -12 1 -26t1 -28q0 -27 -4 -53q-6 -39 -27 -68t-71 -29q-4 0 -17 13t-17 21q-18 57 -18 112q0 18 2 36zM434 858q2 -34 19 -63t45 -53t58 -48q50 -41 105 -41q7 0 15 1q64 6 122 40q94 56 152 133t83 157q22 69 22 133q0 10 -1 21q-4 74 -35 125t-85 69q-19 6 -41 6 q-39 0 -86 -20q-73 -32 -164 -123t-193 -257q-16 -41 -17 -73q1 -4 1 -7z" />
<glyph unicode="y" horiz-adv-x="1526" d="M50 103q0 11 1 21t3 16q4 20 17 84t30 150t37 184t37 184t31 149t20 83q4 18 26 48t50 50t55 18t43 -46q-20 -30 -46 -94t-51 -144t-49 -169t-41 -171t-23 -151q-3 -30 -3 -53q0 -32 5 -54q84 114 188 242t212 242t215 198t198 108q29 8 56 8q57 0 104 -35 q69 -51 103 -207l244 208h104q9 -27 9 -46q0 -20 -10 -30q-19 -20 -55 -31t-79 -24t-72 -53t-35 -118q-1 -11 -1 -22q0 -75 33 -198q28 -100 39 -206q5 -47 5 -93q0 -59 -8 -117q-6 -46 -31 -125t-65 -165t-94 -168t-117 -136t-135 -67q-15 -3 -30 -3q-58 0 -118 40 q-50 34 -69 90q-17 51 -17 111v13q2 68 20 143t42 145t50 130t44 98q8 18 26 56t42 86l100 200q24 48 44 86t30 56q3 28 3 53q0 57 -16 95q-23 54 -65 74q-28 13 -62 13q-17 0 -35 -3q-55 -10 -112 -42t-110 -81t-89 -109q-12 -10 -42 -47t-72 -90t-93 -115t-104 -121 t-103 -109t-93 -78t-74 -30t-43 36q-2 2 -3 12t-1 21zM885 -278q-4 -40 -4 -73q0 -37 5 -65q16 -76 53 -96q17 -9 36 -9q23 0 49 13q48 24 101 86t98 148t77 191t39 215q2 25 2 50q0 85 -19 169q-24 109 -90 205q-46 -34 -92 -104t-87 -160t-77 -191t-59 -198t-32 -181z" />
<glyph unicode="z" horiz-adv-x="1278" d="M90 1122q28 32 49 28t40 -26t36 -57t38 -66t48 -51q19 -14 43 -14q10 0 20 2q54 10 110 54t116 88t127 72q39 16 81 16q30 0 60 -8q48 -13 48 -42q0 -31 -39 -77q-35 -41 -92 -84t-112 -80t-98 -62t-49 -29q-46 -34 -94 -72t-89 -83t-70 -94t-37 -103q-8 -52 -8 -94 q0 -50 11 -88q21 -70 71 -107t121 -47q36 -5 74 -5t79 5q82 10 169 36t166 57t146 65t109 62q26 0 50 -12t35 -31t2 -40t-47 -37q-62 -24 -145 -60t-177 -70t-193 -57t-193 -23t-177 30t-145 106q-74 92 -80 183q-1 14 -1 27q0 76 29 148q34 84 95 159t120 133t104 98t47 54 q-22 -24 -62 -42t-87 -25q-22 -3 -44 -3q-26 0 -52 4q-49 8 -86 38t-57 84q-13 36 -13 86q0 25 3 54z" />
<glyph unicode="{" horiz-adv-x="1144" d="M86 -111q-2 43 32 91q16 20 50 63t75 97t87 115t86 115t72 98t46 66q76 108 80 174t-32 105t-99 62t-119 44t-90 51t-16 84q46 10 105 20t118 28t110 48t83 78q4 4 4 18t-4 18l-346 242q-22 16 -31 53t-11 76t1 72t5 41q36 40 87 93t111 106t127 101t136 81t137 44 t132 -9q12 -24 -35 -54t-122 -67t-163 -82t-158 -99t-106 -117t-8 -135q16 -40 55 -77t87 -71t98 -68t87 -68t54 -69t1 -72t-73 -78t-169 -87q96 -76 125 -161t12 -173t-67 -175t-113 -169t-127 -157t-108 -137q-56 -78 -54 -130t44 -83t116 -44t162 -15t183 3t178 12 t147 12t92 3q26 -40 4 -67t-77 -43t-135 -23t-169 -8t-178 3t-163 10t-124 12t-60 10q-40 16 -80 44t-65 65t-27 80z" />
<glyph unicode="|" horiz-adv-x="364" d="M0 34l174 1494q2 30 22 37t41 -11t35 -59t6 -107q-4 -26 -14 -106t-25 -187t-31 -228t-30 -228t-25 -187t-13 -106q-2 -16 -3 -55t-1 -83t1 -84t3 -54q-4 -6 -15 -21t-26 -28t-32 -21t-33 0q-8 4 -21 17t-13 17z" />
<glyph unicode="}" horiz-adv-x="1058" d="M24 2166q-10 22 36 39t124 24t177 2t192 -27t168 -62t109 -103t12 -151t-124 -206q-16 -12 -48 -37t-73 -55t-86 -65t-86 -65t-74 -55t-47 -37q-46 -36 -36 -62t70 -42q154 -40 308 -42t316 8q20 -40 -1 -71t-66 -58t-106 -52t-121 -51t-113 -54t-80 -63t-23 -77t58 -96 l452 -450q60 -60 62 -130t-37 -141t-111 -140t-157 -128t-176 -104t-169 -68t-135 -21t-75 38q-20 40 8 66t86 47t135 39t156 41t150 55t116 80t53 115t-38 161t-156 219t-304 287q-28 66 -25 124t29 109t70 97t100 88l-346 70q-36 6 -52 38t-18 70t9 76t27 56 q284 192 426 321t131 215t-182 138t-515 90z" />
<glyph unicode="~" horiz-adv-x="1422" d="M182 1442q54 106 113 149t122 47t128 -19t131 -49t131 -41t127 3q24 18 65 58t85 82t84 75t64 37t23 -32t-39 -132q-58 -60 -120 -108t-127 -79t-130 -42t-131 5q-44 12 -103 44t-120 50t-120 3t-101 -97z" />
<glyph unicode="&#xa1;" horiz-adv-x="764" d="M126.5 330.5q15.5 -100.5 57.5 -204.5t96.5 -199t115.5 -174t117 -129.5t100 -67t64 13.5q4 3 4 11.5t-4 10.5q-99 87 -189 191.5t-154 218.5t-93 235t-8 241q1 11 19 42t32.5 68t14.5 70t-36 48q-22 6 -36.5 -3.5t-23.5 -20.5q-59 -69 -75.5 -160t-1 -191.5zM173 1024 q-11 -32 2 -51.5t33.5 -28t43.5 -6t32.5 15.5t0 36t-51.5 56q-7 5 -17.5 3t-19 -6.5t-15.5 -10.5t-8 -8z" />
<glyph unicode="&#xa2;" horiz-adv-x="1040" d="M31 377q-3 93 20 191t61 190t85 171t95 134t90 78t68 3q4 -14 20 -46q10 -16 20 -36l30 240q2 30 23 51t44 21t38 -27t7 -93q-4 -26 -13 -97t-23 -163q-6 -40 -12 -82q20 -30 36 -56q26 -40 43 -72t19 -46q4 -26 5 -53t-8 -47t-29 -29t-58 3q-2 14 -38 60l-2 4 q-4 -38 -10 -72q-12 -92 -21 -162t-11 -96q-2 -10 -6 -50t-10 -94q-2 -32 -6 -68q86 28 196 100q140 94 324 286v-70q0 -6 -24 -36t-58 -69t-69 -77t-59 -60q-66 -62 -141 -114t-155 -78q-14 -4 -26 -8q-2 -18 -2 -38q-4 -54 -7 -94t-1 -50l-14 -20q-10 -16 -25 -29t-32 -21 t-33 0q-8 4 -21 17t-13 19l26 206q-8 0 -16 2q-82 8 -164 70q-74 56 -107 135t-36 172zM140 437q2 -99 35 -176t99 -119q40 -24 94 -28l88 688q-28 38 -54 72q-36 46 -40 60q-72 -40 -123 -122t-76 -179t-23 -196z" />
<glyph unicode="&#xa3;" horiz-adv-x="1540" d="M26 856q6 12 18 21t27 14t27 7q26 6 82 16q34 6 72 14q4 140 12 248q16 184 51 284t88 140t127 31t170 -43q118 -42 148 -70t5 -45t-88 -24t-132 -8t-128 4t-73 11v-496q10 2 28 6q80 16 153 30t130 24t85 16q46 8 58 -8t5 -41t-26 -51t-37 -38q-58 8 -137 -2t-163 -28 l-108 -24v-530q16 30 75 24t141 -27t179 -50t196 -46t194 -11t173 52q74 44 101 45t19 -25t-47 -68t-98 -84t-133 -74t-152 -36q-20 -2 -63 15t-98 42t-115 55t-115 56t-98 43t-63 19q-24 -18 -49 -61t-54 -83t-63 -64t-78 -2q-18 398 -20 678v94q-22 -4 -44 -6 q-68 -10 -117 -6t-63 34q-8 16 -2 28z" />
<glyph unicode="&#xa4;" horiz-adv-x="1330" d="M44 226l306 374q-8 -2 -12 20q-2 24 2 61t15 77t31 68l-230 332q12 68 43 94t61 25t52 -25t16 -56q-10 -44 5 -79t40 -69t51 -71t38 -85q72 82 130 127t107 65t93 19t90 -9q6 0 28 25t49 62t55 77t46 70q20 32 52 46t57 6t37 -40t-6 -90q-6 -20 -42 -40t-76 -44t-71 -53 t-27 -65q2 -32 24 -83t34 -111t-2 -124t-82 -122q-4 -4 22 -25t64 -51t77 -64t61 -66q62 -90 72 -127t-13 -35t-68 36t-95 82q-10 8 -42 41t-69 66t-70 54t-43 7q-62 -80 -109 -115t-83 -41t-63 11t-53 43l-50 52q-24 26 -54 40q-22 10 -50 -13t-59 -64t-62 -90t-58 -92 t-48 -72t-31 -27q-4 0 -18 9t-30 21t-29 23t-13 15zM481 737q11 -53 43 -103t73 -83t67 -25q106 34 167 103t81 142t1 135t-71 84t-138 -13t-198 -155q-36 -32 -25 -85z" />
<glyph unicode="&#xa5;" horiz-adv-x="854" d="M52 550q-4 18 6 42t25 47t17 23q118 28 189 46t119 26v70q0 26 -1 41t-2 23t-5 18t-29 49t-59 91t-74 111t-75 110t-60 89t-31 48q6 22 26 32t42 9t43 -11t29 -30l248 -318l216 442l10 14q12 16 27 31t33 25t34 0q4 -8 4 -35t-4 -35q-4 -10 -23 -59t-46 -116t-59 -145 t-59 -146t-46 -117t-21 -59q-2 -16 -4 -24t-4 -19t-3 -28t1 -51q24 0 50 -3t62 -6t83 -6t111 -7q8 -26 2 -60t-38 -44q-98 12 -160 17t-106 1v-60q0 -10 1 -23t1 -39q16 2 34 4t38 4l256 20q14 -22 12 -40t-14 -31t-29 -20t-35 -7l-254 -50q4 -94 8 -169t7 -127t4 -76 t-1 -14q-30 -6 -42 -14t-20 -13t-21 -5t-47 10q-10 34 -13 130t-3 252l-202 -38q-34 -6 -61 -3t-43 37q-6 10 -1 26t35 35t94 38t178 37l6 118q-24 -6 -52 -15t-64 -19t-84 -20t-114 -22q-38 -10 -42 8z" />
<glyph unicode="&#xa6;" horiz-adv-x="216" d="M34 844v584q-2 20 17 26t42 5t42 -6t21 -5v-596zM37 432q-1 136 1 330l118 4v-728l-102 -14q-4 8 -7 51t-6 132t-4 225z" />
<glyph unicode="&#xa7;" horiz-adv-x="626" d="M48 600q-22 64 0 112t80 77t126 34t137 -16t117 -71q-20 44 -62 75t-92 55t-101 45t-92 46t-65 59t-18 84q2 60 29 98t66 56t85 18t90 -17t78 -50t50 -79q0 -6 -11 -28t-15 -28q-28 26 -67 53t-78 38t-74 -3t-53 -68q-4 -18 25 -40t76 -47t103 -55t105 -67t82 -80t36 -94 t-34 -112t-129 -131q-10 -6 -31 -8t-29 -8q74 -38 110 -96t39 -119t-24 -115t-79 -84t-126 -28t-164 54q-26 14 -40 43t-19 63t-2 67t11 56t21 32t27 -7q-10 -74 15 -119t65 -65t86 -17t81 25t49 62t-10 94q-32 38 -62 68t-70 66q-28 0 -67 7t-61 25q-92 76 -114 140z M155 636q-3 -30 17 -54t62 -40t106 -18q30 -10 64 19t78 95q-18 18 -52 43t-76 41t-86 14t-82 -38q-28 -32 -31 -62z" />
<glyph unicode="&#xa8;" horiz-adv-x="864" d="M276 1102q-16 22 2 57t49 58t67 22t54 -51q20 -54 3 -93t-50 -54t-70 -1t-55 62zM610 1134q-18 36 0 73t50 55t67 5t51 -79q12 -48 -5 -77t-47 -37t-63 6t-53 54z" />
<glyph unicode="&#xa9;" horiz-adv-x="1364" d="M87 553q9 135 45 287t100 304t156 270t210 185t262 51q106 -12 176 -71t114 -156t65 -230t31 -291q-22 -118 -76 -239t-132 -229t-174 -193t-201 -133t-215 -48t-214 62q-24 14 -46 40t-40 55t-31 60t-21 55q-18 86 -9 221zM179 492q-1 -74 19 -135t72 -95q38 -26 74 -47 t72 -31t72 -9t76 21q126 62 217 139t155 165q-56 -38 -115 -63t-119 -32t-122 10t-124 63q-98 74 -128 168t-13 190t67 185t111 151t120 89t95 1q4 -22 22 -64t39 -88t38 -88t21 -64q4 -26 2 -55t-12 -52t-33 -34t-61 1q-2 14 -11 48t-20 73t-22 74t-15 49l-34 34 q-58 4 -102 -36t-69 -104t-31 -139t14 -139t66 -106t124 -40t189 61t261 195q30 116 26 228t-33 207t-80 166t-116 105t-139 24t-150 -76q-40 -36 -82 -84t-79 -103t-68 -114t-49 -115q-10 -30 -31 -90t-42 -134t-36 -155t-16 -155z" />
<glyph unicode="&#xaa;" horiz-adv-x="676" d="M30.5 445q-1.5 41 5.5 83q1 14 5 40.5t9.5 58.5t11.5 68t11.5 68.5t10 57.5t7.5 37q8 40 18 68t27.5 43.5t45.5 16t73 -12.5q5 -1 11.5 -7t7.5 -9q2 -12 7.5 -37.5t13 -58.5t15.5 -68.5t15.5 -68.5t13.5 -58.5t9 -37.5q16 -67 39 -93.5t49.5 -27.5t54.5 16t55.5 35.5 t52 31.5t42.5 5q0 -18 -9.5 -35.5t-23 -32t-29 -27t-29.5 -20.5q-59 -35 -99 -37t-67.5 16t-44.5 49.5t-30 63.5t-25 57t-29 32q-4 -12 -14 -42.5t-21.5 -64.5t-22 -64.5t-14.5 -42.5q-2 -5 -9 -18.5t-17.5 -29t-24 -30t-27 -22.5t-27.5 -5.5t-24 22.5q-22 40 -23.5 81z M105 538q0 -34 0.5 -64.5t3.5 -42.5q37 50 66.5 117t45 138.5t12 142t-31.5 128.5q-18 -29 -34 -74t-27.5 -91t-19.5 -86t-11 -62q-3 -11 -3.5 -41.5t-0.5 -64.5z" />
<glyph unicode="&#xab;" horiz-adv-x="2182" d="M29 430q11 24 47 43t78 31t54 16q26 14 81 47t124 73t144 86t144 87t123 74t80 51q22 14 52 45t66 59t76 41t82 -7q14 -22 -14 -56t-83 -76t-129 -88t-153 -92t-154 -90t-131 -82t-85 -65t-15 -41q128 -10 275 -49t292 -91t277 -107t232 -99q24 -12 31 -34t0 -42t-24 -30 t-41 0q-24 12 -78 36t-123 52t-144 58t-144 57t-124 47t-81 30q-66 20 -154 36t-184 25t-189 11t-167 -6q-52 26 -41 50zM617 554q11 24 47 43t78 31t54 16q26 16 81 48t124 72t144 86t144 87t123 74t80 51q22 14 52 45t66 59t76 41t82 -7q14 -22 -14 -56t-83 -76t-129 -88 t-153 -92t-154 -90t-131 -82t-85 -65t-15 -41q128 -10 275 -49t292 -91t277 -107t232 -99q24 -12 31 -34t0 -42t-24 -30t-41 0q-26 12 -79 36t-122 52t-144 58t-144 57t-124 47t-81 30q-66 20 -154 36t-184 25t-189 11t-167 -6q-52 26 -41 50z" />
<glyph unicode="&#xac;" horiz-adv-x="928" d="M14 584q6 12 18 21t27 13t27 6q26 6 80 17t122 25t142 29t142 28t123 23t83 16q46 8 72 -9t38 -68t10 -139t-12 -220q-6 0 -25 -6t-40 -13t-38 -11t-17 2q-2 72 -1 133t-1 105t-9 66t-25 20q-60 -10 -134 -25t-149 -30t-148 -27t-132 -16t-100 3t-51 29q-8 16 -2 28z" />
<glyph unicode="&#xad;" d="M14 584q6 12 18 21t27 13t27 6q26 6 83 17t129 25t151 29t152 29t130 24t85 16q46 8 58 -8t5 -42t-26 -52t-37 -38q-58 8 -137 -2t-162 -27t-167 -37t-153 -30t-118 -6t-63 34q-8 16 -2 28z" />
<glyph unicode="&#xae;" horiz-adv-x="1296" d="M52 394q-2 94 12 206t44 235t77 240t110 219t144 171t179 98t216 -1q158 -40 252 -137t133 -227t29 -281t-60 -297q-34 -98 -88 -195t-125 -179t-157 -145t-184 -95t-206 -28t-220 56q-26 12 -48 37t-39 55t-30 62t-21 56q-16 56 -18 150zM142 454q-4 -100 19 -174 t83 -106q132 -70 247 -75t210 37t170 123t129 185q-66 -30 -141 -54t-144 -37t-123 -12t-80 23q0 -10 -2 -29t-7 -41t-15 -41t-30 -27q-16 -6 -30 3t-22 19q-2 24 -4 72t-5 109t-5 128t-5 128t-4 109t-1 72q0 8 -1 28t-1 41t1 40t1 27q-26 -10 -64 -43t-78 -61 q-40 -114 -67 -229t-31 -215zM302 1060q66 36 142 68t147 54t128 30t83 -4q42 -38 40 -94t-29 -121t-71 -135t-85 -135t-70 -122t-27 -98t44 -60t144 -9q76 16 157 55t149 83q42 118 57 244t3 240t-53 207t-113 146t-175 56t-239 -61q-48 -24 -111 -118t-121 -226zM480 1022 l6 -484l278 542q-16 46 -62 52t-96 -10t-88 -46t-38 -54z" />
<glyph unicode="&#xaf;" d="M30 1256q6 12 18 21t27 13t27 6q26 6 83 17t129 25t151 29t152 29t130 24t85 16q46 8 58 -8t5 -42t-26 -52t-37 -38q-58 8 -137 -2t-162 -27t-167 -37t-153 -30t-118 -6t-63 34q-8 16 -2 28z" />
<glyph unicode="&#xb0;" horiz-adv-x="470" d="M-24 974q6 56 37 112t79 103t105 68t118 6t117 -83q20 -62 0 -132t-71 -126t-127 -89t-168 -21q-26 10 -44 31t-26 37q-26 38 -20 94zM54 969q-4 -51 34 -78t128 1q72 46 104 93t35 87t-15 71t-45 48t-56 15t-45 -28q-60 -38 -98 -98t-42 -111z" />
<glyph unicode="&#xb1;" horiz-adv-x="1668" d="M38 652q-14 22 1 46t41 43t55 33t43 18q20 6 60 17t92 25t108 29t108 29t92 24t60 16q4 26 6 76t8 106t19 109t37 89q4 8 17 21t17 13q8 0 20 -4t23 -9t19 -11t8 -10v-346q20 -2 89 7t159 20t187 19t175 5t123 -22t31 -63q-2 -6 -15 -19t-19 -17q-18 0 -63 1t-95 1 t-94 -1t-62 -1q-46 -2 -116 -7t-136 -10t-114 -10t-50 -7q-10 -12 -22 -52t-23 -97t-21 -123t-18 -131t-15 -121t-11 -90q134 16 271 32t253 29t197 24t105 15q46 8 58 -8t5 -42t-26 -52t-37 -38q-44 6 -129 0t-193 -19t-232 -30t-249 -34t-241 -30t-208 -18t-151 1t-71 28 q-8 16 -2 28t18 21t27 13t27 6q14 4 58 10t108 14l144 18q80 10 168 20q0 24 -1 55t-1 61t1 56t3 38q6 90 24 188t10 192q-96 -8 -186 -42t-174 -68t-160 -57t-140 -7z" />
<glyph unicode="&#xb2;" horiz-adv-x="1424" d="M45 472q0 8 0.5 15t0.5 10q10 45 36 86t67.5 75t98 58t127.5 37q36 41 68 86t54.5 92t31.5 95.5t-1 95.5l-204 -112h-50v32l229 145q28 18 52 17t41.5 -11t26.5 -26t7 -28q-3 -11 -6.5 -29.5t-7 -36.5t-7.5 -32t-4 -15q-6 -14 -23.5 -48t-38 -72.5t-38.5 -73t-27 -46.5 q-22 -14 -13 -23.5t29 -14.5q23 -7 60 -11q34 -1 77 2.5t89 10t92.5 14t86 13.5t68.5 8.5t44 0.5q7 -2 17.5 -8t7.5 -8l-50 -49q-3 -3 -34 -10.5t-71 -15t-81.5 -14.5t-66.5 -8q-19 -2 -66 -2.5t-100.5 -0.5t-100.5 0.5t-66 2.5q-8 -10 -33 -33t-53 -48.5t-54.5 -48 t-36.5 -30.5q-12 -10 -30 -24.5t-40.5 -27t-50.5 -18t-56 4.5q0 3 -0.5 9.5t-0.5 14.5zM112 496q0 -8 10 -8q9 0 9 8t-9 8q-10 0 -10 -8zM146 545q0 -12 1 -17h26l151 145h-25q-8 0 -31 -12.5t-48 -30t-46 -36.5t-27 -33q-1 -4 -1 -16z" />
<glyph unicode="&#xb3;" horiz-adv-x="632" d="M21.5 552.5q-0.5 29.5 3.5 57.5q11 5 23 -8t26.5 -35t32 -49t40.5 -49.5t52.5 -36t66 -8.5t82.5 32.5t104 87.5q77 81 83.5 141.5t-38 91.5t-130.5 27.5t-192 -48.5q-27 0 -16.5 15t41 39.5t74 54t83 58.5t67.5 54t28 40v16q-18 4 -42.5 -2.5t-51.5 -18t-54 -25 t-52 -20.5t-45 -4.5t-32 21.5q-5 7 0 15t13 15t16 12l14 7q16 3 55 13t83.5 20.5t83.5 19t54 12.5q5 1 21.5 1t21.5 -1q10 -26 -3 -56t-35 -58.5t-48 -54.5t-42 -43q15 4 35 -3.5t29 -13.5q56 -34 81 -78t23 -91.5t-25.5 -95t-61.5 -89t-86 -74.5t-99.5 -50t-101.5 -17 t-92 24q-32 19 -51 43.5t-28.5 53t-10 58z" />
<glyph unicode="&#xb4;" horiz-adv-x="384" d="M38 1323q-12 19 0 44t59 61t151 94q38 10 50 -4t3 -40t-33 -60t-58 -64t-72 -51t-74 -23q-14 24 -26 43z" />
<glyph unicode="&#xb5;" horiz-adv-x="898" d="M0 -260l44 498l26 770q0 18 14 26t32 10t35 0t23 -4q-2 -26 -2 -80t-1 -122t0 -144t1 -146v-122q0 -54 2 -80q4 -112 31 -156t66 -41t82 44t80 98t62 119t25 110v520h140q-4 -46 -10 -120t-7 -160t3 -175t19 -168t43 -138t73 -84t109 -8t152 91q18 -52 -14 -100t-84 -84 t-112 -53t-102 -7q-6 2 -19 16t-17 20q-8 14 -28 53t-42 83t-41 84t-27 56q-12 -22 -40 -67t-67 -96t-84 -96t-91 -64t-90 -4t-80 85q-2 2 -1 -34t1 -90t-1 -118t-5 -116z" />
<glyph unicode="&#xb6;" horiz-adv-x="912" d="M-29 1007q25 93 96 178t177 152t225 94t241 7t224 -110l-300 -1306l-104 2l252 1142q-22 4 -47 7t-53 9l-284 -1078q22 -34 10 -56t-39 -34t-59 -15t-50 1v70l178 904q-40 -30 -94 -62t-114 -55t-122 -32t-120 9q-42 80 -17 173z" />
<glyph unicode="&#xb7;" horiz-adv-x="368" d="M90 655q10 41 43 61t76 12t77 -58q18 -26 1 -59t-48 -54t-67 -24t-60 31q-32 50 -22 91z" />
<glyph unicode="&#xb8;" horiz-adv-x="900" d="M128 -622q-2 40 5 66t21 35t34 -11q-4 -108 40 -164t107 -70t133 7t121 69t70 116t-21 146q-52 58 -114 75t-125 26t-123 28t-108 83q-22 108 -5 170t47 73t61 -32t37 -141q-4 -14 30 -30t87 -37t117 -49t118 -64t90 -83t34 -106t-50 -131t-164 -162q-36 -28 -79 -48 t-89 -27t-92 1t-86 38q-32 24 -53 62t-31 79t-12 81z" />
<glyph unicode="&#xb9;" horiz-adv-x="632" d="M14 960q-2 3 14 17t44 33.5t63.5 42.5t71.5 43t67.5 34.5t52.5 19.5t27 -3.5t-9 -36.5q-4 -7 -14.5 -24.5t-23 -37t-23.5 -37t-17 -24.5q-2 -14 -8 -43.5t-14 -67t-16.5 -79t-15.5 -79t-13 -67.5t-7 -44q-5 -31 -5 -38.5t1 -4.5t2.5 10.5t1.5 6.5q-2 -16 -4 -43.5 t-4.5 -58t-4 -58.5t-2.5 -43q0 -7 -6.5 -14.5t-17.5 -12t-25 -5.5t-27 5v27q8 89 12.5 165t12 149t22 147.5t44.5 161.5q-14 -9 -33.5 -18.5t-44 -16.5t-50.5 -9t-51 3z" />
<glyph unicode="&#xba;" horiz-adv-x="426" d="M-81 1083q2 4 12 10.5t15 7.5q142 13 237.5 -18.5t152.5 -88t78 -130t15 -145.5t-36 -134t-76 -95.5t-104.5 -29.5t-121.5 63q-39 37 -47 82t0 94.5t25.5 100t30 97.5t14 88t-22.5 70q-12 16 -33.5 15.5t-46 -4t-49 -2.5t-43.5 19zM145 643q-2 -10 0.5 -22.5t7.5 -24 t10.5 -22t9.5 -16.5q2 -3 10 -8t16.5 -11t16.5 -10.5t11 -5.5q58 21 86.5 56.5t34 79t-6 91.5t-34 92.5t-51.5 82t-56 61.5q-1 -13 -6 -39.5t-9.5 -60t-11 -71.5t-12 -72t-10 -60.5t-6.5 -39.5z" />
<glyph unicode="&#xbb;" horiz-adv-x="2274" d="M32 1115q10 15 30 23t42 10t36 -4q8 -2 28 -11t42 -20t41 -21t27 -16l1214 -242q8 -2 8 -16t-8 -20q-60 -60 -160 -114t-215 -108t-236 -112t-225 -127t-178 -151t-98 -186l-136 34q-8 2 -6 32t11 61t26 49t39 -2q24 20 75 59t115 87t136 101t137 100t117 84t78 55 q14 10 54 30l84 42q44 22 84 40q38 18 54 26q-130 22 -284 38q-156 18 -318 46t-320 73t-292 121q-12 24 -2 39zM680 1189q10 15 30 23t42 10t36 -4q8 -2 28 -11t42 -20t41 -21t27 -16l1214 -242q8 -2 8 -16t-8 -20q-60 -60 -160 -114t-215 -108t-236 -112t-225 -127 t-178 -151t-98 -186l-136 34q-8 2 -6 32t11 61t26 49t39 -2q24 20 75 59t115 87t136 101t137 100t117 84t78 55q14 10 54 30l84 42q44 22 84 40q38 18 54 26q-130 22 -284 38q-156 18 -318 46t-320 73t-292 121q-12 24 -2 39z" />
<glyph unicode="&#xbc;" horiz-adv-x="1242" d="M46 963q-2 3 14 16.5t43 32t61.5 40t69.5 40t66 33t51.5 18.5t26.5 -4t-9 -34q-4 -6 -14 -23t-22 -35.5t-23 -34.5t-17 -23q-2 -13 -8 -41t-14 -63.5t-15.5 -75t-15 -75t-13 -63.5t-7.5 -41q-4 -30 -4 -37t1 -4.5t2 9.5l1 7q-1 -15 -3 -41.5t-4.5 -55t-3.5 -55t-3 -40.5 q0 -7 -6.5 -13.5t-17 -11t-24.5 -5.5t-26 4v26q8 85 12.5 156.5t11.5 140t21.5 139.5t42.5 153q-12 -8 -31.5 -17t-43 -15.5t-49.5 -9t-50 2.5zM54 113.5q0 12.5 3 16.5l15 71q11 49 25 110t28.5 128.5t29 128.5t26 110t17.5 72q30 105 69.5 213t87.5 212t102 202.5 t109 187.5q16 24 46 63.5t62 75t57 62t32 26.5h57v-66q-15 -17 -51.5 -63t-77 -97.5t-76.5 -98.5t-49 -66q-5 -5 -13 -18.5t-17 -29.5t-17 -30t-10 -19q-11 -32 -36.5 -98t-56 -149.5t-64 -175.5t-64.5 -176.5t-54.5 -151t-35.5 -98.5q-17 -49 -15.5 -108.5t0.5 -117.5 t-13 -110.5t-56 -86.5q-3 2 -12 11.5t-18 19.5t-17 20.5t-10 14.5q-3 3 -3 15.5zM276 348q6 14 17.5 42t26.5 64.5t32.5 75.5t32.5 75t27 64t19 42q4 9 13.5 24t22 24.5t26.5 9t26 -20.5q-4 -9 -13.5 -29t-20.5 -43t-20 -44t-11 -30q-3 -5 -3 -18t3 -17q10 -1 38.5 -10 t64 -21.5t75 -26t72.5 -23t55.5 -13.5t25.5 3l154 489q3 14 15.5 17t25 -0.5t20.5 -13t5 -22.5l-110 -398v-54l17.5 7t26.5 11t26 11t17 7h23q-33 -21 -58.5 -38t-44.5 -35.5t-32 -40t-19 -50.5q-3 -11 -8.5 -35t-12 -54.5t-13.5 -64.5t-13.5 -64.5t-11.5 -54.5t-7 -35 q-6 -3 -13.5 -7t-17 -7t-19 -4.5t-17.5 0.5q0 3 -0.5 11t-0.5 16.5t0.5 16t0.5 10.5q2 7 5 26.5t7.5 45.5t9.5 55.5t9.5 55t7.5 45.5t5 26q0 3 0.5 11t0.5 16.5t-0.5 16.5t-0.5 11q-14 4 -51.5 15t-80.5 22.5t-81 22t-53 13.5q-24 5 -46 -8.5t-41.5 -36t-37.5 -47t-34 -41 t-31.5 -18t-29.5 22.5z" />
<glyph unicode="&#xbd;" horiz-adv-x="1270" d="M26 84.5q0 12.5 4 16.5l15 72q12 50 26 111.5t29.5 130t30.5 130.5t27 111.5t19 72.5q30 106 71.5 215.5t91.5 215t106 205.5t114 189q17 25 48 65t64.5 76t59.5 62.5t33 26.5h59v-67q-15 -17 -53 -63.5t-80.5 -98.5t-80 -100t-50.5 -67q-5 -5 -13.5 -18.5t-18 -29.5 t-18 -30.5t-9.5 -19.5q-12 -33 -38.5 -99.5t-58.5 -151t-67 -178t-67 -179t-56.5 -153t-36.5 -99.5q-19 -50 -17 -109.5t1 -118.5t-13.5 -112.5t-58.5 -87.5q-4 2 -13 11.5t-18.5 20t-18 21t-9.5 14.5q-4 3 -4 15.5zM64 1220q-1 4 13 21.5t39 42t56 53t63 53.5t60 43.5 t47 24.5t24 -4.5t-8 -45.5q-4 -9 -13 -31t-20 -46.5t-21 -46t-15 -30.5q-2 -17 -7.5 -54.5t-12.5 -84.5t-14 -98.5t-13.5 -98.5t-12 -84.5t-6.5 -55.5q-4 -39 -4 -48t0.5 -5.5t2 12.5t1.5 8q-1 -19 -3 -54t-4 -73t-3.5 -73t-2.5 -54q0 -9 -6 -18t-15.5 -15t-22 -7t-24.5 6 v34q8 112 12 207t10.5 186t19.5 184.5t39 202.5q-12 -11 -29.5 -22.5t-39 -20.5t-45 -12t-45.5 4zM242 161q0 11 0.5 20.5t0.5 13.5q9 64 31 122t58 105t85 81t111 52q31 58 58.5 121t47.5 129t27.5 134.5t-1.5 134.5l-176 -157h-43v44l197 204q25 25 45.5 23.5t36 -15.5 t23 -36t6.5 -39q-3 -16 -6 -42t-6 -51.5t-6.5 -45t-3.5 -20.5q-5 -19 -20 -67.5t-33 -102.5l-34 -102t-23 -66q-19 -20 -11.5 -33t25.5 -20q20 -10 52 -15q29 -2 66.5 3t77.5 14t79.5 19.5t74 19t60 12.5t37.5 0q7 -3 15.5 -11.5t6.5 -10.5l-43 -69q-3 -4 -29.5 -14.5 t-61.5 -21t-71 -20t-58 -12.5q-16 -2 -56.5 -3t-87 -1t-87 1t-56.5 3q-8 -13 -29.5 -45.5t-45.5 -68t-47 -67.5t-32 -44q-10 -13 -25.5 -33.5t-35.5 -38.5t-44 -25.5t-48 6.5q0 4 -0.5 14t-0.5 21zM300 193.5q0 -11.5 9 -11.5q7 0 7 11.5t-7 11.5q-9 0 -9 -11.5zM329 263 q0 -17 1 -24h23l131 203h-22q-7 0 -27 -17.5t-41.5 -41.5t-40 -51.5t-23.5 -46.5q-1 -5 -1 -22z" />
<glyph unicode="&#xbe;" horiz-adv-x="1398" d="M30.5 630q-0.5 37 3.5 72q10 7 21.5 -9.5t25 -44t30.5 -61.5t38.5 -62.5t49.5 -45.5t63 -10.5t78.5 41t97.5 110.5q74 101 79.5 177t-36 114.5t-123 34.5t-182.5 -60q-26 0 -16 18.5t39 49t70 68t78.5 74t64 67.5t26.5 50v20q-17 6 -40.5 -2.5t-49 -23t-51 -31 t-48.5 -25.5t-42.5 -6t-30.5 27q-5 9 -0.5 19t12 19t16.5 15l12 8q15 4 52.5 16.5t79.5 25.5t79 24t51 16q5 1 20.5 1t20.5 -1q9 -33 -3.5 -70.5t-33 -73.5t-45 -68.5t-39.5 -53.5q14 5 33 -4.5t27 -16.5q54 -44 77 -99t21.5 -114.5t-24 -119t-58.5 -112t-81 -93.5t-94 -63 t-96.5 -22t-87.5 31q-30 24 -48 55t-27 66.5t-9.5 72.5zM319 -5.5q0 12.5 3 16.5l15 76q11 52 24 116.5t27 136t28 136.5t25 116.5t17 75.5q29 111 67 225.5t84 225t97.5 215t105.5 197.5q15 26 44 68t59.5 79.5t54.5 65.5t31 28h54v-70q-14 -17 -49 -66t-74 -103.5 t-73.5 -104.5t-46.5 -70q-5 -6 -13 -20t-16.5 -30.5t-16.5 -31.5t-9 -21q-11 -34 -35 -103.5t-54 -158t-62 -186t-61.5 -187t-52.5 -160.5t-34 -104q-17 -52 -15.5 -114.5t1 -124.5t-12.5 -117.5t-54 -91.5q-3 2 -11.5 12t-17 21t-16.5 22t-10 15q-3 4 -3 16.5zM379 366 q6 16 16 51t23.5 80t28.5 93.5t28 93t24 79.5t16 52q4 11 12 29t19.5 30t23.5 11t22 -25q-3 -11 -11.5 -36t-18 -53.5t-17 -54.5t-10.5 -36q-2 -6 -2 -22.5t2 -21.5q9 -1 34.5 -12t56.5 -26.5t65.5 -32.5t64 -28.5t49 -17t21.5 3.5l135 606q3 17 14 21t22 -1t18 -16.5 t4 -26.5l-96 -493v-68q5 3 15.5 9.5t22.5 13.5t23 13.5t15 9.5h20q-29 -26 -51.5 -47.5t-39 -44t-27.5 -49t-17 -62.5q-2 -15 -7 -44.5t-11 -67t-12 -79.5t-11.5 -79.5t-10 -67.5t-6.5 -44q-5 -4 -11.5 -8.5t-15 -8.5t-17 -6t-14.5 1q0 4 -0.5 13.5t-0.5 20t0.5 20t0.5 13.5 q1 8 3.5 32.5t6.5 56.5t8.5 68.5t8.5 68.5t7 56.5t4 32.5q0 4 0.5 13.5t0.5 20t-0.5 20t-0.5 13.5q-13 5 -45.5 18.5t-70 28t-71 27.5t-47.5 16q-21 7 -40 -10t-36.5 -44.5t-33 -58t-29.5 -50.5t-28 -22t-26 28z" />
<glyph unicode="&#xbf;" horiz-adv-x="1026" d="M-133.5 573.5q3.5 28.5 28.5 36.5q68 20 171 47.5t215.5 44.5t219.5 13.5t185 -46.5q16 -9 35 -30t31.5 -47.5t11.5 -52.5t-25 -44l-660 -494q-50 -37 -64 -64t-1.5 -45t45 -29t76 -17t93 -6t93.5 2t79 6t50 9q45 13 53.5 -3t-8 -40t-51.5 -47.5t-75 -26.5 q-20 -2 -63 -3.5t-95.5 1.5t-106.5 14t-94.5 34.5t-59.5 61t-2 94.5q2 7 8.5 20.5t15 27.5t17 26t11.5 13l581 435q12 10 29.5 35.5t24 50.5t-3 44t-50.5 16q-20 3 -68.5 4t-103.5 1t-103.5 -1t-68.5 -4q-8 0 -32 -6.5t-56 -16t-69.5 -19.5t-69.5 -19t-56 -16.5t-32 -9.5 h-53q-6 22 -2.5 50.5zM131 1240.5q13 27.5 36.5 45t51 20t45.5 -25.5q25 -42 17 -76.5t-33 -51t-57.5 -10t-58.5 48.5q-14 22 -1 49.5z" />
<glyph unicode="&#xc0;" horiz-adv-x="1528" d="M70 -86q14 18 45 56t68 86t79 101t79 101t66 86t43 58q26 34 9 95t-50 131t-71 140t-54 120t2 72t98 -4q28 -84 78 -172t128 -140q64 42 121 114t106 162t90 191t74 200t57 187t40 152q16 28 45 44t57 26q14 -18 18 -88t4 -171t-3 -224t-4 -248t1 -244t11 -210t27 -147 t50 -56h210v-124h-174q-36 0 -28 -45t37 -115t68 -155t66 -163t31 -142t-36 -90q-8 -4 -35 -4t-35 4q-10 36 -40 124t-63 188t-63 188t-42 124q-2 10 -15 36t-21 34q-22 8 -81 27t-125 42t-125 43t-83 28q-6 2 -26 13t-44 24t-44 23t-26 10q-38 0 -72 -46t-68 -114t-72 -145 t-84 -139t-101 -97t-123 -17v70zM660 538q8 -6 33 -21t52 -32t52 -31t37 -18q12 -6 45 -21t72 -32t75 -31t52 -20q4 -2 16 -2t16 2q8 82 0 206t-21 254t-27 249t-20 191zM975 2279q5 27 26 21t55 -36t73 -64t81 -63t80 -33q4 -48 -13 -66t-46 -16t-65 19t-71 41t-64 49 t-43 43q-18 78 -13 105z" />
<glyph unicode="&#xc1;" horiz-adv-x="1528" d="M118 -136q14 18 45 56t68 86t79 101t79 101t66 86t43 58q26 34 9 95t-50 131t-71 140t-54 120t2 72t98 -4q28 -84 78 -172t128 -140q64 42 121 114t106 162t90 191t74 200t57 187t40 152q16 28 45 44t57 26q14 -18 18 -88t4 -171t-3 -224t-4 -248t1 -244t11 -210t27 -147 t50 -56h210v-124h-174q-36 0 -28 -45t37 -115t68 -155t66 -163t31 -142t-36 -90q-8 -4 -35 -4t-35 4q-10 36 -40 124t-63 188t-63 188t-42 124q-2 10 -15 36t-21 34q-22 8 -81 27t-125 42t-125 43t-83 28q-6 2 -26 13t-44 24t-44 23t-26 10q-38 0 -72 -46t-68 -114t-72 -145 t-84 -139t-101 -97t-123 -17v70zM708 488q8 -6 33 -21t52 -32t52 -31t37 -18q12 -6 45 -21t72 -32t75 -31t52 -20q4 -2 16 -2t16 2q8 82 0 206t-21 254t-27 249t-20 191zM818 2261q-12 19 0 44t59 61t151 94q38 10 50 -4t3 -40t-33 -60t-58 -64t-72 -51t-74 -23 q-14 24 -26 43z" />
<glyph unicode="&#xc2;" horiz-adv-x="1528" d="M88 16q14 18 45 56t68 86t79 101t79 101t66 86t43 58q26 34 9 95t-50 131t-71 140t-54 120t2 72t98 -4q28 -84 78 -172t128 -140q64 42 121 114t106 162t90 191t74 200t57 187t40 152q16 28 45 44t57 26q14 -18 18 -88t4 -171t-3 -224t-4 -248t1 -244t11 -210t27 -147 t50 -56h210v-124h-174q-36 0 -28 -45t37 -115t68 -155t66 -163t31 -142t-36 -90q-8 -4 -35 -4t-35 4q-10 36 -40 124t-63 188t-63 188t-42 124q-2 10 -15 36t-21 34q-22 8 -81 27t-125 42t-125 43t-83 28q-6 2 -26 13t-44 24t-44 23t-26 10q-38 0 -72 -46t-68 -114t-72 -145 t-84 -139t-101 -97t-123 -17v70zM678 640q8 -6 33 -21t52 -32t52 -31t37 -18q12 -6 45 -21t72 -32t75 -31t52 -20q4 -2 16 -2t16 2q8 82 0 206t-21 254t-27 249t-20 191zM689 2247q3 21 9 33q2 6 0 6t5 10t30 36t77 84t145 154t233 246q4 8 17 4t17 -10q48 -70 72 -123 t39 -93t30 -73t46 -64t86 -64t153 -73l-58 -130q-30 28 -61 44t-62 31t-66 36t-72 60t-80 102t-91 165l-408 -462q-26 -6 -40 6t-19 33t-2 42z" />
<glyph unicode="&#xc3;" horiz-adv-x="1528" d="M88 -92q14 18 45 56t68 86t79 101t79 101t66 86t43 58q26 34 9 95t-50 131t-71 140t-54 120t2 72t98 -4q28 -84 78 -172t128 -140q64 42 121 114t106 162t90 191t74 200t57 187t40 152q16 28 45 44t57 26q14 -18 18 -88t4 -171t-3 -224t-4 -248t1 -244t11 -210t27 -147 t50 -56h210v-124h-174q-36 0 -28 -45t37 -115t68 -155t66 -163t31 -142t-36 -90q-8 -4 -35 -4t-35 4q-10 36 -40 124t-63 188t-63 188t-42 124q-2 10 -15 36t-21 34q-22 8 -81 27t-125 42t-125 43t-83 28q-6 2 -26 13t-44 24t-44 23t-26 10q-38 0 -72 -46t-68 -114t-72 -145 t-84 -139t-101 -97t-123 -17v70zM450 2402q54 106 113 149t122 47t128 -19t131 -49t131 -41t127 3q24 18 65 58t85 82t84 75t64 37t23 -32t-39 -132q-58 -60 -120 -108t-127 -79t-130 -42t-131 5q-44 12 -103 44t-120 50t-120 3t-101 -97zM678 532q8 -6 33 -21t52 -32 t52 -31t37 -18q12 -6 45 -21t72 -32t75 -31t52 -20q4 -2 16 -2t16 2q8 82 0 206t-21 254t-27 249t-20 191z" />
<glyph unicode="&#xc4;" horiz-adv-x="1528" d="M74 -52q14 18 45 56t68 86t79 101t79 101t66 86t43 58q26 34 9 95t-50 131t-71 140t-54 120t2 72t98 -4q28 -84 78 -172t128 -140q64 42 121 114t106 162t90 191t74 200t57 187t40 152q16 28 45 44t57 26q14 -18 18 -88t4 -171t-3 -224t-4 -248t1 -244t11 -210t27 -147 t50 -56h210v-124h-174q-36 0 -28 -45t37 -115t68 -155t66 -163t31 -142t-36 -90q-8 -4 -35 -4t-35 4q-10 36 -40 124t-63 188t-63 188t-42 124q-2 10 -15 36t-21 34q-22 8 -81 27t-125 42t-125 43t-83 28q-6 2 -26 13t-44 24t-44 23t-26 10q-38 0 -72 -46t-68 -114t-72 -145 t-84 -139t-101 -97t-123 -17v70zM664 572q8 -6 33 -21t52 -32t52 -31t37 -18q12 -6 45 -21t72 -32t75 -31t52 -20q4 -2 16 -2t16 2q8 82 0 206t-21 254t-27 249t-20 191zM806 2356q-16 22 2 57t49 58t67 22t54 -51q20 -54 3 -93t-50 -54t-70 -1t-55 62zM1140 2388 q-18 36 0 73t50 55t67 5t51 -79q12 -48 -5 -77t-47 -37t-63 6t-53 54z" />
<glyph unicode="&#xc5;" horiz-adv-x="1528" d="M74 104v70q14 18 45 56t68 86t79 101t79 101t66 86t43 58q26 34 9 95t-50 131t-71 140t-54 120t2 72t98 -4q28 -84 78 -172t128 -140q64 42 121 114t106 162t90 191t74 200t57 187t40 152q16 28 45 44t57 26q14 -18 18 -88t4 -171t-3 -224t-4 -248t1 -244t11 -210 t27 -147t50 -56h210v-124h-174q-36 0 -28 -45t37 -115t68 -155t66 -163t31 -142t-36 -90q-8 -4 -35 -4t-35 4q-10 36 -40 124t-63 188t-63 188t-42 124q-2 10 -15 36t-21 34q-22 8 -81 27t-125 42t-125 43t-83 28q-6 2 -26 13t-44 24t-44 23t-26 10q-38 0 -72 -46t-68 -114 t-72 -145t-84 -139t-101 -97t-123 -17zM664 798q8 -6 33 -21t52 -32t52 -31t37 -18q12 -6 45 -21t72 -32t75 -31t52 -20q4 -2 16 -2t16 2q8 82 0 206t-21 254t-27 249t-20 191zM868 2502q8 94 52 166t126 102t214 -18q56 -20 84 -62t50 -92q32 -102 21 -194t-63 -152 t-148 -78t-236 24q-32 18 -55 58t-35 72q-18 80 -10 174zM924 2435q6 -69 66 -149q26 -18 60 -28t70 -11t68 7t54 26q72 120 86 202t-9 131t-73 66t-107 7t-110 -43t-82 -86t-23 -122z" />
<glyph unicode="&#xc6;" horiz-adv-x="2140" d="M52 118v70q14 18 44 56t68 86t79 101t78 101t67 86t44 58q26 34 9 96t-51 132t-72 140t-54 120t3 71t97 -5q14 -42 33 -86t45 -85t58 -78t72 -63q64 40 130 105t130 144t122 167t105 174t80 167t49 145q16 28 46 44t56 26q16 -22 15 -109t-9 -221t-16 -306t-6 -366 l16 222q2 16 2 56v166q0 40 -2 56l36 36l624 208h70q10 -28 3 -60t-39 -44l-520 -210l-34 -34q-2 -2 -7 -42t-11 -95t-11 -113t-7 -96q0 -10 -1 -35t-1 -52t1 -52t1 -35l590 312q14 8 21 -4t7 -32t-7 -40t-21 -28q-34 -22 -83 -50t-102 -59t-106 -61t-95 -54t-69 -39 t-29 -15h-140v-450q0 -92 41 -118t103 -11t136 59t140 94t113 93t57 55q8 50 22 82q12 28 32 40t50 -18q12 -62 -19 -134t-89 -139t-135 -124t-158 -90t-158 -37t-133 36q16 -66 36 -131t42 -129q-4 -2 -29 -3t-54 0t-54 3t-29 4q-8 24 -16 72t-18 110t-20 129t-21 129 t-20 110t-17 72q-2 8 -16 34t-20 34q-24 8 -83 27t-125 42t-125 43t-83 28q-6 2 -26 13t-43 24t-43 23t-26 10q-38 0 -72 -46t-68 -113t-72 -144t-84 -139t-101 -97t-123 -19zM642 814q8 -6 33 -22t52 -32t52 -31t37 -19q12 -6 45 -21t72 -32t74 -31t51 -20q4 -2 17 -2t17 2 q8 82 21 190t24 218t17 213t0 175z" />
<glyph unicode="&#xc7;" horiz-adv-x="1268" d="M56 584q6 130 35 260t79 248t118 205t153 132t183 29q4 -20 15 -69t22 -105t20 -105t13 -69q4 -22 -14 -48t-43 -42t-49 -15t-32 35q-6 20 -10 58t-10 80t-16 79t-28 53t-45 5t-65 -65q-12 -16 -29 -43t-34 -55t-29 -50t-12 -26l-104 -556q-18 -92 2 -165t64 -124 t108 -80t135 -32t144 18t137 71q24 18 63 68t83 113t92 132t90 124t74 89t48 30q30 -88 -3 -186t-108 -191t-180 -173t-219 -132q-106 -48 -210 -66q8 -34 12 -84q-4 -14 30 -30t87 -37t117 -49t118 -64t90 -83t34 -106t-50 -131t-164 -162q-36 -28 -79 -48t-89 -27t-92 1 t-86 38q-32 24 -53 62t-31 79t-12 81t5 66t21 35t34 -11q-4 -108 40 -164t107 -70t133 7t121 69t70 116t-21 146q-52 58 -114 75t-125 26t-123 28t-108 83q-20 92 -10 150q-42 6 -78 22q-82 32 -133 115t-73 194t-16 241z" />
<glyph unicode="&#xc8;" d="M34 346q4 28 10 88t14 135t15 159t14 159t11 135t6 88q2 16 2 56v166q0 40 -2 56l36 36l624 208h70q10 -28 3 -60t-39 -44l-520 -210l-34 -34q-2 -2 -6 -42t-10 -95t-12 -113t-8 -96q0 -10 -1 -35t-1 -52t1 -52t1 -35l590 312q14 8 21 -4t7 -32t-7 -40t-21 -28 q-34 -22 -83 -50t-102 -59t-106 -61t-95 -54t-69 -39t-29 -15h-140v-450q0 -92 41 -118t104 -11t137 59t139 94t112 93t57 55q8 50 22 82q12 28 32 40t50 -18q12 -62 -19 -134t-89 -140t-137 -125t-160 -90t-157 -36t-132 39q-78 58 -103 138t-37 174zM415 1953q5 27 26 21 t55 -36t73 -64t81 -63t80 -33q4 -48 -13 -66t-46 -16t-65 19t-71 41t-64 49t-43 43q-18 78 -13 105z" />
<glyph unicode="&#xc9;" d="M34 346q4 28 10 88t14 135t15 159t14 159t11 135t6 88q2 16 2 56v166q0 40 -2 56l36 36l624 208h70q10 -28 3 -60t-39 -44l-520 -210l-34 -34q-2 -2 -6 -42t-10 -95t-12 -113t-8 -96q0 -10 -1 -35t-1 -52t1 -52t1 -35l590 312q14 8 21 -4t7 -32t-7 -40t-21 -28 q-34 -22 -83 -50t-102 -59t-106 -61t-95 -54t-69 -39t-29 -15h-140v-450q0 -92 41 -118t104 -11t137 59t139 94t112 93t57 55q8 50 22 82q12 28 32 40t50 -18q12 -62 -19 -134t-89 -140t-137 -125t-160 -90t-157 -36t-132 39q-78 58 -103 138t-37 174zM336 1747q-12 19 0 44 t59 61t151 94q38 10 50 -4t3 -40t-33 -60t-58 -64t-72 -51t-74 -23q-14 24 -26 43z" />
<glyph unicode="&#xca;" d="M34 346q4 28 10 88t14 135t15 159t14 159t11 135t6 88q2 16 2 56v166q0 40 -2 56l36 36l624 208h70q10 -28 3 -60t-39 -44l-520 -210l-34 -34q-2 -2 -6 -42t-10 -95t-12 -113t-8 -96q0 -10 -1 -35t-1 -52t1 -52t1 -35l590 312q14 8 21 -4t7 -32t-7 -40t-21 -28 q-34 -22 -83 -50t-102 -59t-106 -61t-95 -54t-69 -39t-29 -15h-140v-450q0 -92 41 -118t104 -11t137 59t139 94t112 93t57 55q8 50 22 82q12 28 32 40t50 -18q12 -62 -19 -134t-89 -140t-137 -125t-160 -90t-157 -36t-132 39q-78 58 -103 138t-37 174zM53 1703q3 21 9 33 q2 6 0 6t5 10t30 36t77 84t145 154t233 246q4 8 17 4t17 -10q48 -70 72 -123t39 -93t30 -73t46 -64t86 -64t153 -73l-58 -130q-30 28 -61 44t-62 31t-66 36t-72 60t-80 102t-91 165l-408 -462q-26 -6 -40 6t-19 33t-2 42z" />
<glyph unicode="&#xcb;" d="M34 346q4 28 10 88t14 135t15 159t14 159t11 135t6 88q2 16 2 56v166q0 40 -2 56l36 36l624 208h70q10 -28 3 -60t-39 -44l-520 -210l-34 -34q-2 -2 -6 -42t-10 -95t-12 -113t-8 -96q0 -10 -1 -35t-1 -52t1 -52t1 -35l590 312q14 8 21 -4t7 -32t-7 -40t-21 -28 q-34 -22 -83 -50t-102 -59t-106 -61t-95 -54t-69 -39t-29 -15h-140v-450q0 -92 41 -118t104 -11t137 59t139 94t112 93t57 55q8 50 22 82q12 28 32 40t50 -18q12 -62 -19 -134t-89 -140t-137 -125t-160 -90t-157 -36t-132 39q-78 58 -103 138t-37 174zM164 1756q-16 22 2 57 t49 58t67 22t54 -51q20 -54 3 -93t-50 -54t-70 -1t-55 62zM498 1788q-18 36 0 73t50 55t67 5t51 -79q12 -48 -5 -77t-47 -37t-63 6t-53 54z" />
<glyph unicode="&#xcc;" horiz-adv-x="1614" d="M16 -155q8 17 21 32t28 26t21 15l520 206l36 36q-2 34 -3 105t-1 159v374q0 90 1 160t3 104q0 12 5 42t10 64t10 63t9 41h-450q-26 0 -33 14t-3 32t15 35t21 23q244 -18 484 36q42 96 116 148t164 70t187 7t182 -39t150 -68t91 -81t6 -76t-105 -54t-243 -16t-408 39 q-50 -72 -77 -164t-36 -194t-4 -209t18 -210t31 -198t34 -173q60 -12 121 -3t122 29t121 45t121 45t121 29t122 -5q10 -26 4 -60t-38 -44q-162 -30 -351 -71t-384 -97t-381 -126t-342 -158l-36 36q-8 14 0 31zM775 2203q5 27 26 21t55 -36t73 -64t81 -63t80 -33 q4 -48 -13 -66t-46 -16t-65 19t-71 41t-64 49t-43 43q-18 78 -13 105zM850 1446q224 -42 357 -52t195 -1t64 32t-38 47t-110 43t-152 22t-166 -17t-150 -74z" />
<glyph unicode="&#xcd;" horiz-adv-x="1614" d="M16 -155q8 17 21 32t28 26t21 15l520 206l36 36q-2 34 -3 105t-1 159v374q0 90 1 160t3 104q0 12 5 42t10 64t10 63t9 41h-450q-26 0 -33 14t-3 32t15 35t21 23q244 -18 484 36q42 96 116 148t164 70t187 7t182 -39t150 -68t91 -81t6 -76t-105 -54t-243 -16t-408 39 q-50 -72 -77 -164t-36 -194t-4 -209t18 -210t31 -198t34 -173q60 -12 121 -3t122 29t121 45t121 45t121 29t122 -5q10 -26 4 -60t-38 -44q-162 -30 -351 -71t-384 -97t-381 -126t-342 -158l-36 36q-8 14 0 31zM666 1817q-12 19 0 44t59 61t151 94q38 10 50 -4t3 -40t-33 -60 t-58 -64t-72 -51t-74 -23q-14 24 -26 43zM850 1446q224 -42 357 -52t195 -1t64 32t-38 47t-110 43t-152 22t-166 -17t-150 -74z" />
<glyph unicode="&#xce;" horiz-adv-x="1614" d="M16 -155q8 17 21 32t28 26t21 15l520 206l36 36q-2 34 -3 105t-1 159v374q0 90 1 160t3 104q0 12 5 42t10 64t10 63t9 41h-450q-26 0 -33 14t-3 32t15 35t21 23q244 -18 484 36q42 96 116 148t164 70t187 7t182 -39t150 -68t91 -81t6 -76t-105 -54t-243 -16t-408 39 q-50 -72 -77 -164t-36 -194t-4 -209t18 -210t31 -198t34 -173q60 -12 121 -3t122 29t121 45t121 45t121 29t122 -5q10 -26 4 -60t-38 -44q-162 -30 -351 -71t-384 -97t-381 -126t-342 -158l-36 36q-8 14 0 31zM451 1739q3 21 9 33q2 6 0 6t5 10t30 36t77 84t145 154t233 246 q4 8 17 4t17 -10q48 -70 72 -123t39 -93t30 -73t46 -64t86 -64t153 -73l-58 -130q-30 28 -61 44t-62 31t-66 36t-72 60t-80 102t-91 165l-408 -462q-26 -6 -40 6t-19 33t-2 42zM850 1446q224 -42 357 -52t195 -1t64 32t-38 47t-110 43t-152 22t-166 -17t-150 -74z" />
<glyph unicode="&#xcf;" horiz-adv-x="1614" d="M16 -155q8 17 21 32t28 26t21 15l520 206l36 36q-2 34 -3 105t-1 159v374q0 90 1 160t3 104q0 12 5 42t10 64t10 63t9 41h-450q-26 0 -33 14t-3 32t15 35t21 23q244 -18 484 36q42 96 116 148t164 70t187 7t182 -39t150 -68t91 -81t6 -76t-105 -54t-243 -16t-408 39 q-50 -72 -77 -164t-36 -194t-4 -209t18 -210t31 -198t34 -173q60 -12 121 -3t122 29t121 45t121 45t121 29t122 -5q10 -26 4 -60t-38 -44q-162 -30 -351 -71t-384 -97t-381 -126t-342 -158l-36 36q-8 14 0 31zM544 1882q-16 22 2 57t49 58t67 22t54 -51q20 -54 3 -93 t-50 -54t-70 -1t-55 62zM850 1446q224 -42 357 -52t195 -1t64 32t-38 47t-110 43t-152 22t-166 -17t-150 -74zM878 1914q-18 36 0 73t50 55t67 5t51 -79q12 -48 -5 -77t-47 -37t-63 6t-53 54z" />
<glyph unicode="&#xd0;" horiz-adv-x="1404" d="M-40 1154q-18 34 30 69t137 62t209 43t248 14t253 -27t223 -80t158 -143t60 -218q0 -46 -16 -98t-41 -104t-56 -99t-61 -79q-14 -16 -47 -49t-74 -75t-87 -88l-86 -86q-40 -40 -73 -72t-49 -48q-6 -48 -16 -88t-30 -62t-51 -21t-77 33q-44 -30 -93 -85t-101 -106 t-108 -81t-114 -6v70l416 346q2 2 8 51t11 115t9 136t6 116v22l-104 -24q-78 -18 -143 -27t-111 -4t-60 35q-10 16 -4 29t18 21t27 13t27 7q42 8 139 26t207 38h6v288q0 58 -1 102t-1 64q0 8 -5 28t-10 42t-11 41t-8 27q-70 6 -142 -8t-143 -32t-139 -29t-130 1zM688 216 q126 52 222 153t153 221t70 243t-29 217t-144 145t-272 27v-568q32 8 62 12q98 18 140 26q46 8 59 -8t6 -42t-27 -52t-38 -38q-58 8 -134 -2q-34 -4 -68 -10v-324z" />
<glyph unicode="&#xd1;" horiz-adv-x="1198" d="M10 1866q54 106 113 149t122 47t128 -19t131 -49t131 -41t127 3q24 18 65 58t85 82t84 75t64 37t23 -32t-39 -132q-58 -60 -120 -108t-127 -79t-130 -42t-131 5q-44 12 -103 44t-120 50t-120 3t-101 -97zM33 642q-9 304 1 608q4 10 17 37t32 50t43 32t48 -15l174 -174 l486 -800l10 -14q12 -14 28 -29t33 -24t33 1q-2 32 -8 100t-13 153t-15 179t-15 180t-12 154t-7 100q-2 26 -2 87t7 137t22 156t43 141t70 92t102 11q8 0 21 -13t13 -21q-14 -18 -34 -43t-39 -53t-37 -57t-26 -55q-2 -26 -2 -80t-1 -123t0 -144t1 -145v-122q0 -54 2 -80 q0 -16 5 -77t11 -131t12 -132t6 -78q0 -20 1 -62t1 -86t-1 -81t-1 -47q-2 -10 -10 -30t-22 -36t-32 -21t-40 17l-244 242l-450 730l-54 34v-1076q0 -28 -17 -35t-38 -2t-41 16t-24 21q-28 304 -37 608z" />
<glyph unicode="&#xd2;" d="M53 543q13 129 48 257t55 240q8 44 12 106t10 130t16 134t32 118q2 4 14 17t20 17q138 82 248 63t190 -108t129 -232t65 -306t-1 -330t-69 -306t-141 -233t-215 -110q-48 -6 -84 -8t-68 4t-61 23t-63 51q-100 100 -125 222t-12 251zM190 314q0 -12 10 -36t25 -51t33 -51 t36 -36q100 -68 177 -59t133 71t92 166t55 227t21 255t-8 248t-33 207t-55 133q-74 98 -129 130t-96 19t-68 -64t-42 -122t-20 -152t-1 -154t16 -131t28 -80q6 -8 30 -26t54 -41t59 -51t46 -57t16 -55t-33 -48q-26 -18 -57 -10t-63 30t-62 56t-56 66t-45 60t-27 40l-36 -68 v-416zM415 1953q5 27 26 21t55 -36t73 -64t81 -63t80 -33q4 -48 -13 -66t-46 -16t-65 19t-71 41t-64 49t-43 43q-18 78 -13 105z" />
<glyph unicode="&#xd3;" d="M53 543q13 129 48 257t55 240q8 44 12 106t10 130t16 134t32 118q2 4 14 17t20 17q138 82 248 63t190 -108t129 -232t65 -306t-1 -330t-69 -306t-141 -233t-215 -110q-48 -6 -84 -8t-68 4t-61 23t-63 51q-100 100 -125 222t-12 251zM190 314q0 -12 10 -36t25 -51t33 -51 t36 -36q100 -68 177 -59t133 71t92 166t55 227t21 255t-8 248t-33 207t-55 133q-74 98 -129 130t-96 19t-68 -64t-42 -122t-20 -152t-1 -154t16 -131t28 -80q6 -8 30 -26t54 -41t59 -51t46 -57t16 -55t-33 -48q-26 -18 -57 -10t-63 30t-62 56t-56 66t-45 60t-27 40l-36 -68 v-416zM336 1747q-12 19 0 44t59 61t151 94q38 10 50 -4t3 -40t-33 -60t-58 -64t-72 -51t-74 -23q-14 24 -26 43z" />
<glyph unicode="&#xd4;" d="M39 1599q3 21 9 33q2 6 0 6t5 10t30 36t77 84t145 154t233 246q4 8 17 4t17 -10q48 -70 72 -123t39 -93t30 -73t46 -64t86 -64t153 -73l-58 -130q-30 28 -61 44t-62 31t-66 36t-72 60t-80 102t-91 165l-408 -462q-26 -6 -40 6t-19 33t-2 42zM53 543q13 129 48 257t55 240 q8 44 12 106t10 130t16 134t32 118q2 4 14 17t20 17q138 82 248 63t190 -108t129 -232t65 -306t-1 -330t-69 -306t-141 -233t-215 -110q-48 -6 -84 -8t-68 4t-61 23t-63 51q-100 100 -125 222t-12 251zM190 314q0 -12 10 -36t25 -51t33 -51t36 -36q100 -68 177 -59t133 71 t92 166t55 227t21 255t-8 248t-33 207t-55 133q-74 98 -129 130t-96 19t-68 -64t-42 -122t-20 -152t-1 -154t16 -131t28 -80q6 -8 30 -26t54 -41t59 -51t46 -57t16 -55t-33 -48q-26 -18 -57 -10t-63 30t-62 56t-56 66t-45 60t-27 40l-36 -68v-416z" />
<glyph unicode="&#xd5;" d="M-110 1866q54 106 113 149t122 47t128 -19t131 -49t131 -41t127 3q24 18 65 58t85 82t84 75t64 37t23 -32t-39 -132q-58 -60 -120 -108t-127 -79t-130 -42t-131 5q-44 12 -103 44t-120 50t-120 3t-101 -97zM53 543q13 129 48 257t55 240q8 44 12 106t10 130t16 134 t32 118q2 4 14 17t20 17q138 82 248 63t190 -108t129 -232t65 -306t-1 -330t-69 -306t-141 -233t-215 -110q-48 -6 -84 -8t-68 4t-61 23t-63 51q-100 100 -125 222t-12 251zM190 314q0 -12 10 -36t25 -51t33 -51t36 -36q100 -68 177 -59t133 71t92 166t55 227t21 255t-8 248 t-33 207t-55 133q-74 98 -129 130t-96 19t-68 -64t-42 -122t-20 -152t-1 -154t16 -131t28 -80q6 -8 30 -26t54 -41t59 -51t46 -57t16 -55t-33 -48q-26 -18 -57 -10t-63 30t-62 56t-56 66t-45 60t-27 40l-36 -68v-416z" />
<glyph unicode="&#xd6;" d="M53 543q13 129 48 257t55 240q8 44 12 106t10 130t16 134t32 118q2 4 14 17t20 17q138 82 248 63t190 -108t129 -232t65 -306t-1 -330t-69 -306t-141 -233t-215 -110q-48 -6 -84 -8t-68 4t-61 23t-63 51q-100 100 -125 222t-12 251zM164 1720q-16 22 2 57t49 58t67 22 t54 -51q20 -54 3 -93t-50 -54t-70 -1t-55 62zM190 314q0 -12 10 -36t25 -51t33 -51t36 -36q100 -68 177 -59t133 71t92 166t55 227t21 255t-8 248t-33 207t-55 133q-74 98 -129 130t-96 19t-68 -64t-42 -122t-20 -152t-1 -154t16 -131t28 -80q6 -8 30 -26t54 -41t59 -51 t46 -57t16 -55t-33 -48q-26 -18 -57 -10t-63 30t-62 56t-56 66t-45 60t-27 40l-36 -68v-416zM498 1752q-18 36 0 73t50 55t67 5t51 -79q12 -48 -5 -77t-47 -37t-63 6t-53 54z" />
<glyph unicode="&#xd7;" horiz-adv-x="1180" d="M134 168q14 80 43 127t62 77t65 49t51 44t21 62t-24 103q-4 20 -26 58t-48 80t-48 81t-26 57l76 130q14 -42 33 -70t42 -52t50 -51t57 -65q68 110 138 183t138 118t133 64t123 19l-38 -82q-80 -4 -190 -95t-242 -305q-38 -92 -4 -156t110 -88q60 -20 124 -18t118 18 q40 10 67 39t53 57l40 -84q-68 -72 -140 -98t-140 -28t-129 13t-110 26t-82 8t-43 -37q-78 -80 -115 -128t-49 -72q-8 -18 -10 -24q-8 6 -46 6q-4 0 -20 13t-14 21z" />
<glyph unicode="&#xd8;" d="M53 543q13 129 48 257t55 240q8 44 12 106t10 130t16 134t32 118q2 4 14 17t20 17q138 82 248 63t190 -109q18 -20 34 -42q14 14 30 34q38 42 77 80t70 66t39 28h70v-70q-18 -18 -63 -67t-95 -105q-34 -38 -66 -72q18 -40 32 -84q50 -142 66 -305t-1 -330t-69 -306 t-141 -233t-215 -110q-48 -6 -84 -8t-68 4t-62 22q-8 6 -18 12v-12q0 -62 -15 -118t-69 -92q-4 2 -15 12t-22 21t-21 22t-12 15q-4 4 -4 17t4 17l18 76q14 52 30 116l8 28q-54 74 -72 160q-24 122 -11 251zM190 342l10 36q18 66 32 118t22 76q20 62 44 126q-26 32 -46 60 q-18 28 -26 40l-36 -68v-388zM238 204l20 -28q18 -24 36 -36q100 -68 177 -59t133 71t92 166t55 227t21 255t-8 248t-34 206q-4 18 -8 32q-10 -12 -16 -20q-6 -6 -16 -20t-21 -31t-21 -32t-12 -21q-14 -34 -45 -104t-69 -160q-30 -68 -62 -142q24 -18 46 -40q30 -28 47 -57 t16 -55t-33 -48q-26 -18 -57 -10t-63 30l-24 16l-28 -68q-38 -90 -67 -161t-43 -105q-12 -26 -16 -54zM320 1045q4 -73 16 -131q10 -48 22 -72q40 92 88 182q60 112 126 216q50 80 100 152q-72 94 -126 126t-95 19t-68 -64t-42 -122t-20 -152t-1 -154z" />
<glyph unicode="&#xd9;" horiz-adv-x="1244" d="M48 385q0 57 4 101q2 30 7 96t12 148t14 172t14 172t12 147t9 97q10 18 29 32t41 4q28 -16 37 -42t9 -57t-5 -61t-5 -50q-6 -104 -26 -231t-31 -259t-2 -257t59 -223q28 -56 68 -53t85 41t91 100t83 127t61 120t28 81v38q0 30 -1 66t-1 66t2 38q2 30 12 104t20 157 t20 157t16 102q10 32 44 38t62 -2q6 -114 -5 -227t-23 -226t-18 -226t10 -225q16 -102 51 -154t81 -67t101 0t111 46t109 70t96 72t72 54t39 15q18 -56 -19 -119t-106 -116t-161 -86t-183 -30t-170 51t-125 160q-32 -26 -71 -74t-83 -100t-93 -99t-100 -69t-104 -10t-105 76 q-28 36 -43 89t-22 111t-7 115zM559 1953q5 27 26 21t55 -36t73 -64t81 -63t80 -33q4 -48 -13 -66t-46 -16t-65 19t-71 41t-64 49t-43 43q-18 78 -13 105z" />
<glyph unicode="&#xda;" horiz-adv-x="1244" d="M48 385q0 57 4 101q2 30 7 96t12 148t14 172t14 172t12 147t9 97q10 18 29 32t41 4q28 -16 37 -42t9 -57t-5 -61t-5 -50q-6 -104 -26 -231t-31 -259t-2 -257t59 -223q28 -56 68 -53t85 41t91 100t83 127t61 120t28 81v38q0 30 -1 66t-1 66t2 38q2 30 12 104t20 157 t20 157t16 102q10 32 44 38t62 -2q6 -114 -5 -227t-23 -226t-18 -226t10 -225q16 -102 51 -154t81 -67t101 0t111 46t109 70t96 72t72 54t39 15q18 -56 -19 -119t-106 -116t-161 -86t-183 -30t-170 51t-125 160q-32 -26 -71 -74t-83 -100t-93 -99t-100 -69t-104 -10t-105 76 q-28 36 -43 89t-22 111t-7 115zM480 1747q-12 19 0 44t59 61t151 94q38 10 50 -4t3 -40t-33 -60t-58 -64t-72 -51t-74 -23q-14 24 -26 43z" />
<glyph unicode="&#xdb;" horiz-adv-x="1244" d="M48 385q0 57 4 101q2 30 7 96t12 148t14 172t14 172t12 147t9 97q10 18 29 32t41 4q28 -16 37 -42t9 -57t-5 -61t-5 -50q-6 -104 -26 -231t-31 -259t-2 -257t59 -223q28 -56 68 -53t85 41t91 100t83 127t61 120t28 81v38q0 30 -1 66t-1 66t2 38q2 30 12 104t20 157 t20 157t16 102q10 32 44 38t62 -2q6 -114 -5 -227t-23 -226t-18 -226t10 -225q16 -102 51 -154t81 -67t101 0t111 46t109 70t96 72t72 54t39 15q18 -56 -19 -119t-106 -116t-161 -86t-183 -30t-170 51t-125 160q-32 -26 -71 -74t-83 -100t-93 -99t-100 -69t-104 -10t-105 76 q-28 36 -43 89t-22 111t-7 115zM181 1599q3 21 9 33q2 6 0 6t5 10t30 36t77 84t145 154t233 246q4 8 17 4t17 -10q48 -70 72 -123t39 -93t30 -73t46 -64t86 -64t153 -73l-58 -130q-30 28 -61 44t-62 31t-66 36t-72 60t-80 102t-91 165l-408 -462q-26 -6 -40 6t-19 33t-2 42z " />
<glyph unicode="&#xdc;" horiz-adv-x="1244" d="M48 385q0 57 4 101q2 30 7 96t12 148t14 172t14 172t12 147t9 97q10 18 29 32t41 4q28 -16 37 -42t9 -57t-5 -61t-5 -50q-6 -104 -26 -231t-31 -259t-2 -257t59 -223q28 -56 68 -53t85 41t91 100t83 127t61 120t28 81v38q0 30 -1 66t-1 66t2 38q2 30 12 104t20 157 t20 157t16 102q10 32 44 38t62 -2q6 -114 -5 -227t-23 -226t-18 -226t10 -225q16 -102 51 -154t81 -67t101 0t111 46t109 70t96 72t72 54t39 15q18 -56 -19 -119t-106 -116t-161 -86t-183 -30t-170 51t-125 160q-32 -26 -71 -74t-83 -100t-93 -99t-100 -69t-104 -10t-105 76 q-28 36 -43 89t-22 111t-7 115zM302 1526q-16 22 2 57t49 58t67 22t54 -51q20 -54 3 -93t-50 -54t-70 -1t-55 62zM636 1558q-18 36 0 73t50 55t67 5t51 -79q12 -48 -5 -77t-47 -37t-63 6t-53 54z" />
<glyph unicode="&#xdd;" horiz-adv-x="1224" d="M20 616q-10 192 50 512q10 32 44 37t60 -3v-660q0 -86 25 -105t62 4t80 75t82 108t66 102t31 60q10 28 27 87t38 134t44 158t43 159t35 136t23 90q6 14 21 24t32 12t31 -6t20 -30l138 -660q4 -14 31 -6t67 29t86 49t87 56t72 50t39 30q64 -10 66 -37t-32 -65t-94 -81 t-119 -82t-107 -71t-60 -46q0 -20 -2 -60t-5 -92t-7 -108t-8 -108t-8 -92l-6 -60q-4 -26 -19 -84t-41 -131t-61 -154t-76 -153t-88 -129t-98 -82t-104 -11t-105 84q-48 62 -58 145t5 175t50 187t77 182t88 160t82 121q86 114 140 196t73 163t2 174t-75 231 q-64 -272 -158 -474t-191 -320t-186 -144t-144 53t-65 271zM312 1539q-12 19 0 44t59 61t151 94q38 10 50 -4t3 -40t-33 -60t-58 -64t-72 -51t-74 -23q-14 24 -26 43zM429 -268q7 -90 57 -166q30 -44 66 -32t74 58t74 113t65 132t47 116t22 63q28 134 35 278t-1 278 q-56 -48 -120 -121t-123 -160t-107 -183t-72 -191t-17 -185z" />
<glyph unicode="&#xde;" horiz-adv-x="1114" d="M134 1718q-6 58 2 78t23 13t34 -37t36 -72t29 -92t14 -98q0 -24 3 -76t7 -117t8 -137t7 -137t6 -117t5 -76q44 32 75 79t60 96t61 95t80 78q128 80 212 87t129 -38t53 -129t-16 -187t-77 -214t-130 -208t-177 -169t-218 -96l-18 16q-12 14 -14 18q-10 30 14 64t67 69 t98 71t106 70t91 65t54 59q96 184 103 303t-55 145t-182 -55t-276 -297q-10 -48 -22 -119t-12 -161q0 -114 -9 -228t-24 -213t-33 -173t-34 -109t-29 -23t-17 87t4 222t30 379q0 14 1 49t1 74t-1 73t-1 46q-6 136 -13 266t-16 258t-19 256t-20 262z" />
<glyph unicode="&#xdf;" horiz-adv-x="1240" d="M45 1488q-7 76 36 130t125 84t179 39t196 -4t179 -47t127 -88t39 -128t-84 -167t-244 -205q98 18 180 17t146 -35t110 -111t70 -215q26 -120 10 -209t-61 -154t-114 -111t-150 -80t-169 -62t-170 -58q-20 -10 -40 3t-30 31q-4 12 -4 38t4 32q2 2 11 7t20 11t22 11t17 7 q200 18 324 67t189 116t77 143t-15 147t-87 129t-137 88t-165 25t-174 -61l32 320q144 72 216 146t85 137t-25 108t-115 56t-185 -16t-234 -109l22 -102l12 -628l-104 -1150q-2 -18 -19 -27t-36 -9t-34 9t-15 27l34 1014v206l36 452q-80 100 -87 176z" />
<glyph unicode="&#xe0;" horiz-adv-x="1014" d="M43 204q-3 86 9 176q2 28 10 84t18 124t22 144t22 144t19 121t13 79q16 84 35 143t52 91t86 34t137 -26q10 -2 22 -15t14 -19q4 -26 15 -80t25 -123t29 -144t29 -144t25 -123t17 -80q30 -142 74 -197t94 -57t103 33t105 74t98 67t80 10q0 -38 -18 -74t-43 -67t-55 -57 t-56 -44q-112 -74 -187 -78t-127 34t-84 104t-57 134t-48 121t-55 67q-6 -26 -25 -90t-41 -136t-42 -136t-28 -90q-4 -10 -17 -38t-33 -61t-45 -64t-51 -48t-52 -11t-46 48q-40 84 -43 170zM184 400q0 -72 1 -136t5 -90q70 106 126 247t85 292t23 300t-60 271 q-34 -62 -64 -156t-52 -191t-37 -182t-21 -131q-4 -24 -5 -88t-1 -136zM229 1731q5 27 26 21t55 -36t73 -64t81 -63t80 -33q4 -48 -13 -66t-46 -16t-65 19t-71 41t-64 49t-43 43q-18 78 -13 105z" />
<glyph unicode="&#xe1;" horiz-adv-x="1014" d="M43 204q-3 86 9 176q2 28 10 84t18 124t22 144t22 144t19 121t13 79q16 84 35 143t52 91t86 34t137 -26q10 -2 22 -15t14 -19q4 -26 15 -80t25 -123t29 -144t29 -144t25 -123t17 -80q30 -142 74 -197t94 -57t103 33t105 74t98 67t80 10q0 -38 -18 -74t-43 -67t-55 -57 t-56 -44q-112 -74 -187 -78t-127 34t-84 104t-57 134t-48 121t-55 67q-6 -26 -25 -90t-41 -136t-42 -136t-28 -90q-4 -10 -17 -38t-33 -61t-45 -64t-51 -48t-52 -11t-46 48q-40 84 -43 170zM184 400q0 -72 1 -136t5 -90q70 106 126 247t85 292t23 300t-60 271 q-34 -62 -64 -156t-52 -191t-37 -182t-21 -131q-4 -24 -5 -88t-1 -136zM246 1477q-12 19 0 44t59 61t151 94q38 10 50 -4t3 -40t-33 -60t-58 -64t-72 -51t-74 -23q-14 24 -26 43z" />
<glyph unicode="&#xe2;" horiz-adv-x="1014" d="M-3 1329q3 21 9 33q2 6 0 6t5 10t30 36t77 84t145 154t233 246q4 8 17 4t17 -10q48 -70 72 -123t39 -93t30 -73t46 -64t86 -64t153 -73l-58 -130q-30 28 -61 44t-62 31t-66 36t-72 60t-80 102t-91 165l-408 -462q-26 -6 -40 6t-19 33t-2 42zM43 204q-3 86 9 176 q2 28 10 84t18 124t22 144t22 144t19 121t13 79q16 84 35 143t52 91t86 34t137 -26q10 -2 22 -15t14 -19q4 -26 15 -80t25 -123t29 -144t29 -144t25 -123t17 -80q30 -142 74 -197t94 -57t103 33t105 74t98 67t80 10q0 -38 -18 -74t-43 -67t-55 -57t-56 -44 q-112 -74 -187 -78t-127 34t-84 104t-57 134t-48 121t-55 67q-6 -26 -25 -90t-41 -136t-42 -136t-28 -90q-4 -10 -17 -38t-33 -61t-45 -64t-51 -48t-52 -11t-46 48q-40 84 -43 170zM184 400q0 -72 1 -136t5 -90q70 106 126 247t85 292t23 300t-60 271q-34 -62 -64 -156 t-52 -191t-37 -182t-21 -131q-4 -24 -5 -88t-1 -136z" />
<glyph unicode="&#xe3;" horiz-adv-x="1014" d="M-82 1442q54 106 113 149t122 47t128 -19t131 -49t131 -41t127 3q24 18 65 58t85 82t84 75t64 37t23 -32t-39 -132q-58 -60 -120 -108t-127 -79t-130 -42t-131 5q-44 12 -103 44t-120 50t-120 3t-101 -97zM43 204q-3 86 9 176q2 28 10 84t18 124t22 144t22 144t19 121 t13 79q16 84 35 143t52 91t86 34t137 -26q10 -2 22 -15t14 -19q4 -26 15 -80t25 -123t29 -144t29 -144t25 -123t17 -80q30 -142 74 -197t94 -57t103 33t105 74t98 67t80 10q0 -38 -18 -74t-43 -67t-55 -57t-56 -44q-112 -74 -187 -78t-127 34t-84 104t-57 134t-48 121 t-55 67q-6 -26 -25 -90t-41 -136t-42 -136t-28 -90q-4 -10 -17 -38t-33 -61t-45 -64t-51 -48t-52 -11t-46 48q-40 84 -43 170zM184 400q0 -72 1 -136t5 -90q70 106 126 247t85 292t23 300t-60 271q-34 -62 -64 -156t-52 -191t-37 -182t-21 -131q-4 -24 -5 -88t-1 -136z" />
<glyph unicode="&#xe4;" horiz-adv-x="1014" d="M43 204q-3 86 9 176q2 28 10 84t18 124t22 144t22 144t19 121t13 79q16 84 35 143t52 91t86 34t137 -26q10 -2 22 -15t14 -19q4 -26 15 -80t25 -123t29 -144t29 -144t25 -123t17 -80q30 -142 74 -197t94 -57t103 33t105 74t98 67t80 10q0 -38 -18 -74t-43 -67t-55 -57 t-56 -44q-112 -74 -187 -78t-127 34t-84 104t-57 134t-48 121t-55 67q-6 -26 -25 -90t-41 -136t-42 -136t-28 -90q-4 -10 -17 -38t-33 -61t-45 -64t-51 -48t-52 -11t-46 48q-40 84 -43 170zM84 1512q-16 22 2 57t49 58t67 22t54 -51q20 -54 3 -93t-50 -54t-70 -1t-55 62z M184 400q0 -72 1 -136t5 -90q70 106 126 247t85 292t23 300t-60 271q-34 -62 -64 -156t-52 -191t-37 -182t-21 -131q-4 -24 -5 -88t-1 -136zM418 1544q-18 36 0 73t50 55t67 5t51 -79q12 -48 -5 -77t-47 -37t-63 6t-53 54z" />
<glyph unicode="&#xe5;" horiz-adv-x="1014" d="M43 204q-3 86 9 176q2 28 10 84t18 124t22 144t22 144t19 121t13 79q16 84 35 143t51 91q20 18 44 26q-2 0 -4 2q-32 18 -55 58t-35 72q-18 80 -10 174t52 166t126 102t214 -18q56 -20 84 -62t50 -92q32 -102 21 -194t-63 -152t-148 -78q-18 -4 -38 -6q4 -2 8 -6 q12 -12 14 -18q4 -26 15 -80t25 -123t29 -144t29 -144t25 -123t17 -80q30 -142 74 -197t94 -57t103 33t105 74t98 67t80 10q0 -38 -18 -74t-43 -67t-55 -57t-56 -44q-112 -74 -187 -78t-127 34t-84 104t-57 134t-48 121t-55 67q-6 -26 -25 -90t-41 -136t-42 -136t-28 -90 q-4 -10 -17 -38t-33 -61t-45 -64t-51 -48t-52 -11t-46 48q-40 84 -43 170zM184 400q0 -72 1 -136t5 -90q70 106 126 247t85 292t23 300t-60 271q-34 -62 -64 -156t-52 -191t-37 -182t-21 -131q-4 -24 -5 -88t-1 -136zM238 1575q6 -69 66 -149q26 -18 60 -28t70 -11t68 7 t54 26q72 120 86 202t-9 131t-73 66t-107 7t-110 -43t-82 -86t-23 -122z" />
<glyph unicode="&#xe6;" horiz-adv-x="1398" d="M43 204q-3 86 9 176q2 28 10 84t18 124t22 144t22 144t19 121t13 79q16 84 35 143t52 91t86 34t137 -26q10 -2 22 -15t14 -19q4 -22 7 -77t6 -128t5 -159t4 -170q20 98 55 189t76 165t87 127t90 74t82 4t64 -79q-22 -88 -67 -171t-93 -164t-90 -161t-60 -162 q-10 -44 -10 -107t14 -125t46 -113t86 -71q64 -24 129 -12t126 46t117 85t104 105t86 105t64 87l34 -36q14 -12 -17 -68t-90 -127t-139 -145t-165 -123t-168 -61t-149 40q-52 28 -89 66t-65 82q18 -98 6 -147t-38 -53t-58 31t-55 103t-31 164q-6 92 16 204q-10 -38 -24 -78 q-14 -46 -28 -89t-24 -77t-16 -50q-4 -10 -17 -38t-33 -61t-45 -64t-51 -48t-52 -11t-46 48q-40 84 -43 170zM184 400q0 -72 1 -136t5 -90q70 106 126 247t85 292t23 300t-60 271q-34 -62 -64 -156t-52 -191t-37 -182t-21 -131q-4 -24 -5 -88t-1 -136zM642 882 q-8 -72 8 -140q32 54 65 114t63 122t55 125t41 127q-66 -32 -115 -87t-79 -122t-38 -139z" />
<glyph unicode="&#xe7;" horiz-adv-x="1040" d="M31 377q-3 93 20 191t61 190t85 171t95 134t90 78t68 3q4 -22 15 -81t22 -126t20 -126t13 -81q4 -26 2 -55t-12 -52t-33 -34t-61 1q-2 14 -11 48t-20 73t-22 74t-15 49l-34 34q-62 -42 -103 -120t-59 -169t-9 -182t46 -160t104 -104t168 -11t237 117t310 281v-70 q0 -6 -24 -36t-58 -69t-69 -77t-59 -60q-66 -62 -141 -114t-155 -78q-62 -20 -124 -18q16 -42 20 -110q-4 -14 30 -30t87 -37t117 -49t118 -64t90 -83t34 -106t-50 -131t-164 -162q-36 -28 -79 -48t-89 -27t-92 1t-86 38q-32 24 -53 62t-31 79t-12 81t5 66t21 35t34 -11 q-4 -108 40 -164t107 -70t133 7t121 69t70 116t-21 146q-52 58 -114 75t-125 26t-123 28t-108 83q-22 108 -6 170q6 16 10 30q-44 18 -88 52q-74 56 -107 135t-36 172z" />
<glyph unicode="&#xe8;" horiz-adv-x="1048" d="M33 359q5 19 37 57q4 6 25 26t45 43t44 44t24 27q22 50 27 110t6 125t7 129t30 120q14 32 53 79t88 91t100 79t88 43t54 -18t-1 -100q-22 -88 -67 -171t-93 -164t-91 -161t-61 -162q-10 -44 -10 -107t14 -125t46 -113t88 -71q64 -24 128 -12t125 46t117 85t104 105 t86 105t64 87l34 -36q14 -12 -17 -68t-90 -127t-139 -145t-165 -124t-168 -62t-149 40q-84 66 -133 155t-75 191q-12 -10 -36 -22t-49 -20t-49 -11t-35 5t-6 27zM344 816q0 -28 1 -52t3 -34q64 110 120 234t88 250q-46 -16 -83 -49t-63 -76t-41 -91t-21 -94q-2 -10 -3 -35 t-1 -53zM387 1661q5 27 26 21t55 -36t73 -64t81 -63t80 -33q4 -48 -13 -66t-46 -16t-65 19t-71 41t-64 49t-43 43q-18 78 -13 105z" />
<glyph unicode="&#xe9;" horiz-adv-x="1048" d="M33 359q5 19 37 57q4 6 25 26t45 43t44 44t24 27q22 50 27 110t6 125t7 129t30 120q14 32 53 79t88 91t100 79t88 43t54 -18t-1 -100q-22 -88 -67 -171t-93 -164t-91 -161t-61 -162q-10 -44 -10 -107t14 -125t46 -113t88 -71q64 -24 128 -12t125 46t117 85t104 105 t86 105t64 87l34 -36q14 -12 -17 -68t-90 -127t-139 -145t-165 -124t-168 -62t-149 40q-84 66 -133 155t-75 191q-12 -10 -36 -22t-49 -20t-49 -11t-35 5t-6 27zM344 816q0 -28 1 -52t3 -34q64 110 120 234t88 250q-46 -16 -83 -49t-63 -76t-41 -91t-21 -94q-2 -10 -3 -35 t-1 -53zM426 1507q-12 19 0 44t59 61t151 94q38 10 50 -4t3 -40t-33 -60t-58 -64t-72 -51t-74 -23q-14 24 -26 43z" />
<glyph unicode="&#xea;" horiz-adv-x="1048" d="M33 359q5 19 37 57q4 6 25 26t45 43t44 44t24 27q22 50 27 110t6 125t7 129t30 120q14 32 53 79t88 91t100 79t88 43t54 -18t-1 -100q-22 -88 -67 -171t-93 -164t-91 -161t-61 -162q-10 -44 -10 -107t14 -125t46 -113t88 -71q64 -24 128 -12t125 46t117 85t104 105 t86 105t64 87l34 -36q14 -12 -17 -68t-90 -127t-139 -145t-165 -124t-168 -62t-149 40q-84 66 -133 155t-75 191q-12 -10 -36 -22t-49 -20t-49 -11t-35 5t-6 27zM97 1279q3 21 9 33q2 6 0 6t5 10t30 36t77 84t145 154t233 246q4 8 17 4t17 -10q48 -70 72 -123t39 -93t30 -73 t46 -64t86 -64t153 -73l-58 -130q-30 28 -61 44t-62 31t-66 36t-72 60t-80 102t-91 165l-408 -462q-26 -6 -40 6t-19 33t-2 42zM344 816q0 -28 1 -52t3 -34q64 110 120 234t88 250q-46 -16 -83 -49t-63 -76t-41 -91t-21 -94q-2 -10 -3 -35t-1 -53z" />
<glyph unicode="&#xeb;" horiz-adv-x="1048" d="M33 359q5 19 37 57q4 6 25 26t45 43t44 44t24 27q22 50 27 110t6 125t7 129t30 120q14 32 53 79t88 91t100 79t88 43t54 -18t-1 -100q-22 -88 -67 -171t-93 -164t-91 -161t-61 -162q-10 -44 -10 -107t14 -125t46 -113t88 -71q64 -24 128 -12t125 46t117 85t104 105 t86 105t64 87l34 -36q14 -12 -17 -68t-90 -127t-139 -145t-165 -124t-168 -62t-149 40q-84 66 -133 155t-75 191q-12 -10 -36 -22t-49 -20t-49 -11t-35 5t-6 27zM246 1430q-16 22 2 57t49 58t67 22t54 -51q20 -54 3 -93t-50 -54t-70 -1t-55 62zM344 816q0 -28 1 -52t3 -34 q64 110 120 234t88 250q-46 -16 -83 -49t-63 -76t-41 -91t-21 -94q-2 -10 -3 -35t-1 -53zM580 1462q-18 36 0 73t50 55t67 5t51 -79q12 -48 -5 -77t-47 -37t-63 6t-53 54z" />
<glyph unicode="&#xec;" horiz-adv-x="400" d="M34 278v972q0 20 18 28t41 9t42 -1t21 -2v-1076q0 -34 22 -56t52 -35t62 -16t54 3q28 -42 -1 -67t-82 -28t-110 20t-83 75q-4 8 -10 31t-12 51t-10 54t-4 38zM139 1529q5 27 26 21t55 -36t73 -64t81 -63t80 -33q4 -48 -13 -66t-46 -16t-65 19t-71 41t-64 49t-43 43 q-18 78 -13 105z" />
<glyph unicode="&#xed;" horiz-adv-x="400" d="M34 278v972q0 20 18 28q14 6 30 8q-12 20 -22 36q-12 20 0 45t59 61t151 94q38 10 50 -4t3 -40t-33 -60t-58 -64t-72 -52q-18 -10 -36 -16h10q20 -2 22 -2v-1076q0 -34 22 -56t52 -35t62 -16t54 3q28 -42 -1 -67t-82 -28t-110 20t-83 75q-4 8 -10 31t-12 51t-10 54t-4 38 z" />
<glyph unicode="&#xee;" horiz-adv-x="400" d="M-259 1273q3 21 9 33q2 6 0 6t5 10t30 36t77 84t145 154t233 246q4 8 17 4t17 -10q48 -70 72 -123t39 -93t30 -73t46 -64t86 -64t153 -73l-58 -130q-30 28 -61 44t-62 31t-66 36t-72 60t-80 102t-91 165l-408 -462q-26 -6 -40 6t-19 33t-2 42zM34 278v972q0 20 18 28 t41 9t42 -1t21 -2v-1076q0 -34 22 -56t52 -35t62 -16t54 3q28 -42 -1 -67t-82 -28t-110 20t-83 75q-4 8 -10 31t-12 51t-10 54t-4 38z" />
<glyph unicode="&#xef;" horiz-adv-x="400" d="M-56 1492q-10 22 1 57t31 57t43 21t35 -51q12 -54 1 -91t-32 -51t-44 -2t-35 60zM34 278v972q0 20 18 28t41 9t42 -1t21 -2v-1076q0 -34 22 -56t52 -35t62 -16t54 3q28 -42 -1 -67t-82 -28t-110 20t-83 75q-4 8 -10 31t-12 51t-10 54t-4 38zM158 1524q-12 36 0 72t32 53 t42 4t32 -77q8 -46 -3 -74t-29 -36t-40 6t-34 52z" />
<glyph unicode="&#xf0;" horiz-adv-x="766" d="M12 474q-6 98 20 196q68 116 120 154t115 -6t150 -171t223 -341l-242 634q-32 16 -63 13t-57 -10t-47 -14t-31 -1q-6 2 -16 9t-17 19t-11 30t0 46q6 28 27 43t49 18t60 -3t60 -20l-82 210l64 76q22 16 38 13t26 -17t16 -33t10 -33q20 -56 43 -101t47 -103q10 -2 31 0 t45 6l48 8q24 4 42 6q10 -20 19 -51t10 -58t-9 -41t-36 -2q-4 2 -21 -1t-38 -7t-40 -7t-25 -1q48 -122 96 -256t73 -263t17 -244t-72 -197q-108 -30 -204 -16t-174 58t-135 115t-90 158t-39 185zM114 546q-14 -68 7 -135t63 -126t101 -105t121 -70q94 -16 132 -2t37 50 t-31 87t-73 109t-90 116t-79 108q-26 54 -54 74t-55 14t-48 -38t-31 -82z" />
<glyph unicode="&#xf1;" horiz-adv-x="1014" d="M-82 1442q54 106 113 149t122 47t128 -19t131 -49t131 -41t127 3q24 18 65 58t85 82t84 75t64 37t23 -32t-39 -132q-58 -60 -120 -108t-127 -79t-130 -42t-131 5q-44 12 -103 44t-120 50t-120 3t-101 -97zM67 1066q1 30 11 52t32 31t64 -5q2 -42 7 -99t13 -119t20 -122 t30 -110q26 74 51 131t57 105t72 91t96 89q70 58 117 47t78 -68t51 -147t36 -191t33 -198t43 -168t65 -104t99 -3q18 -54 5 -79t-44 -28t-73 16t-83 52t-73 79t-44 98q-8 36 -14 118t-18 176t-37 185t-71 145l-140 -136q-6 -8 -29 -72t-51 -147t-54 -168t-38 -137 q-4 -18 -10 -67t-12 -105t-9 -105t-3 -69q-18 -36 -52 -36t-52 36q2 26 2 90v272q0 64 -2 90q-2 12 -7 52t-12 94t-15 114t-16 114t-13 94t-7 54q-4 28 -3 58z" />
<glyph unicode="&#xf2;" horiz-adv-x="688" d="M-16 1236q2 8 15 21t19 15q180 26 301 -37t193 -178t99 -263t19 -294t-46 -271t-96 -193t-132 -60t-154 128q-50 74 -60 165t0 191t32 202t38 197t18 178t-28 143q-16 32 -43 31t-58 -8t-62 -5t-55 38zM270 346q-2 -20 1 -45t9 -49t13 -45t13 -33q2 -6 12 -16t21 -22 t21 -21t14 -11q74 42 110 114t43 160t-8 185t-43 187t-65 166t-71 124q-2 -26 -8 -80t-12 -122t-14 -144t-15 -145t-13 -123t-8 -80zM283 1529q5 27 26 21t55 -36t73 -64t81 -63t80 -33q4 -48 -13 -66t-46 -16t-65 19t-71 41t-64 49t-43 43q-18 78 -13 105z" />
<glyph unicode="&#xf3;" horiz-adv-x="688" d="M-16 1236q2 8 15 21t19 15q180 26 301 -37t193 -178t99 -263t19 -294t-46 -271t-96 -193t-132 -60t-154 128q-50 74 -60 165t0 191t32 202t38 197t18 178t-28 143q-16 32 -43 31t-58 -8t-62 -5t-55 38zM204 1323q-12 19 0 44t59 61t151 94q38 10 50 -4t3 -40t-33 -60 t-58 -64t-72 -51t-74 -23q-14 24 -26 43zM270 346q-2 -20 1 -45t9 -49t13 -45t13 -33q2 -6 12 -16t21 -22t21 -21t14 -11q74 42 110 114t43 160t-8 185t-43 187t-65 166t-71 124q-2 -26 -8 -80t-12 -122t-14 -144t-15 -145t-13 -123t-8 -80z" />
<glyph unicode="&#xf4;" horiz-adv-x="688" d="M-145 1363q3 21 9 33q2 6 0 6t5 10t30 36t77 84t145 154t233 246q4 8 17 4t17 -10q48 -70 72 -123t39 -93t30 -73t46 -64t86 -64t153 -73l-58 -130q-30 28 -61 44t-62 31t-66 36t-72 60t-80 102t-91 165l-408 -462q-26 -6 -40 6t-19 33t-2 42zM-16 1236q2 8 15 21t19 15 q180 26 301 -37t193 -178t99 -263t19 -294t-46 -271t-96 -193t-132 -60t-154 128q-50 74 -60 165t0 191t32 202t38 197t18 178t-28 143q-16 32 -43 31t-58 -8t-62 -5t-55 38zM270 346q-2 -20 1 -45t9 -49t13 -45t13 -33q2 -6 12 -16t21 -22t21 -21t14 -11q74 42 110 114 t43 160t-8 185t-43 187t-65 166t-71 124q-2 -26 -8 -80t-12 -122t-14 -144t-15 -145t-13 -123t-8 -80z" />
<glyph unicode="&#xf5;" horiz-adv-x="688" d="M-244 1442q54 106 113 149t122 47t128 -19t131 -49t131 -41t127 3q24 18 65 58t85 82t84 75t64 37t23 -32t-39 -132q-58 -60 -120 -108t-127 -79t-130 -42t-131 5q-44 12 -103 44t-120 50t-120 3t-101 -97zM-16 1236q2 8 15 21t19 15q180 26 301 -37t193 -178t99 -263 t19 -294t-46 -271t-96 -193t-132 -60t-154 128q-50 74 -60 165t0 191t32 202t38 197t18 178t-28 143q-16 32 -43 31t-58 -8t-62 -5t-55 38zM270 346q-2 -20 1 -45t9 -49t13 -45t13 -33q2 -6 12 -16t21 -22t21 -21t14 -11q74 42 110 114t43 160t-8 185t-43 187t-65 166 t-71 124q-2 -26 -8 -80t-12 -122t-14 -144t-15 -145t-13 -123t-8 -80z" />
<glyph unicode="&#xf6;" horiz-adv-x="688" d="M-16 1236q2 8 15 21t19 15q180 26 301 -37t193 -178t99 -263t19 -294t-46 -271t-96 -193t-132 -60t-154 128q-50 74 -60 165t0 191t32 202t38 197t18 178t-28 143q-16 32 -43 31t-58 -8t-62 -5t-55 38zM36 1430q-16 22 2 57t49 58t67 22t54 -51q20 -54 3 -93t-50 -54 t-70 -1t-55 62zM270 346q-2 -20 1 -45t9 -49t13 -45t13 -33q2 -6 12 -16t21 -22t21 -21t14 -11q74 42 110 114t43 160t-8 185t-43 187t-65 166t-71 124q-2 -26 -8 -80t-12 -122t-14 -144t-15 -145t-13 -123t-8 -80zM370 1462q-18 36 0 73t50 55t67 5t51 -79q12 -48 -5 -77 t-47 -37t-63 6t-53 54z" />
<glyph unicode="&#xf7;" horiz-adv-x="972" d="M54 784q6 12 18 21t27 13t27 6q26 6 83 17t129 25t151 29t152 29t130 24t85 16q46 8 58 -8t5 -42t-26 -52t-37 -38q-58 8 -137 -2t-162 -27t-167 -37t-153 -30t-118 -6t-63 34q-8 16 -2 28zM241 1121q-7 31 14 58t63 48t89 35t92 19t73 -2t32 -27t-30 -54l-174 -174 q-2 -2 -15 -2t-19 2q-8 4 -35 16t-35 18q-48 32 -55 63zM400 294q-8 50 5 100t39 91t61 71t68 40t61 -2t42 -56q12 -34 -2 -75t-43 -78t-67 -68t-73 -46t-61 -12t-30 35z" />
<glyph unicode="&#xf8;" horiz-adv-x="688" d="M-16 1236q2 8 15 21t19 15q180 26 301 -37t193 -179q6 -10 12 -18q10 14 22 30q28 36 57 68t53 55t30 23h52v-58q-14 -14 -48 -55t-72 -87q-26 -34 -52 -66q30 -72 44 -154q28 -148 20 -294t-46 -271t-96 -193t-132 -60t-154 128l-6 8l-30 -84q-16 -42 -15 -95t1 -104 t-12 -98t-52 -77q-2 2 -11 10t-17 17t-15 18t-9 13q-4 4 -4 15t4 13l14 64q10 44 23 98t26 114t27 114q12 50 22 92q-4 24 -6 46q-10 92 0 192t32 202t38 197t18 178t-28 143q-16 32 -43 31t-58 -8t-62 -5t-55 38zM270 300q4 -24 10 -48t13 -45t13 -33q2 -6 12 -16t21 -22 t21 -21t14 -11q74 42 110 114t43 160t-8 185t-43 187l-16 48l-8 -16q-10 -28 -34 -87t-52 -133t-60 -156l-36 -96v-10zM300 652q4 8 10 16q44 92 94 178q10 20 20 38q-6 16 -14 32q-36 76 -70 124q-2 -26 -8 -80t-12 -122t-14 -144q-2 -22 -6 -42z" />
<glyph unicode="&#xf9;" horiz-adv-x="898" d="M70 244v764q0 18 14 26t32 10t35 0t23 -4q-2 -26 -2 -80t-1 -122t0 -144t1 -146v-122q0 -54 2 -80q4 -112 31 -156t66 -41t82 44t80 98t62 119t25 110v520h140q-4 -46 -10 -120t-7 -160t3 -175t19 -168t43 -138t73 -84t109 -8t152 91q18 -52 -14 -100t-84 -84t-112 -53 t-102 -7q-6 2 -19 16t-17 20q-8 14 -28 53t-42 83t-41 84t-27 56q-12 -22 -40 -67t-67 -96t-84 -96t-91 -64t-90 -4t-80 85q-4 8 -10 27t-11 42t-9 43t-4 28zM387 1529q5 27 26 21t55 -36t73 -64t81 -63t80 -33q4 -48 -13 -66t-46 -16t-65 19t-71 41t-64 49t-43 43 q-18 78 -13 105z" />
<glyph unicode="&#xfa;" horiz-adv-x="898" d="M70 244v764q0 18 14 26t32 10t35 0t23 -4q-2 -26 -2 -80t-1 -122t0 -144t1 -146v-122q0 -54 2 -80q4 -112 31 -156t66 -41t82 44t80 98t62 119t25 110v520h140q-4 -46 -10 -120t-7 -160t3 -175t19 -168t43 -138t73 -84t109 -8t152 91q18 -52 -14 -100t-84 -84t-112 -53 t-102 -7q-6 2 -19 16t-17 20q-8 14 -28 53t-42 83t-41 84t-27 56q-12 -22 -40 -67t-67 -96t-84 -96t-91 -64t-90 -4t-80 85q-4 8 -10 27t-11 42t-9 43t-4 28zM308 1323q-12 19 0 44t59 61t151 94q38 10 50 -4t3 -40t-33 -60t-58 -64t-72 -51t-74 -23q-14 24 -26 43z" />
<glyph unicode="&#xfb;" horiz-adv-x="898" d="M9 1175q3 21 9 33q2 6 0 6t5 10t30 36t77 84t145 154t233 246q4 8 17 4t17 -10q48 -70 72 -123t39 -93t30 -73t46 -64t86 -64t153 -73l-58 -130q-30 28 -61 44t-62 31t-66 36t-72 60t-80 102t-91 165l-408 -462q-26 -6 -40 6t-19 33t-2 42zM70 244v764q0 18 14 26t32 10 t35 0t23 -4q-2 -26 -2 -80t-1 -122t0 -144t1 -146v-122q0 -54 2 -80q4 -112 31 -156t66 -41t82 44t80 98t62 119t25 110v520h140q-4 -46 -10 -120t-7 -160t3 -175t19 -168t43 -138t73 -84t109 -8t152 91q18 -52 -14 -100t-84 -84t-112 -53t-102 -7q-6 2 -19 16t-17 20 q-8 14 -28 53t-42 83t-41 84t-27 56q-12 -22 -40 -67t-67 -96t-84 -96t-91 -64t-90 -4t-80 85q-4 8 -10 27t-11 42t-9 43t-4 28z" />
<glyph unicode="&#xfc;" horiz-adv-x="898" d="M70 244v764q0 18 14 26t32 10t35 0t23 -4q-2 -26 -2 -80t-1 -122t0 -144t1 -146v-122q0 -54 2 -80q4 -112 31 -156t66 -41t82 44t80 98t62 119t25 110v520h140q-4 -46 -10 -120t-7 -160t3 -175t19 -168t43 -138t73 -84t109 -8t152 91q18 -52 -14 -100t-84 -84t-112 -53 t-102 -7q-6 2 -19 16t-17 20q-8 14 -28 53t-42 83t-41 84t-27 56q-12 -22 -40 -67t-67 -96t-84 -96t-91 -64t-90 -4t-80 85q-4 8 -10 27t-11 42t-9 43t-4 28zM94 1206q-16 22 2 57t49 58t67 22t54 -51q20 -54 3 -93t-50 -54t-70 -1t-55 62zM428 1238q-18 36 0 73t50 55t67 5 t51 -79q12 -48 -5 -77t-47 -37t-63 6t-53 54z" />
<glyph unicode="&#xfd;" horiz-adv-x="1526" d="M50 103q0 11 1 21t3 16q4 20 17 84t30 150t37 184t37 184t31 149t20 83q4 18 26 48t50 50t55 18t43 -46q-20 -30 -46 -94t-51 -144t-49 -169t-41 -171t-23 -151t2 -107q84 114 188 242t212 242t215 198t198 108t160 -27t103 -207l244 208h104q18 -56 -1 -76t-55 -31 t-79 -24t-72 -53t-35 -118t32 -220q28 -100 39 -206t-3 -210q-6 -46 -31 -125t-65 -165t-94 -168t-117 -136t-135 -67t-148 37q-50 34 -69 90t-17 124t20 143t42 145t50 130t44 98q8 18 26 56t42 86l100 200q24 48 44 86t30 56q10 94 -13 148t-65 74t-97 10t-112 -42 t-110 -81t-89 -109q-12 -10 -42 -47t-72 -90t-93 -115t-104 -121t-103 -109t-93 -78t-74 -30t-43 36q-2 2 -3 12t-1 21zM620 1323q-12 19 0 44t59 61t151 94q38 10 50 -4t3 -40t-33 -60t-58 -64t-72 -51t-74 -23q-14 24 -26 43zM885 -278q-9 -84 1 -138q16 -76 53 -96t85 4 t101 86t98 148t77 191t39 215t-17 219t-90 205q-46 -34 -92 -104t-87 -160t-77 -191t-59 -198t-32 -181z" />
<glyph unicode="&#xfe;" horiz-adv-x="1038" d="M134 1718q-6 58 2 78t23 13t34 -37t36 -72t29 -92t14 -98q0 -24 3 -76t7 -117t8 -137t7 -137t6 -117t5 -76q44 32 75 79t60 96t61 95t80 78q128 68 212 61t130 -63t54 -151t-15 -202t-77 -217t-132 -197t-178 -139t-218 -46l-18 16q-12 14 -14 18q-10 30 11 56t61 49 t91 45t98 45t84 47t51 52q64 122 90 224t19 172t-44 103t-100 14t-150 -94t-191 -219q-10 -48 -23 -119t-11 -161q2 -164 -6 -318t-21 -282t-31 -221t-34 -133t-29 -17t-18 126t1 295t26 492q0 14 1 49t1 74t-1 73t-1 46q-6 136 -13 266t-16 258t-19 256t-20 262z" />
<glyph unicode="&#xff;" horiz-adv-x="1526" d="M50 103q0 11 1 21t3 16q4 20 17 84t30 150t37 184t37 184t31 149t20 83q4 18 26 48t50 50t55 18t43 -46q-20 -30 -46 -94t-51 -144t-49 -169t-41 -171t-23 -151t2 -107q84 114 188 242t212 242t215 198t198 108t160 -27t103 -207l244 208h104q18 -56 -1 -76t-55 -31 t-79 -24t-72 -53t-35 -118t32 -220q28 -100 39 -206t-3 -210q-6 -46 -31 -125t-65 -165t-94 -168t-117 -136t-135 -67t-148 37q-50 34 -69 90t-17 124t20 143t42 145t50 130t44 98q8 18 26 56t42 86l100 200q24 48 44 86t30 56q10 94 -13 148t-65 74t-97 10t-112 -42 t-110 -81t-89 -109q-12 -10 -42 -47t-72 -90t-93 -115t-104 -121t-103 -109t-93 -78t-74 -30t-43 36q-2 2 -3 12t-1 21zM456 1242q-16 22 2 57t49 58t67 22t54 -51q20 -54 3 -93t-50 -54t-70 -1t-55 62zM790 1274q-18 36 0 73t50 55t67 5t51 -79q12 -48 -5 -77t-47 -37 t-63 6t-53 54zM885 -278q-9 -84 1 -138q16 -76 53 -96t85 4t101 86t98 148t77 191t39 215t-17 219t-90 205q-46 -34 -92 -104t-87 -160t-77 -191t-59 -198t-32 -181z" />
<glyph unicode="&#x152;" horiz-adv-x="1630" d="M65 357q-9 83 2 169t29 172t39 168t35 158q8 44 12 106t10 130t16 134t32 118q2 4 14 17t20 17q98 78 179 87t144 -35t110 -133t75 -203v74q0 36 -2 52l36 36l624 208h70q10 -28 3 -60t-39 -44l-520 -210l-34 -34q-2 -2 -7 -42t-11 -95t-11 -113t-7 -96q0 -10 -1 -35 t-1 -52t1 -52t1 -35l590 312q14 8 21 -4t7 -32t-7 -40t-21 -28q-34 -22 -83 -50t-102 -59t-106 -61t-95 -54t-69 -39t-29 -15h-140v-450q0 -92 41 -118t103 -11t136 59t140 94t113 93t57 55q8 50 22 82q12 28 32 40t50 -18q12 -62 -19 -134t-89 -140t-137 -125t-160 -90 t-157 -36t-132 39q-58 44 -86 100t-42 120q-42 -102 -102 -172t-138 -98q-48 -6 -85 -8t-68 4t-61 23t-64 51q-66 66 -98 143t-41 160zM204 296q0 -10 10 -34t25 -51t34 -52t37 -37q80 -74 142 -70t107 63t75 161t48 225t25 256t6 253t-7 216t-16 146q-72 98 -128 130 t-97 19t-68 -64t-42 -122t-19 -152t-1 -154t15 -131t28 -80q6 -8 30 -26t54 -42t59 -52t46 -56t16 -55t-33 -49q-26 -18 -57 -10t-63 31t-62 56t-56 66t-45 61t-27 40l-36 -70v-416z" />
<glyph unicode="&#x153;" horiz-adv-x="1468" d="M-16 1236q2 8 15 21t19 15q158 22 270 -24t185 -136t110 -212t45 -252q6 46 7 96t3 100t9 98t27 92q14 32 53 79t87 91t99 79t89 43t54 -18t-2 -100q-22 -88 -67 -171t-93 -164t-90 -162t-60 -163q-10 -44 -11 -106t14 -124t47 -113t86 -71q64 -24 128 -13t125 45t117 85 t104 105t87 105t65 87l34 -34q14 -12 -17 -68t-90 -127t-139 -145t-165 -124t-168 -62t-149 40q-78 60 -125 141t-75 173q-22 -116 -62 -207t-95 -132t-120 -22t-133 123q-50 74 -60 165t0 191t32 202t38 197t18 178t-28 143q-16 32 -43 31t-58 -8t-62 -5t-55 38zM270 346 q-2 -20 1 -45t9 -49t13 -45t13 -33q2 -6 12 -16t21 -22t21 -21t14 -11q74 42 110 114t43 160t-8 185t-43 187t-65 166t-71 124q-2 -26 -8 -80t-12 -122t-14 -144t-15 -145t-13 -123t-8 -80zM740 810q0 -28 1 -53t3 -35q64 112 120 236t86 250q-46 -16 -82 -49t-62 -76 t-41 -91t-21 -94q-2 -10 -3 -35t-1 -53z" />
<glyph unicode="&#x178;" horiz-adv-x="1190" d="M20 616q-10 192 50 512q10 32 44 37t60 -3v-660q0 -86 25 -105t62 4t80 75t82 108t66 102t31 60q10 28 27 87t38 134t44 158t43 159t35 136t23 90q6 14 21 24t32 12t31 -6t20 -30l138 -660q4 -14 31 -6t67 29t86 49t87 56t72 50t39 30q64 -10 66 -37t-32 -65t-94 -81 t-119 -82t-107 -71t-60 -46q0 -20 -2 -60t-5 -92t-7 -108t-8 -108t-8 -92l-6 -60q-4 -26 -19 -84t-41 -131t-61 -154t-76 -153t-88 -129t-98 -82t-104 -11t-105 84q-48 62 -58 145t5 175t50 187t77 182t88 160t82 121q86 114 140 196t73 163t2 174t-75 231 q-64 -272 -158 -474t-191 -320t-186 -144t-144 53t-65 271zM106 1686q-16 22 2 57t49 58t67 22t54 -51q20 -54 3 -93t-50 -54t-70 -1t-55 62zM429 -268q7 -90 57 -166q30 -44 66 -32t74 58t74 113t65 132t47 116t22 63q28 134 35 278t-1 278q-56 -48 -120 -121t-123 -160 t-107 -183t-72 -191t-17 -185zM440 1718q-18 36 0 73t50 55t67 5t51 -79q12 -48 -5 -77t-47 -37t-63 6t-53 54z" />
<glyph unicode="&#x2c6;" horiz-adv-x="1706" d="M503 1175q3 21 9 33q2 6 0 6t5 10t30 36t77 84t145 154t233 246q4 8 17 4t17 -10q48 -70 72 -123t39 -93t30 -73t46 -64t86 -64t153 -73l-58 -130q-30 28 -61 44t-62 31t-66 36t-72 60t-80 102t-91 165l-408 -462q-26 -6 -40 6t-19 33t-2 42z" />
<glyph unicode="&#x2dc;" horiz-adv-x="1422" d="M182 1442q54 106 113 149t122 47t128 -19t131 -49t131 -41t127 3q24 18 65 58t85 82t84 75t64 37t23 -32t-39 -132q-58 -60 -120 -108t-127 -79t-130 -42t-131 5q-44 12 -103 44t-120 50t-120 3t-101 -97z" />
<glyph unicode="&#x2000;" horiz-adv-x="1410" />
<glyph unicode="&#x2001;" horiz-adv-x="2821" />
<glyph unicode="&#x2002;" horiz-adv-x="1410" />
<glyph unicode="&#x2003;" horiz-adv-x="2821" />
<glyph unicode="&#x2004;" horiz-adv-x="940" />
<glyph unicode="&#x2005;" horiz-adv-x="705" />
<glyph unicode="&#x2006;" horiz-adv-x="470" />
<glyph unicode="&#x2007;" horiz-adv-x="470" />
<glyph unicode="&#x2008;" horiz-adv-x="352" />
<glyph unicode="&#x2009;" horiz-adv-x="564" />
<glyph unicode="&#x200a;" horiz-adv-x="156" />
<glyph unicode="&#x2010;" d="M14 584q6 12 18 21t27 13t27 6q26 6 83 17t129 25t151 29t152 29t130 24t85 16q46 8 58 -8t5 -42t-26 -52t-37 -38q-58 8 -137 -2t-162 -27t-167 -37t-153 -30t-118 -6t-63 34q-8 16 -2 28z" />
<glyph unicode="&#x2011;" d="M14 584q6 12 18 21t27 13t27 6q26 6 83 17t129 25t151 29t152 29t130 24t85 16q46 8 58 -8t5 -42t-26 -52t-37 -38q-58 8 -137 -2t-162 -27t-167 -37t-153 -30t-118 -6t-63 34q-8 16 -2 28z" />
<glyph unicode="&#x2012;" d="M14 584q6 12 18 21t27 13t27 6q26 6 83 17t129 25t151 29t152 29t130 24t85 16q46 8 58 -8t5 -42t-26 -52t-37 -38q-58 8 -137 -2t-162 -27t-167 -37t-153 -30t-118 -6t-63 34q-8 16 -2 28z" />
<glyph unicode="&#x2013;" horiz-adv-x="826" d="M14 584q6 12 18 21t27 13t27 6q40 8 127 10t183 1t183 -1t129 8q46 8 58 -8t5 -42t-26 -52t-37 -38q-60 8 -130 7t-141 -5t-141 -7t-127 0t-98 16t-55 43q-8 16 -2 28z" />
<glyph unicode="&#x2014;" horiz-adv-x="1182" d="M14 584q6 12 18 21t27 13t27 6q26 6 100 11t170 10t204 9t204 8t170 8t102 10q46 8 58 -8t5 -42t-26 -52t-37 -38q-58 8 -153 4t-203 -12t-220 -16t-206 -9t-159 9t-79 40q-8 16 -2 28z" />
<glyph unicode="&#x2018;" horiz-adv-x="314" d="M52 1912q4 88 22 156t55 104t97 16q0 -12 1 -42t1 -63t-1 -63t-1 -42q-4 -34 -10 -83t-14 -102t-15 -106t-14 -96t-11 -70t-6 -29l-36 -34l-34 34q-10 28 -19 96t-14 152t-1 172z" />
<glyph unicode="&#x2019;" horiz-adv-x="314" d="M52 1912q4 88 22 156t55 104t97 16q0 -12 1 -42t1 -63t-1 -63t-1 -42q-4 -34 -10 -83t-14 -102t-15 -106t-14 -96t-11 -70t-6 -29l-36 -34l-34 34q-10 28 -19 96t-14 152t-1 172z" />
<glyph unicode="&#x201a;" horiz-adv-x="314" d="M52 1912q4 88 22 156t55 104t97 16q0 -12 1 -42t1 -63t-1 -63t-1 -42q-4 -34 -10 -83t-14 -102t-15 -106t-14 -96t-11 -70t-6 -29l-36 -34l-34 34q-10 28 -19 96t-14 152t-1 172z" />
<glyph unicode="&#x201c;" horiz-adv-x="624" d="M75 1462q3 74 14 134t31 99t54 39q38 0 57 -21t23 -53t-2 -73t-15 -79t-18 -71t-11 -51q-2 -16 -7 -60t-11 -94t-10 -94t-6 -62q-20 -12 -42 2t-28 32q-8 26 -16 83t-12 126t-1 143zM412 1541q0 67 4 125q8 20 28 30t42 10t42 -10t28 -30q0 -14 3 -58t5 -104t0 -127 t-10 -124t-24 -97t-44 -46q-6 2 -20 15t-16 19q-14 58 -22 125t-12 136t-4 136z" />
<glyph unicode="&#x201d;" horiz-adv-x="624" d="M75 1462q3 74 14 134t31 99t54 39q38 0 57 -21t23 -53t-2 -73t-15 -79t-18 -71t-11 -51q-2 -16 -7 -60t-11 -94t-10 -94t-6 -62q-20 -12 -42 2t-28 32q-8 26 -16 83t-12 126t-1 143zM412 1541q0 67 4 125q8 20 28 30t42 10t42 -10t28 -30q0 -14 3 -58t5 -104t0 -127 t-10 -124t-24 -97t-44 -46q-6 2 -20 15t-16 19q-14 58 -22 125t-12 136t-4 136z" />
<glyph unicode="&#x201e;" horiz-adv-x="624" d="M75 1462q3 74 14 134t31 99t54 39q38 0 57 -21t23 -53t-2 -73t-15 -79t-18 -71t-11 -51q-2 -16 -7 -60t-11 -94t-10 -94t-6 -62q-20 -12 -42 2t-28 32q-8 26 -16 83t-12 126t-1 143zM412 1541q0 67 4 125q8 20 28 30t42 10t42 -10t28 -30q0 -14 3 -58t5 -104t0 -127 t-10 -124t-24 -97t-44 -46q-6 2 -20 15t-16 19q-14 58 -22 125t-12 136t-4 136z" />
<glyph unicode="&#x2022;" horiz-adv-x="622" d="M173 972q5 36 27 66t56 53t70 31t70 -1t58 -41q30 -44 32 -87t-16 -78t-51 -59t-73 -29t-81 12t-75 65q-22 32 -17 68z" />
<glyph unicode="&#x2026;" horiz-adv-x="1500" d="M142 107q8 39 32 73t58 59t71 29t71 -17t56 -77q14 -34 3 -67t-37 -58t-62 -42t-71 -21t-66 7t-45 41q-18 34 -10 73zM642 107q8 39 32 73t58 59t71 29t71 -17t56 -77q14 -34 3 -67t-37 -58t-62 -42t-71 -21t-66 7t-45 41q-18 34 -10 73zM1142 107q8 39 31 73t58 59 t72 29t71 -17t56 -77q20 -52 -12 -98t-84 -70t-106 -21t-78 49q-16 34 -8 73z" />
<glyph unicode="&#x202f;" horiz-adv-x="564" />
<glyph unicode="&#x2039;" horiz-adv-x="1614" d="M29 430q11 24 47 43t78 31t54 16q26 14 81 47t124 73t144 86t144 87t123 74t80 51q22 14 52 45t66 59t76 41t82 -7q14 -22 -14 -56t-83 -76t-129 -88t-153 -92t-154 -90t-131 -82t-85 -65t-15 -41q128 -10 275 -49t292 -91t277 -107t232 -99q24 -12 31 -34t0 -42t-24 -30 t-41 0q-24 12 -78 36t-123 52t-144 58t-144 57t-124 47t-81 30q-66 20 -154 36t-184 25t-189 11t-167 -6q-52 26 -41 50z" />
<glyph unicode="&#x203a;" horiz-adv-x="1562" d="M32 1115q10 15 30 23t42 10t36 -4q8 -2 28 -11t42 -20t41 -21t27 -16l1214 -242q8 -2 8 -16t-8 -20q-60 -60 -160 -114t-215 -108t-236 -112t-225 -127t-178 -151t-98 -186l-136 34q-8 2 -6 32t11 61t26 49t39 -2q24 20 75 59t115 87t136 101t137 100t117 84t78 55 q14 10 54 30l84 42q44 22 84 40q38 18 54 26q-130 22 -284 38q-156 18 -318 46t-320 73t-292 121q-12 24 -2 39z" />
<glyph unicode="&#x205f;" horiz-adv-x="705" />
<glyph unicode="&#x20ac;" horiz-adv-x="1392" d="M52 524q-12 24 14 44t64 35t77 21t53 4l58 6q4 46 14 96q8 42 18 84q-52 -14 -118 -32h-106q-2 4 -2 18t2 18q4 6 18 19t18 15q104 36 178 60q22 8 42 14q16 44 34 84q58 136 142 250t189 184t226 85t251 -47q54 -78 52 -105t-44 -28t-114 9t-157 4t-173 -41t-162 -127 q-70 -88 -120 -236q42 8 80 12q54 6 115 6t137 -7t184 -15q10 -26 4 -60t-38 -44q-102 14 -174 21t-126 7t-98 -5t-94 -17q-10 -2 -22 -6q-18 -90 -30 -204l536 50h242q14 -22 12 -41t-14 -33t-29 -22t-35 -8h-454l-264 -50v-22q-18 -92 5 -168t72 -132t119 -89t146 -41 t152 10t140 68q36 28 58 71t39 82t32 65t39 18q30 -88 14 -160t-64 -125t-122 -86t-162 -44t-182 -1t-182 46q-104 64 -158 174t-66 242q-4 34 -4 70l-158 -30q-34 -6 -61 -3t-43 37z" />
<glyph unicode="&#x2122;" horiz-adv-x="3112" d="M0 1076l70 68q316 30 622 123t592 225h80q28 12 55 15t33 -11l546 -1214l320 1214q2 6 22 31t45 47t46 33t27 -9l34 -138q6 -136 10 -316t22 -370t58 -374t120 -328q6 -10 20 -27t30 -33t32 -29t22 -15q20 -8 55 -2t71 9t68 -4t48 -39t3 -51t-43 -29t-70 -12t-80 1t-74 9 t-48 12q-68 26 -115 83t-80 126t-52 143t-31 134q-6 32 -15 101t-20 154t-22 180t-21 180t-17 153t-9 100l-242 -972l-12 -22q-8 -18 -23 -39t-33 -41t-37 -29t-37 -5t-32 34l-520 1040l-140 -1040q-4 -28 -22 -35t-37 0t-34 25t-11 42l108 1200l-448 -160q-2 0 -3 -48 t-1 -114t1 -137t3 -117q0 -16 3 -70t6 -125t7 -151t8 -152t6 -125t4 -71q0 -34 -19 -62t-43 -38t-47 3t-29 63q4 138 -3 277t-16 278t-16 278t-1 277q-22 -6 -68 -17t-104 -25t-123 -29t-123 -29t-104 -25t-68 -15q-28 -6 -55 7t-49 29z" />
<glyph unicode="&#x25fc;" horiz-adv-x="1640" d="M0 0v1640h1640v-1640h-1640z" />
<glyph unicode="&#xfb01;" horiz-adv-x="1274" d="M-2 748l400 120l68 764q8 74 46 126t90 82t107 36t95 -11t56 -58t-10 -105q-30 -22 -47 -18t-26 19t-15 35t-16 32q-38 38 -67 25t-51 -62t-38 -123t-26 -159t-16 -172t-9 -159t-3 -122v-60q40 -12 89 2t100 40t101 55t94 45l6 2q2 2 6 4q18 8 41 9t42 -1t21 -2v-24 q10 -10 20 -28l-20 -22v-1002q0 -34 22 -56t52 -35t62 -16t54 3q28 -42 -1 -67t-82 -28t-110 20t-83 75q-4 8 -10 31t-12 51t-10 54t-4 38v854l-342 -142l-36 -34q-2 -4 -3 -56t-1 -124t1 -147t3 -123q2 -22 15 -66t22 -94t4 -93t-41 -61q-22 -10 -41 4t-29 30q-4 8 -9 23 t-10 32t-10 31t-5 20q-2 22 -5 68t-7 104t-7 123t-7 123t-6 104t-2 68q-4 2 -18 2t-18 -2q-16 -4 -55 -14t-83 -22l-84 -20q-40 -10 -54 -14zM880 1406q0 58 46 75t94 -5v-106q-6 -2 -21 -3t-32 -1t-32 1t-21 3q-8 2 -21 16t-13 20z" />
<glyph unicode="&#xfb02;" horiz-adv-x="1476" d="M-2 748l400 120l68 764q8 74 46 126t90 82t107 36t95 -11t56 -58t-10 -105q-30 -22 -47 -18t-26 19t-15 35t-16 32q-38 38 -67 25t-51 -62t-38 -123t-26 -159t-16 -172t-9 -159t-3 -122v-60q40 -12 89 2t100 40t101 55t94 45q18 6 34 10q4 60 6 108q4 66 4 88q0 30 1 104 t1 157t-1 157t-1 104q30 22 52 30q20 8 36 3t16 -33v-1632q0 -14 9 -33t23 -33t33 -17t39 15l242 206q10 -46 -2 -96t-39 -94t-67 -80t-86 -55t-94 -18t-92 31q-44 28 -65 87t-30 124t-9 121v84q0 22 2 89t6 156t8 189q2 54 2 102l-376 -156l-36 -34q-2 -4 -3 -56t-1 -124 t1 -147t3 -123q2 -22 15 -66t22 -94t4 -93t-41 -61q-22 -10 -41 4t-29 30q-4 8 -9 23t-10 32t-10 31t-5 20q-2 22 -5 68t-7 104t-7 123t-7 123t-6 104t-2 68q-4 2 -18 2t-18 -2q-16 -4 -55 -14t-83 -22l-84 -20q-40 -10 -54 -14z" />
</font>
</defs>
</svg>
