<?xml version="1.0" standalone="no"?>
<!DOCTYPE svg PUBLIC "-//W3C//DTD SVG 1.1//EN" "http://www.w3.org/Graphics/SVG/1.1/DTD/svg11.dtd" >
<svg xmlns="http://www.w3.org/2000/svg" xmlns:xlink="http://www.w3.org/1999/xlink" version="1.1">
<metadata></metadata>
<defs>
<font id="paprikaregular" horiz-adv-x="679" >
<font-face units-per-em="2048" ascent="1638" descent="-410" />
<missing-glyph horiz-adv-x="681" />
<glyph unicode="&#xfb01;" horiz-adv-x="1423" d="M80 1065q0 63 6 97t31 67q43 61 221 61q59 289 207.5 489.5t353.5 200.5q162 0 267.5 -77.5t105.5 -206.5q0 -49 -15 -99q-53 -39 -127 -38q-106 0 -106 88q0 31 14 116q-55 66 -172.5 66t-199.5 -124t-129 -415q303 4 487 66q61 23 110.5 22.5t89.5 -38t40 -102 t-48.5 -399.5t-48.5 -513.5t78 -266.5q-63 -74 -141 -73q-160 0 -160 270q0 113 43 381t43 424t-14 190q-135 -76 -252 -102.5t-254 -28.5q-117 -827 -117 -1222q0 -193 78 -281q-61 -74 -141 -74q-160 0 -160 261.5t141 1313.5q-154 -4 -231 -53z" />
<glyph unicode="&#xfb02;" horiz-adv-x="1423" d="M80 1065q0 63 6 97t31 67q43 61 221 61q59 289 207.5 489.5t353.5 200.5t312.5 -91t107.5 -247q0 -108 -76 -601.5t-76 -695.5t78 -286q-63 -74 -141 -73q-160 0 -160 270q0 98 77 597t77 744q0 129 -58.5 190.5t-136.5 61.5q-143 0 -230 -131t-136 -428q244 0 329 60 q-16 -143 -81.5 -184.5t-274.5 -45.5q-117 -827 -117 -1222q0 -193 78 -281q-61 -74 -141 -74q-160 0 -160 261.5t141 1313.5q-154 -4 -231 -53z" />
<glyph horiz-adv-x="0" />
<glyph horiz-adv-x="682" />
<glyph horiz-adv-x="0" />
<glyph horiz-adv-x="0" />
<glyph unicode="&#xd;" horiz-adv-x="681" />
<glyph unicode=" "  horiz-adv-x="681" />
<glyph unicode="&#x09;" horiz-adv-x="681" />
<glyph unicode="&#xa0;" horiz-adv-x="681" />
<glyph unicode="!" horiz-adv-x="794" d="M190 78q0 51 17 139q88 55 164 55q135 0 135 -102q0 -55 -25 -141q-90 -57 -160.5 -57.5t-100.5 27.5t-30 79zM313 580q0 6 43 390t43 548.5t-45 250.5q23 18 67 33t77 15q75 0 111 -50.5t36 -161t-84 -527t-84 -511.5q0 -20 6 -39q-41 -33 -98 -32q-72 0 -72 84z" />
<glyph unicode="&#x22;" horiz-adv-x="811" d="M236 1419q0 61 19 161.5t19 151t-16 85.5q55 47 152 47q65 -1 65 -97q0 -35 -32.5 -158.5t-32.5 -180t24 -103.5q-45 -29 -104 -29q-94 0 -94 123zM582 1419q0 61 20.5 161.5t20.5 149t-19 87.5q55 47 152 47q65 -1 65 -97q0 -35 -32.5 -158.5t-32.5 -178t24 -105.5 q-45 -29 -104 -29q-94 0 -94 123z" />
<glyph unicode="#" horiz-adv-x="1673" d="M164 594q0 115 110 115q18 0 134 -4l61 368h-12q-131 0 -187 -41q-39 59 -39 123q0 115 111 115q23 0 154 -4q20 168 20 294t-47 207q23 18 69 33t78 15q68 0 100 -45.5t32 -146.5t-48 -366q256 -10 383 -10h25q23 195 22.5 317t-47.5 203q23 18 69 33t79 15 q68 0 99.5 -45.5t31.5 -146.5t-47 -366q172 14 225 39q31 -47 31 -108q0 -123 -211 -123h-80q-41 -217 -63 -371q201 16 256 41q31 -47 30 -108q0 -123 -211 -123h-98q-8 -84 -8 -180q0 -178 86 -261q-35 -76 -135 -75q-174 0 -174 260q-1 88 26 258l-409 4q-8 -88 -9 -186 q0 -178 86 -261q-35 -76 -135 -75q-174 0 -174 260q0 88 27 264q-123 -4 -172 -41q-39 59 -39 123zM604 698q324 -12 414 -12l63 381l-415 4q-43 -227 -62 -373z" />
<glyph unicode="$" horiz-adv-x="1351" d="M137 252q0 94 107 213q72 -307 323 -356q35 205 58 712q-70 53 -117 94q-119 96 -181.5 192.5t-62.5 231.5q0 193 110.5 314t301.5 155q18 115 54 163t95 48q25 0 50.5 -13t35.5 -34q-45 -66 -65 -151q137 -4 229 -62.5t92 -156t-92 -179.5q-33 80 -100.5 143.5 t-157.5 88.5q-20 -158 -47 -647q121 -98 154 -127q125 -106 182 -202.5t57 -261.5t-131 -294t-340 -152q-49 -186 -172 -186q-61 0 -69 74q47 47 75 110q-164 14 -276.5 87t-112.5 196zM455 1409q0 -100 34.5 -153.5t147.5 -141.5q18 459 25 549q-91 -16 -149 -85t-58 -169z M717 104q104 17 174 82.5t70 174t-47.5 184.5t-157.5 170q-23 -467 -39 -611z" />
<glyph unicode="%" horiz-adv-x="1845" d="M100 1186q0 166 43 301t140.5 231.5t232.5 96.5t214 -121t79 -287t-43 -301t-140.5 -230.5t-232.5 -95.5t-214 120t-79 286zM256 1245q0 -340 188 -340q57 0 101.5 50.5t64.5 125.5q43 152 43 295.5t-50 229.5t-138 86q-57 0 -100 -49.5t-66 -122.5q-43 -143 -43 -275z M504 47q0 59 38 171t279.5 602.5t302 665.5t60.5 245l-2 38q70 47 123 48q92 0 92 -86q0 -51 -34 -145.5t-281.5 -586t-321.5 -698.5q-41 -123 -41 -181.5t22 -99.5q-88 -74 -137 -73q-100 0 -100 100zM1036 342q0 166 43 301t140.5 231.5t232.5 96.5t214 -121t79 -287 t-43 -301t-140.5 -230t-232.5 -95t-214 119.5t-79 285.5zM1192 401q0 -340 188 -340q57 0 101.5 50.5t66.5 126.5q41 152 41 295t-50 229t-138 86q-57 0 -100.5 -49t-65.5 -123q-43 -143 -43 -275z" />
<glyph unicode="&#x26;" horiz-adv-x="1591" d="M186 444.5q0 176.5 120 323.5t331 223q-346 113 -346 420q0 170 133 288t369.5 118t340 -77t103.5 -165q0 -57 -34 -91t-120 -67q-59 276 -286 277q-133 0 -212 -87t-79 -192q0 -307 346 -346q47 -4 63.5 -14.5t16.5 -43t-14 -71.5q-252 -43 -378 -181t-126 -293t86 -254 t242.5 -99t274.5 116.5t118 292.5q0 61 -15 121q-281 -84 -370 -156q-43 -35 -66 -77q-18 55 -18 128.5t71.5 130t183 91.5t230.5 67q299 84 381 209q18 -68 18 -112q0 -137 -250 -224q16 -88 17 -155q0 -268 -187.5 -426t-435.5 -158q-135 0 -237.5 45t-157.5 117 q-113 145 -113 321.5z" />
<glyph unicode="'" horiz-adv-x="466" d="M236 1419q0 61 20 161.5t20 149t-18 87.5q55 47 152 47q65 -1 65 -97q0 -35 -32.5 -158.5t-32.5 -178t24 -105.5q-45 -29 -104 -29q-94 0 -94 123z" />
<glyph unicode="(" horiz-adv-x="833" d="M201 627.5q0 238.5 67.5 477t171 411t228.5 279t237 106.5q66 0 92 -107q-152 -55 -269.5 -175t-186.5 -271q-141 -307 -141.5 -650.5t122.5 -564.5t342 -242q-35 -88 -83 -119.5t-122 -31.5q-135 0 -241.5 124t-161.5 324.5t-55 439z" />
<glyph unicode=")" horiz-adv-x="833" d="M-164 -156q152 55 269.5 175t187.5 272q141 307 141 650t-123 564t-342 242q35 86 83 118.5t122 32.5q135 0 241.5 -123.5t162 -324.5t55.5 -439.5t-67.5 -477t-171 -410.5t-228.5 -278.5t-238 -106.5q-66 0 -92 106z" />
<glyph unicode="*" horiz-adv-x="983" d="M109 1250.5q0 33.5 25.5 55t70.5 39t84 27.5q66 20 141 39q-170 117 -264 131q0 55 19.5 122t62.5 67q33 0 73.5 -26t68.5 -52.5t72 -72.5t56 -58q4 66 4 139.5t-22 155.5q53 49 151 49q35 0 50.5 -19.5t15.5 -62.5t-9.5 -86t-26.5 -103.5t-24 -91.5q184 82 248 162 q43 -14 86 -57t43 -76t-25.5 -54.5t-71.5 -40t-82 -29.5t-86 -23.5t-56 -14.5q147 -115 264 -131q0 -55 -19.5 -121.5t-62.5 -66.5q-31 0 -73 25.5t-70.5 52t-72.5 71.5t-56 57q-4 -70 -4.5 -154.5t24.5 -137.5q-53 -49 -151 -50q-35 0 -50.5 19.5t-15.5 61.5t9 87 t25.5 103.5t22.5 91.5q-184 -84 -245 -162q-43 16 -86 58.5t-43 76z" />
<glyph unicode="+" horiz-adv-x="1114" d="M100 895q0 41 34 66.5t89 25.5l260 -12q20 135 20.5 205.5t-28.5 130.5q45 37 113 37q102 0 102 -148q0 -33 -26 -233h36q66 0 163.5 12t131.5 31q31 -35 31 -105q0 -115 -242 -114h-145q-10 -86 -10 -138q0 -102 59 -172q-53 -61 -119 -61q-127 0 -127 201q0 84 13 174 q-45 2 -99 2q-150 0 -217 -35q-39 57 -39 133z" />
<glyph unicode="," horiz-adv-x="653" d="M51 -223q0 25 2 43q11 -2 31 -2q78 0 125 64.5t47 161.5t-68 153q96 76 193 75q111 0 111 -148.5t-113 -276.5t-258 -128q-70 0 -70 58z" />
<glyph unicode="-" horiz-adv-x="718" d="M78 824.5q0 84.5 129 84.5l305 -22q96 0 162 45q31 -41 31 -107q-1 -123 -216 -123l-180 9q-117 0 -182 -37q-49 66 -49 150.5z" />
<glyph unicode="." horiz-adv-x="604" d="M145 77q0 52 17 140q86 55 154.5 55t106.5 -25.5t38 -80.5t-27 -137q-90 -57 -160.5 -57.5t-99.5 26.5t-29 79z" />
<glyph unicode="/" horiz-adv-x="794" d="M-49 -207q100 119 151 266q84 236 207 840t168 735q109 305 260 305q37 0 72 -21.5t37 -68.5q-80 -43 -125 -118.5t-82 -188.5q-86 -258 -201.5 -852t-160 -720t-92.5 -179t-114.5 -53t-119.5 55z" />
<glyph unicode="0" horiz-adv-x="1349" d="M53 717q0 406 180 739q86 162 228.5 261.5t318.5 99.5q244 0 380 -215.5t136 -542.5q0 -403 -178 -735q-88 -160 -230.5 -258.5t-318.5 -98.5q-244 0 -380 211t-136 539zM270 795q0 -332 99.5 -501t285.5 -169q119 0 207 98.5t133 247.5q84 284 84 526q0 324 -100 493 t-287 169q-115 0 -202 -96.5t-132 -239.5q-88 -283 -88 -528z" />
<glyph unicode="1" horiz-adv-x="1189" d="M135 1413q86 23 151.5 66t137.5 109.5t120 123.5t89 81t106.5 24t100 -49.5t34.5 -162t-78.5 -585.5t-78.5 -675t78 -286q-63 -74 -142 -73q-160 0 -159 270q0 94 72.5 569t72.5 750q-82 -121 -160 -194.5t-115.5 -90t-74.5 -16.5t-74 25.5t-80 113.5z" />
<glyph unicode="2" horiz-adv-x="1370" d="M55 45q18 20 122 135t184.5 208t195.5 239.5t191.5 267.5t133 255t56.5 243.5t-81 194.5t-220 85q-264 0 -309 -315q-82 33 -114 62.5t-32 80.5q0 127 120 221.5t371 94.5t379 -108t128 -292q0 -233 -207 -536q-76 -113 -126 -180.5t-155 -188.5q-133 -156 -305 -342 q252 68 436.5 68t257 -36t72.5 -159q0 -10 -1 -33.5t-1 -36.5q-96 37 -203.5 51.5t-336 14.5t-369.5 -35q-37 -37 -74 -37q-76 0 -113 78z" />
<glyph unicode="3" horiz-adv-x="1390" d="M53 252q0 82 142 135q57 -268 309 -268q186 0 297.5 129t111.5 275.5t-81.5 240.5t-253.5 113q-99 -29 -230 -39q-2 14 -2 73.5t15.5 74.5t72.5 22q225 25 339 132t114 235t-74 213t-202 85t-191.5 -66.5t-104.5 -189.5q-78 31 -106.5 62.5t-28.5 83.5q0 88 114 171 t353.5 83t359 -107.5t119.5 -292.5q0 -115 -82.5 -237.5t-238.5 -210.5q350 -80 350 -396q0 -158 -102 -311q-117 -182 -332 -254q-121 -41 -277.5 -41t-273.5 87t-117 198z" />
<glyph unicode="4" horiz-adv-x="1218" d="M-96 397q227 250 422.5 616.5t195.5 641.5q0 49 -18 88q88 74 168 74q49 0 73.5 -29t24.5 -109q0 -193 -167 -537.5t-398 -645.5q276 72 540 75q20 96 20.5 175t-34.5 141q55 39 128 39t104.5 -35t31.5 -104.5t-30 -237.5q129 -37 129 -152q0 -23 -4 -71q-51 23 -156 43 q-14 -96 -14 -146q0 -102 73 -174q-68 -61 -145.5 -61t-117.5 46t-40 144t21 215q-90 6 -181 6q-264 0 -442 -43q-35 -35 -72 -34q-76 0 -112 75z" />
<glyph unicode="5" horiz-adv-x="1390" d="M63 252q0 82 142 135q57 -268 307 -268q186 0 299 129t113 291q0 121 -76 223q-39 53 -119 86t-174 33t-168 -12.5t-119 -23.5t-51 -11q-27 0 -27 30q0 10 19 111q51 305 51 509t-43 290q55 47 140 47t116 -74q45 -2 206 -2t267.5 14.5t202.5 50.5q4 -45 4 -69 q0 -123 -73.5 -159t-232.5 -36t-351 45q-2 -104 -86 -594q80 8 165 9q311 0 450.5 -124t139.5 -309q0 -158 -100 -311q-119 -182 -332 -254q-123 -41 -279.5 -41t-273.5 87t-117 198z" />
<glyph unicode="6" horiz-adv-x="1402" d="M80 688q0 197 53 393.5t151.5 362.5t255 269.5t345.5 103.5q276 0 276 -168q0 -35 -23.5 -73t-54.5 -60q-55 74 -122.5 98t-172 24t-189.5 -65.5t-139 -163.5t-91 -217q-70 -217 -70 -410q0 -338 72.5 -497.5t236.5 -159.5t253 126t89 298t-76.5 259t-203.5 87 q-104 0 -211 -49q-37 -17 -41 -17q-31 0 -31 33q0 57 27 105q156 68 313 67q203 0 335 -118.5t132 -342.5q0 -199 -137 -389q-68 -94 -192 -155.5t-281 -61.5q-238 0 -371 203t-133 518z" />
<glyph unicode="7" horiz-adv-x="1206" d="M88 1741q0 25 4 69q94 -37 201.5 -51t336 -14t369.5 33q35 39 76 39q76 0 113 -78q-268 -270 -462 -771t-194 -839q0 -49 21 -88q-88 -74 -168 -74q-49 0 -73.5 29.5t-24.5 107.5q0 268 177 730t406 782q-256 -70 -445 -70t-263 36t-74 159z" />
<glyph unicode="8" horiz-adv-x="1409" d="M68 381q0 170 104 303t309 205q-135 102 -210.5 212.5t-75.5 250.5q0 211 156.5 338t401 127t357.5 -105.5t113 -255.5q0 -291 -314 -467q-28 4 -57 23.5t-29 34t29 41t63.5 62.5t63.5 108.5t29 167t-74 166t-207 71.5t-221 -78t-88 -194.5t78.5 -211t190.5 -169 t224.5 -153.5t191.5 -189.5t79 -239.5q0 -203 -163 -332t-427 -129t-394 122t-130 292zM281 397q0 -119 89 -197.5t224 -78.5t247.5 78t112.5 215q0 74 -35.5 117.5t-54 66.5t-65.5 59.5t-68.5 52t-83 57.5t-80.5 56q-287 -227 -286 -426z" />
<glyph unicode="9" horiz-adv-x="1341" d="M57 1210q0 162 86 312q171 295 525 295q238 0 370.5 -203t132.5 -520q0 -197 -53 -392.5t-151.5 -361.5t-255 -269.5t-344.5 -103.5q-276 0 -277 166q0 35 23.5 74t54.5 59q55 -74 122.5 -98.5t183.5 -24.5t215 96.5t153 239.5q109 293 108 520q0 340 -72.5 500 t-235.5 160t-253 -126t-90 -298t78 -259t205 -87q104 0 213 49q35 16 39 16q29 0 28 -32q0 -55 -24 -105q-158 -70 -314 -69q-203 0 -335 119.5t-132 342.5z" />
<glyph unicode=":" horiz-adv-x="604" d="M145 77q0 52 17 140q86 55 154.5 55t106.5 -25.5t38 -80.5t-27 -137q-90 -57 -160.5 -57.5t-99.5 26.5t-29 79zM197 1133.5q0 52.5 16 140.5q86 55 154.5 55t106.5 -25.5t38 -81t-27 -137.5q-90 -57 -160.5 -57t-99 26.5t-28.5 79z" />
<glyph unicode=";" horiz-adv-x="604" d="M12 -223q0 25 2 43q11 -2 31 -2q78 0 125 64.5t47 161.5t-67 153q96 76 192 75q111 0 111 -148.5t-113 -276.5t-258 -128q-70 0 -70 58zM197 1133.5q0 52.5 16 140.5q86 55 154.5 55t106.5 -25.5t38 -81t-27 -137.5q-90 -57 -160.5 -57t-99 26.5t-28.5 79z" />
<glyph unicode="&#x3c;" horiz-adv-x="1114" d="M51 877q0 127 180 208q68 31 233 97.5t254 113.5t124 95q100 -66 100 -133.5t-78 -106.5q-49 -25 -245.5 -91.5t-286.5 -111.5q27 -18 128 -89t145 -98.5t120 -72.5q137 -86 213 -90q-4 -63 -31.5 -115.5t-74 -52.5t-75 18.5t-202.5 145.5t-294 196.5t-210 86.5z" />
<glyph unicode="=" horiz-adv-x="1114" d="M100 645q0 41 34 66.5t89 25.5l477 -20q66 0 163.5 12t131.5 31q31 -35 31 -105q0 -114 -242 -114l-428 6q-150 0 -217 -35q-39 57 -39 133zM100 1147q0 41 34 65.5t89 24.5l477 -20q66 0 163.5 12t131.5 31q31 -35 31 -105q0 -115 -242 -115l-428 7q-150 0 -217 -35 q-39 57 -39 135z" />
<glyph unicode="&#x3e;" horiz-adv-x="1114" d="M172 1257.5q0 67.5 100 133.5q35 -47 124 -94.5t254 -114t233 -97.5q180 -82 180 -208q-90 -16 -210 -86t-294 -197t-202.5 -145.5t-74.5 -18.5t-74 52.5t-32 115.5q76 4 182.5 69.5t150.5 93t145.5 98.5t127.5 89q-90 45 -286.5 111.5t-245.5 91.5q-78 39 -78 106.5z " />
<glyph unicode="?" horiz-adv-x="1015" d="M88 1526q0 127 124 209t324.5 82t327.5 -106t127 -294q0 -297 -448 -858q-55 -74 -108.5 -74t-84.5 62q133 170 267.5 418.5t134.5 416.5q0 121 -67 206t-183 85q-248 0 -248 -348q-166 74 -166 201zM256 78q0 51 16 139q88 55 164 55q135 0 135 -102q0 -55 -24 -141 q-90 -57 -161 -57.5t-100.5 27.5t-29.5 79z" />
<glyph unicode="@" horiz-adv-x="2285" d="M150 725q0 313 141 582.5t397 432.5t567 163q424 0 651.5 -223.5t227.5 -635.5q0 -195 -60.5 -368.5t-184.5 -291.5t-285 -118q-160 0 -236 86q-82 96 -82 393q-80 -186 -178 -303.5t-178 -117.5q-113 0 -184.5 106.5t-71.5 286.5q0 287 140 488.5t335 201.5 q121 0 207 -86q23 72 83 72t105 -54q-27 -74 -47 -244.5t-20 -295.5t2 -170t14 -107q23 -116 121 -116q133 0 222 154.5t89 420.5q0 391 -175 586.5t-540 195.5q-252 0 -448.5 -144t-299 -377.5t-102.5 -508.5q0 -801 672 -801q307 0 625 197q61 -84 61 -154.5t-222 -126 t-464 -55.5q-883 0 -882 932zM881 754q0 -113 26.5 -177.5t75.5 -64.5t127 113.5t142.5 278.5t80.5 298q-94 72 -178 72q-121 0 -197.5 -145.5t-76.5 -374.5z" />
<glyph unicode="A" horiz-adv-x="1345" d="M10 88q0 57 36 169t263.5 584t283.5 641t56 218t-6 74q68 47 147.5 47t128 -40t84 -155t81.5 -608.5t106 -698.5q43 -151 176 -260q-33 -74 -130 -74l-1 1q-98 0 -156.5 51t-94.5 170t-60 315h-600q-104 -236 -105 -364q0 -59 25 -99q-49 -74 -140 -74l-2 1 q-92 0 -92 102zM385 662h524q-10 129 -33.5 336.5t-31.5 263.5q-24 145 -53 247q-47 -111 -194.5 -409.5t-211.5 -437.5z" />
<glyph unicode="B" horiz-adv-x="1357" d="M201 225q0 125 77.5 642t77.5 661.5t-30 240.5q252 47 413 48q248 0 381 -103.5t133 -247t-96 -271.5t-272 -214q397 -61 397 -387q0 -158 -102 -315q-195 -301 -600 -302q-203 0 -291 61.5t-88 186.5zM424 371q0 -138 16 -199q78 -51 195 -51q195 0 311.5 129 t116.5 286.5t-99.5 259t-308.5 107.5q-90 -21 -176 -29q-55 -365 -55 -503zM496 987q268 17 405 133.5t137 259t-78.5 230.5t-242.5 88q-49 0 -129 -15q-2 -119 -92 -696z" />
<glyph unicode="C" horiz-adv-x="1245" d="M160 688q0 332 127 619q139 315 381 442q129 68 274 68t234.5 -50.5t89.5 -142.5q0 -51 -19.5 -95t-36 -62.5t-49.5 -47.5q-51 117 -125.5 178.5t-187.5 61.5t-198 -67.5t-133 -168t-81 -225.5q-55 -211 -55 -416q0 -330 106.5 -506t317.5 -176q115 0 204 72t136 209 q51 -57 51 -141q0 -106 -138 -194.5t-310 -88.5q-297 0 -442.5 202.5t-145.5 528.5z" />
<glyph unicode="D" horiz-adv-x="1495" d="M201 236.5q0 136.5 77.5 624t77.5 642t-30 246.5q244 53 438 53q317 0 484 -150.5t167 -486.5t-100.5 -600t-293.5 -426t-441 -162q-203 0 -291 61.5t-88 198zM424 328q0 -92 16 -154q86 -53 216 -53t245 91t176 234q123 287 123 621t-100.5 472t-354.5 138 q-78 0 -155 -14q0 -104 -83 -613t-83 -722z" />
<glyph unicode="E" horiz-adv-x="1232" d="M184 846q10 76 33 101.5t94 31.5q58 365 58 509q0 139 -31 230q71 58 319 58l332 -4q246 0 328 38q-10 -133 -64.5 -177t-171.5 -44q-193 0 -481 45q0 -137 -86 -653q401 4 524 68q-12 -162 -92 -201q-43 -23 -82 -28t-94 -5t-281 19q-63 -408 -63 -605q0 -41 2 -59 q168 -8 283 -8q387 0 487 53q-6 -82 -27.5 -131t-70.5 -71.5t-95.5 -27.5t-147.5 -5t-402 43q-55 -39 -111 -39q-147 0 -147 198q0 129 92 662q-33 2 -105 2z" />
<glyph unicode="F" horiz-adv-x="1167" d="M184 846q10 76 33 101.5t96 31.5q56 387 56 519q0 129 -31 220q71 58 315 58l310 -4q227 0 305 38q-10 -131 -65.5 -176t-199 -45t-403.5 45q-2 -117 -88 -653q401 4 526 68q-12 -162 -92 -201q-43 -23 -82 -28t-93 -5t-284 19q-49 -332 -49 -509.5t80 -265.5 q-62 -73 -139 -73h-2q-160 0 -160 270q0 125 74 588q-33 2 -107 2z" />
<glyph unicode="G" horiz-adv-x="1411" d="M160 688q0 332 127 619q139 315 381 442q129 68 274 68t234.5 -50.5t89.5 -142.5q0 -51 -19.5 -95t-36 -62.5t-49.5 -47.5q-51 117 -125.5 178.5t-187.5 61.5t-198 -67.5t-133 -168t-81 -225.5q-55 -211 -55 -416q0 -319 92 -500.5t244 -181.5q102 0 194.5 52.5 t155.5 142.5q6 72 29.5 219.5t23.5 228t-30 148.5q45 39 110.5 39t93 -36t27.5 -108.5t-35 -279.5t-35 -296t62 -161q-53 -61 -123 -61q-113 0 -127 155q-178 -186 -410.5 -186t-362.5 207t-130 524z" />
<glyph unicode="H" horiz-adv-x="1601" d="M273.5 841q72.5 472 72.5 659.5t-43 273.5q55 47 132 47t112 -50.5t35 -183.5t-90 -629h669q55 382 55 556q0 2 1 4q0 171 -43 256q20 18 62 32.5t75 14.5q72 0 105.5 -49.5t33.5 -163t-79 -587.5t-79 -674t78 -288q-60 -73 -139 -73h-2q-160 0 -160 270q0 102 70 553 h-670q-45 -287 -45 -476.5t78 -273.5q-62 -73 -140 -73h-2q-159 0 -159 267q0 116 72.5 588z" />
<glyph unicode="I" d="M273.5 841q72.5 472 72.5 659.5t-43 273.5q55 47 132 47t112 -50.5t35 -163t-79 -586.5t-79 -676t78 -286q-62 -73 -140 -73h-2q-159 0 -159 267q0 116 72.5 588z" />
<glyph unicode="J" horiz-adv-x="688" d="M-434 -274.5q0 100.5 74 170.5q35 -100 84 -150.5t143 -50.5t169 90t124 245.5t84 339t53 396.5q35 399 35 731q0 190 -43 277q20 18 62 32.5t75 14.5q70 0 104.5 -50t34.5 -167q0 -424 -61 -883q-59 -463 -230 -823q-80 -170 -198.5 -268.5t-263.5 -98.5q-96 0 -171 47 t-75 147.5z" />
<glyph unicode="K" horiz-adv-x="1294" d="M273.5 841q72.5 472 72.5 659.5t-43 273.5q55 47 132 47t112 -50.5t35 -166.5q0 -133 -99 -703q266 264 464 535.5t222 363.5q84 0 134.5 -26.5t50.5 -64.5t-199 -271.5t-430 -470.5q16 -31 77.5 -156t100.5 -201q111 -219 168 -301q100 -139 223 -157q-14 -94 -64 -133 t-97 -39q-102 0 -195 137q-43 63 -358 708q-86 -81 -125 -116q-31 -221 -31 -393.5t78 -256.5q-62 -73 -140 -73h-2q-159 0 -159 267q0 116 72.5 588z" />
<glyph unicode="L" horiz-adv-x="1150" d="M176 182q0 131 85 618.5t85 687.5t-43 286q55 47 132 47t112 -50.5t35 -171t-87 -640t-87 -730.5q0 -41 2 -61q117 -6 264 -6q381 0 477 53q-6 -82 -26.5 -131t-66.5 -71.5t-90 -27.5t-140.5 -5t-389.5 43q-55 -39 -114 -39q-147 0 -148 198z" />
<glyph unicode="M" horiz-adv-x="1814" d="M273.5 841q72.5 472 72.5 659.5t-43 273.5q46 46 140 46h3q96 -1 165 -55.5t107 -178.5t100.5 -419t123.5 -491q45 123 164 371.5t201 440t82 275.5q66 57 188 58q70 0 104.5 -50.5t34.5 -163t-78.5 -586.5t-78.5 -674t77 -288q-62 -73 -139 -73h-2q-160 0 -160 270 q0 111 74 587t74 673q-301 -604 -352.5 -763t-51.5 -233q0 -16 4 -49q-14 -18 -56 -32.5t-85 -14.5q-90 0 -138 58.5t-87 217t-90.5 384t-94.5 382.5q-4 -39 -76.5 -486.5t-72.5 -640t80 -280.5q-29 -73 -111 -73h-2q-149 0 -149 266q0 117 72.5 589z" />
<glyph unicode="N" horiz-adv-x="1574" d="M273.5 841q72.5 472 72.5 659.5t-43 273.5q10 18 49 32.5t106.5 14.5t123 -41t114 -154t205 -583t242.5 -674q8 80 73.5 517t65.5 619.5t-43 268.5q16 18 56 32.5t67 14.5q59 0 87 -49.5t28 -163t-79 -587.5t-79 -671.5t84 -290.5q-29 -74 -126 -74l-1 1q-98 0 -166 52 t-134.5 181t-214 588t-231.5 641q-2 -18 -74.5 -468t-72.5 -641.5t80 -279.5q-29 -73 -111 -73h-2q-149 0 -149 266q0 117 72.5 589z" />
<glyph unicode="O" horiz-adv-x="1601" d="M160 688q0 410 200 758q96 166 255 270.5t352 104.5q256 0 400 -208t144 -526q0 -330 -131 -618q-143 -319 -385 -444q-134 -68 -290 -68q-256 0 -400.5 207t-144.5 524zM381 778q0 -322 120 -491.5t328 -169.5q106 0 190.5 68.5t133.5 168t82 224.5q55 212 55 419 q0 322 -119.5 492t-328.5 170q-106 0 -190.5 -68.5t-133.5 -168t-82 -226.5q-55 -211 -55 -418z" />
<glyph unicode="P" horiz-adv-x="1177" d="M278.5 876.5q77.5 507.5 77.5 652t-30 240.5q276 51 446 52q506 0 506 -420q0 -131 -57.5 -245t-143.5 -192.5t-203 -144.5q-199 -109 -428 -166q-22 -176 -22 -302v-11q0 -197 78 -281q-62 -73 -140 -73h-2q-159 0 -159 267q0 116 77.5 623.5zM465 793q238 49 409 178 q88 68 138.5 167t50.5 220q0 338 -336 338q-66 0 -139 -13q0 -127 -54.5 -461.5t-68.5 -428.5z" />
<glyph unicode="Q" horiz-adv-x="1581" d="M150 688q0 410 200 758q96 166 255 270.5t351 104.5q256 0 400.5 -208t144.5 -526q0 -498 -264 -843q-137 -180 -324 -248q182 -100 317.5 -154.5t264.5 -54.5q49 0 88 8q0 -92 -59.5 -153.5t-151.5 -61.5t-181 51.5t-229.5 171t-193.5 158.5q-49 -4 -74 -4 q-256 0 -400 207t-144 524zM371 778q0 -322 119.5 -491.5t328.5 -169.5q106 0 190.5 68.5t133.5 168t82 224.5q55 212 55 419q0 322 -120 492t-329 170q-106 0 -190 -68.5t-133 -168t-82 -226.5q-55 -211 -55 -418z" />
<glyph unicode="R" horiz-adv-x="1339" d="M278.5 876.5q77.5 507.5 77.5 652t-30 240.5q276 51 456 52q525 -1 525 -404q0 -369 -500 -596q27 -53 78 -158.5t77.5 -156.5t71.5 -127t80 -113q94 -100 191 -114q-14 -94 -64.5 -133t-97.5 -39q-104 0 -195 137q-53 76 -321 635q-35 -12 -174 -50q-29 -211 -29 -385 t78 -258q-62 -73 -140 -73h-2q-159 0 -159 267q0 116 77.5 623.5zM473 844q244 49 420 168q92 63 145.5 156t53.5 208q0 166 -98.5 243t-260.5 77q-72 0 -145 -13q0 -115 -27 -280q-31 -203 -88 -559z" />
<glyph unicode="S" horiz-adv-x="1153" d="M66 252q0 59 26.5 106.5t77.5 106.5q90 -365 420 -365q119 0 209 68t90 201q0 76 -18.5 115.5t-30 62t-40 54.5t-47 51.5t-63.5 57.5t-70.5 59.5t-87 69.5t-96.5 76q-119 96 -181 192.5t-62 231.5q0 227 153.5 354.5t401.5 127.5q147 0 247.5 -57.5t100.5 -158 t-92 -182.5q-41 103 -137.5 174.5t-214 71.5t-193.5 -70.5t-76 -197.5q0 -57 9 -94t49 -81t78 -75t140.5 -113t210 -173t165 -187t57.5 -246q0 -197 -157 -332t-398 -135q-188 0 -329.5 75t-141.5 212z" />
<glyph unicode="T" horiz-adv-x="1099" d="M88 1550q8 133 56.5 181.5t144.5 48.5l762 -8q190 0 254 38q-8 -133 -54.5 -177t-144.5 -44l-318 25q-4 -131 -82.5 -605t-78.5 -668t80 -282q-62 -73 -142 -73h-2q-157 0 -157 267q0 116 74.5 598t74.5 667q0 63 -2 98q-285 -2 -465 -66z" />
<glyph unicode="U" horiz-adv-x="1519" d="M201 313q0 111 68.5 555.5t68.5 632t-43 273.5q55 47 132 47t111.5 -50.5t34.5 -163t-79.5 -595t-79.5 -688.5q0 -160 102 -160q96 0 278.5 185.5t305.5 402.5q4 27 23.5 152.5t25.5 173.5t18 143q21 158 21 314q0 154 -43 239q20 18 62 32.5t73 14.5q72 0 106.5 -50.5 t34.5 -163t-78.5 -586.5t-78.5 -674t77 -288q-62 -73 -139 -73h-2q-160 0 -160 270q0 90 23 242q-139 -217 -314.5 -374t-291.5 -157q-256 0 -256 346z" />
<glyph unicode="V" horiz-adv-x="1314" d="M49 1747q18 35 59 54.5t76 19.5q96 0 156.5 -52.5t99.5 -181.5t86 -616.5t103 -671.5q51 123 208.5 435.5t258 550t100.5 362.5q0 59 -25 100q49 74 141.5 74t92.5 -100.5t-100.5 -332t-219 -464t-219 -477t-100.5 -365.5q0 -20 4 -49q-33 -47 -131 -47t-145.5 40 t-82 153.5t-80.5 607t-106 698.5q-43 152 -176 262z" />
<glyph unicode="W" horiz-adv-x="1941" d="M49 1747q20 35 62 54.5t77 19.5q96 0 153.5 -52.5t93.5 -181.5t64.5 -603t73.5 -660q41 104 202 462.5t222 534.5q-37 205 -106 242q27 43 77 71.5t101 28.5q92 0 119 -94q29 -111 57.5 -584t73.5 -659q45 113 189.5 428t229.5 542.5t85 350.5q0 59 -25 100 q49 74 141.5 74t92.5 -100.5t-90.5 -332t-200 -464t-199.5 -477t-90 -365.5q0 -29 6 -49q-18 -20 -58 -33.5t-73 -13.5q-96 0 -143 38.5t-74 134t-38 219.5t-21.5 328.5t-18.5 303.5q-111 -250 -161 -370t-107 -293t-57 -265q0 -20 4 -49q-43 -47 -134.5 -47t-139.5 38.5 t-79.5 153.5t-60.5 608.5t-80 698.5q-37 150 -168 262z" />
<glyph unicode="X" horiz-adv-x="1306" d="M84 88q0 63 128 274t302 441q-119 250 -197.5 476t-78.5 307t35.5 124t136.5 74q31 -317 272 -817q137 182 254 388t117 290q0 43 -19 71q53 63 137 64q94 0 95 -117q0 -72 -161 -327t-357 -498q147 -285 298.5 -489t260.5 -245q-27 -131 -143.5 -131t-271.5 196 t-310 499q-117 -168 -201 -329t-84 -217t18 -85q-55 -63 -139 -64q-92 0 -92 115z" />
<glyph unicode="Y" horiz-adv-x="1130" d="M55 1686q23 70 74 102.5t98 32.5q123 0 199 -213q88 -260 192 -750q57 117 162 290t158 286.5t53 189.5t-20 115q53 74 145 74l1 -1q93 0 93 -98q0 -76 -89 -238.5t-124.5 -226t-130 -221.5t-108.5 -180q-72 -121 -90 -221q-25 -197 -25 -310q0 -176 74 -258 q-63 -74 -140 -74l-1 1q-78 0 -117 58t-39 177t47 412q-211 1053 -412 1053z" />
<glyph unicode="Z" horiz-adv-x="1169" d="M20 35q178 391 793 1499q-193 -35 -326 -35q-305 0 -305 158q0 88 49 153q195 -120 471 -120h5q117 0 219 10q70 74 149 74q156 0 156 -158q-66 -10 -159 -112.5t-181 -240t-203 -350.5q-152 -276 -381 -753q285 78 480.5 78t268 -39t72.5 -174q0 -23 -4 -72 q-113 45 -219 65.5t-305 20.5t-381 -41q-41 -41 -88 -41q-74 0 -111 78z" />
<glyph unicode="[" horiz-adv-x="802" d="M96 -100q0 131 106.5 856t106.5 934q0 109 -30 200q72 57 318.5 57.5t328.5 39.5q0 -117 -60.5 -170.5t-151.5 -53.5t-173 43q0 -106 -107.5 -859.5t-107.5 -1055.5q55 0 180 29t180 57q0 -86 -8 -120q-27 -115 -326 -115q-150 0 -203 39t-53 119z" />
<glyph unicode="\" horiz-adv-x="794" d="M-49 1849q2 47 36.5 68.5t71.5 21.5q152 0 260 -305q45 -131 168 -735t207 -840q51 -147 152 -266q-53 -55 -120 -55t-115 53t-92 179t-159.5 720t-201.5 852q-37 113 -82 188.5t-125 118.5z" />
<glyph unicode="]" horiz-adv-x="802" d="M-68 -18q86 -45 328 -78q61 160 93 566.5t54.5 808.5t59.5 527q-96 -43 -188 -43q-174 0 -175 166q0 23 11 58q63 -39 312 -39t310 -58q-127 -186 -168 -1286q-29 -637 -143 -790q-49 -68 -117 -68q-256 0 -325 53q-35 27 -43.5 62t-8.5 121z" />
<glyph unicode="^" horiz-adv-x="1114" d="M82 969q0 70 98.5 259t197.5 369.5t99 227.5l-2 26q68 25 115 25q84 0 104 -88q98 -418 176 -605.5t193 -189.5q-23 -70 -72 -102.5t-96 -32.5q-135 0 -209 211q-18 55 -67.5 258t-86.5 336q-41 -92 -99 -217t-85 -182q-66 -150 -65.5 -225.5t22.5 -114.5 q-47 -59 -129 -60q-94 0 -94 105z" />
<glyph unicode="_" horiz-adv-x="925" d="M0 -88q0 109 123 108l477 -20q66 0 163 12.5t132 30.5q31 -35 31 -104q0 -115 -242 -115l-428 6q-150 0 -217 -35q-39 59 -39 117z" />
<glyph unicode="`" horiz-adv-x="632" d="M311 1823.5q0 21.5 28 39t82 17.5t103 -10q27 -47 95.5 -109.5t234.5 -187.5q-33 -57 -59.5 -57t-162.5 73.5t-215 129t-92.5 69.5t-13.5 35.5z" />
<glyph unicode="a" horiz-adv-x="1406" d="M139 485q0 385 173 650.5t427 265.5q174 0 289 -137q16 63 42 89.5t80 26.5t101 -53q-37 -98 -63.5 -329.5t-26.5 -431t21.5 -309.5t72.5 -196q-58 -75 -137 -75h-2q-176 0 -176 432q0 70 16 244q-106 -297 -252.5 -494t-263.5 -197q-139 0 -220 137.5t-81 376.5z M354 537q0 -162 42 -255.5t115 -93.5t184.5 160t203.5 390.5t113 414.5q-139 107 -264 107q-174 0 -284 -203t-110 -520z" />
<glyph unicode="b" horiz-adv-x="1396" d="M186 37q43 270 101.5 809.5t58.5 689.5t-8 218.5t-35 119.5q51 45 131 45t114 -49t34 -164t-136 -997q92 299 229.5 495.5t252.5 196.5q139 0 234 -146.5t95 -439.5q0 -317 -131 -569q-66 -123 -175 -199t-246 -76q-176 0 -299 138q-12 -68 -37 -96.5t-77 -28.5t-106 53z M420 217q145 -106 268 -106q166 0 261 181t95 460q0 186 -44 309t-123.5 123t-183 -160t-183.5 -390.5t-90 -416.5z" />
<glyph unicode="c" horiz-adv-x="1089" d="M139 530q0 150 47 302.5t129 280.5t211 208t279 80q285 0 285 -166q0 -113 -93 -188q-49 96 -115.5 148t-160.5 52t-159.5 -50t-101.5 -123t-59 -165q-41 -160 -41 -307q0 -238 82 -361.5t236 -123.5q193 0 283 207q43 -45 43 -115q0 -115 -118 -179.5t-247 -64.5 q-248 0 -374 158t-126 407z" />
<glyph unicode="d" horiz-adv-x="1421" d="M139 485q0 330 148 611q70 135 188.5 220t278 85t274.5 -137q8 73 8 206q0 319 -45 404q51 45 131 45t115 -51t35 -167t-57.5 -505t-57.5 -598t20.5 -325.5t75.5 -211.5q-56 -75 -137 -75h-2q-174 0 -174 436q0 92 16 240q-106 -299 -253.5 -495t-270.5 -196t-208 128 t-85 386zM354 537q0 -154 39 -251.5t115 -97.5t187.5 159t203.5 389.5t113 416.5q-141 107 -264 107q-180 0 -287 -208t-107 -515z" />
<glyph unicode="e" horiz-adv-x="1193" d="M139 530q0 150 47 302.5t129 280.5t211 208t283 80t234.5 -78t80.5 -201q0 -199 -183 -373t-470 -174q-55 0 -111 7q2 -227 85 -346t233 -119q211 0 307 207q49 -47 49 -115q0 -115 -128 -179.5t-267 -64.5q-248 0 -374 158t-126 407zM365 713q49 -6 92 -6 q209 0 330.5 107.5t121.5 240.5q0 84 -52 138t-143 54t-158 -51t-105 -137q-70 -160 -86 -346z" />
<glyph unicode="f" horiz-adv-x="743" d="M80 1065q0 63 6 97t31 67q43 61 221 61q59 289 207.5 489.5t353.5 200.5q289 0 289 -184q0 -104 -94 -170q-47 203 -224 203q-123 0 -204.5 -124t-128.5 -415q244 0 329 60q-16 -143 -81.5 -184.5t-274.5 -45.5q-117 -827 -117 -1222q0 -193 78 -281q-61 -74 -141 -74 q-160 0 -160 261.5t141 1313.5q-154 -4 -231 -53z" />
<glyph unicode="g" horiz-adv-x="1384" d="M139 485q0 330 148 611q70 135 188.5 220t278 85t274.5 -137q16 66 42 91t91.5 25t120.5 -43q-43 -74 -92 -198q-31 -257 -31 -830q0 -381 -159.5 -605t-428.5 -224q-82 0 -149.5 13t-124.5 58.5t-57 129t73 153.5q119 -203 338 -203q111 0 160 62q31 35 52.5 71.5 t36.5 110.5t24.5 138.5t15.5 181.5q8 166 16 464q-106 -299 -253.5 -493.5t-270.5 -194.5t-208 128t-85 386zM354 537q0 -154 39 -251.5t115 -97.5t187.5 159t203.5 389.5t113 416.5q-141 107 -264 107q-180 0 -287 -208t-107 -515z" />
<glyph unicode="h" horiz-adv-x="1359" d="M170 204.5q0 114.5 84 614.5q82 500 82 776q0 196 -41 279q49 45 128 45t113.5 -49t34.5 -179t-68.5 -523.5t-80.5 -491.5q217 520 373 655q72 61 143 62q238 0 238 -355q0 -102 -24 -294.5t-24 -292.5q0 -289 91 -392q-71 -73 -142 -73h-2q-170 0 -170 397 q0 147 34 371.5t34 287t-24.5 98.5t-86.5 36q-82 0 -196.5 -187.5t-193.5 -422t-79 -368t35 -184.5q-69 -29 -134 -29q0 1 -2 1q-66 0 -94 52t-28 166.5z" />
<glyph unicode="i" d="M244 637q43 268 43 440t-43 254q51 47 125 47q149 0 149 -153v-2q0 -49 -47 -384t-47 -515.5t78 -264.5q-64 -73 -142 -73q-159 0 -159 267q0 116 43 384zM281 1636q0 41 14 127q76 47 141 47q119 0 119 -88q0 -51 -23 -125q-76 -47 -138 -47t-87.5 22.5t-25.5 63.5z" />
<glyph unicode="j" horiz-adv-x="671" d="M-412 -326q0 90 74 160q41 -92 107.5 -147.5t144.5 -55.5t131 42t89 132.5t60.5 205t38.5 286.5q23 305 23 770q0 190 -43 264q14 18 59 32.5t90.5 14.5t85 -37.5t39.5 -117.5q0 -821 -118 -1270q-68 -254 -205 -373t-291 -119q-117 0 -201 61.5t-84 151.5zM250 1642.5 q0 47.5 12 120.5q78 47 144 47q116 0 116 -88q0 -49 -20 -125q-78 -47 -139.5 -47t-87 22.5t-25.5 70z" />
<glyph unicode="k" horiz-adv-x="1228" d="M190 256q0 100 74 598t74 716t-43 304q49 45 128 45t113.5 -49t34.5 -146.5t-20.5 -249t-54 -370.5t-50.5 -354q197 188 340.5 365t161.5 253q84 0 134.5 -26.5t50.5 -67.5q0 -68 -469 -504q199 -336 286 -442q123 -150 248 -168q-2 -100 -52 -140t-99 -40 q-127 0 -281 237q-72 113 -145.5 240t-104.5 178l-92 -82q-10 -129 -10 -213q0 -193 78 -281q-62 -73 -140 -73h-2q-160 0 -160 270z" />
<glyph unicode="l" d="M273.5 854q72.5 498 72.5 716t-43 304q23 18 65 31.5t72 13.5q72 0 107 -49t35 -162t-79 -637t-79 -726t78 -286q-62 -73 -140 -73h-2q-159 0 -159 267q0 103 72.5 601z" />
<glyph unicode="m" horiz-adv-x="2011" d="M176 187.5q0 97.5 39 395.5t39 481t-43 267q20 20 61 33.5t74 13.5q72 0 106.5 -49t34.5 -185t-59 -468q205 520 352 655q68 61 135 62q225 0 226 -355q0 -174 -27 -362q260 717 486.5 717t226.5 -355q0 -102 -23.5 -294.5t-23.5 -292.5q0 -289 90 -392q-67 -73 -139 -73 h-2q-170 0 -170 397q0 147 32.5 371.5t32.5 287t-21.5 98.5t-80.5 36q-76 0 -182.5 -187.5t-180.5 -423t-74 -368t35 -183.5q-71 -29 -135 -29q-1 1 -2 1q-65 0 -93 52t-28 150.5t38 381t38 408.5t-21.5 162t-78.5 36q-76 0 -182.5 -187.5t-181.5 -423t-75 -367.5t35 -184 q-71 -29 -135 -29q-1 1 -3 1q-66 0 -93 52t-27 149.5z" />
<glyph unicode="n" horiz-adv-x="1366" d="M176 187.5q0 97.5 39 395.5t39 481t-43 267q20 20 61 33.5t74 13.5q72 0 106.5 -49t34.5 -185t-59 -468q219 524 373 655q71 62 141 62q240 0 240 -355q0 -102 -23.5 -294.5t-23.5 -292.5q0 -289 90 -392q-71 -73 -142 -73h-2q-170 0 -170 397q0 147 34 371.5t34 287 t-24.5 98.5t-86.5 36q-82 0 -196.5 -187.5t-193.5 -422t-79 -367.5t35 -185q-71 -29 -135 -29q-1 1 -3 1q-66 0 -93 52t-27 149.5z" />
<glyph unicode="o" horiz-adv-x="1388" d="M139 530q0 150 47 302.5t129 280.5t211 208t279 80q213 0 328.5 -160t115.5 -405q0 -252 -114 -478q-125 -244 -322 -342q-106 -51 -227 -51q-213 0 -330 160t-117 405zM360 576.5q0 -209.5 86 -334.5t240 -125q98 0 170 72.5t107 183.5q66 209 66 415q0 210 -88 335 q-87 124 -243 124q-96 0 -166.5 -72.5t-105.5 -183.5q-66 -205 -66 -414.5z" />
<glyph unicode="p" horiz-adv-x="1411" d="M147 -242q0 86 54.5 531.5t54.5 767.5q0 190 -43 274q20 20 61 33.5t74 13.5q72 0 106.5 -49t34.5 -190.5t-59 -462.5q135 346 267 535.5t243 189.5q139 0 235.5 -146.5t96.5 -439.5q0 -317 -133 -569q-63 -123 -173 -199t-247 -76q-86 0 -185.5 32t-158.5 81 q-10 -117 -10 -209q0 -258 96 -356q-61 -74 -139 -74q-174 0 -175 313zM389 186q130 -76 303 -76h2q174 1 269.5 182t95.5 460q0 186 -44 309t-130 123q-49 0 -121 -81t-144.5 -212t-136 -320.5t-94.5 -384.5z" />
<glyph unicode="q" horiz-adv-x="1357" d="M139 485q0 330 148 611q70 135 188.5 220t278 85t274.5 -137q16 66 42 91t77 25t104 -59q-49 -166 -118.5 -708.5t-69.5 -852.5q0 -190 43 -274q-51 -47 -130 -47t-114 49t-35 148.5t21.5 261t56.5 393t51 371.5q-106 -300 -253.5 -495.5t-270.5 -195.5t-208 128t-85 386 zM354 537q0 -154 39 -251.5t115 -97.5t187.5 159t203.5 389.5t113 416.5q-141 107 -264 107q-180 0 -287 -208t-107 -515z" />
<glyph unicode="r" horiz-adv-x="987" d="M244 637q43 268 43 440t-43 254q51 47 125 47q149 0 149 -153v-2q0 -55 -25.5 -227.5t-33.5 -235.5q111 291 249 466t228 175q51 0 76.5 -49t25.5 -100.5t-12 -104.5q-31 6 -57 6q-131 0 -263.5 -153.5t-207 -338t-74.5 -305.5q0 -213 78 -297q-64 -73 -142 -73 q-159 0 -159 267q0 116 43 384z" />
<glyph unicode="s" horiz-adv-x="1056" d="M86 217q0 84 98 182q35 -147 126 -220t190.5 -73t164 49.5t64.5 129.5q0 70 -25.5 109.5t-40 59t-55.5 55.5t-62.5 53.5t-83 65.5t-91.5 72q-170 133 -170 319.5t127 284t348 97.5q276 0 276 -191q0 -90 -94 -163q-85 210 -278 210q-86 0 -137.5 -44t-51.5 -119.5 t50.5 -133t171 -155.5t149.5 -123q164 -135 164 -315.5t-119 -287t-338 -106.5q-164 0 -273.5 62.5t-109.5 181.5z" />
<glyph unicode="t" horiz-adv-x="837" d="M80 1065q0 94 18.5 133t48.5 55q77 37 222 37l4 94q0 190 -43 277q20 18 62 32.5t75 14.5q72 0 106.5 -49t34.5 -166q0 -45 -24 -203q252 4 334 60q-16 -133 -92 -178.5t-271 -49.5q-94 -580 -94 -870q0 -68 29.5 -100.5t77.5 -32.5t103.5 42t88.5 105q37 -45 37 -96 q0 -80 -79 -140.5t-204 -60.5t-197.5 66.5t-72.5 210.5q0 129 47 453.5t59 420.5q-182 0 -270 -55z" />
<glyph unicode="u" horiz-adv-x="1386" d="M184 313q0 113 38 352.5t38 411.5t-43 254q51 47 123 47q152 0 152 -155q0 -51 -48.5 -393.5t-48.5 -504t99 -161.5q82 0 198.5 192.5t198.5 433t82 356.5t-31 185q53 47 125 47q152 0 152 -155q0 -113 -39 -346.5t-39 -366.5q0 -291 96 -449q-60 -75 -137 -75h-2 q-176 0 -176 432q0 41 24 268q-174 -412 -291 -563q-49 -66 -109.5 -111t-117.5 -45q-244 0 -244 346z" />
<glyph unicode="v" horiz-adv-x="1153" d="M4 1237q23 70 72 102.5t96 32.5q125 0 209 -211q47 -125 237 -936q104 250 174 529.5t70 437.5q0 59 -22 98q47 76 145 76q94 0 94 -108.5t-118.5 -481.5t-258.5 -649q-32 -67 -34 -96l2 -27q-65 -24 -111 -24h-4q-84 0 -104 88q-168 715 -263 927q-70 162 -111.5 202 t-72.5 40z" />
<glyph unicode="w" horiz-adv-x="1783" d="M4 1237q23 70 72 102.5t96 32.5q125 0 209 -211q37 -98 130 -494.5t97 -463.5q197 502 240 751q-59 150 -123 183q23 43 69 71.5t95 28.5q94 0 133 -94q37 -98 125 -485.5t92 -454.5q106 244 180 545t74 444q0 59 -25 98q49 76 148 76q92 0 92 -110.5t-117.5 -484.5 t-257.5 -644q-35 -68 -35 -90.5t2 -32.5q-69 -24 -111 -24h-3q-84 0 -107 88q-115 477 -151 618q-106 -330 -226 -559q-32 -67 -34 -96l2 -27q-65 -24 -111 -24h-4q-84 0 -104 88q-168 715 -263 927q-70 162 -111.5 202t-72.5 40z" />
<glyph unicode="x" horiz-adv-x="1140" d="M92 72q0 63 96.5 212.5t241.5 321.5q-100 195 -170 370t-70 236.5t40 93t145 66.5q25 -229 209 -596q86 109 176 253t90 218q0 35 -16 64q57 55 118 55q106 0 107 -92q0 -74 -120 -249t-292 -370q119 -215 243 -367.5t216 -183.5q-27 -124 -154 -124h-2q-90 0 -209.5 140 t-242.5 359q-197 -281 -197 -381q0 -35 16 -61q-57 -55 -118 -55q-106 0 -107 90z" />
<glyph unicode="y" horiz-adv-x="1153" d="M-170 -330q0 88 66 164q55 -182 243 -182q225 0 416 393q-61 0 -88 22.5t-39 67.5q-156 655 -247 876.5t-177 225.5q23 70 72 102.5t96 32.5q125 0 209 -211q55 -143 240 -968q109 270 175 554.5t66 444.5q0 59 -22 98q47 76 145 76q94 0 94 -104q0 -102 -84 -416 t-171 -532t-188 -405.5t-239.5 -308t-283.5 -120.5q-283 0 -283 190z" />
<glyph unicode="z" horiz-adv-x="1071" d="M37 27q82 164 294 543.5t328 572.5q-157 -21 -233 -21q-262 0 -262 135q0 68 41 136q186 -102 422 -103q94 0 133 4q72 84 158 84q135 0 145 -137q-195 -12 -741 -1075q213 49 370.5 49t221 -35t63.5 -153q0 -41 -2 -64q-100 39 -191.5 57.5t-255 18.5t-284.5 -21 q-43 -51 -109.5 -51t-97.5 60z" />
<glyph unicode="{" horiz-adv-x="802" d="M94 864q244 174 244 561q0 72 -15.5 188t-15.5 178t71 109.5t220 47.5q246 0 328 39q0 -117 -60.5 -170.5t-151.5 -53.5t-173 43q-18 -559 -95 -741q-51 -125 -149 -197q113 -104 113 -307q0 -106 -42 -311t-42 -359q55 0 180 29t180 57q0 -86 -8 -120 q-27 -115 -326 -115q-106 0 -153 18.5t-65.5 52t-18.5 107.5t63.5 323t63.5 364.5t-49 203.5q-31 -10 -50 -10q-35 0 -49 63z" />
<glyph unicode="|" horiz-adv-x="708" d="M201 43q0 133 91 736t91 807t-41 296q18 23 59 40t70 17q59 0 88 -53t29 -177t-96.5 -720t-96.5 -830.5t76 -332.5q-31 -88 -119 -88q-152 0 -151 305z" />
<glyph unicode="}" horiz-adv-x="802" d="M-123 -137q0 29 21 114q49 -29 168.5 -57.5t175.5 -28.5q27 145 27.5 351.5t25.5 316.5q49 205 176 311q-119 88 -119 340q0 162 76 596q-96 -43 -177 -43t-131 39t-50 123q0 29 6 62q74 -39 326.5 -39t252.5 -142q0 -27 -32 -118q-98 -281 -99 -467q0 -238 154 -357 q-31 -63 -66 -63q-23 0 -49 12q-51 -63 -76.5 -142t-28.5 -129t-3 -139l10 -342q0 -217 -80 -274q-41 -29 -84 -37t-119 -8q-305 0 -305 121z" />
<glyph unicode="~" horiz-adv-x="1114" d="M150 778q0 96 70.5 177t168.5 81q119 0 199 -73.5t135 -73.5q113 0 137 149q107 1 107 -71q0 -96 -71 -177t-169 -81q-119 0 -198.5 73.5t-135.5 73.5q-113 0 -137 -149q-106 0 -106 71z" />
<glyph unicode="&#xa1;" horiz-adv-x="794" d="M150 -235.5q0 110.5 83.5 527.5t83.5 511q0 20 -6 39q41 33 99 32q72 0 71 -83q0 -6 -43 -390.5t-43 -549t45 -250.5q-23 -18 -66.5 -32.5t-76.5 -14.5q-76 0 -111.5 50t-35.5 160.5zM289 1200q0 55 24 141q90 57 161 57.5t100.5 -27.5t29.5 -79t-16 -139 q-88 -55 -164 -55q-135 0 -135 102z" />
<glyph unicode="&#xa2;" horiz-adv-x="1089" d="M139 770q0 246 134.5 492.5t353.5 326.5q6 147 20 240q33 190 148 190q61 0 86 -47q-59 -84 -88 -274q-9 -43 -11 -78l23 2q285 0 285 -166q0 -106 -93 -188q-86 172 -229 198q-14 -184 -35.5 -603t-27.5 -525q172 16 256 207q43 -47 43 -115q0 -102 -94.5 -163.5 t-215.5 -76.5q-8 -96 -14 -135q-43 -270 -191 -270q-61 0 -69 74q92 88 123 280l8 56q-207 29 -309.5 179t-102.5 396zM360 823q0 -383 207 -465q8 94 51 1096q-98 -39 -160.5 -167t-80 -243t-17.5 -221z" />
<glyph unicode="&#xa3;" horiz-adv-x="1370" d="M127 43q137 139 191.5 276.5t54.5 292.5q0 63 -4 195q-121 -4 -174 -37q-39 61 -39 115q0 94 114 94q12 0 90 -4q-2 63 -2 194q0 291 128 469.5t352.5 178.5t323 -88.5t98.5 -200.5q0 -133 -160 -170q-14 315 -275 315q-139 0 -193 -109.5t-54 -367.5q0 -80 -9 -235 q102 -4 141.5 -4.5t125.5 12t116 30.5q31 -39 31 -94q0 -104 -217 -104q-119 0 -203 2v-82q0 -115 -5 -186.5t-33.5 -177t-86.5 -195.5q266 76 453.5 76t261.5 -36t74 -159q0 -23 -4 -72q-96 39 -204 53.5t-332 14.5t-374 -37q-39 -35 -73 -35q-76 0 -113 76z" />
<glyph unicode="&#xa4;" horiz-adv-x="1282" d="M102 436q0 39 43 85t144 124q-18 61 -19 137q0 186 101 336q-70 96 -117 142.5t-111 68.5q2 49 42 94t81 45t90.5 -49t141.5 -172q98 66 215.5 66t191.5 -62q66 55 96.5 102.5t34.5 112.5q63 0 113.5 -28.5t50.5 -89.5q0 -92 -196 -250q20 -68 20 -133q0 -184 -98 -332 q63 -80 113.5 -117t119.5 -39q0 -63 -28.5 -113.5t-90.5 -50.5q-89 1 -243 189q-98 -66 -215 -66t-193 60q-117 -92 -147 -181q-49 2 -94.5 42t-45.5 79zM459 831q0 -250 162 -249q102 0 157.5 116.5t55.5 216.5q0 250 -162 250q-102 0 -157.5 -116.5t-55.5 -217.5z" />
<glyph unicode="&#xa5;" horiz-adv-x="1130" d="M55 1686q23 70 74 102.5t98 32.5q123 0 199 -213q88 -260 192 -750q57 117 162 290t158 286.5t53 189.5t-20 115q53 74 146 73.5t93 -98.5q0 -106 -264 -551q-45 -76 -141 -235q150 8 203 39q35 -41 34.5 -93.5t-71 -79t-258.5 -26.5q-45 -94 -58 -246q242 0 320 43 q35 -41 35 -94q0 -106 -240 -106q-72 0 -127 2q0 -119 15.5 -190t58.5 -118q-63 -74 -141 -73.5t-117 58.5t-39 198q0 61 8 129q-33 2 -74 2q-147 0 -213 -37q-43 59 -43 111.5t35 74t89 21.5t229 -11l16 101l-29 139q-23 2 -51 2q-147 0 -213 -37q-43 59 -43 111 q0 96 125 96q10 0 61.5 -2t83.5 -2q-174 745 -346 746z" />
<glyph unicode="&#xa6;" horiz-adv-x="708" d="M201 43q0 162 67 586q100 0 150 -82l6 -6q-29 -263 -29 -408q0 -209 76 -307q-31 -88 -119 -88q-152 0 -151 305zM342 1882q18 23 59 40t70 17q117 1 117 -208q0 -147 -17.5 -261t-36 -220.5t-26.5 -157.5q-156 0 -156 116l17 138q14 137 14 290.5t-41 245.5z" />
<glyph unicode="&#xa7;" horiz-adv-x="1153" d="M-41 -287q0 96 121 226q59 -365 391 -365q125 0 222.5 73.5t97.5 221.5q0 190 -152 328l-260 233q-94 84 -122 163t-28 247l541 -486q119 -106 174 -192t55 -213q0 -215 -165.5 -362.5t-423.5 -147.5q-184 0 -317.5 70.5t-133.5 203.5zM199 1305q0 242 165.5 379 t423.5 137q129 0 213 -66.5t84 -171.5q0 -76 -16 -108.5t-25.5 -50t-26 -33t-25.5 -22.5t-25.5 -17.5t-18.5 -12.5q0 158 -73.5 244t-197.5 86t-204 -81t-80 -226q0 -113 58 -182q66 -76 112 -107l260 -233q94 -84 122 -163t28 -247l-541 485q-76 68 -117 112t-78.5 120 t-37.5 158z" />
<glyph unicode="&#xa8;" horiz-adv-x="774" d="M10 1644.5q0 49.5 15 118.5q76 47 141 47q119 0 119 -88q0 -41 -23 -125q-76 -47 -138.5 -47t-88 22.5t-25.5 72zM489 1636q0 41 15 127q78 47 141 47q119 0 119 -88q0 -51 -23 -125q-76 -47 -138 -47t-88 22.5t-26 63.5z" />
<glyph unicode="&#xa9;" horiz-adv-x="1597" d="M137 1038q0 334 195 621q94 137 250.5 224t347.5 87q252 0 391 -175t139 -435q0 -266 -125 -504q-141 -266 -381 -369q-132 -57 -286 -57q-252 0 -391.5 174t-139.5 434zM297 1108q0 -283 104.5 -422t329.5 -139q117 0 217.5 57.5t163 143.5t107.5 190q81 186 81 352 q0 283 -107.5 422t-330.5 139q-117 0 -216 -57t-161.5 -143t-107.5 -189q-80 -190 -80 -354zM471 1090.5q0 152.5 43 281.5t139.5 220t223.5 91q76 0 124 -27.5t48 -82.5t-68 -113q-55 125 -158 125q-63 0 -109 -48t-69 -122q-43 -141 -43 -260q0 -332 203 -332 q117 0 166 150q43 -49 43 -99.5t-74 -97.5t-164 -47q-154 0 -229.5 104.5t-75.5 257z" />
<glyph unicode="&#xaa;" horiz-adv-x="970" d="M139 1247q0 231 105.5 389t259.5 158q92 0 164 -68q18 55 65 55.5t84 -38.5q-20 -59 -36.5 -196.5t-16.5 -296t55 -253.5q-43 -55 -94 -55q-115 0 -115 301h-10q-61 -137 -136 -223t-134 -86q-88 0 -139.5 84t-51.5 229zM289 1276q0 -90 21.5 -141.5t58.5 -51.5 q66 0 163 191.5t117 357.5q-80 57 -141 58q-96 0 -157.5 -116t-61.5 -298z" />
<glyph unicode="&#xab;" horiz-adv-x="1050" d="M82 725q70 25 106.5 87t47 132t22.5 137.5t54 111.5t127 44t124 -33q-63 -33 -99 -103.5t-46 -139t-41 -137t-86 -99.5q53 -29 73.5 -96.5t20.5 -132.5l-2 -13q0 -66 23.5 -135t82.5 -102q-39 -33 -117.5 -33t-114.5 31.5t-42 81t-9 111t-5 116.5t-32 103.5t-87 68.5z M492 725q70 25 106.5 87t46.5 132t22.5 137.5t54.5 111.5t127 44t124 -33q-63 -33 -99 -103.5t-46.5 -139t-41 -137t-86.5 -99.5q53 -29 74 -96.5t21 -132.5l-2 -13q0 -66 23.5 -135t82.5 -102q-39 -33 -118 -33t-114.5 31.5t-42 81t-9.5 111t-5 116.5t-31.5 103.5 t-86.5 68.5z" />
<glyph unicode="&#xac;" horiz-adv-x="1114" d="M100 895q0 41 34 66.5t89 25.5l477 -20q66 0 163.5 12t131.5 31q31 -35 31 -105q0 -16 -15.5 -107t-15.5 -192.5t60 -171.5q-53 -61 -119 -61q-127 0 -127 200q0 104 35 220q-19 -2 -60 -2l-428 6q-150 0 -217 -35q-39 57 -39 133z" />
<glyph unicode="&#xad;" horiz-adv-x="718" d="M78 824.5q0 84.5 129 84.5l305 -22q96 0 162 45q31 -41 31 -107q-1 -123 -216 -123l-180 9q-117 0 -182 -37q-49 66 -49 150.5z" />
<glyph unicode="&#xae;" horiz-adv-x="1597" d="M137 1038q0 334 195 621q94 137 250.5 224t347.5 87q252 0 391 -175t139 -435q0 -266 -125 -504q-141 -266 -381 -369q-132 -57 -286 -57q-252 0 -391.5 174t-139.5 434zM297 1108q0 -283 104.5 -422t329.5 -139q117 0 217.5 57.5t163 143.5t107.5 190q81 186 81 352 q0 283 -107.5 422t-330.5 139q-117 0 -216 -57t-161.5 -143t-107.5 -189q-80 -190 -80 -354zM494 877q0 74 38.5 305t38.5 316t-16 147q141 27 242 26q272 0 272 -211q0 -188 -248 -303q94 -201 133 -250q45 -68 115 -73q-6 -59 -34.5 -83t-55.5 -24q-59 0 -109 72l-159 315 q-16 -6 -70 -20q-16 -104 -16 -187.5t43 -130.5q-41 -47 -84 -47q-90 0 -90 148zM653 1184q123 29 206 91.5t83 164.5q0 152 -172 151q-12 0 -61 -4q-2 -84 -56 -403z" />
<glyph unicode="&#xaf;" horiz-adv-x="819" d="M131 1698q0 74 115 74l297 -21q80 0 145 39q29 -35 29 -92q0 -107 -193 -107l-184 8q-106 0 -166 -30q-43 55 -43 129z" />
<glyph unicode="&#xb0;" horiz-adv-x="800" d="M123 1548q0 201 119.5 324t271.5 123q70 0 166 -58q51 -33 86 -104.5t35 -169.5q0 -203 -119 -327t-270 -124q-72 0 -166 60q-53 33 -88 104.5t-35 171.5zM305 1534q0 -207 135 -207q61 0 103 66q68 109 67 280q0 209 -137 209q-47 0 -82 -37t-51 -94q-35 -111 -35 -217z " />
<glyph unicode="&#xb1;" horiz-adv-x="1114" d="M100 59q0 109 123 109l477 -21q66 0 163.5 12.5t131.5 30.5q31 -35 31 -104q0 -115 -242 -115l-428 6q-150 0 -217 -34q-39 59 -39 116zM100 895q0 41 34 66.5t89 25.5l260 -12q20 135 20.5 205.5t-28.5 130.5q45 37 113 37q102 0 102 -148q0 -33 -26 -233h36 q66 0 163.5 12t131.5 31q31 -35 31 -105q0 -115 -242 -114h-145q-10 -86 -10 -138q0 -102 59 -172q-53 -61 -119 -61q-127 0 -127 201q0 84 13 174q-45 2 -99 2q-150 0 -217 -35q-39 57 -39 133z" />
<glyph unicode="&#xb2;" horiz-adv-x="813" d="M41 961q342 371 434 559q43 90 43 151.5t-38 101t-105 39.5q-125 0 -150 -176q-61 23 -86.5 46.5t-25.5 58.5q0 76 69.5 132t214 56t217 -63t72.5 -172q0 -143 -131 -322q-88 -121 -256 -315q117 25 201 24.5t129 -24t45 -101.5q0 -18 -6 -65q-109 43 -267.5 43 t-226.5 -16q-27 -23 -49 -23q-57 0 -84 66z" />
<glyph unicode="&#xb3;" horiz-adv-x="825" d="M43 1069q0 55 111 100q33 -154 151 -153q92 0 146.5 63.5t54.5 134t-40 116.5t-122 54q-68 -14 -143 -20v51q0 41 11 52.5t52 17.5q109 14 168.5 71.5t59.5 117t-35 99t-95 39.5q-117 0 -147 -141q-59 23 -81.5 45.5t-22.5 66.5t65.5 95t204.5 51t208.5 -63.5t69.5 -182 t-145 -221.5q162 -55 162 -221q0 -111 -90 -221q-45 -55 -126 -90t-181.5 -35t-168 53t-67.5 121z" />
<glyph unicode="&#xb4;" horiz-adv-x="632" d="M240 1573q164 123 232.5 185.5t94.5 111.5q49 10 103.5 10t82 -17.5t27.5 -39t-13 -35.5t-92 -70.5t-214 -129t-166 -72.5q-27 0 -55 57z" />
<glyph unicode="&#xb5;" horiz-adv-x="1386" d="M152 -242q0 104 54 591t54 693.5t-43 288.5q51 47 124 47t112 -37.5t39 -104.5t-52.5 -447.5t-52.5 -430.5q0 -195 107 -194q82 0 198.5 192.5t198.5 433t82 356.5t-31 185q53 47 125 47q152 0 152 -155q0 -113 -39 -346.5t-39 -366.5q0 -291 96 -449q-61 -76 -139 -75 q-176 0 -176 432q0 41 24 268q-174 -412 -291 -563q-49 -66 -109.5 -111t-109.5 -45t-76 31q-2 -41 -2 -123q0 -248 107 -356q-61 -74 -139 -74q-174 0 -174 313z" />
<glyph unicode="&#xb6;" horiz-adv-x="1161" d="M72 1190q0 233 184 426q88 92 225 149.5t294 57.5t226 -54q-63 -80 -95 -234.5t-79 -539.5q139 98 181 209q63 -24 87.5 -50t24.5 -71t-89 -133t-224 -143q-90 -862 -109 -954q-55 -270 -235 -271q-49 0 -86 25.5t-39 68.5q133 45 175 254t103 830q-27 -4 -77 -4 q-227 0 -347 126t-120 308zM287 1233q0 -137 74.5 -235.5t211.5 -98.5q18 0 56 4q51 557 59 598q25 139 84 205q-231 -14 -358 -151.5t-127 -321.5z" />
<glyph unicode="&#xb7;" horiz-adv-x="604" d="M145 757q0 52 17 140q86 55 154.5 55t106.5 -25.5t38 -80.5t-27 -137q-90 -57 -160.5 -57.5t-99.5 26.5t-29 79z" />
<glyph unicode="&#xb8;" horiz-adv-x="1024" d="M176 -442q0 51 105 90q4 -45 31.5 -75t74.5 -30t80 41t33 92q0 80 -82 93l-107 16q-27 4 -26.5 15.5t77.5 199.5h107l-55 -141q133 -15 188 -53.5t55 -125t-73.5 -162t-227.5 -75.5q-80 0 -130 35t-50 80z" />
<glyph unicode="&#xb9;" horiz-adv-x="714" d="M78 1706q70 16 124 55t81 76q70 92 145 92q47 0 70.5 -30.5t23.5 -97t-42 -328t-42 -359.5t49 -149q-51 -59 -104 -60q-104 0 -104 166q0 68 38.5 315.5t40.5 331.5q-94 -119 -163 -119q-33 0 -58.5 19.5t-58.5 87.5z" />
<glyph unicode="&#xba;" horiz-adv-x="952" d="M139 1272q0 193 114 357.5t288 164.5q131 0 201.5 -96t70.5 -267t-112.5 -336t-286.5 -165q-131 0 -203 96t-72 246zM293 1302.5q0 -118.5 47 -189.5t131 -71q53 0 93 41t59 105q39 123 39 238.5t-48.5 185t-134.5 69.5q-53 0 -92 -41t-59 -104q-35 -115 -35 -233.5z" />
<glyph unicode="&#xbb;" horiz-adv-x="1050" d="M78 246q63 33 99 103.5t46 139t41 137t86 99.5q-53 29 -73.5 96.5t-20.5 132.5l2 13q0 66 -23.5 135t-82.5 102q39 33 117.5 33t114.5 -31.5t42 -81t9 -111t5 -116.5t32 -103.5t87 -68.5q-70 -25 -106.5 -87.5t-47 -132t-22.5 -137t-54 -111.5t-127 -44t-124 33zM487 246 q63 33 99.5 103.5t46.5 139t41 137t86 99.5q-53 29 -73.5 96.5t-20.5 132.5l2 13q0 66 -23.5 135t-83.5 102q39 33 118 33t114.5 -31.5t42 -81t9.5 -111t5 -116.5t31.5 -103.5t87.5 -68.5q-70 -25 -107 -87.5t-47 -132t-22.5 -137t-54.5 -111.5t-127 -44t-124 33z" />
<glyph unicode="&#xbc;" horiz-adv-x="1845" d="M152 1591q70 16 124 55.5t80 75.5q70 92 146 93q47 0 70.5 -31t23.5 -97.5t-42 -327.5t-42 -359.5t49 -149.5q-51 -59 -104 -59q-104 0 -105 165q0 68 39 316t41 332q-94 -119 -164 -119q-33 0 -58.5 19.5t-57.5 86.5zM469 47q0 59 38 171t279.5 602.5t302 665.5 t60.5 245l-2 38q70 47 123 48q92 0 92 -86q0 -51 -34 -145.5t-281.5 -586t-321.5 -698.5q-41 -123 -41 -181.5t23 -99.5q-88 -74 -138 -73q-100 0 -100 100zM1014 193q125 135 231.5 331.5t106.5 339.5q0 20 -15 54q63 53 106.5 53t62 -19.5t18.5 -72.5q0 -100 -80 -273.5 t-197 -333.5q111 25 228 29q6 35 6 73t-23 85q49 33 98 33q90 0 91 -101q0 -35 -15 -106q63 -25 64 -97q0 -6 -1 -32.5t-1 -34.5q-37 16 -86 29q-4 -45 -4 -56q0 -45 49 -92q-55 -53 -109 -53q-102 0 -102 129q0 45 6 90h-74q-137 0 -225 -18q-23 -23 -49 -23q-55 0 -86 66z " />
<glyph unicode="&#xbd;" horiz-adv-x="1845" d="M152 1591q70 16 124 55.5t80 75.5q70 92 146 93q47 0 70.5 -31t23.5 -97.5t-42 -327.5t-42 -359.5t49 -149.5q-51 -59 -104 -59q-104 0 -105 165q0 68 39 316t41 332q-94 -119 -164 -119q-33 0 -58.5 19.5t-57.5 86.5zM469 47q0 59 38 171t279.5 602.5t302 665.5 t60.5 245l-2 38q70 47 123 48q92 0 92 -86q0 -51 -34 -145.5t-281.5 -586t-321.5 -698.5q-41 -123 -41 -181.5t23 -99.5q-88 -74 -138 -73q-100 0 -100 100zM1098 2q342 371 434 559q43 90 43 151.5t-38 101.5t-105 40q-125 0 -150 -176q-61 23 -87 46.5t-26 57.5 q0 76 70 132.5t214 56.5t217 -63.5t73 -172.5q0 -143 -131 -321q-88 -121 -256 -316q117 25 200.5 25t129 -23.5t45.5 -101.5q0 -20 -7 -66q-106 43 -266 43t-227 -16q-27 -23 -49 -22q-57 0 -84 65z" />
<glyph unicode="&#xbe;" horiz-adv-x="1845" d="M117 954q0 55 110 101q33 -154 152 -154q92 0 146.5 63.5t54.5 134t-40 117t-122 54.5q-68 -14 -144 -21v51q0 41 11.5 52.5t52.5 17.5q109 14 168 71.5t59 117t-34.5 99.5t-94.5 40q-117 0 -147 -142q-59 23 -82 45.5t-23 66.5t65.5 95.5t205 51.5t209 -63.5 t69.5 -182.5t-145 -221q162 -55 162 -222q0 -111 -91 -221q-45 -55 -125.5 -90t-181 -35t-168 53.5t-67.5 120.5zM539 47q0 59 37.5 171t279.5 602.5t302.5 665.5t60.5 245l-2 38q70 47 122 48q92 0 93 -86q0 -51 -34 -145.5t-282 -586t-321 -698.5q-41 -123 -41 -181.5 t22 -99.5q-88 -74 -137 -73q-100 0 -100 100zM1014 193q125 135 231.5 331.5t106.5 339.5q0 20 -15 54q63 53 106.5 53t62 -19.5t18.5 -72.5q0 -100 -80 -273.5t-197 -333.5q111 25 228 29q6 35 6 73t-23 85q49 33 98 33q90 0 91 -101q0 -35 -15 -106q63 -25 64 -97 q0 -6 -1 -32.5t-1 -34.5q-37 16 -86 29q-4 -45 -4 -56q0 -45 49 -92q-55 -53 -109 -53q-102 0 -102 129q0 45 6 90h-74q-137 0 -225 -18q-23 -23 -49 -23q-55 0 -86 66z" />
<glyph unicode="&#xbf;" horiz-adv-x="935" d="M23 -45q0 297 448 858q55 74 108.5 74t84.5 -62q-133 -170 -267.5 -418.5t-134.5 -416.5q0 -121 66.5 -206t183.5 -85q248 0 248 348q166 -74 166 -201t-124 -208.5t-325 -81.5t-327.5 105.5t-126.5 293.5zM442 1202q0 55 25 141q90 57 160.5 57.5t100.5 -27t30 -79 t-17 -139.5q-88 -55 -163 -55q-136 0 -136 102z" />
<glyph unicode="&#xc0;" horiz-adv-x="1345" d="M10 88q0 57 36 169t263.5 584t283.5 641t56 218t-6 74q68 47 147.5 47t128 -40t84 -155t81.5 -608.5t106 -698.5q43 -151 176 -260q-33 -74 -131 -73.5t-156.5 51.5t-94.5 170t-60 315h-600q-104 -236 -105 -364q0 -59 25 -99q-49 -74 -141.5 -73.5t-92.5 102.5zM385 662 h524q-10 129 -33.5 336.5t-31.5 263.5q-24 145 -53 247q-47 -111 -194.5 -409.5t-211.5 -437.5zM584 2173.5q0 21.5 27.5 39t82 17.5t103.5 -10q27 -47 95.5 -109.5t233.5 -187.5q-33 -57 -59.5 -57t-162.5 73.5t-215 129t-92 69.5t-13 35.5z" />
<glyph unicode="&#xc1;" horiz-adv-x="1345" d="M10 88q0 57 36 169t263.5 584t283.5 641t56 218t-6 74q68 47 147.5 47t128 -40t84 -155t81.5 -608.5t106 -698.5q43 -151 176 -260q-33 -74 -131 -73.5t-156.5 51.5t-94.5 170t-60 315h-600q-104 -236 -105 -364q0 -59 25 -99q-49 -74 -141.5 -73.5t-92.5 102.5zM385 662 h524q-10 129 -33.5 336.5t-31.5 263.5q-24 145 -53 247q-47 -111 -194.5 -409.5t-211.5 -437.5zM582 1923q164 123 232.5 185.5t94.5 111.5q49 10 103.5 10t82 -17.5t27.5 -39t-13 -35.5t-92 -70.5t-214 -129t-166 -72.5q-27 0 -55 57z" />
<glyph unicode="&#xc2;" horiz-adv-x="1345" d="M10 88q0 57 36 169t263.5 584t283.5 641t56 218t-6 74q68 47 147.5 47t128 -40t84 -155t81.5 -608.5t106 -698.5q43 -151 176 -260q-33 -74 -131 -73.5t-156.5 51.5t-94.5 170t-60 315h-600q-104 -236 -105 -364q0 -59 25 -99q-49 -74 -141.5 -73.5t-92.5 102.5zM385 662 h524q-10 129 -33.5 336.5t-31.5 263.5q-24 145 -53 247q-47 -111 -194.5 -409.5t-211.5 -437.5zM440 1923q193 143 256 227q20 29 43 70q35 10 98.5 10t94.5 -22q2 -2 17.5 -26.5t32.5 -50.5t42 -58q70 -92 131 -150q-28 -57 -55 -57q-45 0 -279 186q-268 -186 -325 -186 q-23 0 -56 57z" />
<glyph unicode="&#xc3;" horiz-adv-x="1345" d="M10 88q0 57 36 169t263.5 584t283.5 641t56 218t-6 74q68 47 147.5 47t128 -40t84 -155t81.5 -608.5t106 -698.5q43 -151 176 -260q-33 -74 -131 -73.5t-156.5 51.5t-94.5 170t-60 315h-600q-104 -236 -105 -364q0 -59 25 -99q-49 -74 -141.5 -73.5t-92.5 102.5zM385 662 h524q-10 129 -33.5 336.5t-31.5 263.5q-24 145 -53 247q-47 -111 -194.5 -409.5t-211.5 -437.5zM504 1962q0 88 59.5 162t134 74t127 -34t93 -68t79.5 -34t68 35t39 103q90 0 90 -66q0 -88 -59.5 -162t-134 -74t-127 34t-93.5 68t-79.5 34t-67.5 -35t-39 -103q-90 0 -90 66z " />
<glyph unicode="&#xc4;" horiz-adv-x="1345" d="M10 88q0 57 36 169t263.5 584t283.5 641t56 218t-6 74q68 47 147.5 47t128 -40t84 -155t81.5 -608.5t106 -698.5q43 -151 176 -260q-33 -74 -131 -73.5t-156.5 51.5t-94.5 170t-60 315h-600q-104 -236 -105 -364q0 -59 25 -99q-49 -74 -141.5 -73.5t-92.5 102.5zM385 662 h524q-10 129 -33.5 336.5t-31.5 263.5q-24 145 -53 247q-47 -111 -194.5 -409.5t-211.5 -437.5zM442 1995q0 49 15 119q76 47 141 47q119 0 119 -88q0 -41 -23 -125q-76 -47 -138 -47t-88 22.5t-26 71.5zM922 1987q0 41 14 127q78 47 141 47q119 0 119 -88q0 -51 -22 -125 q-76 -47 -138.5 -47t-88 22.5t-25.5 63.5z" />
<glyph unicode="&#xc5;" horiz-adv-x="1345" d="M10 88q0 57 36 169t263.5 584t283.5 641t56 218t-6 74q45 31 96 43q-137 53 -137 217q0 139 88 225t199 86q41 0 83 -20.5t68 -43.5q59 -57 59.5 -172.5t-65 -197.5t-160.5 -105q80 -27 130 -182q35 -111 79.5 -604.5t106.5 -700.5q43 -152 176 -260q-33 -74 -131 -73.5 t-156.5 51.5t-94.5 170t-60 315h-600q-104 -236 -105 -364q0 -59 25 -99q-49 -74 -141.5 -73.5t-92.5 102.5zM385 662h524q-10 129 -33.5 336.5t-31.5 263.5q-24 145 -53 247q-47 -111 -194.5 -409.5t-211.5 -437.5zM752 2028q0 -131 86 -132q55 0 80.5 73t25.5 149 q0 133 -86 133q-55 0 -80.5 -73t-25.5 -150z" />
<glyph unicode="&#xc6;" horiz-adv-x="1789" d="M-100 100q0 129 141 370t331.5 527.5t261.5 450.5t71 264q93 64 380 64l461 -4q246 0 328 38q-10 -133 -64.5 -177t-171.5 -44q-193 0 -481 45q0 -152 -76 -594q-23 -133 -28 -176q391 12 542 90q-12 -160 -92 -200q-43 -20 -82 -25.5t-108 -5.5h-283q-47 -326 -47 -494 q0 -23 4 -59q164 -8 281 -8q387 0 487 53q-6 -82 -27.5 -131t-70.5 -71.5t-95 -27.5t-148.5 -5t-399.5 43q-59 -39 -113 -39q-147 0 -147 198q0 135 69 541h-450q-258 -424 -258 -592q0 -41 14 -72q-53 -74 -145 -73q-41 0 -62.5 24.5t-21.5 89.5zM459 862h389 q78 445 78 656q0 92 -19 141q-16 -106 -162 -344q-90 -145 -174 -275.5t-112 -177.5z" />
<glyph unicode="&#xc7;" horiz-adv-x="1245" d="M160 688q0 332 127 619q139 315 381 442q129 68 274 68t234.5 -50.5t89.5 -142.5q0 -51 -19.5 -95t-36 -62.5t-49.5 -47.5q-51 117 -125.5 178.5t-187.5 61.5t-198 -67.5t-133 -168t-81 -225.5q-55 -211 -55 -416q0 -330 106.5 -506t317.5 -176q115 0 204 72t136 209 q51 -57 51 -141q0 -106 -138 -194.5t-310 -88.5l-29 2l-39 -100q133 -14 188.5 -53t55.5 -125.5t-74 -162t-227 -75.5q-80 0 -130.5 35t-50.5 80q0 51 105 90q4 -45 31.5 -75t74.5 -30t80 41t33 92q0 80 -82 93l-106 16q-27 4 -27 16.5t63 167.5q-229 43 -341.5 237.5 t-112.5 481.5z" />
<glyph unicode="&#xc8;" horiz-adv-x="1232" d="M184 846q10 76 33 101.5t94 31.5q57 362 57.5 504.5t-30.5 234.5q71 58 319 58l332 -4q246 0 328 38q-10 -133 -64.5 -177t-171.5 -44q-193 0 -481 45q0 -137 -86 -653q401 4 524 68q-12 -162 -92 -201q-43 -23 -82 -28t-94 -5t-281 19q-63 -408 -63 -605q0 -41 2 -59 q168 -8 283 -8q387 0 487 53q-6 -82 -27.5 -131t-70.5 -71.5t-95.5 -27.5t-147.5 -5t-402 43q-55 -39 -111 -39q-147 0 -147 198q0 129 92 662q-33 2 -105 2zM571 2173.5q0 21.5 28 39t82 17.5t103 -10q27 -47 95.5 -109.5t234.5 -187.5q-33 -57 -59.5 -57t-162.5 73.5 t-215 129t-92.5 69.5t-13.5 35.5z" />
<glyph unicode="&#xc9;" horiz-adv-x="1232" d="M184 846q10 76 33 101.5t94 31.5q57 362 57.5 504.5t-30.5 234.5q71 58 319 58l332 -4q246 0 328 38q-10 -133 -64.5 -177t-171.5 -44q-193 0 -481 45q0 -137 -86 -653q401 4 524 68q-12 -162 -92 -201q-43 -23 -82 -28t-94 -5t-281 19q-63 -408 -63 -605q0 -41 2 -59 q168 -8 283 -8q387 0 487 53q-6 -82 -27.5 -131t-70.5 -71.5t-95.5 -27.5t-147.5 -5t-402 43q-55 -39 -111 -39q-147 0 -147 198q0 129 92 662q-33 2 -105 2zM571 1923q164 123 232.5 185.5t95.5 111.5q49 10 103.5 10t82 -17.5t27.5 -39t-13.5 -35.5t-92 -70.5t-213.5 -129 t-166 -72.5q-27 0 -56 57z" />
<glyph unicode="&#xca;" horiz-adv-x="1232" d="M184 846q10 76 33 101.5t94 31.5q57 362 57.5 504.5t-30.5 234.5q71 58 319 58l332 -4q246 0 328 38q-10 -133 -64.5 -177t-171.5 -44q-193 0 -481 45q0 -137 -86 -653q401 4 524 68q-12 -162 -92 -201q-43 -23 -82 -28t-94 -5t-281 19q-63 -408 -63 -605q0 -41 2 -59 q168 -8 283 -8q387 0 487 53q-6 -82 -27.5 -131t-70.5 -71.5t-95.5 -27.5t-147.5 -5t-402 43q-55 -39 -111 -39q-147 0 -147 198q0 129 92 662q-33 2 -105 2zM455 1923q190 143 254 227q23 29 45 70q35 10 98 10t94 -22q2 -2 17.5 -26.5t33 -50.5t43.5 -58q68 -92 129 -150 q-28 -57 -55 -57q-45 0 -278 186q-268 -186 -326 -186q-23 0 -55 57z" />
<glyph unicode="&#xcb;" horiz-adv-x="1232" d="M184 846q10 76 33 101.5t94 31.5q57 362 57.5 504.5t-30.5 234.5q71 58 319 58l332 -4q246 0 328 38q-10 -133 -64.5 -177t-171.5 -44q-193 0 -481 45q0 -137 -86 -653q401 4 524 68q-12 -162 -92 -201q-43 -23 -82 -28t-94 -5t-281 19q-63 -408 -63 -605q0 -41 2 -59 q168 -8 283 -8q387 0 487 53q-6 -82 -27.5 -131t-70.5 -71.5t-95.5 -27.5t-147.5 -5t-402 43q-55 -39 -111 -39q-147 0 -147 198q0 129 92 662q-33 2 -105 2zM489 1995q0 49 15 119q76 47 141 47q119 0 119 -88q0 -41 -23 -125q-76 -47 -138 -47t-88 22.5t-26 71.5z M969 1987q0 41 14 127q78 47 141 47q119 0 119 -88q0 -51 -22 -125q-76 -47 -138.5 -47t-88 22.5t-25.5 63.5z" />
<glyph unicode="&#xcc;" d="M186 2173.5q0 21.5 28 39t82 17.5t103 -10q27 -47 95.5 -109.5t234.5 -187.5q-33 -57 -59.5 -57t-162.5 73.5t-215 129t-92.5 69.5t-13.5 35.5zM201 256q0 113 72.5 585t72.5 659.5t-43 273.5q55 47 132 47t112 -50.5t35 -163t-79 -586.5t-79 -676t78 -286 q-63 -74 -142 -73q-160 0 -159 270z" />
<glyph unicode="&#xcd;" d="M182 1923q164 123 232.5 185.5t95.5 111.5q49 10 103.5 10t82 -17.5t27.5 -39t-13.5 -35.5t-92 -70.5t-213.5 -129t-166 -72.5q-27 0 -56 57zM201 256q0 113 72.5 585t72.5 659.5t-43 273.5q55 47 132 47t112 -50.5t35 -163t-79 -586.5t-79 -676t78 -286 q-63 -74 -142 -73q-160 0 -159 270z" />
<glyph unicode="&#xce;" d="M72 1923q190 143 256 227q20 29 43 70q35 10 98 10t94 -22q2 -2 17.5 -26.5t33 -50.5t41.5 -58q70 -92 131 -150q-28 -57 -55 -57q-45 0 -278 186q-268 -186 -326 -186q-23 0 -55 57zM201 256q0 113 72.5 585t72.5 659.5t-43 273.5q55 47 132 47t112 -50.5t35 -163 t-79 -586.5t-79 -676t78 -286q-63 -74 -142 -73q-160 0 -159 270z" />
<glyph unicode="&#xcf;" d="M133 1995q0 49 14 119q76 47 142 47q119 0 119 -88q0 -41 -23 -125q-76 -47 -138.5 -47t-88 22.5t-25.5 71.5zM201 256q0 113 72.5 585t72.5 659.5t-43 273.5q55 47 132 47t112 -50.5t35 -163t-79 -586.5t-79 -676t78 -286q-63 -74 -142 -73q-160 0 -159 270zM612 1987 q0 41 15 127q78 47 141 47q119 0 119 -88q0 -51 -23 -125q-76 -47 -138 -47t-88 22.5t-26 63.5z" />
<glyph unicode="&#xd0;" horiz-adv-x="1495" d="M90 885q0 94 115 94q10 0 92 -4q59 399 59 540.5t-30 233.5q244 53 438 53q317 0 484 -150.5t167 -486.5t-100.5 -600t-294 -426t-440.5 -162q-203 0 -291 61.5t-88 201t69 565.5q-96 -8 -141 -35q-39 61 -39 115zM424 371q0 -135 16 -197q86 -53 216 -53t245 91t176 234 q123 287 123 621t-100.5 472t-354.5 138q-78 0 -155 -14q0 -104 -98 -702q111 -4 151.5 -4.5t126.5 12t117 30.5q31 -39 31 -94q0 -104 -218 -104q-51 0 -231 4q-45 -299 -45 -434z" />
<glyph unicode="&#xd1;" horiz-adv-x="1574" d="M201 256q0 113 72.5 585t72.5 659.5t-43 273.5q10 18 49 32.5t106.5 14.5t123 -41t114 -154t205 -583t242.5 -674q8 80 73.5 517t65.5 619.5t-43 268.5q16 18 56 32.5t67 14.5q59 0 87 -49.5t28 -163t-79 -587.5t-79 -671.5t84 -290.5q-29 -74 -127 -73.5t-166 52.5 t-134.5 181t-214 588t-231.5 641q-2 -18 -74.5 -468t-72.5 -641.5t80 -279.5q-29 -74 -113 -73q-150 0 -149 270zM614 1962q0 88 59.5 162t134.5 74t127 -34t93 -68t80 -34t67.5 35t38.5 103q91 0 91 -66q0 -88 -59.5 -162t-134.5 -74t-127 34t-93 68t-80 34t-67.5 -35 t-38.5 -103q-90 0 -91 66z" />
<glyph unicode="&#xd2;" horiz-adv-x="1601" d="M160 688q0 410 200 758q96 166 255 270.5t352 104.5q256 0 400 -208t144 -526q0 -330 -131 -618q-143 -319 -385 -444q-134 -68 -290 -68q-256 0 -400.5 207t-144.5 524zM381 778q0 -322 120 -491.5t328 -169.5q106 0 190.5 68.5t133.5 168t82 224.5q55 212 55 419 q0 322 -119.5 492t-328.5 170q-106 0 -190.5 -68.5t-133.5 -168t-82 -226.5q-55 -211 -55 -418zM705 2173.5q0 21.5 27.5 39t81.5 17.5t104 -10q27 -47 95 -109.5t234 -187.5q-33 -57 -59.5 -57t-162.5 73.5t-215 129t-92 69.5t-13 35.5z" />
<glyph unicode="&#xd3;" horiz-adv-x="1601" d="M160 688q0 410 200 758q96 166 255 270.5t352 104.5q256 0 400 -208t144 -526q0 -330 -131 -618q-143 -319 -385 -444q-134 -68 -290 -68q-256 0 -400.5 207t-144.5 524zM381 778q0 -322 120 -491.5t328 -169.5q106 0 190.5 68.5t133.5 168t82 224.5q55 212 55 419 q0 322 -119.5 492t-328.5 170q-106 0 -190.5 -68.5t-133.5 -168t-82 -226.5q-55 -211 -55 -418zM696 1923q164 123 232.5 185.5t95.5 111.5q49 10 103.5 10t82 -17.5t27.5 -39t-13.5 -35.5t-92 -70.5t-213.5 -129t-166 -72.5q-27 0 -56 57z" />
<glyph unicode="&#xd4;" horiz-adv-x="1601" d="M160 688q0 410 200 758q96 166 255 270.5t352 104.5q256 0 400 -208t144 -526q0 -330 -131 -618q-143 -319 -385 -444q-134 -68 -290 -68q-256 0 -400.5 207t-144.5 524zM381 778q0 -322 120 -491.5t328 -169.5q106 0 190.5 68.5t133.5 168t82 224.5q55 212 55 419 q0 322 -119.5 492t-328.5 170q-106 0 -190.5 -68.5t-133.5 -168t-82 -226.5q-55 -211 -55 -418zM592 1923q193 143 256 227q20 29 43 70q35 10 98.5 10t93.5 -22q2 -2 17.5 -26.5t33 -50.5t42.5 -58q70 -92 131 -150q-29 -57 -56 -57q-45 0 -278 186q-268 -186 -326 -186 q-23 0 -55 57z" />
<glyph unicode="&#xd5;" horiz-adv-x="1601" d="M160 688q0 410 200 758q96 166 255 270.5t352 104.5q256 0 400 -208t144 -526q0 -330 -131 -618q-143 -319 -385 -444q-134 -68 -290 -68q-256 0 -400.5 207t-144.5 524zM381 778q0 -322 120 -491.5t328 -169.5q106 0 190.5 68.5t133.5 168t82 224.5q55 212 55 419 q0 322 -119.5 492t-328.5 170q-106 0 -190.5 -68.5t-133.5 -168t-82 -226.5q-55 -211 -55 -418zM627 1962q0 88 59 162t134 74t127 -34t93 -68t80 -34t68 35t39 103q90 0 90 -66q0 -88 -59.5 -162t-134 -74t-127 34t-93.5 68t-80 34t-67.5 -35t-38.5 -103q-90 0 -90 66z" />
<glyph unicode="&#xd6;" horiz-adv-x="1601" d="M160 688q0 410 200 758q96 166 255 270.5t352 104.5q256 0 400 -208t144 -526q0 -330 -131 -618q-143 -319 -385 -444q-134 -68 -290 -68q-256 0 -400.5 207t-144.5 524zM381 778q0 -322 120 -491.5t328 -169.5q106 0 190.5 68.5t133.5 168t82 224.5q55 212 55 419 q0 322 -119.5 492t-328.5 170q-106 0 -190.5 -68.5t-133.5 -168t-82 -226.5q-55 -211 -55 -418zM592 1995q0 49 14 119q76 47 142 47q118 0 118 -88q0 -41 -22 -125q-76 -47 -138.5 -47t-88 22.5t-25.5 71.5zM1071 1987q0 41 14 127q78 47 142 47q119 0 119 -88 q0 -51 -23 -125q-76 -47 -138.5 -47t-88 22.5t-25.5 63.5z" />
<glyph unicode="&#xd7;" horiz-adv-x="1114" d="M156 1167q2 49 41.5 93.5t76.5 44.5q90 0 308 -285q209 199 241 301q47 -2 84 -38t37 -73q0 -78 -115 -192l-141 -137q96 -127 127 -158q72 -72 164 -80q0 -63 -28.5 -113.5t-90.5 -50.5q-111 0 -311 266q-219 -211 -244 -290q-49 8 -97 42.5t-48 82t49 96.5t233 215 q-92 121 -158.5 189.5t-127.5 86.5z" />
<glyph unicode="&#xd8;" horiz-adv-x="1601" d="M160 662.5q0 224.5 52 420t148.5 362.5t255 271.5t351.5 104.5q23 0 34 -2q76 121 175 120q37 0 71.5 -21.5t36.5 -68.5q-55 -29 -96 -80q156 -78 239.5 -261t83.5 -421q0 -326 -129 -616q-141 -317 -385 -442q-133 -70 -286 -72q-43 -119 -90.5 -169t-113 -50t-118.5 55 q80 94 125 201q-170 70 -262 257t-92 411.5zM381 778q0 -424 203 -581q66 225 176 766.5t162 687.5q-53 8 -80 8q-106 0 -190.5 -68.5t-133.5 -168t-82 -226.5q-55 -211 -55 -418zM760 121q45 -4 69 -4q106 0 190.5 68.5t133.5 168t82 224.5q55 212 55 419q0 418 -200 580 q-90 -264 -206 -844.5t-124 -611.5z" />
<glyph unicode="&#xd9;" horiz-adv-x="1519" d="M201 313q0 111 68.5 555.5t68.5 632t-43 273.5q55 47 132 47t111.5 -50.5t34.5 -163t-79.5 -595t-79.5 -688.5q0 -160 102 -160q96 0 278.5 185.5t305.5 402.5q4 27 23.5 152.5t25.5 173.5t18 143q20 154 20.5 310.5t-42.5 242.5q20 18 62 32.5t73 14.5q72 0 106.5 -50.5 t34.5 -163t-78.5 -586.5t-78.5 -674t77 -288q-63 -74 -141 -73q-160 0 -160 270q0 90 23 242q-139 -217 -314.5 -374t-291.5 -157q-256 0 -256 346zM565 2173.5q0 21.5 28 39t82 17.5t103 -10q27 -47 95.5 -109.5t234.5 -187.5q-33 -57 -59.5 -57t-162.5 73.5t-215 129 t-92.5 69.5t-13.5 35.5z" />
<glyph unicode="&#xda;" horiz-adv-x="1519" d="M201 313q0 111 68.5 555.5t68.5 632t-43 273.5q55 47 132 47t111.5 -50.5t34.5 -163t-79.5 -595t-79.5 -688.5q0 -160 102 -160q96 0 278.5 185.5t305.5 402.5q4 27 23.5 152.5t25.5 173.5t18 143q20 154 20.5 310.5t-42.5 242.5q20 18 62 32.5t73 14.5q72 0 106.5 -50.5 t34.5 -163t-78.5 -586.5t-78.5 -674t77 -288q-63 -74 -141 -73q-160 0 -160 270q0 90 23 242q-139 -217 -314.5 -374t-291.5 -157q-256 0 -256 346zM686 1923q164 123 232.5 185.5t95.5 111.5q49 10 103 10t82 -17.5t28 -39t-13.5 -35.5t-92.5 -70.5t-214 -129t-166 -72.5 q-27 0 -55 57z" />
<glyph unicode="&#xdb;" horiz-adv-x="1519" d="M201 313q0 111 68.5 555.5t68.5 632t-43 273.5q55 47 132 47t111.5 -50.5t34.5 -163t-79.5 -595t-79.5 -688.5q0 -160 102 -160q96 0 278.5 185.5t305.5 402.5q4 27 23.5 152.5t25.5 173.5t18 143q20 154 20.5 310.5t-42.5 242.5q20 18 62 32.5t73 14.5q72 0 106.5 -50.5 t34.5 -163t-78.5 -586.5t-78.5 -674t77 -288q-63 -74 -141 -73q-160 0 -160 270q0 90 23 242q-139 -217 -314.5 -374t-291.5 -157q-256 0 -256 346zM524 1923q190 143 254 227q23 29 45 70q35 10 98.5 10t94.5 -22q2 -2 17.5 -26.5t32.5 -50.5t44 -58q68 -92 129 -150 q-28 -57 -55 -57q-45 0 -279 186q-268 -186 -325 -186q-23 0 -56 57z" />
<glyph unicode="&#xdc;" horiz-adv-x="1519" d="M201 313q0 111 68.5 555.5t68.5 632t-43 273.5q55 47 132 47t111.5 -50.5t34.5 -163t-79.5 -595t-79.5 -688.5q0 -160 102 -160q96 0 278.5 185.5t305.5 402.5q4 27 23.5 152.5t25.5 173.5t18 143q20 154 20.5 310.5t-42.5 242.5q20 18 62 32.5t73 14.5q72 0 106.5 -50.5 t34.5 -163t-78.5 -586.5t-78.5 -674t77 -288q-63 -74 -141 -73q-160 0 -160 270q0 90 23 242q-139 -217 -314.5 -374t-291.5 -157q-256 0 -256 346zM522 1995q0 49 15 119q76 47 141 47q119 0 119 -88q0 -41 -23 -125q-76 -47 -138.5 -47t-88 22.5t-25.5 71.5zM1001 1987 q0 41 15 127q78 47 141 47q119 0 119 -88q0 -51 -23 -125q-76 -47 -138 -47t-88 22.5t-26 63.5z" />
<glyph unicode="&#xdd;" horiz-adv-x="1130" d="M55 1686q23 70 74 102.5t98 32.5q123 0 199 -213q88 -260 192 -750q57 117 162 290t158 286.5t53 189.5t-20 115q53 74 146 73.5t93 -98.5q0 -76 -89 -238.5t-124.5 -226t-130 -221.5t-108.5 -180q-72 -121 -90 -221q-25 -197 -25 -310q0 -176 74 -258 q-63 -74 -141 -73.5t-117 58.5t-39 177t47 412q-211 1053 -412 1053zM504 1923q164 123 232.5 185.5t94.5 111.5q49 10 103.5 10t82 -17.5t27.5 -39t-13 -35.5t-92 -70.5t-214 -129t-166 -72.5q-27 0 -55 57z" />
<glyph unicode="&#xde;" horiz-adv-x="1259" d="M201 256q0 113 72.5 585t72.5 659.5t-43 273.5q55 47 132 47t112 -50.5t35 -166.5q0 -41 -2 -66q98 10 176 10q504 0 504 -420q0 -131 -58.5 -245.5t-144.5 -193.5t-205 -144q-190 -106 -428 -166v-39q0 -197 78 -281q-63 -74 -142 -73q-160 0 -159 270zM432 516 q246 49 418 176q90 68 142 169.5t52 223.5q0 172 -91 259.5t-265 87.5q-51 0 -123 -11q-8 -63 -63.5 -399t-69.5 -506z" />
<glyph unicode="&#xdf;" horiz-adv-x="1409" d="M80 1065q0 63 6 97t29 67q43 61 221 61q53 279 192 475q72 100 173.5 157.5t224.5 57.5q203 0 307 -100t104 -255t-104.5 -308.5t-284.5 -239.5q391 -94 391 -504q0 -219 -147 -405q-72 -90 -192.5 -145.5t-272.5 -55.5q-227 0 -328 148q-6 -121 -6 -217q0 -193 78 -281 q-61 -74 -141 -74q-160 0 -160 261.5t141 1313.5q-154 -4 -231 -53zM420 360q43 20 98 27q0 -268 225 -268q160 0 257.5 129t97.5 306t-87 306t-272 152q-55 -8 -110 -13q-2 14 -2 59.5t15 61t73 19.5q184 16 296.5 157.5t112.5 296.5q0 102 -56 169t-167 67 q-168 0 -248 -136.5t-121 -430.5q-72 -492 -112 -902z" />
<glyph unicode="&#xe0;" horiz-adv-x="1406" d="M139 485q0 385 173 650.5t427 265.5q174 0 289 -137q16 63 42 89.5t80 26.5t101 -53q-37 -98 -63.5 -329.5t-26.5 -431t21.5 -309.5t72.5 -196q-59 -76 -139 -75q-176 0 -176 432q0 70 16 244q-106 -297 -252.5 -494t-263.5 -197q-139 0 -220 137.5t-81 376.5zM354 537 q0 -162 42 -255.5t115 -93.5t184.5 160t203.5 390.5t113 414.5q-139 107 -264 107q-174 0 -284 -203t-110 -520zM539 1823.5q0 21.5 27.5 39t81.5 17.5t104 -10q27 -47 95 -109.5t234 -187.5q-33 -57 -59.5 -57t-162.5 73.5t-215 129t-92 69.5t-13 35.5z" />
<glyph unicode="&#xe1;" horiz-adv-x="1406" d="M139 485q0 385 173 650.5t427 265.5q174 0 289 -137q16 63 42 89.5t80 26.5t101 -53q-37 -98 -63.5 -329.5t-26.5 -431t21.5 -309.5t72.5 -196q-59 -76 -139 -75q-176 0 -176 432q0 70 16 244q-106 -297 -252.5 -494t-263.5 -197q-139 0 -220 137.5t-81 376.5zM354 537 q0 -162 42 -255.5t115 -93.5t184.5 160t203.5 390.5t113 414.5q-139 107 -264 107q-174 0 -284 -203t-110 -520zM627 1573q164 123 232.5 185.5t94.5 111.5q49 10 103.5 10t82 -17.5t27.5 -39t-13 -35.5t-92 -70.5t-214 -129t-166 -72.5q-27 0 -55 57z" />
<glyph unicode="&#xe2;" horiz-adv-x="1406" d="M139 485q0 385 173 650.5t427 265.5q174 0 289 -137q16 63 42 89.5t80 26.5t101 -53q-37 -98 -63.5 -329.5t-26.5 -431t21.5 -309.5t72.5 -196q-59 -76 -139 -75q-176 0 -176 432q0 70 16 244q-106 -297 -252.5 -494t-263.5 -197q-139 0 -220 137.5t-81 376.5zM354 537 q0 -162 42 -255.5t115 -93.5t184.5 160t203.5 390.5t113 414.5q-139 107 -264 107q-174 0 -284 -203t-110 -520zM449 1573q190 143 256 227q20 29 43 70q35 10 98 10t94 -22q2 -2 17.5 -27t33 -50.5t41.5 -60.5q70 -90 131 -147q-28 -57 -55 -57q-45 0 -279 186 q-268 -186 -325 -186q-23 0 -55 57z" />
<glyph unicode="&#xe3;" horiz-adv-x="1406" d="M139 485q0 385 173 650.5t427 265.5q174 0 289 -137q16 63 42 89.5t80 26.5t101 -53q-37 -98 -63.5 -329.5t-26.5 -431t21.5 -309.5t72.5 -196q-59 -76 -139 -75q-176 0 -176 432q0 70 16 244q-106 -297 -252.5 -494t-263.5 -197q-139 0 -220 137.5t-81 376.5zM354 537 q0 -162 42 -255.5t115 -93.5t184.5 160t203.5 390.5t113 414.5q-139 107 -264 107q-174 0 -284 -203t-110 -520zM457 1612q0 88 59 161.5t134 73.5t127 -33.5t93 -67.5t80 -34t68 35t39 102q90 1 90 -65q0 -88 -59.5 -162t-134 -74t-127 34t-93.5 67.5t-80 33.5t-67.5 -34.5 t-38.5 -102.5q-90 0 -90 66z" />
<glyph unicode="&#xe4;" horiz-adv-x="1406" d="M139 485q0 385 173 650.5t427 265.5q174 0 289 -137q16 63 42 89.5t80 26.5t101 -53q-37 -98 -63.5 -329.5t-26.5 -431t21.5 -309.5t72.5 -196q-59 -76 -139 -75q-176 0 -176 432q0 70 16 244q-106 -297 -252.5 -494t-263.5 -197q-139 0 -220 137.5t-81 376.5zM354 537 q0 -162 42 -255.5t115 -93.5t184.5 160t203.5 390.5t113 414.5q-139 107 -264 107q-174 0 -284 -203t-110 -520zM477 1644.5q0 49.5 15 118.5q76 47 141 47q119 0 119 -88q0 -41 -23 -125q-76 -47 -138.5 -47t-88 22.5t-25.5 72zM956 1636q0 41 15 127q78 47 141 47 q119 0 119 -88q0 -51 -23 -125q-76 -47 -138 -47t-88 22.5t-26 63.5z" />
<glyph unicode="&#xe5;" horiz-adv-x="1406" d="M139 485q0 385 173 650.5t427 265.5q174 0 289 -137q16 63 42 89.5t80 26.5t101 -53q-37 -98 -63.5 -329.5t-26.5 -431t21.5 -309.5t72.5 -196q-59 -76 -139 -75q-176 0 -176 432q0 70 16 244q-106 -297 -252.5 -494t-263.5 -197q-139 0 -220 137.5t-81 376.5zM354 537 q0 -162 42 -255.5t115 -93.5t184.5 160t203.5 390.5t113 414.5q-139 107 -264 107q-174 0 -284 -203t-110 -520zM573 1683q0 139 88 225.5t199 86.5q41 0 83 -20.5t69 -45.5q59 -55 59 -181t-87 -212t-198 -86q-51 0 -122 41q-39 23 -65 73t-26 119zM723 1677 q0 -131 86 -131q55 0 80.5 73t25.5 148q0 134 -86 134q-55 0 -80.5 -73t-25.5 -151z" />
<glyph unicode="&#xe6;" horiz-adv-x="1902" d="M139 485q0 385 173 650.5t427 265.5q199 0 369 -184q178 184 403 184q158 0 240 -78t82 -185.5t-46 -202.5t-127 -176t-208 -132.5t-272 -51.5q-61 0 -113 9q2 -227 85 -347t232 -120q213 0 310 207q49 -47 49 -115q0 -115 -128 -179.5t-269 -64.5q-219 0 -342 124 t-150 331q-98 -203 -211 -326t-203 -123q-139 0 -220 137.5t-81 376.5zM354 537q0 -162 42 -255.5t110.5 -93.5t161 123t186.5 320q27 279 184 499q-145 129 -290 130q-174 0 -284 -203t-110 -520zM1073 713q49 -6 92 -6q209 0 331 107.5t122 240.5q0 84 -52.5 138 t-144.5 54t-158.5 -51t-103.5 -139q-70 -164 -86 -344z" />
<glyph unicode="&#xe7;" horiz-adv-x="1089" d="M139 530q0 150 47 302.5t129 280.5t211 208t279 80q285 0 285 -166q0 -113 -93 -188q-49 96 -115.5 148t-160.5 52t-159.5 -50t-101.5 -123t-59 -165q-41 -160 -41 -307q0 -238 82 -361.5t236 -123.5q193 0 283 207q43 -45 43 -115q0 -115 -120 -179.5t-259 -64.5 l-41 -106q133 -15 188 -53.5t55 -125t-73.5 -162t-227.5 -75.5q-80 0 -130 35t-50 80q0 51 105 90q4 -45 31.5 -75t74.5 -30t80 41t33 92q0 80 -82 93l-107 16q-27 4 -26.5 16.5t67.5 173.5q-190 35 -286.5 185.5t-96.5 369.5z" />
<glyph unicode="&#xe8;" horiz-adv-x="1193" d="M139 530q0 150 47 302.5t129 280.5t211 208t283 80t234.5 -78t80.5 -201q0 -199 -183 -373t-470 -174q-55 0 -111 7q2 -227 85 -346t233 -119q211 0 307 207q49 -47 49 -115q0 -115 -128 -179.5t-267 -64.5q-248 0 -374 158t-126 407zM365 713q49 -6 92 -6 q209 0 330.5 107.5t121.5 240.5q0 84 -52 138t-143 54t-158 -51t-105 -137q-70 -160 -86 -346zM473 1823.5q0 21.5 27.5 39t82 17.5t103.5 -10q27 -47 95.5 -109.5t234.5 -187.5q-33 -57 -59.5 -57t-163 73.5t-215 129t-92 69.5t-13.5 35.5z" />
<glyph unicode="&#xe9;" horiz-adv-x="1193" d="M139 530q0 150 47 302.5t129 280.5t211 208t283 80t234.5 -78t80.5 -201q0 -199 -183 -373t-470 -174q-55 0 -111 7q2 -227 85 -346t233 -119q211 0 307 207q49 -47 49 -115q0 -115 -128 -179.5t-267 -64.5q-248 0 -374 158t-126 407zM365 713q49 -6 92 -6 q209 0 330.5 107.5t121.5 240.5q0 84 -52 138t-143 54t-158 -51t-105 -137q-70 -160 -86 -346zM535 1573q164 123 232.5 185.5t94.5 111.5q49 10 103.5 10t82 -17.5t27.5 -39t-13 -35.5t-92 -70.5t-214 -129t-166 -72.5q-27 0 -55 57z" />
<glyph unicode="&#xea;" horiz-adv-x="1193" d="M139 530q0 150 47 302.5t129 280.5t211 208t283 80t234.5 -78t80.5 -201q0 -199 -183 -373t-470 -174q-55 0 -111 7q2 -227 85 -346t233 -119q211 0 307 207q49 -47 49 -115q0 -115 -128 -179.5t-267 -64.5q-248 0 -374 158t-126 407zM365 713q49 -6 92 -6 q209 0 330.5 107.5t121.5 240.5q0 84 -52 138t-143 54t-158 -51t-105 -137q-70 -160 -86 -346zM393 1573q193 143 254 227q23 29 45 70q35 10 98.5 10t94.5 -22q2 -2 17.5 -27t32.5 -50.5t44 -60.5q68 -90 129 -147q-28 -57 -55 -57q-45 0 -279 186q-268 -186 -325 -186 q-23 0 -56 57z" />
<glyph unicode="&#xeb;" horiz-adv-x="1193" d="M139 530q0 150 47 302.5t129 280.5t211 208t283 80t234.5 -78t80.5 -201q0 -199 -183 -373t-470 -174q-55 0 -111 7q2 -227 85 -346t233 -119q211 0 307 207q49 -47 49 -115q0 -115 -128 -179.5t-267 -64.5q-248 0 -374 158t-126 407zM365 713q49 -6 92 -6 q209 0 330.5 107.5t121.5 240.5q0 84 -52 138t-143 54t-158 -51t-105 -137q-70 -160 -86 -346zM381 1644.5q0 49.5 14 118.5q76 47 142 47q118 0 118 -88q0 -41 -22 -125q-76 -47 -138.5 -47t-88 22.5t-25.5 72zM860 1636q0 41 14 127q78 47 142 47q119 0 119 -88 q0 -51 -23 -125q-76 -47 -138.5 -47t-88 22.5t-25.5 63.5z" />
<glyph unicode="&#xec;" d="M104 1823.5q0 21.5 28 39t82 17.5t103 -10q27 -47 95.5 -109.5t234.5 -187.5q-33 -57 -59.5 -57t-162.5 73.5t-215 129t-92.5 69.5t-13.5 35.5zM201 256q0 113 43 381t43 440t-43 254q51 47 125 47q150 0 149 -155q0 -49 -47 -384t-47 -515.5t78 -264.5q-64 -73 -142 -73 q-160 0 -159 270z" />
<glyph unicode="&#xed;" d="M180 1573q164 123 232.5 185.5t95.5 111.5q49 10 103.5 10t82 -17.5t27.5 -39t-13.5 -35.5t-92 -70.5t-213.5 -129t-166 -72.5q-27 0 -56 57zM201 256q0 113 43 381t43 440t-43 254q51 47 125 47q150 0 149 -155q0 -49 -47 -384t-47 -515.5t78 -264.5q-64 -73 -142 -73 q-160 0 -159 270z" />
<glyph unicode="&#xee;" d="M12 1573q190 143 254 227q23 29 45 70q35 10 98.5 10t94.5 -22q2 -2 17.5 -27t32.5 -50.5t44 -60.5q68 -90 129 -147q-28 -57 -55 -57q-45 0 -279 186q-268 -186 -325 -186q-23 0 -56 57zM201 256q0 113 43 381t43 440t-43 254q51 47 125 47q150 0 149 -155 q0 -49 -47 -384t-47 -515.5t78 -264.5q-64 -73 -142 -73q-160 0 -159 270z" />
<glyph unicode="&#xef;" d="M43 1644.5q0 49.5 14 118.5q76 47 142 47q118 0 118 -88q0 -41 -22 -125q-76 -47 -138.5 -47t-88 22.5t-25.5 72zM201 256q0 113 43 381t43 440t-43 254q51 47 125 47q150 0 149 -155q0 -49 -47 -384t-47 -515.5t78 -264.5q-64 -73 -142 -73q-160 0 -159 270zM522 1636 q0 41 15 127q78 47 141 47q119 0 119 -88q0 -51 -23 -125q-76 -47 -138.5 -47t-88 22.5t-25.5 63.5z" />
<glyph unicode="&#xf0;" horiz-adv-x="1341" d="M139 470q0 208 72 383t210 294t318.5 119t288.5 -152l21 6q-29 274 -127 451q-154 -78 -203 -152q-98 57 -98 125q0 43 51 76t153 76q-102 100 -225 100q-152 0 -254 -135q-31 23 -54.5 60.5t-23.5 72.5q0 168 277 168q238 0 413 -209q195 102 232 170q37 -16 59.5 -47 t22.5 -61q0 -74 -223 -189q184 -313 184 -747q0 -371 -156 -633q-76 -129 -202.5 -205t-288.5 -76q-213 0 -330 148.5t-117 356.5zM360 535.5q0 -191.5 86 -305t240 -113.5q98 0 170 66.5t107 168.5q66 190 65.5 380t-87.5 303.5t-243 113.5q-96 0 -166.5 -66.5 t-105.5 -167.5q-66 -188 -66 -379.5z" />
<glyph unicode="&#xf1;" horiz-adv-x="1366" d="M176 187.5q0 97.5 39 395.5t39 481t-43 267q20 20 61 33.5t74 13.5q72 0 106.5 -49t34.5 -185t-59 -468q219 524 373 655q71 62 141 62q240 0 240 -355q0 -102 -23.5 -294.5t-23.5 -292.5q0 -289 90 -392q-72 -74 -144 -73q-170 0 -170 397q0 147 34 371.5t34 287 t-24.5 98.5t-86.5 36q-82 0 -196.5 -187.5t-193.5 -422t-79 -367.5t35 -185q-72 -29 -137.5 -28.5t-93 52.5t-27.5 149.5zM422 1612q0 88 59.5 161.5t134 73.5t127 -33.5t93.5 -67.5t79.5 -34t67.5 35t39 102q90 1 90 -65q0 -88 -59.5 -162t-134 -74t-127 34t-93.5 67.5 t-79.5 33.5t-67.5 -34.5t-39 -102.5q-90 0 -90 66z" />
<glyph unicode="&#xf2;" horiz-adv-x="1388" d="M139 530q0 150 47 302.5t129 280.5t211 208t279 80q213 0 328.5 -160t115.5 -405q0 -252 -114 -478q-125 -244 -322 -342q-106 -51 -227 -51q-213 0 -330 160t-117 405zM360 576.5q0 -209.5 86 -334.5t240 -125q98 0 170 72.5t107 183.5q66 211 65.5 418.5t-87.5 331.5 t-243 124q-96 0 -166.5 -72.5t-105.5 -183.5q-66 -205 -66 -414.5zM528 1823.5q0 21.5 28 39t82 17.5t103 -10q27 -47 95.5 -109.5t234.5 -187.5q-33 -57 -59.5 -57t-162.5 73.5t-215 129t-92.5 69.5t-13.5 35.5z" />
<glyph unicode="&#xf3;" horiz-adv-x="1388" d="M139 530q0 150 47 302.5t129 280.5t211 208t279 80q213 0 328.5 -160t115.5 -405q0 -252 -114 -478q-125 -244 -322 -342q-106 -51 -227 -51q-213 0 -330 160t-117 405zM360 576.5q0 -209.5 86 -334.5t240 -125q98 0 170 72.5t107 183.5q66 211 65.5 418.5t-87.5 331.5 t-243 124q-96 0 -166.5 -72.5t-105.5 -183.5q-66 -205 -66 -414.5zM586 1573q164 123 232.5 185.5t94.5 111.5q49 10 103.5 10t82 -17.5t27.5 -39t-13 -35.5t-92 -70.5t-214 -129t-166 -72.5q-27 0 -55 57z" />
<glyph unicode="&#xf4;" horiz-adv-x="1388" d="M139 530q0 150 47 302.5t129 280.5t211 208t279 80q213 0 328.5 -160t115.5 -405q0 -252 -114 -478q-125 -244 -322 -342q-106 -51 -227 -51q-213 0 -330 160t-117 405zM360 576.5q0 -209.5 86 -334.5t240 -125q98 0 170 72.5t107 183.5q66 211 65.5 418.5t-87.5 331.5 t-243 124q-96 0 -166.5 -72.5t-105.5 -183.5q-66 -205 -66 -414.5zM461 1573q190 143 256 227q20 29 43 70q35 10 98.5 10t93.5 -22q2 -2 17.5 -27t33 -50.5t41.5 -60.5q70 -90 132 -147q-29 -57 -56 -57q-45 0 -278 186q-268 -186 -326 -186q-23 0 -55 57z" />
<glyph unicode="&#xf5;" horiz-adv-x="1388" d="M139 530q0 150 47 302.5t129 280.5t211 208t279 80q213 0 328.5 -160t115.5 -405q0 -252 -114 -478q-125 -244 -322 -342q-106 -51 -227 -51q-213 0 -330 160t-117 405zM360 576.5q0 -209.5 86 -334.5t240 -125q98 0 170 72.5t107 183.5q66 211 65.5 418.5t-87.5 331.5 t-243 124q-96 0 -166.5 -72.5t-105.5 -183.5q-66 -205 -66 -414.5zM475 1612q0 88 59.5 161.5t134 73.5t127 -33.5t93.5 -67.5t80 -34t67.5 35t38.5 102q90 1 90 -65q0 -88 -59 -162t-134 -74t-127 34t-93 67.5t-80 33.5t-68 -34.5t-39 -102.5q-90 0 -90 66z" />
<glyph unicode="&#xf6;" horiz-adv-x="1388" d="M139 530q0 150 47 302.5t129 280.5t211 208t279 80q213 0 328.5 -160t115.5 -405q0 -252 -114 -478q-125 -244 -322 -342q-106 -51 -227 -51q-213 0 -330 160t-117 405zM360 576.5q0 -209.5 86 -334.5t240 -125q98 0 170 72.5t107 183.5q66 211 65.5 418.5t-87.5 331.5 t-243 124q-96 0 -166.5 -72.5t-105.5 -183.5q-66 -205 -66 -414.5zM418 1644.5q0 49.5 14 118.5q76 47 141 47q119 0 119 -88q0 -41 -22 -125q-76 -47 -138.5 -47t-88 22.5t-25.5 72zM897 1636q0 41 14 127q78 47 142 47q118 0 118 -88q0 -51 -22 -125q-76 -47 -138.5 -47 t-88 22.5t-25.5 63.5z" />
<glyph unicode="&#xf7;" horiz-adv-x="1114" d="M100 895q0 41 34 66.5t89 25.5l477 -20q66 0 163.5 12t131.5 31q31 -35 31 -105q0 -114 -242 -114l-428 6q-150 0 -217 -35q-39 57 -39 133zM358 394q0 52 17 141q86 55 154.5 55t106.5 -25.5t38 -81t-27 -137.5q-90 -57 -160.5 -57t-99.5 26.5t-29 78.5zM457 1281 q0 52 16 140q86 55 154.5 55.5t106.5 -25.5t38 -81t-27 -137q-90 -57 -160.5 -57t-99 26.5t-28.5 78.5z" />
<glyph unicode="&#xf8;" horiz-adv-x="1388" d="M139 530.5q0 198.5 74 390t223.5 330t339.5 148.5q96 274 234 274q33 0 64.5 -18.5t33.5 -61.5q-104 -57 -166 -215q147 -47 227 -194.5t80 -346t-73.5 -391t-222 -331t-337.5 -148.5q-53 -157 -99 -215.5t-107.5 -58.5t-108.5 49q57 66 91 141.5t48 106.5 q-145 49 -223 195.5t-78 345zM360 602q0 -301 138 -420q51 188 128.5 572.5t104.5 490.5l-33 2q-96 0 -166.5 -72.5t-105.5 -183.5q-66 -205 -66 -389zM653 117q109 0 189 72.5t116 183.5q70 211 70 391q0 309 -147 424q-55 -201 -139.5 -629t-88.5 -442z" />
<glyph unicode="&#xf9;" horiz-adv-x="1386" d="M184 313q0 113 38 352.5t38 411.5t-43 254q51 47 123 47q152 0 152 -155q0 -51 -48.5 -393.5t-48.5 -504t99 -161.5q82 0 198.5 192.5t198.5 433t82 356.5t-31 185q53 47 125 47q152 0 152 -155q0 -113 -39 -346.5t-39 -366.5q0 -291 96 -449q-61 -76 -139 -75 q-176 0 -176 432q0 41 24 268q-174 -412 -291 -563q-49 -66 -109.5 -111t-117.5 -45q-244 0 -244 346zM428 1823.5q0 21.5 27.5 39t82 17.5t103.5 -10q27 -47 95.5 -109.5t234.5 -187.5q-33 -57 -59.5 -57t-163 73.5t-215 129t-92 69.5t-13.5 35.5z" />
<glyph unicode="&#xfa;" horiz-adv-x="1386" d="M184 313q0 113 38 352.5t38 411.5t-43 254q51 47 123 47q152 0 152 -155q0 -51 -48.5 -393.5t-48.5 -504t99 -161.5q82 0 198.5 192.5t198.5 433t82 356.5t-31 185q53 47 125 47q152 0 152 -155q0 -113 -39 -346.5t-39 -366.5q0 -291 96 -449q-61 -76 -139 -75 q-176 0 -176 432q0 41 24 268q-174 -412 -291 -563q-49 -66 -109.5 -111t-117.5 -45q-244 0 -244 346zM528 1573q164 123 232.5 185.5t95.5 111.5q49 10 103.5 10t82 -17.5t27.5 -39t-13.5 -35.5t-92 -70.5t-213.5 -129t-166 -72.5q-27 0 -56 57z" />
<glyph unicode="&#xfb;" horiz-adv-x="1386" d="M184 313q0 113 38 352.5t38 411.5t-43 254q51 47 123 47q152 0 152 -155q0 -51 -48.5 -393.5t-48.5 -504t99 -161.5q82 0 198.5 192.5t198.5 433t82 356.5t-31 185q53 47 125 47q152 0 152 -155q0 -113 -39 -346.5t-39 -366.5q0 -291 96 -449q-61 -76 -139 -75 q-176 0 -176 432q0 41 24 268q-174 -412 -291 -563q-49 -66 -109.5 -111t-117.5 -45q-244 0 -244 346zM391 1573q190 143 256 227q20 29 43 70q35 10 98.5 10t94.5 -22q2 -2 17 -27t32.5 -50.5t42.5 -60.5q70 -90 131 -147q-28 -57 -55 -57q-45 0 -279 186 q-268 -186 -326 -186q-23 0 -55 57z" />
<glyph unicode="&#xfc;" horiz-adv-x="1386" d="M184 313q0 113 38 352.5t38 411.5t-43 254q51 47 123 47q152 0 152 -155q0 -51 -48.5 -393.5t-48.5 -504t99 -161.5q82 0 198.5 192.5t198.5 433t82 356.5t-31 185q53 47 125 47q152 0 152 -155q0 -113 -39 -346.5t-39 -366.5q0 -291 96 -449q-61 -76 -139 -75 q-176 0 -176 432q0 41 24 268q-174 -412 -291 -563q-49 -66 -109.5 -111t-117.5 -45q-244 0 -244 346zM416 1644.5q0 49.5 14 118.5q76 47 141 47q119 0 119 -88q0 -41 -22 -125q-76 -47 -138.5 -47t-88 22.5t-25.5 72zM895 1636q0 41 14 127q78 47 142 47q118 0 118 -88 q0 -51 -22 -125q-76 -47 -138.5 -47t-88 22.5t-25.5 63.5z" />
<glyph unicode="&#xfd;" horiz-adv-x="1153" d="M-170 -330q0 88 66 164q55 -182 243 -182q225 0 416 393q-61 0 -88 22.5t-39 67.5q-156 655 -247 876.5t-177 225.5q23 70 72 102.5t96 32.5q125 0 209 -211q55 -143 240 -968q109 270 175 554.5t66 444.5q0 59 -22 98q47 76 145 76q94 0 94 -104q0 -102 -84 -416 t-171 -532t-188 -405.5t-239.5 -308t-283.5 -120.5q-283 0 -283 190zM471 1573q164 123 232.5 185.5t95.5 111.5q49 10 103 10t82 -17.5t28 -39t-13.5 -35.5t-92.5 -70.5t-214 -129t-166 -72.5q-27 0 -55 57z" />
<glyph unicode="&#xfe;" horiz-adv-x="1464" d="M201 -242q0 353 92 962t92 838.5t-43 315.5q23 18 65 31.5t72 13.5q72 0 107 -49t35 -166q0 -156 -109 -840q-23 -143 -29 -188q137 348 268.5 536.5t243.5 188.5q139 0 234.5 -146.5t95.5 -439.5q0 -317 -133 -569q-63 -123 -173 -199t-247 -76q-86 0 -185.5 32 t-158.5 81q-10 -117 -10 -209q0 -258 96 -356q-59 -74 -137 -74q-176 0 -176 313zM442 186q131 -76 305.5 -75.5t269.5 181.5t95 460q0 188 -43 310t-131 122q-66 0 -165 -131t-195.5 -370t-135.5 -497z" />
<glyph unicode="&#xff;" horiz-adv-x="1153" d="M-170 -330q0 88 66 164q55 -182 243 -182q225 0 416 393q-61 0 -88 22.5t-39 67.5q-156 655 -247 876.5t-177 225.5q23 70 72 102.5t96 32.5q125 0 209 -211q55 -143 240 -968q109 270 175 554.5t66 444.5q0 59 -22 98q47 76 145 76q94 0 94 -104q0 -102 -84 -416 t-171 -532t-188 -405.5t-239.5 -308t-283.5 -120.5q-283 0 -283 190zM285 1644.5q0 49.5 14 118.5q76 47 141 47q119 0 119 -88q0 -41 -22 -125q-76 -47 -138.5 -47t-88 22.5t-25.5 72zM764 1636q0 41 14 127q78 47 142 47q118 0 118 -88q0 -51 -22 -125q-76 -47 -138.5 -47 t-88 22.5t-25.5 63.5z" />
<glyph unicode="&#x152;" horiz-adv-x="2025" d="M160 688q0 410 200 758q96 166 255 270.5t352 104.5q141 0 247 -66q84 21 236 21l332 -4q246 0 327 38q-10 -133 -64 -177t-171 -44q-193 0 -481 45q0 -137 -86 -653q395 4 524 68q-12 -162 -92 -201q-43 -23 -82 -28t-106.5 -5t-268.5 16q-63 -403 -63 -602q0 -41 2 -59 q168 -8 282 -8q387 0 488 53q-6 -82 -27.5 -131t-71 -71.5t-95.5 -27.5t-158.5 -5t-448.5 51q-158 -84 -383 -84t-373 102q-274 193 -274 639zM381 778q0 -322 119.5 -491.5t328.5 -169.5q74 0 160 28v37q0 131 85 620.5t87 698.5q-117 158 -319 158q-106 0 -190.5 -68.5 t-133.5 -168t-82 -226.5q-55 -211 -55 -418z" />
<glyph unicode="&#x153;" horiz-adv-x="2072" d="M139 530q0 150 47 302.5t129 280.5t211 208t275.5 80t247 -75t151.5 -206q197 281 483 281q158 0 239 -78t81 -201q0 -199 -183 -373t-470 -174q-55 0 -111 7q2 -227 85 -346t232 -119q211 0 308 207q49 -47 49 -115q0 -115 -128 -179.5t-267 -64.5q-332 0 -449 281 q-197 -281 -483 -281q-213 0 -330 160t-117 405zM360 576.5q0 -209.5 86 -334.5t240 -125q98 0 170 72.5t107 183.5q66 211 65.5 418.5t-87.5 331.5t-243 124q-96 0 -166.5 -72.5t-105.5 -183.5q-66 -205 -66 -414.5zM1243 713q49 -6 92 -6q209 0 331 107.5t122 240.5 q0 84 -52.5 138t-143.5 54t-157.5 -51t-103.5 -137q-72 -160 -88 -346z" />
<glyph unicode="&#x178;" horiz-adv-x="1130" d="M55 1686q23 70 74 102.5t98 32.5q123 0 199 -213q88 -260 192 -750q57 117 162 290t158 286.5t53 189.5t-20 115q53 74 146 73.5t93 -98.5q0 -76 -89 -238.5t-124.5 -226t-130 -221.5t-108.5 -180q-72 -121 -90 -221q-25 -197 -25 -310q0 -176 74 -258 q-63 -74 -141 -73.5t-117 58.5t-39 177t47 412q-211 1053 -412 1053zM369 1995q0 49 14 119q76 47 141 47q119 0 119 -88q0 -41 -22 -125q-76 -47 -138.5 -47t-88 22.5t-25.5 71.5zM848 1987q0 41 14 127q78 47 142 47q118 0 118 -88q0 -51 -22 -125q-76 -47 -138.5 -47 t-88 22.5t-25.5 63.5z" />
<glyph unicode="&#x2c6;" horiz-adv-x="632" d="M328 1573q193 143 254 227q23 29 45 70q35 10 98 10t94 -22q2 -2 17.5 -27t33 -50.5t43.5 -60.5q68 -90 129 -147q-28 -57 -55 -57q-45 0 -278 186q-268 -186 -326 -186q-23 0 -55 57z" />
<glyph unicode="&#x2dc;" horiz-adv-x="1024" d="M276 1612q0 88 59.5 161.5t134.5 73.5t127 -33.5t93 -67.5t80 -34t67.5 35t39.5 102q90 1 90 -65q0 -88 -59.5 -162t-134.5 -74t-127 34t-93 67.5t-80 33.5t-67.5 -34.5t-38.5 -102.5q-90 0 -91 66z" />
<glyph unicode="&#x2000;" horiz-adv-x="1172" />
<glyph unicode="&#x2001;" horiz-adv-x="2345" />
<glyph unicode="&#x2002;" horiz-adv-x="1172" />
<glyph unicode="&#x2003;" horiz-adv-x="2345" />
<glyph unicode="&#x2004;" horiz-adv-x="781" />
<glyph unicode="&#x2005;" horiz-adv-x="586" />
<glyph unicode="&#x2006;" horiz-adv-x="390" />
<glyph unicode="&#x2007;" horiz-adv-x="390" />
<glyph unicode="&#x2008;" horiz-adv-x="293" />
<glyph unicode="&#x2009;" horiz-adv-x="469" />
<glyph unicode="&#x200a;" horiz-adv-x="130" />
<glyph unicode="&#x2010;" horiz-adv-x="718" d="M78 824.5q0 84.5 129 84.5l305 -22q96 0 162 45q31 -41 31 -107q-1 -123 -216 -123l-180 9q-117 0 -182 -37q-49 66 -49 150.5z" />
<glyph unicode="&#x2011;" horiz-adv-x="718" d="M78 824.5q0 84.5 129 84.5l305 -22q96 0 162 45q31 -41 31 -107q-1 -123 -216 -123l-180 9q-117 0 -182 -37q-49 66 -49 150.5z" />
<glyph unicode="&#x2012;" horiz-adv-x="718" d="M78 824.5q0 84.5 129 84.5l305 -22q96 0 162 45q31 -41 31 -107q-1 -123 -216 -123l-180 9q-117 0 -182 -37q-49 66 -49 150.5z" />
<glyph unicode="&#x2013;" horiz-adv-x="1574" d="M0 897q0 45 36 69.5t95 24.5l870 -22q125 0 300.5 13t238.5 36q37 -47 37 -109q0 -123 -250 -123l-1061 9q-156 0 -221 -41q-45 63 -45 143z" />
<glyph unicode="&#x2014;" horiz-adv-x="1814" d="M0 897q0 45 36 69.5t95 24.5l1110 -22q125 0 300 13t239 36q37 -47 37 -109q0 -123 -248 -123l-1303 9q-156 0 -221 -41q-45 63 -45 143z" />
<glyph unicode="&#x2018;" horiz-adv-x="550" d="M200.5 1428.5q0.5 148.5 113 276.5t257.5 128q70 0 70 -57q0 -25 -2 -43q-11 2 -31 2q-78 0 -125 -64.5t-47 -162t68 -152.5q-96 -76 -193 -76q-111 0 -110.5 148.5z" />
<glyph unicode="&#x2019;" horiz-adv-x="550" d="M150 1337q0 25 2 43q10 -2 30 -2q78 0 125 64.5t47 162t-67 152.5q96 76 192 76q111 0 111 -148.5t-112.5 -276.5t-258.5 -128q-70 0 -69 57z" />
<glyph unicode="&#x201a;" horiz-adv-x="653" d="M51 -223q0 25 2 43q11 -2 31 -2q78 0 125 64.5t47 161.5t-68 153q96 76 193 75q111 0 111 -148.5t-113 -276.5t-258 -128q-70 0 -70 58z" />
<glyph unicode="&#x201c;" horiz-adv-x="1001" d="M200.5 1428.5q0.5 148.5 113 276.5t257.5 128q70 0 70 -57q0 -25 -2 -43q-11 2 -31 2q-78 0 -125 -64.5t-47 -162t68 -152.5q-96 -76 -193 -76q-111 0 -110.5 148.5zM651 1428.5q0 148.5 113 276.5t258 128q70 0 70 -57q0 -25 -2 -43q-11 2 -31 2q-78 0 -125 -64.5 t-47 -162t67 -152.5q-96 -76 -192 -76q-111 0 -111 148.5z" />
<glyph unicode="&#x201d;" horiz-adv-x="1001" d="M150 1337q0 25 2 43q10 -2 30 -2q78 0 125 64.5t47 162t-67 152.5q96 76 192 76q111 0 111 -148.5t-112.5 -276.5t-258.5 -128q-70 0 -69 57zM600 1337q0 25 2 43q11 -2 31 -2q78 0 125 64.5t47 162t-68 152.5q96 76 193 76q111 0 110.5 -148.5t-113 -276.5t-257.5 -128 q-70 0 -70 57z" />
<glyph unicode="&#x201e;" horiz-adv-x="1103" d="M51 -223q0 25 2 43q11 -2 31 -2q78 0 125 64.5t47 161.5t-68 153q96 76 193 75q111 0 111 -148.5t-113 -276.5t-258 -128q-70 0 -70 58zM502 -223q0 25 2 43q11 -2 31 -2q78 0 125 64.5t47 161.5t-68 153q96 76 192 75q111 0 111 -148.5t-112.5 -276.5t-258.5 -128 q-70 0 -69 58z" />
<glyph unicode="&#x2022;" horiz-adv-x="735" d="M147 737.5q0 73.5 23 198.5q121 78 218 78t151.5 -36t54.5 -114t-39 -196q-123 -82 -224.5 -82t-142.5 39t-41 112.5z" />
<glyph unicode="&#x2026;" horiz-adv-x="1814" d="M145 77q0 52 17 140q86 55 154.5 55t106.5 -25.5t38 -80.5t-27 -137q-90 -57 -160.5 -57.5t-99.5 26.5t-29 79zM750 77q0 52 16 140q86 55 154.5 55t106.5 -25.5t38 -78.5t-25 -139q-92 -57 -161.5 -57.5t-99 26.5t-29.5 79zM1356 73q0 48 14 144q88 55 166 55 q133 0 133 -102q0 -66 -24 -141q-90 -57 -161 -57.5t-99.5 26.5t-28.5 75z" />
<glyph unicode="&#x202f;" horiz-adv-x="469" />
<glyph unicode="&#x2039;" horiz-adv-x="641" d="M82 725q70 25 106.5 87t47 132t22.5 137.5t54 111.5t127 44t124 -33q-63 -33 -99 -103.5t-46 -139t-41 -137t-86 -99.5q53 -29 73.5 -96.5t20.5 -132.5l-2 -13q0 -66 23.5 -135t82.5 -102q-39 -33 -117.5 -33t-114.5 31.5t-42 81t-9 111t-5 116.5t-32 103.5t-87 68.5z " />
<glyph unicode="&#x203a;" horiz-adv-x="641" d="M78 246q63 33 99 103.5t46 139t41 137t86 99.5q-53 29 -73.5 96.5t-20.5 132.5l2 13q0 66 -23.5 135t-82.5 102q39 33 117.5 33t114.5 -31.5t42 -81t9 -111t5 -116.5t32 -103.5t87 -68.5q-70 -25 -106.5 -87.5t-47 -132t-22.5 -137t-54 -111.5t-127 -44t-124 33z" />
<glyph unicode="&#x205f;" horiz-adv-x="586" />
<glyph unicode="&#x20ac;" horiz-adv-x="1245" d="M-70 664q0 94 127 94q16 0 103 -4q6 104 28 229q-135 -4 -194 -37q-43 63 -43 115q0 94 127 94q53 0 149 -6q90 293 275.5 480.5t445.5 187.5q139 0 228.5 -50.5t89.5 -142.5q0 -51 -19.5 -95t-36 -62.5t-49.5 -47.5q-51 117 -125.5 178.5t-193.5 61.5 q-168 0 -270.5 -149.5t-151.5 -372.5q49 -4 116.5 -4t162 12t128.5 31q35 -37 35 -95q0 -104 -239 -104q-135 0 -230 2q-12 -115 -12 -197v-43q115 -4 159 -4t138 12.5t129 30.5q35 -37 35 -94q0 -104 -240 -104q-10 0 -85 1t-126 1q61 -481 414 -482q115 0 204 72t136 209 q51 -57 51 -141q0 -106 -138 -194.5t-310 -88.5q-274 0 -419 172t-165 457q-131 -4 -191 -37q-43 63 -43 115z" />
<glyph unicode="&#x2122;" horiz-adv-x="1972" d="M205 1780q6 98 37.5 134t97.5 36l448 -4q111 0 166 32q-6 -102 -35.5 -135t-80 -33t-189.5 15q-8 -109 -52 -366t-44 -370.5t51 -168.5q-51 -57 -102 -58q-106 0 -107 174q0 86 44 361.5t44 427.5q-158 0 -278 -45zM922 1036q0 72 44 342.5t44 386t-29 172.5 q43 35 106 35q131 0 173 -155q16 -61 52 -226.5t64 -261.5q35 84 101 221q147 303 147 385q47 37 110.5 37t87 -31.5t23.5 -113.5t-46 -343t-46 -385t51 -179q-51 -57 -104 -58q-109 0 -109 174q0 72 41 322t47 360q-8 -16 -48 -94t-59.5 -119t-47.5 -108q-55 -127 -56 -207 q2 -16 7 -31q-29 -37 -94.5 -37t-96.5 36t-53.5 121t-48 204t-45.5 196q-6 -45 -43 -259t-37 -327.5t51 -168.5q-27 -61 -82 -62q-104 0 -104 174z" />
<glyph unicode="&#x25fc;" horiz-adv-x="1372" d="M0 0v1372h1372v-1372h-1372z" />
</font>
</defs>
</svg>
